# Blender 4.1.1
# www.blender.org
mtllib player.mtl
o 球
v 0.000000 0.258245 -0.606390
v 0.000000 -0.046730 -0.831470
v 0.000000 -0.407761 -0.980785
v 0.000000 -0.602852 -1.000000
v 0.000000 -0.793321 -0.980785
v 0.000000 -0.961853 -0.831470
v 0.038060 0.486788 -0.429044
v 0.074658 0.383657 -0.501945
v 0.108386 0.258245 -0.595715
v 0.137950 0.113527 -0.703372
v 0.162212 -0.046730 -0.815493
v 0.180240 -0.220168 -0.906127
v 0.191342 -0.407761 -0.961940
v 0.195090 -0.602852 -0.980785
v 0.191342 -0.793321 -0.961940
v 0.180240 -0.915937 -0.906127
v 0.162212 -0.961853 -0.815493
v 0.137950 -0.955139 -0.693520
v 0.108386 -0.930423 -0.544895
v 0.074658 -0.931647 -0.375330
v 0.038060 -0.950585 -0.191342
v 0.074658 0.486788 -0.417943
v 0.146447 0.383657 -0.480168
v 0.212608 0.258245 -0.564099
v 0.270598 0.113527 -0.663134
v 0.318190 -0.046730 -0.768178
v 0.353553 -0.220168 -0.853553
v 0.375330 -0.407761 -0.906127
v 0.382683 -0.602852 -0.923879
v 0.375330 -0.793321 -0.906127
v 0.353553 -0.915937 -0.853553
v 0.318190 -0.961853 -0.768178
v 0.270598 -0.955139 -0.653281
v 0.212608 -0.930423 -0.513280
v 0.146447 -0.931647 -0.353553
v 0.074658 -0.950585 -0.180240
v 0.108386 0.486788 -0.399914
v 0.212608 0.383657 -0.444805
v 0.308658 0.258245 -0.512759
v 0.392847 0.113527 -0.597790
v 0.461940 -0.046730 -0.691342
v 0.513280 -0.220168 -0.768178
v 0.544895 -0.407761 -0.815493
v 0.555570 -0.602852 -0.831469
v 0.544895 -0.793321 -0.815493
v 0.513280 -0.915937 -0.768178
v 0.461940 -0.961853 -0.691342
v 0.392847 -0.955139 -0.587938
v 0.308658 -0.930423 -0.461940
v 0.212608 -0.931647 -0.318190
v 0.108386 -0.950585 -0.162212
v 0.137950 0.486788 -0.375652
v 0.270598 0.383657 -0.397213
v 0.392847 0.258245 -0.443667
v 0.500000 0.113527 -0.509852
v 0.587938 -0.046730 -0.587938
v 0.653281 -0.220168 -0.653281
v 0.693520 -0.407761 -0.693520
v 0.707107 -0.602852 -0.707107
v 0.693520 -0.793321 -0.693520
v 0.653281 -0.915937 -0.653281
v 0.587938 -0.961853 -0.587938
v 0.500000 -0.955139 -0.500000
v 0.392847 -0.930423 -0.392847
v 0.270598 -0.931647 -0.270598
v 0.137950 -0.950585 -0.137950
v 0.162212 0.486788 -0.346089
v 0.318190 0.383657 -0.339222
v 0.461940 0.258245 -0.359478
v 0.587938 0.113527 -0.402700
v 0.691342 -0.046730 -0.461940
v 0.768178 -0.220168 -0.513280
v 0.815493 -0.407761 -0.544895
v 0.831470 -0.602852 -0.555570
v 0.815493 -0.793321 -0.544895
v 0.768178 -0.915937 -0.513280
v 0.691342 -0.961853 -0.461940
v 0.587938 -0.955139 -0.392847
v 0.461940 -0.930423 -0.308658
v 0.318190 -0.931647 -0.212608
v 0.162212 -0.950585 -0.108386
v 0.000000 0.565560 -0.381252
v 0.180240 0.486788 -0.312361
v 0.353553 0.383657 -0.273062
v 0.513280 0.258245 -0.263427
v 0.653281 0.113527 -0.280450
v 0.768178 -0.046730 -0.318190
v 0.853553 -0.220168 -0.353553
v 0.906127 -0.407761 -0.375330
v 0.923879 -0.602852 -0.382683
v 0.906127 -0.793321 -0.375330
v 0.853553 -0.915937 -0.353553
v 0.768178 -0.961853 -0.318190
v 0.653281 -0.955139 -0.270598
v 0.513280 -0.930423 -0.212607
v 0.353553 -0.931647 -0.146447
v 0.180240 -0.950585 -0.074658
v 0.191342 0.486788 -0.275763
v 0.375330 0.383657 -0.201273
v 0.544895 0.258245 -0.159206
v 0.693520 0.113527 -0.147802
v 0.815493 -0.046730 -0.162212
v 0.906127 -0.220168 -0.180240
v 0.961940 -0.407761 -0.191342
v 0.980785 -0.602852 -0.195090
v 0.961940 -0.793321 -0.191342
v 0.906127 -0.915937 -0.180240
v 0.815493 -0.961853 -0.162212
v 0.693520 -0.955139 -0.137950
v 0.544895 -0.930423 -0.108386
v 0.375330 -0.931647 -0.074658
v 0.191342 -0.950585 -0.038060
v 0.195090 0.486788 -0.237703
v 0.382683 0.383657 -0.126615
v 0.555570 0.258245 -0.050820
v 0.707107 0.113527 -0.009852
v 0.831469 -0.046730 0.000000
v 0.923879 -0.220168 -0.000000
v 0.980785 -0.407761 0.000000
v 1.000000 -0.602852 0.000000
v 0.980785 -0.793321 0.000000
v 0.923879 -0.915937 -0.000000
v 0.831469 -0.961853 0.000000
v 0.707107 -0.955139 -0.000000
v 0.555570 -0.930423 0.000000
v 0.382683 -0.931647 0.000000
v 0.195090 -0.950585 0.000000
v 0.191342 0.486788 -0.199642
v 0.375330 0.383657 -0.051957
v 0.544895 0.258245 0.057567
v 0.693520 0.113527 0.128097
v 0.815493 -0.046730 0.162212
v 0.906127 -0.220168 0.180240
v 0.961940 -0.407761 0.191342
v 0.980785 -0.602852 0.195090
v 0.961940 -0.793321 0.191342
v 0.906127 -0.915937 0.180240
v 0.815493 -0.961853 0.162212
v 0.693520 -0.955139 0.137950
v 0.544895 -0.930423 0.108386
v 0.375330 -0.931647 0.074658
v 0.191342 -0.950585 0.038060
v 0.180240 0.486788 -0.163045
v 0.353553 0.383657 0.019832
v 0.513280 0.258245 0.161788
v 0.653281 0.113527 0.260746
v 0.768178 -0.046730 0.318190
v 0.853553 -0.220168 0.353553
v 0.906127 -0.407761 0.375330
v 0.923879 -0.602852 0.382683
v 0.906127 -0.793321 0.375330
v 0.853553 -0.915937 0.353553
v 0.768178 -0.961853 0.318190
v 0.653281 -0.955139 0.270598
v 0.513280 -0.930423 0.212608
v 0.353553 -0.931647 0.146447
v 0.180240 -0.950585 0.074658
v 0.162212 0.486788 -0.129316
v 0.318190 0.383657 0.085993
v 0.461940 0.258245 0.257839
v 0.587938 0.113527 0.382995
v 0.691341 -0.046730 0.461940
v 0.768178 -0.220168 0.513280
v 0.815493 -0.407761 0.544895
v 0.831469 -0.602852 0.555570
v 0.815493 -0.793321 0.544895
v 0.768178 -0.915937 0.513280
v 0.691341 -0.961853 0.461940
v 0.587938 -0.955139 0.392847
v 0.461940 -0.930423 0.308658
v 0.318190 -0.931647 0.212608
v 0.162212 -0.950585 0.108386
v 0.137950 0.486788 -0.099753
v 0.270598 0.383657 0.143983
v 0.392847 0.258245 0.342028
v 0.500000 0.113527 0.490148
v 0.587938 -0.046730 0.587938
v 0.653281 -0.220168 0.653281
v 0.693520 -0.407761 0.693520
v 0.707106 -0.602852 0.707107
v 0.693520 -0.793321 0.693520
v 0.653281 -0.915937 0.653281
v 0.587938 -0.961853 0.587938
v 0.500000 -0.955139 0.500000
v 0.392847 -0.930423 0.392847
v 0.270598 -0.931647 0.270598
v 0.137950 -0.950585 0.137950
v 0.108386 0.486788 -0.075491
v 0.212607 0.383657 0.191575
v 0.308658 0.258245 0.411120
v 0.392847 0.113527 0.578085
v 0.461940 -0.046730 0.691342
v 0.513280 -0.220168 0.768178
v 0.544895 -0.407761 0.815493
v 0.555570 -0.602852 0.831469
v 0.544895 -0.793321 0.815493
v 0.513280 -0.915937 0.768178
v 0.461940 -0.961853 0.691342
v 0.392847 -0.955139 0.587938
v 0.308658 -0.930423 0.461940
v 0.212607 -0.931647 0.318190
v 0.108386 -0.950585 0.162212
v 0.074658 0.486788 -0.057463
v 0.146447 0.383657 0.226938
v 0.212607 0.258245 0.462460
v 0.270598 0.113527 0.643429
v 0.318189 -0.046730 0.768178
v 0.353553 -0.220168 0.853553
v 0.375330 -0.407761 0.906127
v 0.382683 -0.602852 0.923879
v 0.375330 -0.793321 0.906127
v 0.353553 -0.915937 0.853553
v 0.318189 -0.961853 0.768178
v 0.270598 -0.955139 0.653281
v 0.212607 -0.930423 0.513280
v 0.146447 -0.931647 0.353553
v 0.074658 -0.950585 0.180240
v 0.038060 0.486788 -0.046361
v 0.074658 0.383657 0.248715
v 0.108386 0.258245 0.494075
v 0.137950 0.113527 0.683668
v 0.162212 -0.046730 0.815493
v 0.180240 -0.220168 0.906127
v 0.191342 -0.407761 0.961939
v 0.195090 -0.602852 0.980785
v 0.191342 -0.793321 0.961939
v 0.180240 -0.915937 0.906127
v 0.162212 -0.961853 0.815493
v 0.137950 -0.955139 0.693520
v 0.108386 -0.930423 0.544895
v 0.074658 -0.931647 0.375330
v 0.038060 -0.950585 0.191342
v -0.000000 0.486788 -0.042613
v -0.000000 0.383657 0.256068
v -0.000000 0.258245 0.504750
v -0.000000 0.113527 0.697254
v -0.000000 -0.046730 0.831469
v 0.000000 -0.220168 0.923879
v -0.000000 -0.407761 0.980785
v -0.000000 -0.602852 0.999999
v -0.000000 -0.793321 0.980785
v 0.000000 -0.915937 0.923879
v -0.000000 -0.961853 0.831469
v -0.000000 -0.955139 0.707107
v -0.000000 -0.930423 0.555570
v -0.000000 -0.931647 0.382683
v -0.000000 -0.950585 0.195090
v -0.038060 0.486788 -0.046361
v -0.074658 0.383657 0.248715
v -0.108386 0.258245 0.494075
v -0.137950 0.113527 0.683668
v -0.162212 -0.046730 0.815493
v -0.180240 -0.220168 0.906127
v -0.191342 -0.407761 0.961939
v -0.195091 -0.602852 0.980785
v -0.191342 -0.793321 0.961939
v -0.180240 -0.915937 0.906127
v -0.162212 -0.961853 0.815493
v -0.137950 -0.955139 0.693520
v -0.108386 -0.930423 0.544895
v -0.074658 -0.931647 0.375330
v -0.038060 -0.950585 0.191342
v -0.074658 0.486788 -0.057463
v -0.146447 0.383657 0.226938
v -0.212608 0.258245 0.462460
v -0.270598 0.113527 0.643429
v -0.318190 -0.046730 0.768177
v -0.353553 -0.220168 0.853553
v -0.375330 -0.407761 0.906127
v -0.382683 -0.602852 0.923879
v -0.375330 -0.793321 0.906127
v -0.353553 -0.915937 0.853553
v -0.318190 -0.961853 0.768177
v -0.270598 -0.955139 0.653281
v -0.212608 -0.930423 0.513280
v -0.146447 -0.931647 0.353553
v -0.074658 -0.950585 0.180240
v -0.108386 0.486788 -0.075491
v -0.212608 0.383657 0.191575
v -0.308658 0.258245 0.411120
v -0.392847 0.113527 0.578085
v -0.461940 -0.046730 0.691341
v -0.513280 -0.220168 0.768178
v -0.544895 -0.407761 0.815493
v -0.555570 -0.602852 0.831469
v -0.544895 -0.793321 0.815493
v -0.513280 -0.915937 0.768178
v -0.461940 -0.961853 0.691341
v -0.392847 -0.955139 0.587938
v -0.308658 -0.930423 0.461939
v -0.212608 -0.931647 0.318190
v -0.108386 -0.950585 0.162212
v -0.137950 0.486788 -0.099753
v -0.270598 0.383657 0.143983
v -0.392847 0.258245 0.342027
v -0.500000 0.113527 0.490148
v -0.587938 -0.046730 0.587937
v -0.653281 -0.220168 0.653281
v -0.693520 -0.407761 0.693520
v -0.707106 -0.602852 0.707106
v -0.693520 -0.793321 0.693520
v -0.653281 -0.915937 0.653281
v -0.587938 -0.961853 0.587937
v -0.500000 -0.955139 0.500000
v -0.392847 -0.930423 0.392847
v -0.270598 -0.931647 0.270598
v -0.137950 -0.950585 0.137950
v 0.000000 -0.953792 0.000000
v -0.162212 0.486788 -0.129317
v -0.318190 0.383657 0.085992
v -0.461940 0.258245 0.257838
v -0.587938 0.113527 0.382995
v -0.691341 -0.046730 0.461939
v -0.768177 -0.220168 0.513280
v -0.815493 -0.407761 0.544895
v -0.831469 -0.602852 0.555569
v -0.815493 -0.793321 0.544895
v -0.768177 -0.915937 0.513280
v -0.691341 -0.961853 0.461939
v -0.587938 -0.955139 0.392847
v -0.461940 -0.930423 0.308658
v -0.318190 -0.931647 0.212607
v -0.162212 -0.950585 0.108386
v -0.180240 0.486788 -0.163045
v -0.353553 0.383657 0.019832
v -0.513280 0.258245 0.161788
v -0.653281 0.113527 0.260746
v -0.768177 -0.046730 0.318189
v -0.853553 -0.220168 0.353553
v -0.906127 -0.407761 0.375330
v -0.923879 -0.602852 0.382683
v -0.906127 -0.793321 0.375330
v -0.853553 -0.915937 0.353553
v -0.768177 -0.961853 0.318189
v -0.653281 -0.955139 0.270598
v -0.513280 -0.930423 0.212607
v -0.353553 -0.931647 0.146447
v -0.180240 -0.950585 0.074658
v -0.191342 0.486788 -0.199643
v -0.375330 0.383657 -0.051957
v -0.544895 0.258245 0.057566
v -0.693520 0.113527 0.128097
v -0.815493 -0.046730 0.162211
v -0.906127 -0.220168 0.180240
v -0.961939 -0.407761 0.191341
v -0.980784 -0.602852 0.195090
v -0.961939 -0.793321 0.191341
v -0.906127 -0.915937 0.180240
v -0.815493 -0.961853 0.162211
v -0.693520 -0.955139 0.137950
v -0.544895 -0.930423 0.108386
v -0.375330 -0.931647 0.074658
v -0.191342 -0.950585 0.038060
v -0.195090 0.486788 -0.237703
v -0.382683 0.383657 -0.126615
v -0.555570 0.258245 -0.050820
v -0.707107 0.113527 -0.009852
v -0.831469 -0.046730 -0.000000
v -0.923879 -0.220168 -0.000000
v -0.980785 -0.407761 -0.000000
v -0.999999 -0.602852 -0.000000
v -0.980785 -0.793321 -0.000000
v -0.923879 -0.915937 -0.000000
v -0.831469 -0.961853 -0.000000
v -0.707107 -0.955139 -0.000000
v -0.555570 -0.930423 -0.000000
v -0.382683 -0.931647 -0.000000
v -0.195090 -0.950585 -0.000000
v -0.191342 0.486788 -0.275763
v -0.375330 0.383657 -0.201273
v -0.544895 0.258245 -0.159206
v -0.693520 0.113527 -0.147802
v -0.815493 -0.046730 -0.162212
v -0.906127 -0.220168 -0.180240
v -0.961939 -0.407761 -0.191342
v -0.980784 -0.602852 -0.195091
v -0.961939 -0.793321 -0.191342
v -0.906127 -0.915937 -0.180240
v -0.815493 -0.961853 -0.162212
v -0.693520 -0.955139 -0.137950
v -0.544895 -0.930423 -0.108386
v -0.375330 -0.931647 -0.074658
v -0.191342 -0.950585 -0.038060
v -0.180240 0.486788 -0.312361
v -0.353553 0.383657 -0.273062
v -0.513279 0.258245 -0.263427
v -0.653281 0.113527 -0.280450
v -0.768177 -0.046730 -0.318190
v -0.853553 -0.220168 -0.353553
v -0.906127 -0.407761 -0.375330
v -0.923878 -0.602852 -0.382683
v -0.906127 -0.793321 -0.375330
v -0.853553 -0.915937 -0.353553
v -0.768177 -0.961853 -0.318190
v -0.653281 -0.955139 -0.270598
v -0.513279 -0.930423 -0.212607
v -0.353553 -0.931647 -0.146447
v -0.180240 -0.950585 -0.074658
v -0.162212 0.486788 -0.346089
v -0.318189 0.383657 -0.339222
v -0.461939 0.258245 -0.359478
v -0.587938 0.113527 -0.402700
v -0.691341 -0.046730 -0.461940
v -0.768177 -0.220168 -0.513280
v -0.815493 -0.407761 -0.544895
v -0.831468 -0.602852 -0.555570
v -0.815493 -0.793321 -0.544895
v -0.768177 -0.915937 -0.513280
v -0.691341 -0.961853 -0.461940
v -0.587938 -0.955139 -0.392847
v -0.461939 -0.930423 -0.308658
v -0.318189 -0.931647 -0.212607
v -0.162212 -0.950585 -0.108386
v -0.137950 0.486788 -0.375652
v -0.270598 0.383657 -0.397213
v -0.392847 0.258245 -0.443667
v -0.500000 0.113527 -0.509852
v -0.587937 -0.046730 -0.587938
v -0.653281 -0.220168 -0.653281
v -0.693519 -0.407761 -0.693520
v -0.707106 -0.602852 -0.707106
v -0.693519 -0.793321 -0.693520
v -0.653281 -0.915937 -0.653281
v -0.587937 -0.961853 -0.587938
v -0.500000 -0.955139 -0.500000
v -0.392847 -0.930423 -0.392847
v -0.270598 -0.931647 -0.270598
v -0.137950 -0.950585 -0.137950
v -0.108386 0.486788 -0.399914
v -0.212607 0.383657 -0.444804
v -0.308658 0.258245 -0.512759
v -0.392847 0.113527 -0.597790
v -0.461939 -0.046730 -0.691341
v -0.513280 -0.220168 -0.768177
v -0.544895 -0.407761 -0.815493
v -0.555569 -0.602852 -0.831469
v -0.544895 -0.793321 -0.815493
v -0.513280 -0.915937 -0.768177
v -0.461939 -0.961853 -0.691341
v -0.392847 -0.955139 -0.587938
v -0.308658 -0.930423 -0.461939
v -0.212607 -0.931647 -0.318190
v -0.108386 -0.950585 -0.162212
v -0.074658 0.486788 -0.417943
v -0.146446 0.383657 -0.480168
v -0.212607 0.258245 -0.564099
v -0.270598 0.113527 -0.663134
v -0.318189 -0.046730 -0.768177
v -0.353553 -0.220168 -0.853553
v -0.375330 -0.407761 -0.906127
v -0.382683 -0.602852 -0.923879
v -0.375330 -0.793321 -0.906127
v -0.353553 -0.915937 -0.853553
v -0.318189 -0.961853 -0.768177
v -0.270598 -0.955139 -0.653281
v -0.212607 -0.930423 -0.513279
v -0.146446 -0.931647 -0.353553
v -0.074658 -0.950585 -0.180240
v -0.038060 0.486788 -0.429044
v -0.074658 0.383657 -0.501945
v -0.108386 0.258245 -0.595714
v -0.137950 0.113527 -0.703372
v -0.162211 -0.046730 -0.815493
v -0.180240 -0.220168 -0.906127
v -0.191341 -0.407761 -0.961939
v -0.195090 -0.602852 -0.980784
v -0.191341 -0.793321 -0.961939
v -0.180240 -0.915937 -0.906127
v -0.162211 -0.961853 -0.815493
v -0.137950 -0.955139 -0.693520
v -0.108386 -0.930423 -0.544895
v -0.074658 -0.931647 -0.375330
v -0.038060 -0.950585 -0.191342
v 0.000000 0.486788 -0.432793
v 0.000000 0.383657 -0.509298
v 0.000000 0.113527 -0.716959
v 0.000000 -0.220168 -0.923879
v 0.000000 -0.915937 -0.923879
v 0.000000 -0.955139 -0.707107
v 0.000000 -0.930423 -0.555570
v 0.000000 -0.931647 -0.382683
v 0.000000 -0.950585 -0.195090
vn -0.0000 0.6095 -0.7928
vn -0.0000 0.5251 -0.8510
vn -0.0000 0.1939 -0.9810
vn -0.0000 -0.0012 -1.0000
vn -0.0000 -0.2617 -0.9651
vn -0.0000 -0.9761 -0.2174
vn 0.1598 0.5888 -0.7923
vn 0.1554 0.6127 -0.7749
vn 0.1549 0.6138 -0.7741
vn 0.1574 0.5955 -0.7878
vn 0.1662 0.5254 -0.8344
vn 0.1805 0.3799 -0.9072
vn 0.1914 0.1939 -0.9622
vn 0.1951 -0.0012 -0.9808
vn 0.1883 -0.2617 -0.9466
vn 0.1417 -0.6875 -0.7123
vn 0.0424 -0.9761 -0.2132
vn -0.0203 -0.9945 0.1023
vn -0.0161 -0.9966 0.0809
vn 0.0099 -0.9987 -0.0499
vn 0.0119 -0.9981 -0.0599
vn 0.2993 0.6316 -0.7152
vn 0.2972 0.6360 -0.7122
vn 0.2999 0.6261 -0.7198
vn 0.3073 0.6004 -0.7383
vn 0.3258 0.5264 -0.7854
vn 0.3540 0.3799 -0.8546
vn 0.3754 0.1939 -0.9063
vn 0.3827 -0.0012 -0.9239
vn 0.3693 -0.2617 -0.8917
vn 0.2779 -0.6874 -0.6710
vn 0.0832 -0.9761 -0.2008
vn -0.0399 -0.9945 0.0963
vn -0.0316 -0.9966 0.0762
vn 0.0195 -0.9987 -0.0470
vn 0.0234 -0.9981 -0.0565
vn 0.4044 0.6887 -0.6018
vn 0.4142 0.6699 -0.6162
vn 0.4263 0.6448 -0.6344
vn 0.4426 0.6082 -0.6589
vn 0.4724 0.5279 -0.7058
vn 0.5139 0.3799 -0.7691
vn 0.5450 0.1939 -0.8157
vn 0.5556 -0.0012 -0.8315
vn 0.5362 -0.2617 -0.8025
vn 0.4035 -0.6874 -0.6038
vn 0.1208 -0.9761 -0.1807
vn -0.0579 -0.9945 0.0867
vn -0.0458 -0.9966 0.0686
vn 0.0283 -0.9987 -0.0423
vn 0.0340 -0.9981 -0.0508
vn 0.4697 0.7478 -0.4691
vn 0.4998 0.7090 -0.4975
vn 0.5276 0.6681 -0.5247
vn 0.5574 0.6183 -0.5541
vn 0.6002 0.5300 -0.5991
vn 0.6541 0.3799 -0.6541
vn 0.6937 0.1939 -0.6937
vn 0.7071 -0.0012 -0.7071
vn 0.6825 -0.2617 -0.6825
vn 0.5135 -0.6874 -0.5135
vn 0.1537 -0.9761 -0.1537
vn -0.0737 -0.9945 0.0737
vn -0.0583 -0.9966 0.0583
vn 0.0360 -0.9987 -0.0360
vn 0.0432 -0.9981 -0.0432
vn 0.4976 0.8006 -0.3337
vn 0.5518 0.7485 -0.3677
vn 0.6000 0.6936 -0.3986
vn 0.6471 0.6300 -0.4293
vn 0.7043 0.5324 -0.4695
vn 0.7691 0.3799 -0.5139
vn 0.8157 0.1939 -0.5450
vn 0.8315 -0.0012 -0.5556
vn 0.8025 -0.2617 -0.5362
vn 0.6038 -0.6874 -0.4035
vn 0.1807 -0.9761 -0.1208
vn -0.0867 -0.9945 0.0579
vn -0.0686 -0.9966 0.0458
vn 0.0423 -0.9987 -0.0283
vn 0.0508 -0.9981 -0.0340
vn -0.0000 0.9272 -0.3747
vn 0.4952 0.8437 -0.2072
vn 0.5724 0.7850 -0.2370
vn 0.6423 0.7195 -0.2643
vn 0.7088 0.6427 -0.2908
vn 0.7808 0.5352 -0.3223
vn 0.8546 0.3799 -0.3540
vn 0.9063 0.1939 -0.3754
vn 0.9239 -0.0012 -0.3827
vn 0.8917 -0.2617 -0.3693
vn 0.6710 -0.6874 -0.2779
vn 0.2008 -0.9761 -0.0832
vn -0.0963 -0.9945 0.0399
vn -0.0762 -0.9966 0.0316
vn 0.0470 -0.9987 -0.0195
vn 0.0565 -0.9981 -0.0234
vn 0.4709 0.8770 -0.0960
vn 0.5658 0.8167 -0.1131
vn 0.6554 0.7442 -0.1291
vn 0.7411 0.6556 -0.1448
vn 0.8268 0.5382 -0.1634
vn 0.9072 0.3799 -0.1805
vn 0.9622 0.1939 -0.1914
vn 0.9808 -0.0012 -0.1951
vn 0.9466 -0.2617 -0.1883
vn 0.7123 -0.6874 -0.1417
vn 0.2132 -0.9761 -0.0424
vn -0.1023 -0.9945 0.0203
vn -0.0809 -0.9966 0.0161
vn 0.0499 -0.9987 -0.0099
vn 0.0599 -0.9981 -0.0119
vn 0.4321 0.9018 -0.0024
vn 0.5377 0.8431 -0.0009
vn 0.6420 0.7667 0.0008
vn 0.7440 0.6682 0.0024
vn 0.8409 0.5413 0.0011
vn 0.9250 0.3799 -0.0000
vn 0.9810 0.1939 -0.0000
vn 1.0000 -0.0012 -0.0000
vn 0.9651 -0.2617 -0.0000
vn 0.7262 -0.6874 -0.0000
vn 0.2174 -0.9761 -0.0000
vn -0.1043 -0.9945 -0.0000
vn -0.0825 -0.9966 -0.0000
vn 0.0509 -0.9987 -0.0000
vn 0.0611 -0.9981 -0.0000
vn 0.3846 0.9201 0.0742
vn 0.4932 0.8645 0.0970
vn 0.6057 0.7864 0.1210
vn 0.7187 0.6800 0.1452
vn 0.8226 0.5443 0.1647
vn 0.9072 0.3799 0.1805
vn 0.9622 0.1939 0.1914
vn 0.9808 -0.0012 0.1951
vn 0.9466 -0.2617 0.1883
vn 0.7123 -0.6874 0.1417
vn 0.2132 -0.9761 0.0424
vn -0.1023 -0.9945 -0.0203
vn -0.0809 -0.9966 -0.0161
vn 0.0499 -0.9987 0.0099
vn 0.0599 -0.9981 0.0119
vn 0.3323 0.9334 0.1355
vn 0.4370 0.8813 0.1798
vn 0.5502 0.8033 0.2281
vn 0.6674 0.6907 0.2785
vn 0.7730 0.5471 0.3212
vn 0.8546 0.3799 0.3540
vn 0.9063 0.1939 0.3754
vn 0.9239 -0.0012 0.3827
vn 0.8917 -0.2617 0.3693
vn 0.6710 -0.6874 0.2779
vn 0.2008 -0.9761 0.0832
vn -0.0963 -0.9945 -0.0399
vn -0.0762 -0.9966 -0.0316
vn 0.0470 -0.9987 0.0195
vn 0.0565 -0.9981 0.0234
vn 0.2777 0.9430 0.1836
vn 0.3726 0.8943 0.2477
vn 0.4792 0.8172 0.3203
vn 0.5929 0.7000 0.3981
vn 0.6941 0.5497 0.4648
vn 0.7691 0.3799 0.5139
vn 0.8157 0.1939 0.5450
vn 0.8315 -0.0012 0.5556
vn 0.8025 -0.2617 0.5362
vn 0.6038 -0.6874 0.4035
vn 0.1807 -0.9761 0.1208
vn -0.0867 -0.9945 -0.0579
vn -0.0686 -0.9966 -0.0458
vn 0.0423 -0.9987 0.0283
vn 0.0508 -0.9981 0.0340
vn 0.2221 0.9498 0.2203
vn 0.3028 0.9041 0.3015
vn 0.3963 0.8282 0.3963
vn 0.4986 0.7078 0.5004
vn 0.5891 0.5519 0.5902
vn 0.6541 0.3799 0.6541
vn 0.6937 0.1939 0.6937
vn 0.7071 -0.0012 0.7071
vn 0.6825 -0.2617 0.6825
vn 0.5135 -0.6874 0.5135
vn 0.1537 -0.9761 0.1537
vn -0.0737 -0.9945 -0.0737
vn -0.0583 -0.9966 -0.0583
vn 0.0360 -0.9987 0.0360
vn 0.0432 -0.9981 0.0432
vn 0.1664 0.9546 0.2472
vn 0.2295 0.9112 0.3422
vn 0.3045 0.8365 0.4555
vn 0.3882 0.7139 0.5827
vn 0.4621 0.5537 0.6927
vn 0.5139 0.3799 0.7691
vn 0.5450 0.1939 0.8157
vn 0.5556 -0.0012 0.8315
vn 0.5362 -0.2617 0.8025
vn 0.4035 -0.6874 0.6038
vn 0.1208 -0.9761 0.1807
vn -0.0579 -0.9945 -0.0867
vn -0.0458 -0.9966 -0.0686
vn 0.0283 -0.9987 0.0423
vn 0.0340 -0.9981 0.0508
vn 0.1107 0.9577 0.2656
vn 0.1540 0.9160 0.3705
vn 0.2063 0.8424 0.4978
vn 0.2656 0.7184 0.6430
vn 0.3179 0.5551 0.7686
vn 0.3540 0.3799 0.8546
vn 0.3754 0.1939 0.9063
vn 0.3827 -0.0012 0.9239
vn 0.3693 -0.2617 0.8917
vn 0.2779 -0.6874 0.6710
vn 0.0832 -0.9761 0.2008
vn -0.0399 -0.9945 -0.0963
vn -0.0316 -0.9966 -0.0762
vn 0.0195 -0.9987 0.0470
vn 0.0234 -0.9981 0.0565
vn 0.0553 0.9595 0.2763
vn 0.0773 0.9187 0.3872
vn 0.1041 0.8458 0.5232
vn 0.1349 0.7210 0.6797
vn 0.1620 0.5559 0.8153
vn 0.1805 0.3799 0.9072
vn 0.1914 0.1939 0.9622
vn 0.1951 -0.0012 0.9808
vn 0.1883 -0.2617 0.9466
vn 0.1417 -0.6874 0.7123
vn 0.0424 -0.9761 0.2132
vn -0.0203 -0.9945 -0.1023
vn -0.0161 -0.9966 -0.0809
vn 0.0099 -0.9987 0.0499
vn 0.0119 -0.9981 0.0599
vn -0.0000 0.9600 0.2798
vn -0.0000 0.9196 0.3928
vn -0.0000 0.8470 0.5316
vn -0.0000 0.7219 0.6920
vn -0.0000 0.5562 0.8311
vn -0.0000 0.3799 0.9250
vn -0.0000 0.1939 0.9810
vn -0.0000 -0.0012 1.0000
vn -0.0000 -0.2617 0.9651
vn -0.0000 -0.6874 0.7262
vn -0.0000 -0.9761 0.2174
vn -0.0000 -0.9945 -0.1043
vn -0.0000 -0.9966 -0.0825
vn -0.0000 -0.9987 0.0509
vn -0.0000 -0.9981 0.0611
vn -0.0553 0.9595 0.2763
vn -0.0773 0.9187 0.3872
vn -0.1041 0.8458 0.5232
vn -0.1349 0.7210 0.6797
vn -0.1620 0.5559 0.8153
vn -0.1805 0.3799 0.9072
vn -0.1914 0.1939 0.9622
vn -0.1951 -0.0012 0.9808
vn -0.1883 -0.2617 0.9466
vn -0.1417 -0.6874 0.7123
vn -0.0424 -0.9761 0.2132
vn 0.0203 -0.9945 -0.1023
vn 0.0161 -0.9966 -0.0809
vn -0.0099 -0.9987 0.0499
vn -0.0119 -0.9981 0.0599
vn -0.1107 0.9577 0.2656
vn -0.1540 0.9160 0.3705
vn -0.2063 0.8424 0.4978
vn -0.2656 0.7184 0.6430
vn -0.3179 0.5551 0.7686
vn -0.3540 0.3799 0.8546
vn -0.3754 0.1939 0.9063
vn -0.3827 -0.0012 0.9239
vn -0.3693 -0.2617 0.8917
vn -0.2779 -0.6874 0.6710
vn -0.0832 -0.9761 0.2008
vn 0.0399 -0.9945 -0.0963
vn 0.0316 -0.9966 -0.0762
vn -0.0195 -0.9987 0.0470
vn -0.0234 -0.9981 0.0565
vn -0.1664 0.9546 0.2472
vn -0.2295 0.9112 0.3422
vn -0.3045 0.8365 0.4555
vn -0.3882 0.7139 0.5827
vn -0.4621 0.5537 0.6927
vn -0.5139 0.3799 0.7691
vn -0.5450 0.1939 0.8157
vn -0.5556 -0.0012 0.8315
vn -0.5362 -0.2617 0.8025
vn -0.4035 -0.6874 0.6038
vn -0.1208 -0.9761 0.1807
vn 0.0579 -0.9945 -0.0867
vn 0.0458 -0.9966 -0.0686
vn -0.0283 -0.9987 0.0423
vn -0.0340 -0.9981 0.0508
vn -0.2221 0.9498 0.2203
vn -0.3028 0.9041 0.3015
vn -0.3963 0.8282 0.3963
vn -0.4986 0.7078 0.5004
vn -0.5891 0.5519 0.5902
vn -0.6541 0.3799 0.6541
vn -0.6937 0.1939 0.6937
vn -0.7071 -0.0012 0.7071
vn -0.6825 -0.2617 0.6825
vn -0.5135 -0.6874 0.5135
vn -0.1537 -0.9761 0.1537
vn 0.0737 -0.9945 -0.0737
vn 0.0583 -0.9966 -0.0583
vn -0.0360 -0.9987 0.0360
vn -0.0432 -0.9981 0.0432
vn -0.0000 -1.0000 -0.0000
vn -0.2777 0.9430 0.1836
vn -0.3726 0.8943 0.2477
vn -0.4792 0.8172 0.3203
vn -0.5929 0.7000 0.3981
vn -0.6941 0.5497 0.4648
vn -0.7691 0.3799 0.5139
vn -0.8157 0.1939 0.5450
vn -0.8315 -0.0012 0.5556
vn -0.8025 -0.2617 0.5362
vn -0.6038 -0.6874 0.4035
vn -0.1807 -0.9761 0.1208
vn 0.0867 -0.9945 -0.0579
vn 0.0686 -0.9966 -0.0458
vn -0.0423 -0.9987 0.0283
vn -0.0508 -0.9981 0.0340
vn -0.3323 0.9334 0.1355
vn -0.4370 0.8813 0.1798
vn -0.5502 0.8033 0.2281
vn -0.6674 0.6907 0.2785
vn -0.7730 0.5471 0.3212
vn -0.8546 0.3799 0.3540
vn -0.9063 0.1939 0.3754
vn -0.9239 -0.0012 0.3827
vn -0.8917 -0.2617 0.3693
vn -0.6710 -0.6874 0.2779
vn -0.2008 -0.9761 0.0832
vn 0.0963 -0.9945 -0.0399
vn 0.0762 -0.9966 -0.0316
vn -0.0470 -0.9987 0.0195
vn -0.0565 -0.9981 0.0234
vn -0.3846 0.9201 0.0742
vn -0.4932 0.8645 0.0970
vn -0.6057 0.7864 0.1210
vn -0.7187 0.6800 0.1452
vn -0.8226 0.5443 0.1647
vn -0.9072 0.3799 0.1805
vn -0.9622 0.1939 0.1914
vn -0.9808 -0.0012 0.1951
vn -0.9466 -0.2617 0.1883
vn -0.7123 -0.6874 0.1417
vn -0.2132 -0.9761 0.0424
vn 0.1023 -0.9945 -0.0203
vn 0.0809 -0.9966 -0.0161
vn -0.0499 -0.9987 0.0099
vn -0.0599 -0.9981 0.0119
vn -0.4321 0.9018 -0.0024
vn -0.5377 0.8431 -0.0009
vn -0.6420 0.7667 0.0008
vn -0.7440 0.6682 0.0024
vn -0.8409 0.5413 0.0011
vn -0.9250 0.3799 -0.0000
vn -0.9810 0.1939 -0.0000
vn -1.0000 -0.0012 -0.0000
vn -0.9651 -0.2617 -0.0000
vn -0.7262 -0.6874 -0.0000
vn -0.2174 -0.9761 -0.0000
vn 0.1043 -0.9945 -0.0000
vn 0.0825 -0.9966 -0.0000
vn -0.0509 -0.9987 -0.0000
vn -0.0611 -0.9981 -0.0000
vn -0.4709 0.8770 -0.0960
vn -0.5658 0.8167 -0.1131
vn -0.6554 0.7442 -0.1291
vn -0.7411 0.6556 -0.1448
vn -0.8268 0.5382 -0.1634
vn -0.9072 0.3799 -0.1805
vn -0.9622 0.1939 -0.1914
vn -0.9808 -0.0012 -0.1951
vn -0.9466 -0.2617 -0.1883
vn -0.7123 -0.6874 -0.1417
vn -0.2132 -0.9761 -0.0424
vn 0.1023 -0.9945 0.0203
vn 0.0809 -0.9966 0.0161
vn -0.0499 -0.9987 -0.0099
vn -0.0599 -0.9981 -0.0119
vn -0.4952 0.8437 -0.2072
vn -0.5724 0.7850 -0.2370
vn -0.6423 0.7195 -0.2643
vn -0.7088 0.6427 -0.2908
vn -0.7808 0.5352 -0.3223
vn -0.8546 0.3799 -0.3540
vn -0.9063 0.1939 -0.3754
vn -0.9239 -0.0012 -0.3827
vn -0.8917 -0.2617 -0.3693
vn -0.6710 -0.6874 -0.2779
vn -0.2008 -0.9761 -0.0832
vn 0.0963 -0.9945 0.0399
vn 0.0762 -0.9966 0.0316
vn -0.0470 -0.9987 -0.0195
vn -0.0565 -0.9981 -0.0234
vn -0.4976 0.8006 -0.3337
vn -0.5518 0.7485 -0.3677
vn -0.6000 0.6936 -0.3986
vn -0.6471 0.6300 -0.4293
vn -0.7043 0.5324 -0.4695
vn -0.7691 0.3799 -0.5139
vn -0.8157 0.1939 -0.5450
vn -0.8315 -0.0012 -0.5556
vn -0.8025 -0.2617 -0.5362
vn -0.6038 -0.6874 -0.4035
vn -0.1807 -0.9761 -0.1208
vn 0.0867 -0.9945 0.0579
vn 0.0686 -0.9966 0.0458
vn -0.0423 -0.9987 -0.0283
vn -0.0508 -0.9981 -0.0340
vn -0.4697 0.7478 -0.4691
vn -0.4998 0.7090 -0.4975
vn -0.5276 0.6681 -0.5247
vn -0.5574 0.6183 -0.5541
vn -0.6002 0.5300 -0.5991
vn -0.6541 0.3799 -0.6541
vn -0.6937 0.1939 -0.6937
vn -0.7071 -0.0012 -0.7071
vn -0.6825 -0.2617 -0.6825
vn -0.5135 -0.6874 -0.5135
vn -0.1537 -0.9761 -0.1537
vn 0.0737 -0.9945 0.0737
vn 0.0583 -0.9966 0.0583
vn -0.0360 -0.9987 -0.0360
vn -0.0432 -0.9981 -0.0432
vn -0.4044 0.6887 -0.6018
vn -0.4142 0.6699 -0.6162
vn -0.4263 0.6448 -0.6344
vn -0.4426 0.6082 -0.6589
vn -0.4724 0.5279 -0.7058
vn -0.5139 0.3799 -0.7691
vn -0.5450 0.1939 -0.8157
vn -0.5556 -0.0012 -0.8315
vn -0.5362 -0.2617 -0.8025
vn -0.4035 -0.6874 -0.6038
vn -0.1208 -0.9761 -0.1807
vn 0.0579 -0.9945 0.0867
vn 0.0458 -0.9966 0.0686
vn -0.0283 -0.9987 -0.0423
vn -0.0340 -0.9981 -0.0508
vn -0.2993 0.6316 -0.7152
vn -0.2972 0.6360 -0.7122
vn -0.2999 0.6261 -0.7198
vn -0.3073 0.6004 -0.7383
vn -0.3258 0.5264 -0.7854
vn -0.3540 0.3799 -0.8546
vn -0.3754 0.1939 -0.9063
vn -0.3827 -0.0012 -0.9239
vn -0.3693 -0.2617 -0.8917
vn -0.2779 -0.6874 -0.6710
vn -0.0832 -0.9761 -0.2008
vn 0.0399 -0.9945 0.0963
vn 0.0316 -0.9966 0.0762
vn -0.0195 -0.9987 -0.0470
vn -0.0234 -0.9981 -0.0565
vn -0.1598 0.5888 -0.7923
vn -0.1554 0.6127 -0.7749
vn -0.1549 0.6138 -0.7741
vn -0.1574 0.5955 -0.7878
vn -0.1662 0.5254 -0.8344
vn -0.1805 0.3799 -0.9072
vn -0.1914 0.1939 -0.9622
vn -0.1951 -0.0012 -0.9808
vn -0.1883 -0.2617 -0.9466
vn -0.1417 -0.6874 -0.7123
vn -0.0424 -0.9761 -0.2132
vn 0.0203 -0.9945 0.1023
vn 0.0161 -0.9966 0.0809
vn -0.0099 -0.9987 -0.0499
vn -0.0119 -0.9981 -0.0599
vn -0.0000 0.5728 -0.8197
vn -0.0000 0.6043 -0.7967
vn -0.0000 0.5938 -0.8046
vn -0.0000 0.3799 -0.9250
vn -0.0000 -0.6874 -0.7262
vn -0.0000 -0.9945 0.1043
vn -0.0000 -0.9966 0.0825
vn -0.0000 -0.9987 -0.0509
vn -0.0000 -0.9981 -0.0611
vt 0.750000 0.375000
vt 0.718750 0.312500
vt 0.750000 0.312500
vt 0.750000 0.750000
vt 0.718750 0.812500
vt 0.718750 0.750000
vt 0.750000 0.250000
vt 0.718750 0.250000
vt 0.750000 0.687500
vt 0.718750 0.687500
vt 0.718750 0.187500
vt 0.750000 0.187500
vt 0.750000 0.625000
vt 0.718750 0.625000
vt 0.718750 0.125000
vt 0.750000 0.125000
vt 0.750000 0.562500
vt 0.718750 0.562500
vt 0.718750 0.062500
vt 0.750000 0.062500
vt 0.718750 0.500000
vt 0.750000 0.500000
vt 0.750000 0.937500
vt 0.734375 1.000000
vt 0.718750 0.937500
vt 0.734375 0.000000
vt 0.718750 0.437500
vt 0.750000 0.437500
vt 0.750000 0.875000
vt 0.718750 0.875000
vt 0.718750 0.375000
vt 0.750000 0.812500
vt 0.687500 0.375000
vt 0.687500 0.875000
vt 0.687500 0.812500
vt 0.687500 0.312500
vt 0.687500 0.750000
vt 0.687500 0.250000
vt 0.687500 0.687500
vt 0.687500 0.187500
vt 0.687500 0.625000
vt 0.687500 0.125000
vt 0.687500 0.562500
vt 0.687500 0.062500
vt 0.687500 0.500000
vt 0.703125 1.000000
vt 0.687500 0.937500
vt 0.703125 0.000000
vt 0.687500 0.437500
vt 0.656250 0.187500
vt 0.656250 0.125000
vt 0.656250 0.625000
vt 0.656250 0.562500
vt 0.656250 0.062500
vt 0.656250 0.500000
vt 0.671875 1.000000
vt 0.656250 0.937500
vt 0.671875 0.000000
vt 0.656250 0.437500
vt 0.656250 0.875000
vt 0.656250 0.375000
vt 0.656250 0.812500
vt 0.656250 0.312500
vt 0.656250 0.750000
vt 0.656250 0.250000
vt 0.656250 0.687500
vt 0.625000 0.875000
vt 0.625000 0.812500
vt 0.625000 0.375000
vt 0.625000 0.312500
vt 0.625000 0.750000
vt 0.625000 0.250000
vt 0.625000 0.687500
vt 0.625000 0.187500
vt 0.625000 0.625000
vt 0.625000 0.125000
vt 0.625000 0.562500
vt 0.625000 0.062500
vt 0.625000 0.500000
vt 0.640625 1.000000
vt 0.625000 0.937500
vt 0.640625 0.000000
vt 0.625000 0.437500
vt 0.593750 0.625000
vt 0.593750 0.562500
vt 0.593750 0.062500
vt 0.593750 0.500000
vt 0.609375 1.000000
vt 0.593750 0.937500
vt 0.609375 0.000000
vt 0.593750 0.437500
vt 0.593750 0.875000
vt 0.593750 0.375000
vt 0.593750 0.812500
vt 0.593750 0.312500
vt 0.593750 0.750000
vt 0.593750 0.250000
vt 0.593750 0.687500
vt 0.593750 0.187500
vt 0.593750 0.125000
vt 0.562500 0.375000
vt 0.562500 0.312500
vt 0.562500 0.812500
vt 0.562500 0.750000
vt 0.562500 0.250000
vt 0.562500 0.687500
vt 0.562500 0.187500
vt 0.562500 0.625000
vt 0.562500 0.125000
vt 0.562500 0.562500
vt 0.562500 0.062500
vt 0.562500 0.500000
vt 0.578125 1.000000
vt 0.562500 0.937500
vt 0.578125 0.000000
vt 0.562500 0.437500
vt 0.562500 0.875000
vt 0.531250 0.062500
vt 0.531250 0.562500
vt 0.531250 0.500000
vt 0.546875 1.000000
vt 0.531250 0.937500
vt 0.546875 0.000000
vt 0.531250 0.437500
vt 0.531250 0.875000
vt 0.531250 0.375000
vt 0.531250 0.812500
vt 0.531250 0.312500
vt 0.531250 0.750000
vt 0.531250 0.250000
vt 0.531250 0.687500
vt 0.531250 0.187500
vt 0.531250 0.625000
vt 0.531250 0.125000
vt 0.500000 0.250000
vt 0.500000 0.750000
vt 0.500000 0.687500
vt 0.500000 0.187500
vt 0.500000 0.625000
vt 0.500000 0.125000
vt 0.500000 0.562500
vt 0.500000 0.062500
vt 0.500000 0.500000
vt 0.515625 1.000000
vt 0.500000 0.937500
vt 0.515625 0.000000
vt 0.500000 0.437500
vt 0.500000 0.875000
vt 0.500000 0.375000
vt 0.500000 0.812500
vt 0.500000 0.312500
vt 0.484375 1.000000
vt 0.468750 0.937500
vt 0.484375 0.000000
vt 0.468750 0.062500
vt 0.468750 0.437500
vt 0.468750 0.875000
vt 0.468750 0.375000
vt 0.468750 0.812500
vt 0.468750 0.312500
vt 0.468750 0.750000
vt 0.468750 0.250000
vt 0.468750 0.687500
vt 0.468750 0.187500
vt 0.468750 0.625000
vt 0.468750 0.125000
vt 0.468750 0.562500
vt 0.468750 0.500000
vt 0.437500 0.750000
vt 0.437500 0.687500
vt 0.437500 0.250000
vt 0.437500 0.187500
vt 0.437500 0.625000
vt 0.437500 0.125000
vt 0.437500 0.562500
vt 0.437500 0.062500
vt 0.437500 0.500000
vt 0.453125 1.000000
vt 0.437500 0.937500
vt 0.453125 0.000000
vt 0.437500 0.437500
vt 0.437500 0.875000
vt 0.437500 0.375000
vt 0.437500 0.812500
vt 0.437500 0.312500
vt 0.406250 0.437500
vt 0.406250 0.937500
vt 0.406250 0.875000
vt 0.406250 0.375000
vt 0.406250 0.812500
vt 0.406250 0.312500
vt 0.406250 0.750000
vt 0.406250 0.250000
vt 0.406250 0.687500
vt 0.406250 0.187500
vt 0.406250 0.625000
vt 0.406250 0.125000
vt 0.406250 0.562500
vt 0.406250 0.062500
vt 0.406250 0.500000
vt 0.421875 1.000000
vt 0.421875 0.000000
vt 0.375000 0.250000
vt 0.375000 0.187500
vt 0.375000 0.625000
vt 0.375000 0.125000
vt 0.375000 0.562500
vt 0.375000 0.062500
vt 0.375000 0.500000
vt 0.390625 1.000000
vt 0.375000 0.937500
vt 0.390625 0.000000
vt 0.375000 0.437500
vt 0.375000 0.875000
vt 0.375000 0.375000
vt 0.375000 0.812500
vt 0.375000 0.312500
vt 0.375000 0.750000
vt 0.375000 0.687500
vt 0.343750 0.937500
vt 0.343750 0.875000
vt 0.343750 0.375000
vt 0.343750 0.812500
vt 0.343750 0.312500
vt 0.343750 0.750000
vt 0.343750 0.250000
vt 0.343750 0.687500
vt 0.343750 0.187500
vt 0.343750 0.625000
vt 0.343750 0.125000
vt 0.343750 0.562500
vt 0.343750 0.062500
vt 0.343750 0.500000
vt 0.359375 1.000000
vt 0.359375 0.000000
vt 0.343750 0.437500
vt 0.312500 0.625000
vt 0.312500 0.187500
vt 0.312500 0.125000
vt 0.312500 0.562500
vt 0.312500 0.062500
vt 0.312500 0.500000
vt 0.328125 1.000000
vt 0.312500 0.937500
vt 0.328125 0.000000
vt 0.312500 0.437500
vt 0.312500 0.875000
vt 0.312500 0.375000
vt 0.312500 0.812500
vt 0.312500 0.312500
vt 0.312500 0.750000
vt 0.312500 0.250000
vt 0.312500 0.687500
vt 0.281250 0.375000
vt 0.281250 0.875000
vt 0.281250 0.812500
vt 0.281250 0.312500
vt 0.281250 0.750000
vt 0.281250 0.250000
vt 0.281250 0.687500
vt 0.281250 0.187500
vt 0.281250 0.625000
vt 0.281250 0.125000
vt 0.281250 0.562500
vt 0.281250 0.062500
vt 0.281250 0.500000
vt 0.296875 1.000000
vt 0.281250 0.937500
vt 0.296875 0.000000
vt 0.281250 0.437500
vt 0.250000 0.187500
vt 0.250000 0.125000
vt 0.250000 0.625000
vt 0.250000 0.562500
vt 0.250000 0.062500
vt 0.250000 0.500000
vt 0.265625 1.000000
vt 0.250000 0.937500
vt 0.265625 0.000000
vt 0.250000 0.437500
vt 0.250000 0.875000
vt 0.250000 0.375000
vt 0.250000 0.812500
vt 0.250000 0.312500
vt 0.250000 0.750000
vt 0.250000 0.250000
vt 0.250000 0.687500
vt 0.218750 0.375000
vt 0.218750 0.312500
vt 0.218750 0.750000
vt 0.218750 0.250000
vt 0.218750 0.687500
vt 0.218750 0.187500
vt 0.218750 0.625000
vt 0.218750 0.125000
vt 0.218750 0.562500
vt 0.218750 0.062500
vt 0.218750 0.500000
vt 0.234375 1.000000
vt 0.218750 0.937500
vt 0.234375 0.000000
vt 0.218750 0.437500
vt 0.218750 0.875000
vt 0.218750 0.812500
vt 0.187500 0.062500
vt 0.187500 0.562500
vt 0.187500 0.500000
vt 0.203125 1.000000
vt 0.187500 0.937500
vt 0.203125 0.000000
vt 0.187500 0.437500
vt 0.187500 0.875000
vt 0.187500 0.375000
vt 0.187500 0.812500
vt 0.187500 0.312500
vt 0.187500 0.750000
vt 0.187500 0.250000
vt 0.187500 0.687500
vt 0.187500 0.187500
vt 0.187500 0.625000
vt 0.187500 0.125000
vt 0.156250 0.750000
vt 0.156250 0.250000
vt 0.156250 0.687500
vt 0.156250 0.187500
vt 0.156250 0.625000
vt 0.156250 0.125000
vt 0.156250 0.562500
vt 0.156250 0.062500
vt 0.156250 0.500000
vt 0.171875 1.000000
vt 0.156250 0.937500
vt 0.171875 0.000000
vt 0.156250 0.437500
vt 0.156250 0.875000
vt 0.156250 0.375000
vt 0.156250 0.812500
vt 0.156250 0.312500
vt 0.125000 0.562500
vt 0.125000 0.500000
vt 0.140625 1.000000
vt 0.125000 0.937500
vt 0.140625 0.000000
vt 0.125000 0.062500
vt 0.125000 0.437500
vt 0.125000 0.875000
vt 0.125000 0.375000
vt 0.125000 0.812500
vt 0.125000 0.312500
vt 0.125000 0.750000
vt 0.125000 0.250000
vt 0.125000 0.687500
vt 0.125000 0.187500
vt 0.125000 0.625000
vt 0.125000 0.125000
vt 0.093750 0.250000
vt 0.093750 0.687500
vt 0.093750 0.187500
vt 0.093750 0.625000
vt 0.093750 0.125000
vt 0.093750 0.562500
vt 0.093750 0.062500
vt 0.093750 0.500000
vt 0.109375 1.000000
vt 0.093750 0.937500
vt 0.109375 0.000000
vt 0.093750 0.437500
vt 0.093750 0.875000
vt 0.093750 0.375000
vt 0.093750 0.812500
vt 0.093750 0.312500
vt 0.093750 0.750000
vt 0.078125 1.000000
vt 0.062500 0.937500
vt 0.078125 0.000000
vt 0.062500 0.062500
vt 0.062500 0.437500
vt 0.062500 0.875000
vt 0.062500 0.375000
vt 0.062500 0.812500
vt 0.062500 0.312500
vt 0.062500 0.750000
vt 0.062500 0.250000
vt 0.062500 0.687500
vt 0.062500 0.187500
vt 0.062500 0.625000
vt 0.062500 0.125000
vt 0.062500 0.562500
vt 0.062500 0.500000
vt 0.031250 0.687500
vt 0.031250 0.250000
vt 0.031250 0.187500
vt 0.031250 0.625000
vt 0.031250 0.125000
vt 0.031250 0.562500
vt 0.031250 0.062500
vt 0.031250 0.500000
vt 0.046875 1.000000
vt 0.031250 0.937500
vt 0.046875 0.000000
vt 0.031250 0.437500
vt 0.031250 0.875000
vt 0.031250 0.375000
vt 0.031250 0.812500
vt 0.031250 0.312500
vt 0.031250 0.750000
vt 0.000000 0.437500
vt 0.000000 0.875000
vt 0.000000 0.375000
vt 0.000000 0.812500
vt 0.000000 0.312500
vt 0.000000 0.750000
vt 0.000000 0.250000
vt 0.000000 0.687500
vt 0.000000 0.187500
vt 0.000000 0.625000
vt 0.000000 0.125000
vt 0.000000 0.562500
vt 0.000000 0.062500
vt 0.000000 0.500000
vt 0.015625 1.000000
vt 0.000000 0.937500
vt 0.015625 0.000000
vt 1.000000 0.187500
vt 0.968750 0.250000
vt 0.968750 0.187500
vt 1.000000 0.687500
vt 0.968750 0.625000
vt 1.000000 0.625000
vt 0.968750 0.125000
vt 1.000000 0.125000
vt 1.000000 0.562500
vt 0.968750 0.562500
vt 0.968750 0.062500
vt 1.000000 0.062500
vt 1.000000 0.500000
vt 0.968750 0.500000
vt 1.000000 0.937500
vt 0.984375 1.000000
vt 0.968750 0.937500
vt 0.984375 0.000000
vt 0.968750 0.437500
vt 1.000000 0.437500
vt 0.968750 0.875000
vt 1.000000 0.875000
vt 0.968750 0.375000
vt 1.000000 0.375000
vt 0.968750 0.812500
vt 1.000000 0.812500
vt 1.000000 0.312500
vt 0.968750 0.312500
vt 0.968750 0.750000
vt 1.000000 0.750000
vt 1.000000 0.250000
vt 0.968750 0.687500
vt 0.937500 0.375000
vt 0.937500 0.812500
vt 0.937500 0.312500
vt 0.937500 0.750000
vt 0.937500 0.250000
vt 0.937500 0.687500
vt 0.937500 0.187500
vt 0.937500 0.625000
vt 0.937500 0.125000
vt 0.937500 0.562500
vt 0.937500 0.062500
vt 0.937500 0.500000
vt 0.953125 1.000000
vt 0.937500 0.937500
vt 0.953125 0.000000
vt 0.937500 0.437500
vt 0.937500 0.875000
vt 0.906250 0.125000
vt 0.906250 0.625000
vt 0.906250 0.562500
vt 0.906250 0.062500
vt 0.906250 0.500000
vt 0.921875 1.000000
vt 0.906250 0.937500
vt 0.921875 0.000000
vt 0.906250 0.437500
vt 0.906250 0.875000
vt 0.906250 0.375000
vt 0.906250 0.812500
vt 0.906250 0.312500
vt 0.906250 0.750000
vt 0.906250 0.250000
vt 0.906250 0.687500
vt 0.906250 0.187500
vt 0.875000 0.812500
vt 0.875000 0.375000
vt 0.875000 0.312500
vt 0.875000 0.750000
vt 0.875000 0.250000
vt 0.875000 0.687500
vt 0.875000 0.187500
vt 0.875000 0.625000
vt 0.875000 0.125000
vt 0.875000 0.562500
vt 0.875000 0.062500
vt 0.875000 0.500000
vt 0.890625 1.000000
vt 0.875000 0.937500
vt 0.890625 0.000000
vt 0.875000 0.437500
vt 0.875000 0.875000
vt 0.843750 0.625000
vt 0.843750 0.562500
vt 0.843750 0.125000
vt 0.843750 0.062500
vt 0.843750 0.500000
vt 0.859375 1.000000
vt 0.843750 0.937500
vt 0.859375 0.000000
vt 0.843750 0.437500
vt 0.843750 0.875000
vt 0.843750 0.375000
vt 0.843750 0.812500
vt 0.843750 0.312500
vt 0.843750 0.750000
vt 0.843750 0.250000
vt 0.843750 0.687500
vt 0.843750 0.187500
vt 0.812500 0.375000
vt 0.812500 0.312500
vt 0.812500 0.750000
vt 0.812500 0.250000
vt 0.812500 0.687500
vt 0.812500 0.187500
vt 0.812500 0.625000
vt 0.812500 0.125000
vt 0.812500 0.562500
vt 0.812500 0.062500
vt 0.812500 0.500000
vt 0.828125 1.000000
vt 0.812500 0.937500
vt 0.828125 0.000000
vt 0.812500 0.437500
vt 0.812500 0.875000
vt 0.812500 0.812500
vt 0.781250 0.125000
vt 0.781250 0.062500
vt 0.781250 0.562500
vt 0.781250 0.500000
vt 0.796875 1.000000
vt 0.781250 0.937500
vt 0.796875 0.000000
vt 0.781250 0.437500
vt 0.781250 0.875000
vt 0.781250 0.375000
vt 0.781250 0.812500
vt 0.781250 0.312500
vt 0.781250 0.750000
vt 0.781250 0.250000
vt 0.781250 0.687500
vt 0.781250 0.187500
vt 0.781250 0.625000
vt 0.765625 1.000000
vt 0.765625 0.000000
s 1
usemtl Material
f 478/1/478 17/2/17 6/3/6
f 476/4/476 9/5/9 10/6/10
f 479/7/479 17/2/17 18/8/18
f 2/9/2 10/6/10 11/10/11
f 479/7/479 19/11/19 480/12/480
f 477/13/477 11/10/11 12/14/12
f 480/12/480 20/15/20 481/16/481
f 3/17/3 12/14/12 13/18/13
f 481/16/481 21/19/21 482/20/482
f 3/17/3 14/21/14 4/22/4
f 474/23/474 82/24/82 7/25/7
f 308/26/308 482/20/482 21/19/21
f 4/22/4 15/27/15 5/28/5
f 475/29/475 7/25/7 8/30/8
f 478/1/478 15/27/15 16/31/16
f 1/32/1 8/30/8 9/5/9
f 15/27/15 31/33/31 16/31/16
f 9/5/9 23/34/23 24/35/24
f 17/2/17 31/33/31 32/36/32
f 10/6/10 24/35/24 25/37/25
f 18/8/18 32/36/32 33/38/33
f 11/10/11 25/37/25 26/39/26
f 19/11/19 33/38/33 34/40/34
f 11/10/11 27/41/27 12/14/12
f 20/15/20 34/40/34 35/42/35
f 13/18/13 27/41/27 28/43/28
f 21/19/21 35/42/35 36/44/36
f 13/18/13 29/45/29 14/21/14
f 7/25/7 82/46/82 22/47/22
f 308/48/308 21/19/21 36/44/36
f 14/21/14 30/49/30 15/27/15
f 8/30/8 22/47/22 23/34/23
f 35/42/35 49/50/49 50/51/50
f 28/43/28 42/52/42 43/53/43
f 36/44/36 50/51/50 51/54/51
f 29/45/29 43/53/43 44/55/44
f 22/47/22 82/56/82 37/57/37
f 308/58/308 36/44/36 51/54/51
f 29/45/29 45/59/45 30/49/30
f 23/34/23 37/57/37 38/60/38
f 30/49/30 46/61/46 31/33/31
f 24/35/24 38/60/38 39/62/39
f 32/36/32 46/61/46 47/63/47
f 25/37/25 39/62/39 40/64/40
f 33/38/33 47/63/47 48/65/48
f 26/39/26 40/64/40 41/66/41
f 34/40/34 48/65/48 49/50/49
f 26/39/26 42/52/42 27/41/27
f 39/62/39 53/67/53 54/68/54
f 47/63/47 61/69/61 62/70/62
f 40/64/40 54/68/54 55/71/55
f 47/63/47 63/72/63 48/65/48
f 41/66/41 55/71/55 56/73/56
f 49/50/49 63/72/63 64/74/64
f 41/66/41 57/75/57 42/52/42
f 50/51/50 64/74/64 65/76/65
f 43/53/43 57/75/57 58/77/58
f 51/54/51 65/76/65 66/78/66
f 44/55/44 58/77/58 59/79/59
f 37/57/37 82/80/82 52/81/52
f 308/82/308 51/54/51 66/78/66
f 44/55/44 60/83/60 45/59/45
f 38/60/38 52/81/52 53/67/53
f 45/59/45 61/69/61 46/61/46
f 58/77/58 72/84/72 73/85/73
f 65/76/65 81/86/81 66/78/66
f 59/79/59 73/85/73 74/87/74
f 52/81/52 82/88/82 67/89/67
f 308/90/308 66/78/66 81/86/81
f 59/79/59 75/91/75 60/83/60
f 53/67/53 67/89/67 68/92/68
f 60/83/60 76/93/76 61/69/61
f 54/68/54 68/92/68 69/94/69
f 62/70/62 76/93/76 77/95/77
f 55/71/55 69/94/69 70/96/70
f 62/70/62 78/97/78 63/72/63
f 56/73/56 70/96/70 71/98/71
f 64/74/64 78/97/78 79/99/79
f 56/73/56 72/84/72 57/75/57
f 64/74/64 80/100/80 65/76/65
f 77/95/77 92/101/92 93/102/93
f 70/96/70 85/103/85 86/104/86
f 77/95/77 94/105/94 78/97/78
f 71/98/71 86/104/86 87/106/87
f 79/99/79 94/105/94 95/107/95
f 71/98/71 88/108/88 72/84/72
f 80/100/80 95/107/95 96/109/96
f 73/85/73 88/108/88 89/110/89
f 81/86/81 96/109/96 97/111/97
f 74/87/74 89/110/89 90/112/90
f 67/89/67 82/113/82 83/114/83
f 308/115/308 81/86/81 97/111/97
f 74/87/74 91/116/91 75/91/75
f 68/92/68 83/114/83 84/117/84
f 75/91/75 92/101/92 76/93/76
f 69/94/69 84/117/84 85/103/85
f 96/109/96 112/118/112 97/111/97
f 90/112/90 104/119/104 105/120/105
f 83/114/83 82/121/82 98/122/98
f 308/123/308 97/111/97 112/118/112
f 90/112/90 106/124/106 91/116/91
f 84/117/84 98/122/98 99/125/99
f 91/116/91 107/126/107 92/101/92
f 85/103/85 99/125/99 100/127/100
f 93/102/93 107/126/107 108/128/108
f 86/104/86 100/127/100 101/129/101
f 93/102/93 109/130/109 94/105/94
f 87/106/87 101/129/101 102/131/102
f 95/107/95 109/130/109 110/132/110
f 87/106/87 103/133/103 88/108/88
f 95/107/95 111/134/111 96/109/96
f 89/110/89 103/133/103 104/119/104
f 108/128/108 124/135/124 109/130/109
f 102/131/102 116/136/116 117/137/117
f 110/132/110 124/135/124 125/138/125
f 102/131/102 118/139/118 103/133/103
f 111/134/111 125/138/125 126/140/126
f 104/119/104 118/139/118 119/141/119
f 111/134/111 127/142/127 112/118/112
f 105/120/105 119/141/119 120/143/120
f 98/122/98 82/144/82 113/145/113
f 308/146/308 112/118/112 127/142/127
f 105/120/105 121/147/121 106/124/106
f 99/125/99 113/145/113 114/148/114
f 106/124/106 122/149/122 107/126/107
f 100/127/100 114/148/114 115/150/115
f 108/128/108 122/149/122 123/151/123
f 101/129/101 115/150/115 116/136/116
f 113/145/113 82/152/82 128/153/128
f 308/154/308 127/142/127 142/155/142
f 120/143/120 136/156/136 121/147/121
f 114/148/114 128/153/128 129/157/129
f 121/147/121 137/158/137 122/149/122
f 115/150/115 129/157/129 130/159/130
f 123/151/123 137/158/137 138/160/138
f 116/136/116 130/159/130 131/161/131
f 123/151/123 139/162/139 124/135/124
f 117/137/117 131/161/131 132/163/132
f 125/138/125 139/162/139 140/164/140
f 117/137/117 133/165/133 118/139/118
f 125/138/125 141/166/141 126/140/126
f 119/141/119 133/165/133 134/167/134
f 126/140/126 142/155/142 127/142/127
f 120/143/120 134/167/134 135/168/135
f 132/163/132 146/169/146 147/170/147
f 140/164/140 154/171/154 155/172/155
f 132/163/132 148/173/148 133/165/133
f 141/166/141 155/172/155 156/174/156
f 134/167/134 148/173/148 149/175/149
f 141/166/141 157/176/157 142/155/142
f 135/168/135 149/175/149 150/177/150
f 128/153/128 82/178/82 143/179/143
f 308/180/308 142/155/142 157/176/157
f 135/168/135 151/181/151 136/156/136
f 129/157/129 143/179/143 144/182/144
f 136/156/136 152/183/152 137/158/137
f 130/159/130 144/182/144 145/184/145
f 138/160/138 152/183/152 153/185/153
f 131/161/131 145/184/145 146/169/146
f 138/160/138 154/171/154 139/162/139
f 150/177/150 166/186/166 151/181/151
f 144/182/144 158/187/158 159/188/159
f 151/181/151 167/189/167 152/183/152
f 145/184/145 159/188/159 160/190/160
f 153/185/153 167/189/167 168/191/168
f 146/169/146 160/190/160 161/192/161
f 153/185/153 169/193/169 154/171/154
f 147/170/147 161/192/161 162/194/162
f 155/172/155 169/193/169 170/195/170
f 147/170/147 163/196/163 148/173/148
f 156/174/156 170/195/170 171/197/171
f 149/175/149 163/196/163 164/198/164
f 157/176/157 171/197/171 172/199/172
f 150/177/150 164/198/164 165/200/165
f 143/179/143 82/201/82 158/187/158
f 308/202/308 157/176/157 172/199/172
f 170/195/170 184/203/184 185/204/185
f 162/194/162 178/205/178 163/196/163
f 171/197/171 185/204/185 186/206/186
f 164/198/164 178/205/178 179/207/179
f 172/199/172 186/206/186 187/208/187
f 165/200/165 179/207/179 180/209/180
f 158/187/158 82/210/82 173/211/173
f 308/212/308 172/199/172 187/208/187
f 165/200/165 181/213/181 166/186/166
f 159/188/159 173/211/173 174/214/174
f 166/186/166 182/215/182 167/189/167
f 160/190/160 174/214/174 175/216/175
f 168/191/168 182/215/182 183/217/183
f 161/192/161 175/216/175 176/218/176
f 168/191/168 184/203/184 169/193/169
f 162/194/162 176/218/176 177/219/177
f 174/214/174 188/220/188 189/221/189
f 181/213/181 197/222/197 182/215/182
f 175/216/175 189/221/189 190/223/190
f 183/217/183 197/222/197 198/224/198
f 176/218/176 190/223/190 191/225/191
f 183/217/183 199/226/199 184/203/184
f 177/219/177 191/225/191 192/227/192
f 185/204/185 199/226/199 200/228/200
f 177/219/177 193/229/193 178/205/178
f 185/204/185 201/230/201 186/206/186
f 179/207/179 193/229/193 194/231/194
f 186/206/186 202/232/202 187/208/187
f 180/209/180 194/231/194 195/233/195
f 173/211/173 82/234/82 188/220/188
f 308/235/308 187/208/187 202/232/202
f 180/209/180 196/236/196 181/213/181
f 192/227/192 208/237/208 193/229/193
f 201/230/201 215/238/215 216/239/216
f 194/231/194 208/237/208 209/240/209
f 202/232/202 216/239/216 217/241/217
f 195/233/195 209/240/209 210/242/210
f 188/220/188 82/243/82 203/244/203
f 308/245/308 202/232/202 217/241/217
f 195/233/195 211/246/211 196/236/196
f 189/221/189 203/244/203 204/247/204
f 196/236/196 212/248/212 197/222/197
f 190/223/190 204/247/204 205/249/205
f 198/224/198 212/248/212 213/250/213
f 191/225/191 205/249/205 206/251/206
f 198/224/198 214/252/214 199/226/199
f 192/227/192 206/251/206 207/253/207
f 200/228/200 214/252/214 215/238/215
f 211/246/211 227/254/227 212/248/212
f 205/249/205 219/255/219 220/256/220
f 213/250/213 227/254/227 228/257/228
f 206/251/206 220/256/220 221/258/221
f 213/250/213 229/259/229 214/252/214
f 207/253/207 221/258/221 222/260/222
f 215/238/215 229/259/229 230/261/230
f 207/253/207 223/262/223 208/237/208
f 216/239/216 230/261/230 231/263/231
f 209/240/209 223/262/223 224/264/224
f 217/241/217 231/263/231 232/265/232
f 210/242/210 224/264/224 225/266/225
f 203/244/203 82/267/82 218/268/218
f 308/269/308 217/241/217 232/265/232
f 210/242/210 226/270/226 211/246/211
f 204/247/204 218/268/218 219/255/219
f 231/263/231 245/271/245 246/272/246
f 224/264/224 238/273/238 239/274/239
f 231/263/231 247/275/247 232/265/232
f 225/266/225 239/274/239 240/276/240
f 218/268/218 82/277/82 233/278/233
f 308/279/308 232/265/232 247/275/247
f 225/266/225 241/280/241 226/270/226
f 219/255/219 233/278/233 234/281/234
f 226/270/226 242/282/242 227/254/227
f 220/256/220 234/281/234 235/283/235
f 228/257/228 242/282/242 243/284/243
f 221/258/221 235/283/235 236/285/236
f 228/257/228 244/286/244 229/259/229
f 222/260/222 236/285/236 237/287/237
f 230/261/230 244/286/244 245/271/245
f 222/260/222 238/273/238 223/262/223
f 243/284/243 257/288/257 258/289/258
f 235/283/235 251/290/251 236/285/236
f 243/284/243 259/291/259 244/286/244
f 236/285/236 252/292/252 237/287/237
f 245/271/245 259/291/259 260/293/260
f 237/287/237 253/294/253 238/273/238
f 245/271/245 261/295/261 246/272/246
f 239/274/239 253/294/253 254/296/254
f 246/272/246 262/297/262 247/275/247
f 240/276/240 254/296/254 255/298/255
f 233/278/233 82/299/82 248/300/248
f 308/301/308 247/275/247 262/297/262
f 240/276/240 256/302/256 241/280/241
f 233/278/233 249/303/249 234/281/234
f 241/280/241 257/288/257 242/282/242
f 234/281/234 250/304/250 235/283/235
f 261/295/261 277/305/277 262/297/262
f 255/298/255 269/306/269 270/307/270
f 248/300/248 82/308/82 263/309/263
f 308/310/308 262/297/262 277/305/277
f 255/298/255 271/311/271 256/302/256
f 248/300/248 264/312/264 249/303/249
f 256/302/256 272/313/272 257/288/257
f 249/303/249 265/314/265 250/304/250
f 258/289/258 272/313/272 273/315/273
f 250/304/250 266/316/266 251/290/251
f 258/289/258 274/317/274 259/291/259
f 251/290/251 267/318/267 252/292/252
f 260/293/260 274/317/274 275/319/275
f 252/292/252 268/320/268 253/294/253
f 261/295/261 275/319/275 276/321/276
f 254/296/254 268/320/268 269/306/269
f 265/314/265 281/322/281 266/316/266
f 273/315/273 289/323/289 274/317/274
f 266/316/266 282/324/282 267/318/267
f 275/319/275 289/323/289 290/325/290
f 267/318/267 283/326/283 268/320/268
f 275/319/275 291/327/291 276/321/276
f 269/306/269 283/326/283 284/328/284
f 276/321/276 292/329/292 277/305/277
f 270/307/270 284/328/284 285/330/285
f 263/309/263 82/331/82 278/332/278
f 308/333/308 277/305/277 292/329/292
f 270/307/270 286/334/286 271/311/271
f 263/309/263 279/335/279 264/312/264
f 271/311/271 287/336/287 272/313/272
f 264/312/264 280/337/280 265/314/265
f 273/315/273 287/336/287 288/338/288
f 285/330/285 299/339/299 300/340/300
f 278/332/278 82/341/82 293/342/293
f 308/343/308 292/329/292 307/344/307
f 285/330/285 301/345/301 286/334/286
f 278/332/278 294/346/294 279/335/279
f 286/334/286 302/347/302 287/336/287
f 279/335/279 295/348/295 280/337/280
f 288/338/288 302/347/302 303/349/303
f 280/337/280 296/350/296 281/322/281
f 288/338/288 304/351/304 289/323/289
f 281/322/281 297/352/297 282/324/282
f 290/325/290 304/351/304 305/353/305
f 282/324/282 298/354/298 283/326/283
f 290/325/290 306/355/306 291/327/291
f 284/328/284 298/354/298 299/339/299
f 292/329/292 306/355/306 307/344/307
f 303/349/303 320/356/320 304/351/304
f 296/350/296 313/357/313 297/352/297
f 305/353/305 320/356/320 321/358/321
f 297/352/297 314/359/314 298/354/298
f 305/353/305 322/360/322 306/355/306
f 299/339/299 314/359/314 315/361/315
f 306/355/306 323/362/323 307/344/307
f 300/340/300 315/361/315 316/363/316
f 293/342/293 82/364/82 309/365/309
f 308/366/308 307/344/307 323/362/323
f 300/340/300 317/367/317 301/345/301
f 293/342/293 310/368/310 294/346/294
f 301/345/301 318/369/318 302/347/302
f 294/346/294 311/370/311 295/348/295
f 303/349/303 318/369/318 319/371/319
f 295/348/295 312/372/312 296/350/296
f 309/365/309 82/373/82 324/374/324
f 308/375/308 323/362/323 338/376/338
f 316/363/316 332/377/332 317/367/317
f 309/365/309 325/378/325 310/368/310
f 317/367/317 333/379/333 318/369/318
f 310/368/310 326/380/326 311/370/311
f 319/371/319 333/379/333 334/381/334
f 311/370/311 327/382/327 312/372/312
f 319/371/319 335/383/335 320/356/320
f 312/372/312 328/384/328 313/357/313
f 321/358/321 335/383/335 336/385/336
f 313/357/313 329/386/329 314/359/314
f 321/358/321 337/387/337 322/360/322
f 315/361/315 329/386/329 330/388/330
f 323/362/323 337/387/337 338/376/338
f 316/363/316 330/388/330 331/389/331
f 327/382/327 343/390/343 328/384/328
f 336/385/336 350/391/350 351/392/351
f 328/384/328 344/393/344 329/386/329
f 336/385/336 352/394/352 337/387/337
f 330/388/330 344/393/344 345/395/345
f 338/376/338 352/394/352 353/396/353
f 331/389/331 345/395/345 346/397/346
f 324/374/324 82/398/82 339/399/339
f 308/400/308 338/376/338 353/396/353
f 331/389/331 347/401/347 332/377/332
f 324/374/324 340/402/340 325/378/325
f 332/377/332 348/403/348 333/379/333
f 325/378/325 341/404/341 326/380/326
f 334/381/334 348/403/348 349/405/349
f 326/380/326 342/406/342 327/382/327
f 334/381/334 350/391/350 335/383/335
f 346/397/346 362/407/362 347/401/347
f 339/399/339 355/408/355 340/402/340
f 347/401/347 363/409/363 348/403/348
f 340/402/340 356/410/356 341/404/341
f 349/405/349 363/409/363 364/411/364
f 341/404/341 357/412/357 342/406/342
f 349/405/349 365/413/365 350/391/350
f 342/406/342 358/414/358 343/390/343
f 351/392/351 365/413/365 366/415/366
f 343/390/343 359/416/359 344/393/344
f 351/392/351 367/417/367 352/394/352
f 345/395/345 359/416/359 360/418/360
f 353/396/353 367/417/367 368/419/368
f 346/397/346 360/418/360 361/420/361
f 339/399/339 82/421/82 354/422/354
f 308/423/308 353/396/353 368/419/368
f 366/424/366 380/425/380 381/426/381
f 358/427/358 374/428/374 359/429/359
f 366/424/366 382/430/382 367/431/367
f 360/432/360 374/428/374 375/433/375
f 367/431/367 383/434/383 368/435/368
f 361/436/361 375/433/375 376/437/376
f 354/438/354 82/439/82 369/440/369
f 308/441/308 368/435/368 383/434/383
f 361/436/361 377/442/377 362/443/362
f 354/438/354 370/444/370 355/445/355
f 362/443/362 378/446/378 363/447/363
f 355/445/355 371/448/371 356/449/356
f 364/450/364 378/446/378 379/451/379
f 356/449/356 372/452/372 357/453/357
f 364/450/364 380/425/380 365/454/365
f 357/453/357 373/455/373 358/427/358
f 377/442/377 393/456/393 378/446/378
f 370/444/370 386/457/386 371/448/371
f 379/451/379 393/456/393 394/458/394
f 371/448/371 387/459/387 372/452/372
f 379/451/379 395/460/395 380/425/380
f 372/452/372 388/461/388 373/455/373
f 381/426/381 395/460/395 396/462/396
f 373/455/373 389/463/389 374/428/374
f 381/426/381 397/464/397 382/430/382
f 375/433/375 389/463/389 390/465/390
f 382/430/382 398/466/398 383/434/383
f 376/437/376 390/465/390 391/467/391
f 369/440/369 82/468/82 384/469/384
f 308/470/308 383/434/383 398/466/398
f 376/437/376 392/471/392 377/442/377
f 369/440/369 385/472/385 370/444/370
f 396/462/396 412/473/412 397/464/397
f 390/465/390 404/474/404 405/475/405
f 398/466/398 412/473/412 413/476/413
f 391/467/391 405/475/405 406/477/406
f 384/469/384 82/478/82 399/479/399
f 308/480/308 398/466/398 413/476/413
f 391/467/391 407/481/407 392/471/392
f 384/469/384 400/482/400 385/472/385
f 392/471/392 408/483/408 393/456/393
f 385/472/385 401/484/401 386/457/386
f 394/458/394 408/483/408 409/485/409
f 386/457/386 402/486/402 387/459/387
f 394/458/394 410/487/410 395/460/395
f 387/459/387 403/488/403 388/461/388
f 396/462/396 410/487/410 411/489/411
f 388/461/388 404/474/404 389/463/389
f 400/482/400 416/490/416 401/484/401
f 409/485/409 423/491/423 424/492/424
f 401/484/401 417/493/417 402/486/402
f 409/485/409 425/494/425 410/487/410
f 402/486/402 418/495/418 403/488/403
f 411/489/411 425/494/425 426/496/426
f 403/488/403 419/497/419 404/474/404
f 411/489/411 427/498/427 412/473/412
f 405/475/405 419/497/419 420/499/420
f 412/473/412 428/500/428 413/476/413
f 406/477/406 420/499/420 421/501/421
f 399/479/399 82/502/82 414/503/414
f 308/504/308 413/476/413 428/500/428
f 406/477/406 422/505/422 407/481/407
f 399/479/399 415/506/415 400/482/400
f 407/481/407 423/491/423 408/483/408
f 420/499/420 434/507/434 435/508/435
f 428/500/428 442/509/442 443/510/443
f 421/501/421 435/508/435 436/511/436
f 414/503/414 82/512/82 429/513/429
f 308/514/308 428/500/428 443/510/443
f 421/501/421 437/515/437 422/505/422
f 414/503/414 430/516/430 415/506/415
f 422/505/422 438/517/438 423/491/423
f 415/506/415 431/518/431 416/490/416
f 424/492/424 438/517/438 439/519/439
f 416/490/416 432/520/432 417/493/417
f 424/492/424 440/521/440 425/494/425
f 417/493/417 433/522/433 418/495/418
f 426/496/426 440/521/440 441/523/441
f 418/495/418 434/507/434 419/497/419
f 426/496/426 442/509/442 427/498/427
f 439/519/439 453/524/453 454/525/454
f 431/518/431 447/526/447 432/520/432
f 439/519/439 455/527/455 440/521/440
f 432/520/432 448/528/448 433/522/433
f 441/523/441 455/527/455 456/529/456
f 433/522/433 449/530/449 434/507/434
f 441/523/441 457/531/457 442/509/442
f 435/508/435 449/530/449 450/532/450
f 442/509/442 458/533/458 443/510/443
f 436/511/436 450/532/450 451/534/451
f 429/513/429 82/535/82 444/536/444
f 308/537/308 443/510/443 458/533/458
f 436/511/436 452/538/452 437/515/437
f 429/513/429 445/539/445 430/516/430
f 437/515/437 453/524/453 438/517/438
f 430/516/430 446/540/446 431/518/431
f 458/533/458 472/541/472 473/542/473
f 451/534/451 465/543/465 466/544/466
f 444/536/444 82/545/82 459/546/459
f 308/547/308 458/533/458 473/542/473
f 451/534/451 467/548/467 452/538/452
f 444/536/444 460/549/460 445/539/445
f 452/538/452 468/550/468 453/524/453
f 445/539/445 461/551/461 446/540/446
f 454/525/454 468/550/468 469/552/469
f 446/540/446 462/553/462 447/526/447
f 454/525/454 470/554/470 455/527/455
f 447/526/447 463/555/463 448/528/448
f 456/529/456 470/554/470 471/556/471
f 448/528/448 464/557/464 449/530/449
f 456/529/456 472/541/472 457/531/457
f 450/532/450 464/557/464 465/543/465
f 461/551/461 476/4/476 462/553/462
f 469/552/469 479/7/479 470/554/470
f 462/553/462 2/9/2 463/555/463
f 471/556/471 479/7/479 480/12/480
f 464/557/464 2/9/2 477/13/477
f 471/556/471 481/16/481 472/541/472
f 465/543/465 477/13/477 3/17/3
f 472/541/472 482/20/482 473/542/473
f 466/544/466 3/17/3 4/22/4
f 459/546/459 82/558/82 474/23/474
f 308/559/308 473/542/473 482/20/482
f 466/544/466 5/28/5 467/548/467
f 459/546/459 475/29/475 460/549/460
f 467/548/467 478/1/478 468/550/468
f 460/549/460 1/32/1 461/551/461
f 469/552/469 478/1/478 6/3/6
f 478/1/478 16/31/16 17/2/17
f 476/4/476 1/32/1 9/5/9
f 479/7/479 6/3/6 17/2/17
f 2/9/2 476/4/476 10/6/10
f 479/7/479 18/8/18 19/11/19
f 477/13/477 2/9/2 11/10/11
f 480/12/480 19/11/19 20/15/20
f 3/17/3 477/13/477 12/14/12
f 481/16/481 20/15/20 21/19/21
f 3/17/3 13/18/13 14/21/14
f 4/22/4 14/21/14 15/27/15
f 475/29/475 474/23/474 7/25/7
f 478/1/478 5/28/5 15/27/15
f 1/32/1 475/29/475 8/30/8
f 15/27/15 30/49/30 31/33/31
f 9/5/9 8/30/8 23/34/23
f 17/2/17 16/31/16 31/33/31
f 10/6/10 9/5/9 24/35/24
f 18/8/18 17/2/17 32/36/32
f 11/10/11 10/6/10 25/37/25
f 19/11/19 18/8/18 33/38/33
f 11/10/11 26/39/26 27/41/27
f 20/15/20 19/11/19 34/40/34
f 13/18/13 12/14/12 27/41/27
f 21/19/21 20/15/20 35/42/35
f 13/18/13 28/43/28 29/45/29
f 14/21/14 29/45/29 30/49/30
f 8/30/8 7/25/7 22/47/22
f 35/42/35 34/40/34 49/50/49
f 28/43/28 27/41/27 42/52/42
f 36/44/36 35/42/35 50/51/50
f 29/45/29 28/43/28 43/53/43
f 29/45/29 44/55/44 45/59/45
f 23/34/23 22/47/22 37/57/37
f 30/49/30 45/59/45 46/61/46
f 24/35/24 23/34/23 38/60/38
f 32/36/32 31/33/31 46/61/46
f 25/37/25 24/35/24 39/62/39
f 33/38/33 32/36/32 47/63/47
f 26/39/26 25/37/25 40/64/40
f 34/40/34 33/38/33 48/65/48
f 26/39/26 41/66/41 42/52/42
f 39/62/39 38/60/38 53/67/53
f 47/63/47 46/61/46 61/69/61
f 40/64/40 39/62/39 54/68/54
f 47/63/47 62/70/62 63/72/63
f 41/66/41 40/64/40 55/71/55
f 49/50/49 48/65/48 63/72/63
f 41/66/41 56/73/56 57/75/57
f 50/51/50 49/50/49 64/74/64
f 43/53/43 42/52/42 57/75/57
f 51/54/51 50/51/50 65/76/65
f 44/55/44 43/53/43 58/77/58
f 44/55/44 59/79/59 60/83/60
f 38/60/38 37/57/37 52/81/52
f 45/59/45 60/83/60 61/69/61
f 58/77/58 57/75/57 72/84/72
f 65/76/65 80/100/80 81/86/81
f 59/79/59 58/77/58 73/85/73
f 59/79/59 74/87/74 75/91/75
f 53/67/53 52/81/52 67/89/67
f 60/83/60 75/91/75 76/93/76
f 54/68/54 53/67/53 68/92/68
f 62/70/62 61/69/61 76/93/76
f 55/71/55 54/68/54 69/94/69
f 62/70/62 77/95/77 78/97/78
f 56/73/56 55/71/55 70/96/70
f 64/74/64 63/72/63 78/97/78
f 56/73/56 71/98/71 72/84/72
f 64/74/64 79/99/79 80/100/80
f 77/95/77 76/93/76 92/101/92
f 70/96/70 69/94/69 85/103/85
f 77/95/77 93/102/93 94/105/94
f 71/98/71 70/96/70 86/104/86
f 79/99/79 78/97/78 94/105/94
f 71/98/71 87/106/87 88/108/88
f 80/100/80 79/99/79 95/107/95
f 73/85/73 72/84/72 88/108/88
f 81/86/81 80/100/80 96/109/96
f 74/87/74 73/85/73 89/110/89
f 74/87/74 90/112/90 91/116/91
f 68/92/68 67/89/67 83/114/83
f 75/91/75 91/116/91 92/101/92
f 69/94/69 68/92/68 84/117/84
f 96/109/96 111/134/111 112/118/112
f 90/112/90 89/110/89 104/119/104
f 90/112/90 105/120/105 106/124/106
f 84/117/84 83/114/83 98/122/98
f 91/116/91 106/124/106 107/126/107
f 85/103/85 84/117/84 99/125/99
f 93/102/93 92/101/92 107/126/107
f 86/104/86 85/103/85 100/127/100
f 93/102/93 108/128/108 109/130/109
f 87/106/87 86/104/86 101/129/101
f 95/107/95 94/105/94 109/130/109
f 87/106/87 102/131/102 103/133/103
f 95/107/95 110/132/110 111/134/111
f 89/110/89 88/108/88 103/133/103
f 108/128/108 123/151/123 124/135/124
f 102/131/102 101/129/101 116/136/116
f 110/132/110 109/130/109 124/135/124
f 102/131/102 117/137/117 118/139/118
f 111/134/111 110/132/110 125/138/125
f 104/119/104 103/133/103 118/139/118
f 111/134/111 126/140/126 127/142/127
f 105/120/105 104/119/104 119/141/119
f 105/120/105 120/143/120 121/147/121
f 99/125/99 98/122/98 113/145/113
f 106/124/106 121/147/121 122/149/122
f 100/127/100 99/125/99 114/148/114
f 108/128/108 107/126/107 122/149/122
f 101/129/101 100/127/100 115/150/115
f 120/143/120 135/168/135 136/156/136
f 114/148/114 113/145/113 128/153/128
f 121/147/121 136/156/136 137/158/137
f 115/150/115 114/148/114 129/157/129
f 123/151/123 122/149/122 137/158/137
f 116/136/116 115/150/115 130/159/130
f 123/151/123 138/160/138 139/162/139
f 117/137/117 116/136/116 131/161/131
f 125/138/125 124/135/124 139/162/139
f 117/137/117 132/163/132 133/165/133
f 125/138/125 140/164/140 141/166/141
f 119/141/119 118/139/118 133/165/133
f 126/140/126 141/166/141 142/155/142
f 120/143/120 119/141/119 134/167/134
f 132/163/132 131/161/131 146/169/146
f 140/164/140 139/162/139 154/171/154
f 132/163/132 147/170/147 148/173/148
f 141/166/141 140/164/140 155/172/155
f 134/167/134 133/165/133 148/173/148
f 141/166/141 156/174/156 157/176/157
f 135/168/135 134/167/134 149/175/149
f 135/168/135 150/177/150 151/181/151
f 129/157/129 128/153/128 143/179/143
f 136/156/136 151/181/151 152/183/152
f 130/159/130 129/157/129 144/182/144
f 138/160/138 137/158/137 152/183/152
f 131/161/131 130/159/130 145/184/145
f 138/160/138 153/185/153 154/171/154
f 150/177/150 165/200/165 166/186/166
f 144/182/144 143/179/143 158/187/158
f 151/181/151 166/186/166 167/189/167
f 145/184/145 144/182/144 159/188/159
f 153/185/153 152/183/152 167/189/167
f 146/169/146 145/184/145 160/190/160
f 153/185/153 168/191/168 169/193/169
f 147/170/147 146/169/146 161/192/161
f 155/172/155 154/171/154 169/193/169
f 147/170/147 162/194/162 163/196/163
f 156/174/156 155/172/155 170/195/170
f 149/175/149 148/173/148 163/196/163
f 157/176/157 156/174/156 171/197/171
f 150/177/150 149/175/149 164/198/164
f 170/195/170 169/193/169 184/203/184
f 162/194/162 177/219/177 178/205/178
f 171/197/171 170/195/170 185/204/185
f 164/198/164 163/196/163 178/205/178
f 172/199/172 171/197/171 186/206/186
f 165/200/165 164/198/164 179/207/179
f 165/200/165 180/209/180 181/213/181
f 159/188/159 158/187/158 173/211/173
f 166/186/166 181/213/181 182/215/182
f 160/190/160 159/188/159 174/214/174
f 168/191/168 167/189/167 182/215/182
f 161/192/161 160/190/160 175/216/175
f 168/191/168 183/217/183 184/203/184
f 162/194/162 161/192/161 176/218/176
f 174/214/174 173/211/173 188/220/188
f 181/213/181 196/236/196 197/222/197
f 175/216/175 174/214/174 189/221/189
f 183/217/183 182/215/182 197/222/197
f 176/218/176 175/216/175 190/223/190
f 183/217/183 198/224/198 199/226/199
f 177/219/177 176/218/176 191/225/191
f 185/204/185 184/203/184 199/226/199
f 177/219/177 192/227/192 193/229/193
f 185/204/185 200/228/200 201/230/201
f 179/207/179 178/205/178 193/229/193
f 186/206/186 201/230/201 202/232/202
f 180/209/180 179/207/179 194/231/194
f 180/209/180 195/233/195 196/236/196
f 192/227/192 207/253/207 208/237/208
f 201/230/201 200/228/200 215/238/215
f 194/231/194 193/229/193 208/237/208
f 202/232/202 201/230/201 216/239/216
f 195/233/195 194/231/194 209/240/209
f 195/233/195 210/242/210 211/246/211
f 189/221/189 188/220/188 203/244/203
f 196/236/196 211/246/211 212/248/212
f 190/223/190 189/221/189 204/247/204
f 198/224/198 197/222/197 212/248/212
f 191/225/191 190/223/190 205/249/205
f 198/224/198 213/250/213 214/252/214
f 192/227/192 191/225/191 206/251/206
f 200/228/200 199/226/199 214/252/214
f 211/246/211 226/270/226 227/254/227
f 205/249/205 204/247/204 219/255/219
f 213/250/213 212/248/212 227/254/227
f 206/251/206 205/249/205 220/256/220
f 213/250/213 228/257/228 229/259/229
f 207/253/207 206/251/206 221/258/221
f 215/238/215 214/252/214 229/259/229
f 207/253/207 222/260/222 223/262/223
f 216/239/216 215/238/215 230/261/230
f 209/240/209 208/237/208 223/262/223
f 217/241/217 216/239/216 231/263/231
f 210/242/210 209/240/209 224/264/224
f 210/242/210 225/266/225 226/270/226
f 204/247/204 203/244/203 218/268/218
f 231/263/231 230/261/230 245/271/245
f 224/264/224 223/262/223 238/273/238
f 231/263/231 246/272/246 247/275/247
f 225/266/225 224/264/224 239/274/239
f 225/266/225 240/276/240 241/280/241
f 219/255/219 218/268/218 233/278/233
f 226/270/226 241/280/241 242/282/242
f 220/256/220 219/255/219 234/281/234
f 228/257/228 227/254/227 242/282/242
f 221/258/221 220/256/220 235/283/235
f 228/257/228 243/284/243 244/286/244
f 222/260/222 221/258/221 236/285/236
f 230/261/230 229/259/229 244/286/244
f 222/260/222 237/287/237 238/273/238
f 243/284/243 242/282/242 257/288/257
f 235/283/235 250/304/250 251/290/251
f 243/284/243 258/289/258 259/291/259
f 236/285/236 251/290/251 252/292/252
f 245/271/245 244/286/244 259/291/259
f 237/287/237 252/292/252 253/294/253
f 245/271/245 260/293/260 261/295/261
f 239/274/239 238/273/238 253/294/253
f 246/272/246 261/295/261 262/297/262
f 240/276/240 239/274/239 254/296/254
f 240/276/240 255/298/255 256/302/256
f 233/278/233 248/300/248 249/303/249
f 241/280/241 256/302/256 257/288/257
f 234/281/234 249/303/249 250/304/250
f 261/295/261 276/321/276 277/305/277
f 255/298/255 254/296/254 269/306/269
f 255/298/255 270/307/270 271/311/271
f 248/300/248 263/309/263 264/312/264
f 256/302/256 271/311/271 272/313/272
f 249/303/249 264/312/264 265/314/265
f 258/289/258 257/288/257 272/313/272
f 250/304/250 265/314/265 266/316/266
f 258/289/258 273/315/273 274/317/274
f 251/290/251 266/316/266 267/318/267
f 260/293/260 259/291/259 274/317/274
f 252/292/252 267/318/267 268/320/268
f 261/295/261 260/293/260 275/319/275
f 254/296/254 253/294/253 268/320/268
f 265/314/265 280/337/280 281/322/281
f 273/315/273 288/338/288 289/323/289
f 266/316/266 281/322/281 282/324/282
f 275/319/275 274/317/274 289/323/289
f 267/318/267 282/324/282 283/326/283
f 275/319/275 290/325/290 291/327/291
f 269/306/269 268/320/268 283/326/283
f 276/321/276 291/327/291 292/329/292
f 270/307/270 269/306/269 284/328/284
f 270/307/270 285/330/285 286/334/286
f 263/309/263 278/332/278 279/335/279
f 271/311/271 286/334/286 287/336/287
f 264/312/264 279/335/279 280/337/280
f 273/315/273 272/313/272 287/336/287
f 285/330/285 284/328/284 299/339/299
f 285/330/285 300/340/300 301/345/301
f 278/332/278 293/342/293 294/346/294
f 286/334/286 301/345/301 302/347/302
f 279/335/279 294/346/294 295/348/295
f 288/338/288 287/336/287 302/347/302
f 280/337/280 295/348/295 296/350/296
f 288/338/288 303/349/303 304/351/304
f 281/322/281 296/350/296 297/352/297
f 290/325/290 289/323/289 304/351/304
f 282/324/282 297/352/297 298/354/298
f 290/325/290 305/353/305 306/355/306
f 284/328/284 283/326/283 298/354/298
f 292/329/292 291/327/291 306/355/306
f 303/349/303 319/371/319 320/356/320
f 296/350/296 312/372/312 313/357/313
f 305/353/305 304/351/304 320/356/320
f 297/352/297 313/357/313 314/359/314
f 305/353/305 321/358/321 322/360/322
f 299/339/299 298/354/298 314/359/314
f 306/355/306 322/360/322 323/362/323
f 300/340/300 299/339/299 315/361/315
f 300/340/300 316/363/316 317/367/317
f 293/342/293 309/365/309 310/368/310
f 301/345/301 317/367/317 318/369/318
f 294/346/294 310/368/310 311/370/311
f 303/349/303 302/347/302 318/369/318
f 295/348/295 311/370/311 312/372/312
f 316/363/316 331/389/331 332/377/332
f 309/365/309 324/374/324 325/378/325
f 317/367/317 332/377/332 333/379/333
f 310/368/310 325/378/325 326/380/326
f 319/371/319 318/369/318 333/379/333
f 311/370/311 326/380/326 327/382/327
f 319/371/319 334/381/334 335/383/335
f 312/372/312 327/382/327 328/384/328
f 321/358/321 320/356/320 335/383/335
f 313/357/313 328/384/328 329/386/329
f 321/358/321 336/385/336 337/387/337
f 315/361/315 314/359/314 329/386/329
f 323/362/323 322/360/322 337/387/337
f 316/363/316 315/361/315 330/388/330
f 327/382/327 342/406/342 343/390/343
f 336/385/336 335/383/335 350/391/350
f 328/384/328 343/390/343 344/393/344
f 336/385/336 351/392/351 352/394/352
f 330/388/330 329/386/329 344/393/344
f 338/376/338 337/387/337 352/394/352
f 331/389/331 330/388/330 345/395/345
f 331/389/331 346/397/346 347/401/347
f 324/374/324 339/399/339 340/402/340
f 332/377/332 347/401/347 348/403/348
f 325/378/325 340/402/340 341/404/341
f 334/381/334 333/379/333 348/403/348
f 326/380/326 341/404/341 342/406/342
f 334/381/334 349/405/349 350/391/350
f 346/397/346 361/420/361 362/407/362
f 339/399/339 354/422/354 355/408/355
f 347/401/347 362/407/362 363/409/363
f 340/402/340 355/408/355 356/410/356
f 349/405/349 348/403/348 363/409/363
f 341/404/341 356/410/356 357/412/357
f 349/405/349 364/411/364 365/413/365
f 342/406/342 357/412/357 358/414/358
f 351/392/351 350/391/350 365/413/365
f 343/390/343 358/414/358 359/416/359
f 351/392/351 366/415/366 367/417/367
f 345/395/345 344/393/344 359/416/359
f 353/396/353 352/394/352 367/417/367
f 346/397/346 345/395/345 360/418/360
f 366/424/366 365/454/365 380/425/380
f 358/427/358 373/455/373 374/428/374
f 366/424/366 381/426/381 382/430/382
f 360/432/360 359/429/359 374/428/374
f 367/431/367 382/430/382 383/434/383
f 361/436/361 360/432/360 375/433/375
f 361/436/361 376/437/376 377/442/377
f 354/438/354 369/440/369 370/444/370
f 362/443/362 377/442/377 378/446/378
f 355/445/355 370/444/370 371/448/371
f 364/450/364 363/447/363 378/446/378
f 356/449/356 371/448/371 372/452/372
f 364/450/364 379/451/379 380/425/380
f 357/453/357 372/452/372 373/455/373
f 377/442/377 392/471/392 393/456/393
f 370/444/370 385/472/385 386/457/386
f 379/451/379 378/446/378 393/456/393
f 371/448/371 386/457/386 387/459/387
f 379/451/379 394/458/394 395/460/395
f 372/452/372 387/459/387 388/461/388
f 381/426/381 380/425/380 395/460/395
f 373/455/373 388/461/388 389/463/389
f 381/426/381 396/462/396 397/464/397
f 375/433/375 374/428/374 389/463/389
f 382/430/382 397/464/397 398/466/398
f 376/437/376 375/433/375 390/465/390
f 376/437/376 391/467/391 392/471/392
f 369/440/369 384/469/384 385/472/385
f 396/462/396 411/489/411 412/473/412
f 390/465/390 389/463/389 404/474/404
f 398/466/398 397/464/397 412/473/412
f 391/467/391 390/465/390 405/475/405
f 391/467/391 406/477/406 407/481/407
f 384/469/384 399/479/399 400/482/400
f 392/471/392 407/481/407 408/483/408
f 385/472/385 400/482/400 401/484/401
f 394/458/394 393/456/393 408/483/408
f 386/457/386 401/484/401 402/486/402
f 394/458/394 409/485/409 410/487/410
f 387/459/387 402/486/402 403/488/403
f 396/462/396 395/460/395 410/487/410
f 388/461/388 403/488/403 404/474/404
f 400/482/400 415/506/415 416/490/416
f 409/485/409 408/483/408 423/491/423
f 401/484/401 416/490/416 417/493/417
f 409/485/409 424/492/424 425/494/425
f 402/486/402 417/493/417 418/495/418
f 411/489/411 410/487/410 425/494/425
f 403/488/403 418/495/418 419/497/419
f 411/489/411 426/496/426 427/498/427
f 405/475/405 404/474/404 419/497/419
f 412/473/412 427/498/427 428/500/428
f 406/477/406 405/475/405 420/499/420
f 406/477/406 421/501/421 422/505/422
f 399/479/399 414/503/414 415/506/415
f 407/481/407 422/505/422 423/491/423
f 420/499/420 419/497/419 434/507/434
f 428/500/428 427/498/427 442/509/442
f 421/501/421 420/499/420 435/508/435
f 421/501/421 436/511/436 437/515/437
f 414/503/414 429/513/429 430/516/430
f 422/505/422 437/515/437 438/517/438
f 415/506/415 430/516/430 431/518/431
f 424/492/424 423/491/423 438/517/438
f 416/490/416 431/518/431 432/520/432
f 424/492/424 439/519/439 440/521/440
f 417/493/417 432/520/432 433/522/433
f 426/496/426 425/494/425 440/521/440
f 418/495/418 433/522/433 434/507/434
f 426/496/426 441/523/441 442/509/442
f 439/519/439 438/517/438 453/524/453
f 431/518/431 446/540/446 447/526/447
f 439/519/439 454/525/454 455/527/455
f 432/520/432 447/526/447 448/528/448
f 441/523/441 440/521/440 455/527/455
f 433/522/433 448/528/448 449/530/449
f 441/523/441 456/529/456 457/531/457
f 435/508/435 434/507/434 449/530/449
f 442/509/442 457/531/457 458/533/458
f 436/511/436 435/508/435 450/532/450
f 436/511/436 451/534/451 452/538/452
f 429/513/429 444/536/444 445/539/445
f 437/515/437 452/538/452 453/524/453
f 430/516/430 445/539/445 446/540/446
f 458/533/458 457/531/457 472/541/472
f 451/534/451 450/532/450 465/543/465
f 451/534/451 466/544/466 467/548/467
f 444/536/444 459/546/459 460/549/460
f 452/538/452 467/548/467 468/550/468
f 445/539/445 460/549/460 461/551/461
f 454/525/454 453/524/453 468/550/468
f 446/540/446 461/551/461 462/553/462
f 454/525/454 469/552/469 470/554/470
f 447/526/447 462/553/462 463/555/463
f 456/529/456 455/527/455 470/554/470
f 448/528/448 463/555/463 464/557/464
f 456/529/456 471/556/471 472/541/472
f 450/532/450 449/530/449 464/557/464
f 461/551/461 1/32/1 476/4/476
f 469/552/469 6/3/6 479/7/479
f 462/553/462 476/4/476 2/9/2
f 471/556/471 470/554/470 479/7/479
f 464/557/464 463/555/463 2/9/2
f 471/556/471 480/12/480 481/16/481
f 465/543/465 464/557/464 477/13/477
f 472/541/472 481/16/481 482/20/482
f 466/544/466 465/543/465 3/17/3
f 466/544/466 4/22/4 5/28/5
f 459/546/459 474/23/474 475/29/475
f 467/548/467 5/28/5 478/1/478
f 460/549/460 475/29/475 1/32/1
f 469/552/469 468/550/468 478/1/478
