# Blender 4.1.1
# www.blender.org
mtllib ground.mtl
o 平面
v -1254.461426 127.816833 1254.461426
v 1254.461426 -100.605972 1254.461426
v -1254.461426 60.202255 -1254.461426
v 1254.461426 -100.605972 -1254.461426
v -896.043884 2.413918 1254.461426
v -537.626343 -100.605972 1254.461426
v -179.208771 -100.605972 1254.461426
v 179.208771 -100.605972 1254.461426
v 537.626343 -3.970573 1254.461426
v 896.043884 -74.945724 1254.461426
v 896.043884 -166.788971 -1254.461426
v 537.626343 -172.887085 -1254.461426
v 179.208771 -179.945526 -1254.461426
v -179.208771 -100.605972 -1254.461426
v -537.626343 -100.605972 -1254.461426
v -896.043884 -100.605972 -1254.461426
v -1254.461426 83.069443 -896.043884
v -1254.461426 -100.605972 -537.626343
v -1254.461426 -100.605972 -179.208771
v -1254.461426 -100.605972 179.208771
v -1254.461426 74.762741 537.626343
v -1254.461426 110.991226 896.043884
v 1254.461426 -100.605972 896.043884
v 1254.461426 -100.605972 537.626343
v 1254.461426 -100.605972 179.208771
v 1254.461426 -100.605972 -179.208771
v 1254.461426 -100.605972 -537.626343
v 1254.461426 -100.605972 -896.043884
v -896.043884 -8.258194 896.043884
v -896.043884 -4.889282 537.626343
v -896.043884 -100.605972 179.208771
v -896.043884 -100.605972 -179.208771
v -896.043884 -100.605972 -537.626343
v -896.043884 39.104919 -896.043884
v -537.626343 -100.605972 896.043884
v -537.626343 -7.685555 537.626343
v -537.626343 -100.605972 179.208771
v -537.626343 -100.605972 -179.208771
v -537.626343 -100.605972 -537.626343
v -537.626343 -100.605972 -896.043884
v -179.208771 -100.605972 896.043884
v -179.208771 -43.070408 537.626343
v -179.208771 -100.605972 179.208771
v -179.208771 -33.431213 -179.208771
v -204.033340 -65.182991 -558.930298
v -179.208771 -100.605972 -896.043884
v 179.208771 -100.605972 896.043884
v 179.208771 -100.605972 537.626343
v 179.208771 -100.605972 179.208771
v 179.208771 12.525421 -179.208771
v 179.208771 -71.858459 -537.626343
v 179.208771 -152.032501 -896.043884
v 537.626343 -3.970573 896.043884
v 537.626343 -100.605972 537.626343
v 537.626343 -100.605972 179.208771
v 537.626343 -100.605972 -179.208771
v 537.626343 -100.605972 -537.626343
v 537.626343 -167.679199 -896.043884
v 896.043884 -3.970573 896.043884
v 896.043884 -100.605972 537.626343
v 896.043884 -165.291046 179.208771
v 896.043884 -185.352386 -179.208771
v 896.043884 -100.605972 -537.626343
v 896.043884 -100.605972 -896.043884
v 0.645679 -37.192032 -14.911937
v 1.180537 -30.084282 -7.037143
v -0.936030 -35.095299 12.317943
v -1.229026 -31.046318 7.462732
v 6.752507 -29.401192 -5.839108
v 9.958036 -35.675423 -8.437572
v 5.792057 -31.743912 5.665215
v 8.414590 -34.856270 9.142587
v -4.652038 -30.259140 -7.061213
v -10.390433 -34.829285 -12.267356
v -6.376220 -30.662140 5.621352
v -9.894772 -35.407303 8.662362
v 9.521051 -44.366905 -8.922501
v 3.935667 -49.303032 -4.134017
v 3.752015 -49.917255 5.478297
v 10.106771 -42.775009 9.195704
v -7.649185 -43.615421 -14.487822
v -7.379988 -48.910221 -4.898372
v -7.875610 -50.624878 6.157378
v -12.308262 -44.216770 10.538274
v -2.176138 -49.466972 -6.077742
v -0.651900 -44.987000 -15.055419
v -1.755990 -49.560684 7.306379
v -0.246373 -42.899204 12.054733
v 7.013072 -29.909370 -0.000001
v 13.404030 -34.141029 -0.346618
v -7.426999 -30.827049 -2.007419
v -14.352542 -38.121651 -4.384279
v -9.448727 -49.634956 0.710461
v -14.608130 -44.222641 -0.361121
v 5.516559 -49.392704 0.518215
v 13.322761 -43.625103 0.658316
v -1.653607 -50.651669 0.185208
v 0.394601 -28.462440 -0.744564
v -119.661812 -64.145554 -582.445862
v -119.126961 -57.037800 -574.571106
v -121.243523 -62.048820 -555.216003
v -121.536514 -57.999847 -560.071167
v -113.554993 -56.354713 -573.373047
v -110.349464 -62.628941 -575.971497
v -114.515434 -58.697433 -561.868713
v -111.892906 -61.809795 -558.391357
v -124.959534 -57.212662 -574.595154
v -130.697937 -61.782814 -579.801270
v -126.683716 -57.615665 -561.912598
v -130.202271 -62.360828 -558.871582
v -110.786446 -71.320427 -576.456421
v -116.371826 -76.256561 -571.667969
v -116.555481 -76.870773 -562.055664
v -110.200722 -69.728531 -558.338257
v -127.956680 -70.568947 -582.021729
v -127.687485 -75.863739 -572.432312
v -128.183105 -77.578400 -561.376587
v -132.615753 -71.170296 -556.995667
v -122.483635 -76.420494 -573.611694
v -120.959389 -71.940521 -582.589355
v -122.063484 -76.514206 -560.227539
v -120.553871 -69.852730 -555.479187
v -113.294418 -56.862896 -567.533936
v -106.903465 -61.094555 -567.880554
v -127.734497 -57.780571 -569.541382
v -134.660034 -65.075172 -571.918213
v -129.756226 -76.588478 -566.823486
v -134.915634 -71.176163 -567.895020
v -114.790939 -76.346222 -567.015747
v -106.984734 -70.578629 -566.875610
v -121.961098 -77.605194 -567.348755
v -119.912895 -55.415962 -568.278503
v 294.084839 -67.199493 1069.717285
v 294.619720 -60.091736 1077.592041
v 292.503143 -65.102753 1096.947144
v 292.210144 -61.053780 1092.091919
v 300.191681 -59.408649 1078.790161
v 303.397217 -65.682877 1076.191650
v 299.231232 -61.751366 1090.294434
v 301.853760 -64.863731 1093.771729
v 288.787140 -60.266598 1077.567993
v 283.048737 -64.836746 1072.361816
v 287.062958 -60.669598 1090.250488
v 283.544403 -65.414764 1093.291626
v 302.960236 -74.374359 1075.706665
v 297.374847 -79.310493 1080.495117
v 297.191193 -79.924713 1090.107544
v 303.545929 -72.782463 1093.824951
v 285.789978 -73.622879 1070.141357
v 286.059204 -78.917679 1079.730835
v 285.563568 -80.632332 1090.786621
v 281.130920 -74.224228 1095.167480
v 291.263031 -79.474426 1078.551392
v 292.787292 -74.994461 1069.573730
v 291.683197 -79.568138 1091.935547
v 293.192810 -72.906662 1096.683838
v 300.452240 -59.916832 1084.629150
v 306.843201 -64.148483 1084.282593
v 286.012177 -60.834507 1082.621826
v 279.086639 -68.129105 1080.244873
v 283.990448 -79.642410 1085.339722
v 278.831055 -74.230103 1084.268066
v 298.955750 -79.400162 1085.147461
v 306.761932 -73.632561 1085.287476
v 291.785553 -80.659126 1084.814453
v 293.833771 -58.469898 1083.884644
v -944.176270 19.048347 1000.849060
v -943.641357 26.156105 1008.723816
v -945.757996 21.145081 1028.078979
v -946.050903 25.194054 1023.223755
v -938.069397 26.839195 1009.921936
v -934.863892 20.564957 1007.323425
v -939.029846 24.496475 1021.426208
v -936.407349 21.384109 1024.903564
v -949.473999 25.981247 1008.699768
v -955.212341 21.411095 1003.493652
v -951.198120 25.578247 1021.382324
v -954.716675 20.833069 1024.423340
v -935.300842 11.873474 1006.838501
v -940.886230 6.937347 1011.626953
v -941.069885 6.323128 1021.239258
v -934.715149 13.465370 1024.956665
v -952.471130 12.624954 1001.273132
v -952.201904 7.330154 1010.862610
v -952.697510 5.615509 1021.918335
v -957.130127 12.023613 1026.299194
v -946.998047 6.773407 1009.683228
v -945.473816 11.253380 1000.705566
v -946.577942 6.679703 1023.067383
v -945.068298 13.341179 1027.815674
v -937.808838 26.331009 1015.760986
v -931.417908 22.099350 1015.414368
v -952.248901 25.413338 1013.753601
v -959.174438 18.118736 1011.376648
v -954.270630 6.605431 1016.471436
v -959.430054 12.017738 1015.399841
v -939.305298 6.847687 1016.279236
v -931.499146 12.615273 1016.419250
v -946.475464 5.588715 1015.946167
v -944.427307 27.777939 1015.016418
v -947.248474 -100.875710 -279.352264
v -946.713562 -93.767952 -271.477478
v -948.830200 -98.778969 -252.122375
v -949.123169 -94.729996 -256.977600
v -941.141663 -93.084869 -270.279449
v -937.936096 -99.359093 -272.877899
v -942.102112 -95.427589 -258.775116
v -939.479553 -98.539948 -255.297745
v -952.546204 -93.942818 -271.501556
v -958.284546 -98.512962 -276.707672
v -954.270386 -94.345818 -258.818970
v -957.788879 -99.090981 -255.777969
v -938.373047 -108.050583 -273.362823
v -943.958435 -112.986710 -268.574341
v -944.142090 -113.600929 -258.962036
v -937.787354 -106.458679 -255.244614
v -955.543335 -107.299095 -278.928162
v -955.274109 -112.593895 -269.338684
v -955.769775 -114.308548 -258.282959
v -960.202393 -107.900444 -253.902054
v -950.070312 -113.150650 -270.518066
v -948.546082 -108.670677 -279.495758
v -949.650146 -113.244354 -257.133942
v -948.140503 -106.582878 -252.385590
v -940.881042 -93.593048 -264.440338
v -934.490112 -97.824707 -264.786957
v -955.321106 -94.510727 -266.447754
v -962.246643 -101.805321 -268.824615
v -957.342896 -113.318626 -263.729858
v -962.502258 -107.906319 -264.801453
v -942.377563 -113.076378 -263.922089
v -934.571350 -107.308777 -263.782013
v -949.547729 -114.335342 -264.255127
v -947.499573 -92.146118 -265.184875
v 504.610870 -85.594582 -456.451416
v 497.157654 -78.486832 -459.049133
v 480.185059 -83.497849 -468.590057
v 484.765900 -79.448868 -466.954559
v 493.869507 -77.803741 -454.393982
v 495.001923 -84.077972 -450.425995
v 483.664520 -80.146461 -459.791199
v 479.437042 -83.258820 -458.743347
v 499.468262 -78.661690 -464.404572
v 506.508423 -83.231842 -467.640167
v 488.479126 -79.064690 -470.966553
v 487.062500 -83.809853 -475.396149
v 495.619415 -92.769455 -450.637695
v 493.406372 -97.705582 -457.653961
v 484.636871 -98.319801 -461.594330
v 478.724243 -91.177559 -457.207703
v 507.475311 -92.017975 -464.247528
v 498.549164 -97.312767 -467.762390
v 488.574402 -99.027428 -472.556061
v 486.283936 -92.619316 -478.352142
v 497.592194 -97.869522 -462.513092
v 505.251953 -93.389549 -457.588623
v 485.116455 -97.963234 -467.377960
v 480.156555 -91.301758 -467.852417
v 488.396393 -78.311920 -456.445343
v 486.207672 -82.543579 -450.430878
v 495.908447 -79.229599 -468.939911
v 500.811981 -86.524200 -474.377563
v 494.201752 -98.037498 -471.865906
v 497.211731 -92.625191 -476.191162
v 488.506866 -97.795250 -458.025177
v 485.315247 -92.027649 -450.899902
v 491.626434 -99.054214 -464.489746
v 491.678009 -76.864990 -462.240997
v 1073.839844 -140.806671 -344.437561
v 1066.386719 -133.698914 -347.035278
v 1049.414062 -138.709930 -356.576202
v 1053.994873 -134.660965 -354.940704
v 1063.098511 -133.015839 -342.380188
v 1064.230835 -139.290070 -338.412170
v 1052.893555 -135.358551 -347.777374
v 1048.666016 -138.470917 -346.729523
v 1068.697144 -133.873779 -352.390747
v 1075.737427 -138.443924 -355.626343
v 1057.708130 -134.276779 -358.952698
v 1056.291504 -139.021942 -363.382294
v 1064.848389 -147.981537 -338.623840
v 1062.635254 -152.917679 -345.640137
v 1053.865845 -153.531891 -349.580475
v 1047.953247 -146.389648 -345.193848
v 1076.704224 -147.230057 -352.233673
v 1067.778076 -152.524857 -355.748566
v 1057.803345 -154.239517 -360.542206
v 1055.512939 -147.831421 -366.338287
v 1066.821167 -153.081604 -350.499237
v 1074.480957 -148.601639 -345.574768
v 1054.345459 -153.175323 -355.364075
v 1049.385498 -146.513855 -355.838562
v 1057.625366 -133.524017 -344.431519
v 1055.436646 -137.755676 -338.416992
v 1065.137451 -134.441696 -356.926056
v 1070.041016 -141.736298 -362.363708
v 1063.430786 -153.249603 -359.852051
v 1066.440796 -147.837280 -364.177307
v 1057.735840 -153.007339 -346.011322
v 1054.544189 -147.239746 -338.886017
v 1060.855469 -154.266312 -352.475891
v 1060.906982 -132.077087 -350.227142
v 1073.839844 -92.777870 574.007263
v 1066.386719 -85.670113 571.409546
v 1049.414062 -90.681129 561.868652
v 1053.994873 -86.632156 563.504089
v 1063.098511 -84.987030 576.064636
v 1064.230835 -91.261253 580.032654
v 1052.893555 -87.329742 570.667480
v 1048.666016 -90.442108 571.715332
v 1068.697144 -85.844978 566.054077
v 1075.737427 -90.415123 562.818481
v 1057.708130 -86.247978 559.492126
v 1056.291504 -90.993141 555.062561
v 1064.848389 -99.952744 579.820984
v 1062.635254 -104.888870 572.804688
v 1053.865845 -105.503090 568.864380
v 1047.953247 -98.360840 573.250977
v 1076.704224 -99.201256 566.211121
v 1067.778076 -104.496056 562.696289
v 1057.803345 -106.210709 557.902649
v 1055.512939 -99.802605 552.106567
v 1066.821167 -105.052811 567.945618
v 1074.480957 -100.572830 572.870056
v 1054.345459 -105.146515 563.080750
v 1049.385498 -98.485039 562.606262
v 1057.625366 -85.495209 574.013306
v 1055.436646 -89.726868 580.027832
v 1065.137451 -86.412888 561.518799
v 1070.041016 -93.707481 556.081116
v 1063.430786 -105.220787 558.592773
v 1066.440796 -99.808479 554.267517
v 1057.735840 -104.978539 572.433533
v 1054.544189 -99.210938 579.558777
v 1060.855469 -106.237503 565.968933
v 1060.906982 -84.048279 568.217712
v -0.164572 -70.303337 522.984558
v 0.370286 -63.195583 530.859314
v -1.746281 -68.206604 550.214417
v -2.039276 -64.157623 545.359253
v 5.942256 -62.512497 532.057373
v 9.147786 -68.786728 529.458923
v 4.981807 -64.855217 543.561707
v 7.604340 -67.967575 547.039062
v -5.462288 -63.370445 530.835266
v -11.200685 -67.940598 525.629150
v -7.186470 -63.773449 543.517822
v -10.705023 -68.518616 546.558838
v 8.710801 -77.478210 528.973999
v 3.125416 -82.414337 533.762451
v 2.941764 -83.028557 543.374756
v 9.296520 -75.886307 547.092163
v -8.459435 -76.726730 523.408691
v -8.190238 -82.021530 532.998108
v -8.685861 -83.736183 544.053833
v -13.118513 -77.328079 548.434753
v -2.986389 -82.578278 531.818726
v -1.462151 -78.098305 522.841064
v -2.566241 -82.671982 545.202881
v -1.056623 -76.010513 549.951233
v 6.202822 -63.020679 537.896484
v 12.593779 -67.252335 537.549866
v -8.237249 -63.938354 535.889038
v -15.162793 -71.232956 533.512207
v -10.258977 -82.746254 538.606934
v -15.418381 -77.333946 537.535400
v 4.706309 -82.504005 538.414673
v 12.512510 -76.736404 538.554810
v -2.463857 -83.762970 538.081665
v -0.415649 -61.573742 537.151917
v -959.409058 48.003235 -920.077332
v -958.874146 55.110992 -912.202515
v -960.990784 50.099976 -892.847412
v -961.283752 54.148941 -897.702637
v -953.302246 55.794083 -911.004456
v -950.096680 49.519836 -913.602905
v -954.262634 53.451355 -899.500122
v -951.640137 50.338989 -896.022827
v -964.706787 54.936127 -912.226562
v -970.445129 50.365982 -917.432739
v -966.430908 54.533127 -899.544006
v -969.949463 49.787949 -896.502991
v -950.533630 40.828354 -914.087891
v -956.119019 35.892227 -909.299438
v -956.302673 35.278015 -899.687073
v -949.947937 42.420258 -895.969666
v -967.703918 41.579849 -919.653198
v -967.434692 36.285034 -910.063721
v -967.930359 34.570389 -899.007996
v -972.362976 40.978500 -894.627136
v -962.230835 35.728287 -911.243103
v -960.706665 40.208267 -920.220825
v -961.810730 35.634583 -897.859009
v -960.301086 42.296066 -893.110657
v -953.041626 55.285889 -905.165344
v -946.650696 51.054230 -905.512024
v -967.481689 54.368225 -907.172791
v -974.407227 47.073624 -909.549683
v -969.503479 35.560318 -904.454895
v -974.662842 40.972626 -905.526550
v -954.538147 35.802567 -904.647156
v -946.731934 41.570160 -904.507080
v -961.708252 34.543594 -904.980164
v -959.660156 56.732834 -905.909973
v 605.988220 -166.734360 -1086.730103
v 606.523071 -159.626602 -1078.855225
v 604.406494 -164.637634 -1059.500122
v 604.113525 -160.588654 -1064.355347
v 612.095032 -158.943512 -1077.657227
v 615.300537 -165.217743 -1080.255615
v 611.134583 -161.286240 -1066.152832
v 613.757080 -164.398590 -1062.675537
v 600.690491 -159.801468 -1078.879272
v 594.952087 -164.371613 -1084.085449
v 598.966309 -160.204468 -1066.196777
v 595.447754 -164.949631 -1063.155762
v 614.863586 -173.909241 -1080.740601
v 609.278198 -178.845367 -1075.952148
v 609.094543 -179.459579 -1066.339844
v 615.449280 -172.317337 -1062.622314
v 597.693359 -173.157745 -1086.305908
v 597.962524 -178.452545 -1076.716431
v 597.466919 -180.167206 -1065.660767
v 593.034302 -173.759094 -1061.279785
v 603.166382 -179.009308 -1077.895874
v 604.690613 -174.529327 -1086.873535
v 603.586548 -179.102997 -1064.511719
v 605.096130 -172.441528 -1059.763428
v 612.355591 -159.451706 -1071.818115
v 618.746582 -163.683350 -1072.164795
v 597.915527 -160.369385 -1073.825439
v 590.989990 -167.663971 -1076.202393
v 595.893799 -179.177277 -1071.107666
v 590.734436 -173.764969 -1072.179199
v 610.859070 -178.935028 -1071.299805
v 618.665283 -173.167419 -1071.159790
v 603.688904 -180.194000 -1071.632935
v 605.737122 -158.004761 -1072.562622
vn -0.1787 0.9676 -0.1787
vn 0.1215 0.9906 -0.0632
vn 0.3414 0.8757 -0.3414
vn -0.0000 1.0000 -0.0000
vn 0.1420 0.9899 -0.0000
vn 0.0435 0.9960 -0.0776
vn -0.0170 0.9997 -0.0145
vn -0.0000 0.9655 -0.2603
vn 0.1776 0.9841 -0.0000
vn -0.1809 0.9667 -0.1809
vn -0.2603 0.9655 -0.0000
vn 0.2882 0.9132 0.2882
vn 0.2937 0.9305 -0.2191
vn 0.0780 0.9729 -0.2176
vn 0.1565 0.9752 0.1565
vn 0.1565 0.9752 -0.1565
vn -0.0000 0.9829 0.1842
vn 0.0221 0.9962 -0.0847
vn 0.0230 0.9944 -0.1028
vn 0.0951 0.9636 0.2498
vn 0.0951 0.9636 -0.2498
vn -0.1056 0.9944 -0.0000
vn 0.2761 0.9607 -0.0286
vn 0.0078 0.9999 0.0094
vn 0.0075 0.9661 -0.2580
vn 0.3414 0.8757 0.3414
vn 0.3299 0.9430 -0.0443
vn 0.3143 0.9445 -0.0955
vn 0.1958 0.8809 -0.4310
vn 0.1085 0.8847 0.4534
vn 0.2557 0.9483 0.1878
vn 0.2519 0.9344 -0.2519
vn -0.1749 0.9689 -0.1749
vn -0.2298 0.9717 -0.0544
vn -0.2242 0.9484 0.2242
vn -0.8639 -0.2516 -0.4364
vn -0.0748 0.0308 -0.9967
vn 0.9234 0.1995 0.3280
vn -0.0339 0.9552 0.2940
vn -0.1472 0.2444 0.9584
vn -0.1718 0.7514 0.6370
vn 0.5281 0.7679 0.3625
vn -0.7127 0.6983 -0.0666
vn 0.3355 0.6879 -0.6437
vn -0.0138 -0.9884 0.1512
vn -0.7296 -0.6782 0.0875
vn -0.2065 -0.8610 -0.4647
vn 0.2171 -0.5987 0.7710
vn 0.5874 -0.7908 -0.1719
vn 0.5182 -0.0706 -0.8524
vn -0.0497 -0.5869 0.8082
vn 0.3296 -0.8225 -0.4635
vn -0.1373 -0.9808 -0.1386
vn 0.0022 0.7503 -0.6611
vn 0.1764 0.7958 0.5793
vn 0.2650 0.0631 0.9622
vn 0.1650 0.9274 0.3359
vn 0.2048 0.9759 0.0758
vn -0.1390 -0.9743 -0.1772
vn 0.6901 -0.7031 0.1712
vn -0.6546 -0.6694 -0.3512
vn 0.0873 -0.9775 -0.1922
vn -0.7705 0.6306 0.0925
vn 0.7297 0.5442 -0.4140
vn -0.0280 0.9671 -0.2528
vn 0.9299 -0.0263 -0.3669
vn -0.9341 0.2978 0.1969
vn 0.5874 -0.7908 -0.1718
vn -0.1718 0.7515 0.6370
vn -0.0497 -0.5868 0.8082
vn 0.2649 0.0631 0.9622
vn 0.6902 -0.7031 0.1711
vn -0.7127 0.6983 -0.0665
vn 0.7403 -0.2516 -0.6234
vn 0.9462 0.0308 0.3223
vn -0.6640 0.1995 0.7207
vn -0.2571 0.9552 -0.1465
vn -0.8238 0.2444 -0.5114
vn -0.5185 0.7514 -0.4080
vn -0.5406 0.7679 0.3436
vn 0.3408 0.6983 -0.6294
vn 0.4604 0.6879 0.5611
vn -0.1337 -0.9884 -0.0720
vn 0.2058 -0.6782 -0.7054
vn 0.5085 -0.8610 -0.0076
vn -0.7943 -0.5987 -0.1028
vn -0.0724 -0.7908 0.6077
vn 0.5807 -0.0706 0.8110
vn -0.7239 -0.5869 -0.3628
vn 0.2970 -0.8225 0.4850
vn 0.1813 -0.9808 -0.0719
vn 0.6072 0.7503 0.2614
vn -0.6020 0.7958 -0.0651
vn -0.9890 0.0631 -0.1338
vn -0.3736 0.9274 0.0200
vn -0.1501 0.9759 0.1587
vn 0.2175 -0.9743 -0.0584
vn -0.4282 -0.7031 0.5676
vn 0.5799 -0.6694 -0.4643
vn 0.1425 -0.9775 0.1557
vn 0.2172 0.6306 -0.7450
vn 0.0945 0.5442 0.8336
vn 0.2435 0.9671 0.0735
vn -0.0273 -0.0263 0.9993
vn 0.1853 0.2978 -0.9365
vn -0.5185 0.7515 -0.4080
vn -0.5406 0.7679 0.3435
vn -0.1501 0.9759 0.1586
vn -0.4282 -0.7031 0.5677
vn 0.2172 0.6307 -0.7450
vn 0.1853 0.2978 -0.9364
vn -0.6640 0.1995 0.7206
vn -0.6020 0.7958 -0.0650
vn 0.3355 0.6879 -0.6436
vn -0.0279 0.9671 -0.2528
vn 0.2171 -0.5987 0.7709
vn 0.1650 0.9274 0.3358
vn -0.0279 0.9671 -0.2527
vn 0.3857 0.8596 -0.3351
vn 0.2155 0.9736 -0.0758
vn -0.0197 0.9997 -0.0145
vn -0.1810 0.9671 -0.1786
vn 0.1907 0.9630 0.1907
vn 0.1749 0.9689 -0.1749
vn 0.2298 0.9717 -0.0544
vn 0.2242 0.9484 0.2242
vn -0.2519 0.9344 -0.2519
vn 0.0800 0.9968 -0.0000
vn 0.0429 0.9820 -0.1838
vn -0.1214 0.9466 0.2988
vn -0.1238 0.9659 -0.2274
vn 0.1387 0.9665 -0.2162
vn -0.0000 0.9874 0.1585
vn -0.0000 0.9874 -0.1585
vn -0.1812 0.9666 0.1812
vn -0.1838 0.9805 -0.0700
vn -0.0000 0.9945 -0.1045
vn 0.2495 0.9684 -0.0000
vn 0.2420 0.9392 0.2435
vn -0.0000 0.9680 -0.2510
vn 0.3156 0.9485 -0.0282
vn 0.2169 0.9761 0.0092
vn -0.0000 0.9661 -0.2580
vn -0.0000 0.9317 0.3632
vn 0.0714 0.9974 -0.0000
vn -0.1776 0.9841 -0.0000
vn -0.8588 -0.1437 -0.4917
vn -0.1917 0.1838 -0.9641
vn 0.8830 0.0420 0.4675
vn -0.2922 0.9561 0.0196
vn -0.3751 -0.0643 0.9247
vn -0.3025 0.6631 0.6847
vn 0.5095 0.7956 0.3278
vn -0.5056 0.8432 -0.1829
vn 0.1373 0.4381 -0.8884
vn 0.1747 -0.9837 -0.0419
vn -0.7572 -0.6332 0.1601
vn -0.1984 -0.8604 -0.4695
vn 0.2201 -0.5973 0.7712
vn 0.5461 -0.8132 -0.2013
vn 0.5689 0.0173 -0.8223
vn -0.0401 -0.5739 0.8179
vn 0.1574 -0.8940 -0.4194
vn 0.1416 -0.9782 0.1519
vn -0.0195 0.7429 -0.6692
vn 0.2323 0.7538 0.6146
vn 0.3216 -0.0035 0.9469
vn 0.1760 0.9284 0.3271
vn -0.0631 0.9645 -0.2565
vn -0.1433 -0.9745 -0.1724
vn 0.5654 -0.7722 0.2899
vn -0.6504 -0.6850 -0.3284
vn 0.1759 -0.9812 -0.0787
vn -0.7388 0.6642 0.1142
vn 0.5532 0.8317 0.0477
vn -0.2821 0.9582 -0.0472
vn 0.9222 -0.0485 -0.3836
vn -0.9362 0.2200 0.2741
vn -0.1917 0.1839 -0.9641
vn -0.2922 0.9562 0.0196
vn -0.3751 -0.0643 0.9248
vn -0.0195 0.7428 -0.6692
vn 0.5533 0.8316 0.0477
vn -0.3751 -0.0644 0.9247
vn 0.5095 0.7956 0.3279
vn 0.5461 -0.8132 -0.2012
vn 0.1760 0.9285 0.3271
vn -0.6503 -0.6850 -0.3284
vn 0.1759 -0.9813 -0.0787
vn -0.7388 0.6642 0.1143
vn 0.5688 0.0173 -0.8223
vn 0.7892 -0.1437 -0.5971
vn 0.9620 0.1838 0.2020
vn -0.7764 0.0420 0.6288
vn 0.0966 0.9561 -0.2765
vn -0.7034 -0.0643 -0.7079
vn -0.5111 0.6631 -0.5469
vn -0.5015 0.7956 0.3400
vn 0.3666 0.8432 -0.3933
vn 0.7633 0.4381 0.4749
vn -0.0300 -0.9837 0.1771
vn 0.1498 -0.6332 -0.7593
vn 0.5097 -0.8604 0.0017
vn -0.7958 -0.5973 -0.1001
vn -0.0292 -0.8132 0.5813
vn 0.5331 0.0173 0.8459
vn -0.7366 -0.5739 -0.3578
vn 0.3240 -0.8940 0.3093
vn -0.1953 -0.9782 0.0706
vn 0.6232 0.7428 0.2446
vn -0.6565 0.7538 -0.0275
vn -0.9971 -0.0035 -0.0757
vn -0.3699 0.9285 0.0335
vn 0.2607 0.9645 0.0426
vn 0.2148 -0.9745 -0.0642
vn -0.4884 -0.7722 0.4063
vn 0.5572 -0.6850 -0.4694
vn 0.0034 -0.9812 0.1927
vn 0.1848 0.6642 -0.7244
vn -0.2609 0.8317 0.4902
vn 0.1541 0.9582 -0.2409
vn -0.0090 -0.0485 0.9988
vn 0.1152 0.2200 -0.9687
vn 0.9620 0.1839 0.2020
vn -0.7034 -0.0643 -0.7078
vn 0.7633 0.4381 0.4748
vn -0.3699 0.9284 0.0335
vn -0.2609 0.8316 0.4902
vn 0.1760 -0.9812 -0.0787
vn -0.7572 -0.6333 0.1601
vt 0.142929 0.142929
vt 0.000100 0.000100
vt 0.142928 0.000100
vt 0.857071 0.142929
vt 0.999900 0.000100
vt 0.999900 0.142929
vt 0.714243 0.142929
vt 0.857071 0.000100
vt 0.571414 0.142929
vt 0.714243 0.000100
vt 0.428586 0.142929
vt 0.571414 0.000100
vt 0.285757 0.142929
vt 0.428586 0.000100
vt 0.285757 0.000100
vt 0.285757 0.999900
vt 0.142929 0.857071
vt 0.285757 0.857071
vt 0.285757 0.714243
vt 0.142929 0.714243
vt 0.285757 0.571414
vt 0.142929 0.571414
vt 0.285757 0.428586
vt 0.142929 0.285757
vt 0.285757 0.285757
vt 0.428586 0.857072
vt 0.428586 0.999900
vt 0.428586 0.714243
vt 0.428586 0.571414
vt 0.428586 0.428586
vt 0.428586 0.285757
vt 0.571414 0.857071
vt 0.571414 0.999900
vt 0.571414 0.714243
vt 0.571414 0.571414
vt 0.571414 0.428586
vt 0.571414 0.285757
vt 0.714243 0.857071
vt 0.714243 0.999900
vt 0.714243 0.714243
vt 0.714243 0.571414
vt 0.714243 0.428586
vt 0.714243 0.285757
vt 0.857071 0.857071
vt 0.857071 0.999900
vt 0.857071 0.714243
vt 0.857071 0.571414
vt 0.857071 0.428586
vt 0.857071 0.285757
vt 0.999900 0.857071
vt 0.999900 0.999900
vt 0.999900 0.714243
vt 0.999900 0.571414
vt 0.999900 0.428586
vt 0.999900 0.285757
vt 0.142929 0.999900
vt 0.000100 0.857072
vt 0.000100 0.571414
vt 0.000100 0.428586
vt 0.142929 0.428586
vt 0.000100 0.285757
vt 0.000000 0.000000
vt 0.000100 0.142929
vt 0.000100 0.999900
vt 0.000100 0.714243
s 0
usemtl Material
f 64/1/1 4/2/1 11/3/1
f 34/4/2 3/5/2 17/6/2
f 40/7/3 16/8/3 34/4/3
f 46/9/4 15/10/4 40/7/4
f 52/11/5 14/12/5 46/9/5
f 58/13/6 13/14/6 52/11/6
f 58/13/7 11/3/7 12/15/7
f 9/16/4 59/17/4 53/18/4
f 59/17/8 54/19/8 53/18/8
f 60/20/4 55/21/4 54/19/4
f 61/22/9 56/23/9 55/21/9
f 56/23/4 63/24/4 57/25/4
f 57/25/10 64/1/10 58/13/10
f 9/16/11 47/26/11 8/27/11
f 47/26/4 54/19/4 48/28/4
f 54/19/4 49/29/4 48/28/4
f 49/29/12 56/23/12 50/30/12
f 56/23/13 51/31/13 50/30/13
f 57/25/14 52/11/14 51/31/14
f 8/27/4 41/32/4 7/33/4
f 41/32/15 48/28/15 42/34/15
f 48/28/16 43/35/16 42/34/16
f 49/29/17 44/36/17 43/35/17
f 44/36/18 51/31/18 45/37/18
f 51/31/19 46/9/19 45/37/19
f 7/33/4 35/38/4 6/39/4
f 35/38/20 42/34/20 36/40/20
f 42/34/21 37/41/21 36/40/21
f 43/35/4 38/42/4 37/41/4
f 38/42/22 45/37/22 39/43/22
f 45/37/22 40/7/22 39/43/22
f 6/39/23 29/44/23 5/45/23
f 29/44/24 36/40/24 30/46/24
f 36/40/25 31/47/25 30/46/25
f 37/41/4 32/48/4 31/47/4
f 38/42/4 33/49/4 32/48/4
f 33/49/26 40/7/26 34/4/26
f 5/45/27 22/50/27 1/51/27
f 29/44/28 21/52/28 22/50/28
f 30/46/29 20/53/29 21/52/29
f 31/47/4 19/54/4 20/53/4
f 32/48/4 18/55/4 19/54/4
f 18/55/30 34/4/30 17/6/30
f 10/56/31 23/57/31 59/17/31
f 23/57/32 60/20/32 59/17/32
f 60/20/33 25/58/33 61/22/33
f 61/22/34 26/59/34 62/60/34
f 26/59/35 63/24/35 62/60/35
f 27/61/4 64/1/4 63/24/4
f 64/1/4 28/63/4 4/2/4
f 34/4/119 16/8/119 3/5/119
f 40/7/4 15/10/4 16/8/4
f 46/9/4 14/12/4 15/10/4
f 52/11/120 13/14/120 14/12/120
f 58/13/121 12/15/121 13/14/121
f 58/13/122 64/1/122 11/3/122
f 9/16/123 10/56/123 59/17/123
f 59/17/8 60/20/8 54/19/8
f 60/20/124 61/22/124 55/21/124
f 61/22/125 62/60/125 56/23/125
f 56/23/126 62/60/126 63/24/126
f 57/25/4 63/24/4 64/1/4
f 9/16/11 53/18/11 47/26/11
f 47/26/127 53/18/127 54/19/127
f 54/19/4 55/21/4 49/29/4
f 49/29/4 55/21/4 56/23/4
f 56/23/128 57/25/128 51/31/128
f 57/25/129 58/13/129 52/11/129
f 8/27/4 47/26/4 41/32/4
f 41/32/4 47/26/4 48/28/4
f 48/28/4 49/29/4 43/35/4
f 49/29/130 50/30/130 44/36/130
f 44/36/131 50/30/131 51/31/131
f 51/31/132 52/11/132 46/9/132
f 7/33/4 41/32/4 35/38/4
f 35/38/133 41/32/133 42/34/133
f 42/34/134 43/35/134 37/41/134
f 43/35/135 44/36/135 38/42/135
f 38/42/136 44/36/136 45/37/136
f 45/37/137 46/9/137 40/7/137
f 6/39/138 35/38/138 29/44/138
f 29/44/139 35/38/139 36/40/139
f 36/40/140 37/41/140 31/47/140
f 37/41/4 38/42/4 32/48/4
f 38/42/4 39/43/4 33/49/4
f 33/49/4 39/43/4 40/7/4
f 5/45/141 29/44/141 22/50/141
f 29/44/142 30/46/142 21/52/142
f 30/46/143 31/47/143 20/53/143
f 31/47/4 32/48/4 19/54/4
f 32/48/4 33/49/4 18/55/4
f 18/55/144 33/49/144 34/4/144
f 10/56/145 2/64/145 23/57/145
f 23/57/4 24/65/4 60/20/4
f 60/20/4 24/65/4 25/58/4
f 61/22/146 25/58/146 26/59/146
f 26/59/4 27/61/4 63/24/4
f 27/61/4 28/63/4 64/1/4
usemtl Material.001
f 92/62/36 81/62/36 94/62/36
f 81/62/37 65/62/37 86/62/37
f 96/62/38 72/62/38 80/62/38
f 98/62/39 75/62/39 68/62/39
f 88/62/40 76/62/40 84/62/40
f 75/62/41 67/62/41 68/62/41
f 71/62/42 90/62/42 89/62/42
f 91/62/43 74/62/43 92/62/43
f 66/62/44 70/62/44 65/62/44
f 97/62/45 79/62/45 87/62/45
f 83/62/46 94/62/46 93/62/46
f 85/62/47 81/62/47 86/62/47
f 79/62/48 88/62/48 87/62/48
f 95/62/49 77/62/49 96/62/49
f 65/62/50 77/62/50 86/62/50
f 87/62/51 84/62/51 83/62/51
f 78/62/52 86/62/52 77/62/52
f 97/62/53 83/62/53 93/62/53
f 73/62/54 65/62/54 74/62/54
f 71/62/55 67/62/55 72/62/55
f 72/62/56 88/62/56 80/62/56
f 98/62/57 71/62/57 89/62/57
f 69/62/58 98/62/58 89/62/58
f 82/62/59 97/62/59 93/62/59
f 95/62/60 80/62/60 79/62/60
f 82/62/61 94/62/61 81/62/61
f 78/62/62 97/62/62 85/62/62
f 91/62/63 76/62/63 75/62/63
f 69/62/64 90/62/64 70/62/64
f 73/62/65 98/62/65 66/62/65
f 70/62/66 96/62/66 77/62/66
f 76/62/67 94/62/67 84/62/67
f 126/62/36 115/62/36 128/62/36
f 115/62/37 99/62/37 120/62/37
f 130/62/38 106/62/38 114/62/38
f 132/62/39 109/62/39 102/62/39
f 122/62/40 110/62/40 118/62/40
f 109/62/41 101/62/41 102/62/41
f 105/62/42 124/62/42 123/62/42
f 125/62/43 108/62/43 126/62/43
f 100/62/44 104/62/44 99/62/44
f 131/62/45 113/62/45 121/62/45
f 117/62/46 128/62/46 127/62/46
f 119/62/47 115/62/47 120/62/47
f 113/62/48 122/62/48 121/62/48
f 129/62/68 111/62/68 130/62/68
f 99/62/50 111/62/50 120/62/50
f 121/62/51 118/62/51 117/62/51
f 112/62/52 120/62/52 111/62/52
f 131/62/53 117/62/53 127/62/53
f 107/62/54 99/62/54 108/62/54
f 105/62/55 101/62/55 106/62/55
f 106/62/56 122/62/56 114/62/56
f 132/62/57 105/62/57 123/62/57
f 103/62/58 132/62/58 123/62/58
f 116/62/59 131/62/59 127/62/59
f 129/62/60 114/62/60 113/62/60
f 116/62/61 128/62/61 115/62/61
f 112/62/62 131/62/62 119/62/62
f 125/62/63 110/62/63 109/62/63
f 103/62/64 124/62/64 104/62/64
f 107/62/65 132/62/65 100/62/65
f 104/62/66 130/62/66 111/62/66
f 110/62/67 128/62/67 118/62/67
f 160/62/36 149/62/36 162/62/36
f 149/62/37 133/62/37 154/62/37
f 164/62/38 140/62/38 148/62/38
f 166/62/39 143/62/39 136/62/39
f 156/62/40 144/62/40 152/62/40
f 143/62/69 135/62/69 136/62/69
f 139/62/42 158/62/42 157/62/42
f 159/62/43 142/62/43 160/62/43
f 134/62/44 138/62/44 133/62/44
f 165/62/45 147/62/45 155/62/45
f 151/62/46 162/62/46 161/62/46
f 153/62/47 149/62/47 154/62/47
f 147/62/48 156/62/48 155/62/48
f 163/62/68 145/62/68 164/62/68
f 133/62/50 145/62/50 154/62/50
f 155/62/70 152/62/70 151/62/70
f 146/62/52 154/62/52 145/62/52
f 165/62/53 151/62/53 161/62/53
f 141/62/54 133/62/54 142/62/54
f 139/62/55 135/62/55 140/62/55
f 140/62/56 156/62/56 148/62/56
f 166/62/57 139/62/57 157/62/57
f 137/62/58 166/62/58 157/62/58
f 150/62/59 165/62/59 161/62/59
f 163/62/60 148/62/60 147/62/60
f 150/62/61 162/62/61 149/62/61
f 146/62/62 165/62/62 153/62/62
f 159/62/63 144/62/63 143/62/63
f 137/62/64 158/62/64 138/62/64
f 141/62/65 166/62/65 134/62/65
f 138/62/66 164/62/66 145/62/66
f 144/62/67 162/62/67 152/62/67
f 194/62/36 183/62/36 196/62/36
f 183/62/37 167/62/37 188/62/37
f 198/62/38 174/62/38 182/62/38
f 200/62/39 177/62/39 170/62/39
f 190/62/40 178/62/40 186/62/40
f 177/62/69 169/62/69 170/62/69
f 173/62/42 192/62/42 191/62/42
f 193/62/43 176/62/43 194/62/43
f 168/62/44 172/62/44 167/62/44
f 199/62/45 181/62/45 189/62/45
f 185/62/46 196/62/46 195/62/46
f 187/62/47 183/62/47 188/62/47
f 181/62/48 190/62/48 189/62/48
f 197/62/49 179/62/49 198/62/49
f 167/62/50 179/62/50 188/62/50
f 189/62/51 186/62/51 185/62/51
f 180/62/52 188/62/52 179/62/52
f 199/62/53 185/62/53 195/62/53
f 175/62/54 167/62/54 176/62/54
f 173/62/55 169/62/55 174/62/55
f 174/62/71 190/62/71 182/62/71
f 200/62/57 173/62/57 191/62/57
f 171/62/58 200/62/58 191/62/58
f 184/62/59 199/62/59 195/62/59
f 197/62/72 182/62/72 181/62/72
f 184/62/61 196/62/61 183/62/61
f 180/62/62 199/62/62 187/62/62
f 193/62/63 178/62/63 177/62/63
f 171/62/64 192/62/64 172/62/64
f 175/62/65 200/62/65 168/62/65
f 172/62/66 198/62/66 179/62/66
f 178/62/67 196/62/67 186/62/67
f 228/62/36 217/62/36 230/62/36
f 217/62/37 201/62/37 222/62/37
f 232/62/38 208/62/38 216/62/38
f 234/62/39 211/62/39 204/62/39
f 224/62/40 212/62/40 220/62/40
f 211/62/69 203/62/69 204/62/69
f 207/62/42 226/62/42 225/62/42
f 227/62/73 210/62/73 228/62/73
f 202/62/44 206/62/44 201/62/44
f 233/62/45 215/62/45 223/62/45
f 219/62/46 230/62/46 229/62/46
f 221/62/47 217/62/47 222/62/47
f 215/62/48 224/62/48 223/62/48
f 231/62/49 213/62/49 232/62/49
f 201/62/50 213/62/50 222/62/50
f 223/62/51 220/62/51 219/62/51
f 214/62/52 222/62/52 213/62/52
f 233/62/53 219/62/53 229/62/53
f 209/62/54 201/62/54 210/62/54
f 207/62/55 203/62/55 208/62/55
f 208/62/56 224/62/56 216/62/56
f 234/62/57 207/62/57 225/62/57
f 205/62/58 234/62/58 225/62/58
f 218/62/59 233/62/59 229/62/59
f 231/62/60 216/62/60 215/62/60
f 218/62/61 230/62/61 217/62/61
f 214/62/62 233/62/62 221/62/62
f 227/62/63 212/62/63 211/62/63
f 205/62/64 226/62/64 206/62/64
f 209/62/65 234/62/65 202/62/65
f 206/62/66 232/62/66 213/62/66
f 212/62/67 230/62/67 220/62/67
f 262/62/74 251/62/74 264/62/74
f 251/62/75 235/62/75 256/62/75
f 266/62/76 242/62/76 250/62/76
f 268/62/77 245/62/77 238/62/77
f 258/62/78 246/62/78 254/62/78
f 245/62/79 237/62/79 238/62/79
f 241/62/80 260/62/80 259/62/80
f 261/62/81 244/62/81 262/62/81
f 236/62/82 240/62/82 235/62/82
f 267/62/83 249/62/83 257/62/83
f 253/62/84 264/62/84 263/62/84
f 255/62/85 251/62/85 256/62/85
f 249/62/86 258/62/86 257/62/86
f 265/62/87 247/62/87 266/62/87
f 235/62/88 247/62/88 256/62/88
f 257/62/89 254/62/89 253/62/89
f 248/62/90 256/62/90 247/62/90
f 267/62/91 253/62/91 263/62/91
f 243/62/92 235/62/92 244/62/92
f 241/62/93 237/62/93 242/62/93
f 242/62/94 258/62/94 250/62/94
f 268/62/95 241/62/95 259/62/95
f 239/62/96 268/62/96 259/62/96
f 252/62/97 267/62/97 263/62/97
f 265/62/98 250/62/98 249/62/98
f 252/62/99 264/62/99 251/62/99
f 248/62/100 267/62/100 255/62/100
f 261/62/101 246/62/101 245/62/101
f 239/62/102 260/62/102 240/62/102
f 243/62/103 268/62/103 236/62/103
f 240/62/104 266/62/104 247/62/104
f 246/62/105 264/62/105 254/62/105
f 296/62/74 285/62/74 298/62/74
f 285/62/75 269/62/75 290/62/75
f 300/62/76 276/62/76 284/62/76
f 302/62/77 279/62/77 272/62/77
f 292/62/78 280/62/78 288/62/78
f 279/62/106 271/62/106 272/62/106
f 275/62/107 294/62/107 293/62/107
f 295/62/81 278/62/81 296/62/81
f 270/62/82 274/62/82 269/62/82
f 301/62/83 283/62/83 291/62/83
f 287/62/84 298/62/84 297/62/84
f 289/62/85 285/62/85 290/62/85
f 283/62/86 292/62/86 291/62/86
f 299/62/87 281/62/87 300/62/87
f 269/62/88 281/62/88 290/62/88
f 291/62/89 288/62/89 287/62/89
f 282/62/90 290/62/90 281/62/90
f 301/62/91 287/62/91 297/62/91
f 277/62/92 269/62/92 278/62/92
f 275/62/93 271/62/93 276/62/93
f 276/62/94 292/62/94 284/62/94
f 302/62/95 275/62/95 293/62/95
f 273/62/108 302/62/108 293/62/108
f 286/62/97 301/62/97 297/62/97
f 299/62/109 284/62/109 283/62/109
f 286/62/99 298/62/99 285/62/99
f 282/62/100 301/62/100 289/62/100
f 295/62/110 280/62/110 279/62/110
f 273/62/102 294/62/102 274/62/102
f 277/62/103 302/62/103 270/62/103
f 274/62/104 300/62/104 281/62/104
f 280/62/111 298/62/111 288/62/111
f 330/62/74 319/62/74 332/62/74
f 319/62/75 303/62/75 324/62/75
f 334/62/112 310/62/112 318/62/112
f 336/62/77 313/62/77 306/62/77
f 326/62/78 314/62/78 322/62/78
f 313/62/79 305/62/79 306/62/79
f 309/62/80 328/62/80 327/62/80
f 329/62/81 312/62/81 330/62/81
f 304/62/82 308/62/82 303/62/82
f 335/62/83 317/62/83 325/62/83
f 321/62/84 332/62/84 331/62/84
f 323/62/85 319/62/85 324/62/85
f 317/62/86 326/62/86 325/62/86
f 333/62/87 315/62/87 334/62/87
f 303/62/88 315/62/88 324/62/88
f 325/62/89 322/62/89 321/62/89
f 316/62/90 324/62/90 315/62/90
f 335/62/91 321/62/91 331/62/91
f 311/62/92 303/62/92 312/62/92
f 309/62/113 305/62/113 310/62/113
f 310/62/94 326/62/94 318/62/94
f 336/62/95 309/62/95 327/62/95
f 307/62/96 336/62/96 327/62/96
f 320/62/97 335/62/97 331/62/97
f 333/62/109 318/62/109 317/62/109
f 320/62/99 332/62/99 319/62/99
f 316/62/100 335/62/100 323/62/100
f 329/62/110 314/62/110 313/62/110
f 307/62/102 328/62/102 308/62/102
f 311/62/103 336/62/103 304/62/103
f 308/62/104 334/62/104 315/62/104
f 314/62/111 332/62/111 322/62/111
f 364/62/36 353/62/36 366/62/36
f 353/62/37 337/62/37 358/62/37
f 368/62/38 344/62/38 352/62/38
f 370/62/39 347/62/39 340/62/39
f 360/62/40 348/62/40 356/62/40
f 347/62/41 339/62/41 340/62/41
f 343/62/42 362/62/42 361/62/42
f 363/62/43 346/62/43 364/62/43
f 338/62/44 342/62/44 337/62/44
f 369/62/45 351/62/45 359/62/45
f 355/62/46 366/62/46 365/62/46
f 357/62/47 353/62/47 358/62/47
f 351/62/48 360/62/48 359/62/48
f 367/62/68 349/62/68 368/62/68
f 337/62/50 349/62/50 358/62/50
f 359/62/51 356/62/51 355/62/51
f 350/62/52 358/62/52 349/62/52
f 369/62/53 355/62/53 365/62/53
f 345/62/54 337/62/54 346/62/54
f 343/62/55 339/62/55 344/62/55
f 344/62/56 360/62/56 352/62/56
f 370/62/57 343/62/57 361/62/57
f 341/62/58 370/62/58 361/62/58
f 354/62/59 369/62/59 365/62/59
f 367/62/60 352/62/60 351/62/60
f 354/62/61 366/62/61 353/62/61
f 350/62/62 369/62/62 357/62/62
f 363/62/63 348/62/63 347/62/63
f 341/62/64 362/62/64 342/62/64
f 345/62/65 370/62/65 338/62/65
f 342/62/66 368/62/66 349/62/66
f 348/62/67 366/62/67 356/62/67
f 398/62/36 387/62/36 400/62/36
f 387/62/37 371/62/37 392/62/37
f 402/62/38 378/62/38 386/62/38
f 404/62/39 381/62/39 374/62/39
f 394/62/40 382/62/40 390/62/40
f 381/62/69 373/62/69 374/62/69
f 377/62/42 396/62/42 395/62/42
f 397/62/73 380/62/73 398/62/73
f 372/62/114 376/62/114 371/62/114
f 403/62/45 385/62/45 393/62/45
f 389/62/46 400/62/46 399/62/46
f 391/62/47 387/62/47 392/62/47
f 385/62/48 394/62/48 393/62/48
f 401/62/49 383/62/49 402/62/49
f 371/62/50 383/62/50 392/62/50
f 393/62/51 390/62/51 389/62/51
f 384/62/52 392/62/52 383/62/52
f 403/62/53 389/62/53 399/62/53
f 379/62/54 371/62/54 380/62/54
f 377/62/55 373/62/55 378/62/55
f 378/62/56 394/62/56 386/62/56
f 404/62/57 377/62/57 395/62/57
f 375/62/58 404/62/58 395/62/58
f 388/62/59 403/62/59 399/62/59
f 401/62/72 386/62/72 385/62/72
f 388/62/61 400/62/61 387/62/61
f 384/62/62 403/62/62 391/62/62
f 397/62/63 382/62/63 381/62/63
f 375/62/64 396/62/64 376/62/64
f 379/62/115 404/62/115 372/62/115
f 376/62/66 402/62/66 383/62/66
f 382/62/67 400/62/67 390/62/67
f 432/62/36 421/62/36 434/62/36
f 421/62/37 405/62/37 426/62/37
f 436/62/38 412/62/38 420/62/38
f 438/62/39 415/62/39 408/62/39
f 428/62/40 416/62/40 424/62/40
f 415/62/69 407/62/69 408/62/69
f 411/62/42 430/62/42 429/62/42
f 431/62/43 414/62/43 432/62/43
f 406/62/114 410/62/114 405/62/114
f 437/62/45 419/62/45 427/62/45
f 423/62/46 434/62/46 433/62/46
f 425/62/47 421/62/47 426/62/47
f 419/62/116 428/62/116 427/62/116
f 435/62/49 417/62/49 436/62/49
f 405/62/50 417/62/50 426/62/50
f 427/62/51 424/62/51 423/62/51
f 418/62/52 426/62/52 417/62/52
f 437/62/53 423/62/53 433/62/53
f 413/62/54 405/62/54 414/62/54
f 411/62/55 407/62/55 412/62/55
f 412/62/56 428/62/56 420/62/56
f 438/62/117 411/62/117 429/62/117
f 409/62/58 438/62/58 429/62/58
f 422/62/59 437/62/59 433/62/59
f 435/62/60 420/62/60 419/62/60
f 422/62/61 434/62/61 421/62/61
f 418/62/62 437/62/62 425/62/62
f 431/62/63 416/62/63 415/62/63
f 409/62/64 430/62/64 410/62/64
f 413/62/118 438/62/118 406/62/118
f 410/62/66 436/62/66 417/62/66
f 416/62/67 434/62/67 424/62/67
f 92/62/147 74/62/147 81/62/147
f 81/62/148 74/62/148 65/62/148
f 96/62/149 90/62/149 72/62/149
f 98/62/150 91/62/150 75/62/150
f 88/62/151 67/62/151 76/62/151
f 75/62/152 76/62/152 67/62/152
f 71/62/153 72/62/153 90/62/153
f 91/62/154 73/62/154 74/62/154
f 66/62/155 69/62/155 70/62/155
f 97/62/156 95/62/156 79/62/156
f 83/62/157 84/62/157 94/62/157
f 85/62/158 82/62/158 81/62/158
f 79/62/159 80/62/159 88/62/159
f 95/62/160 78/62/160 77/62/160
f 65/62/161 70/62/161 77/62/161
f 87/62/162 88/62/162 84/62/162
f 78/62/163 85/62/163 86/62/163
f 97/62/164 87/62/164 83/62/164
f 73/62/165 66/62/165 65/62/165
f 71/62/166 68/62/166 67/62/166
f 72/62/167 67/62/167 88/62/167
f 98/62/168 68/62/168 71/62/168
f 69/62/169 66/62/169 98/62/169
f 82/62/170 85/62/170 97/62/170
f 95/62/171 96/62/171 80/62/171
f 82/62/172 93/62/172 94/62/172
f 78/62/173 95/62/173 97/62/173
f 91/62/174 92/62/174 76/62/174
f 69/62/175 89/62/175 90/62/175
f 73/62/176 91/62/176 98/62/176
f 70/62/177 90/62/177 96/62/177
f 76/62/178 92/62/178 94/62/178
f 126/62/147 108/62/147 115/62/147
f 115/62/179 108/62/179 99/62/179
f 130/62/149 124/62/149 106/62/149
f 132/62/180 125/62/180 109/62/180
f 122/62/181 101/62/181 110/62/181
f 109/62/152 110/62/152 101/62/152
f 105/62/153 106/62/153 124/62/153
f 125/62/154 107/62/154 108/62/154
f 100/62/155 103/62/155 104/62/155
f 131/62/156 129/62/156 113/62/156
f 117/62/157 118/62/157 128/62/157
f 119/62/158 116/62/158 115/62/158
f 113/62/159 114/62/159 122/62/159
f 129/62/160 112/62/160 111/62/160
f 99/62/161 104/62/161 111/62/161
f 121/62/162 122/62/162 118/62/162
f 112/62/163 119/62/163 120/62/163
f 131/62/164 121/62/164 117/62/164
f 107/62/182 100/62/182 99/62/182
f 105/62/166 102/62/166 101/62/166
f 106/62/167 101/62/167 122/62/167
f 132/62/168 102/62/168 105/62/168
f 103/62/169 100/62/169 132/62/169
f 116/62/170 119/62/170 131/62/170
f 129/62/171 130/62/171 114/62/171
f 116/62/172 127/62/172 128/62/172
f 112/62/173 129/62/173 131/62/173
f 125/62/174 126/62/174 110/62/174
f 103/62/183 123/62/183 124/62/183
f 107/62/176 125/62/176 132/62/176
f 104/62/177 124/62/177 130/62/177
f 110/62/178 126/62/178 128/62/178
f 160/62/147 142/62/147 149/62/147
f 149/62/179 142/62/179 133/62/179
f 164/62/149 158/62/149 140/62/149
f 166/62/150 159/62/150 143/62/150
f 156/62/184 135/62/184 144/62/184
f 143/62/152 144/62/152 135/62/152
f 139/62/153 140/62/153 158/62/153
f 159/62/154 141/62/154 142/62/154
f 134/62/155 137/62/155 138/62/155
f 165/62/156 163/62/156 147/62/156
f 151/62/157 152/62/157 162/62/157
f 153/62/158 150/62/158 149/62/158
f 147/62/159 148/62/159 156/62/159
f 163/62/160 146/62/160 145/62/160
f 133/62/161 138/62/161 145/62/161
f 155/62/162 156/62/162 152/62/162
f 146/62/163 153/62/163 154/62/163
f 165/62/164 155/62/164 151/62/164
f 141/62/165 134/62/165 133/62/165
f 139/62/166 136/62/166 135/62/166
f 140/62/167 135/62/167 156/62/167
f 166/62/168 136/62/168 139/62/168
f 137/62/169 134/62/169 166/62/169
f 150/62/170 153/62/170 165/62/170
f 163/62/171 164/62/171 148/62/171
f 150/62/172 161/62/172 162/62/172
f 146/62/173 163/62/173 165/62/173
f 159/62/174 160/62/174 144/62/174
f 137/62/175 157/62/175 158/62/175
f 141/62/176 159/62/176 166/62/176
f 138/62/177 158/62/177 164/62/177
f 144/62/178 160/62/178 162/62/178
f 194/62/147 176/62/147 183/62/147
f 183/62/148 176/62/148 167/62/148
f 198/62/149 192/62/149 174/62/149
f 200/62/150 193/62/150 177/62/150
f 190/62/184 169/62/184 178/62/184
f 177/62/152 178/62/152 169/62/152
f 173/62/185 174/62/185 192/62/185
f 193/62/154 175/62/154 176/62/154
f 168/62/155 171/62/155 172/62/155
f 199/62/156 197/62/156 181/62/156
f 185/62/157 186/62/157 196/62/157
f 187/62/158 184/62/158 183/62/158
f 181/62/159 182/62/159 190/62/159
f 197/62/186 180/62/186 179/62/186
f 167/62/161 172/62/161 179/62/161
f 189/62/162 190/62/162 186/62/162
f 180/62/163 187/62/163 188/62/163
f 199/62/164 189/62/164 185/62/164
f 175/62/165 168/62/165 167/62/165
f 173/62/166 170/62/166 169/62/166
f 174/62/167 169/62/167 190/62/167
f 200/62/187 170/62/187 173/62/187
f 171/62/169 168/62/169 200/62/169
f 184/62/170 187/62/170 199/62/170
f 197/62/171 198/62/171 182/62/171
f 184/62/188 195/62/188 196/62/188
f 180/62/189 197/62/189 199/62/189
f 193/62/190 194/62/190 178/62/190
f 171/62/183 191/62/183 192/62/183
f 175/62/176 193/62/176 200/62/176
f 172/62/177 192/62/177 198/62/177
f 178/62/178 194/62/178 196/62/178
f 228/62/147 210/62/147 217/62/147
f 217/62/179 210/62/179 201/62/179
f 232/62/149 226/62/149 208/62/149
f 234/62/150 227/62/150 211/62/150
f 224/62/151 203/62/151 212/62/151
f 211/62/152 212/62/152 203/62/152
f 207/62/153 208/62/153 226/62/153
f 227/62/154 209/62/154 210/62/154
f 202/62/155 205/62/155 206/62/155
f 233/62/156 231/62/156 215/62/156
f 219/62/157 220/62/157 230/62/157
f 221/62/158 218/62/158 217/62/158
f 215/62/159 216/62/159 224/62/159
f 231/62/186 214/62/186 213/62/186
f 201/62/191 206/62/191 213/62/191
f 223/62/162 224/62/162 220/62/162
f 214/62/163 221/62/163 222/62/163
f 233/62/164 223/62/164 219/62/164
f 209/62/165 202/62/165 201/62/165
f 207/62/166 204/62/166 203/62/166
f 208/62/167 203/62/167 224/62/167
f 234/62/187 204/62/187 207/62/187
f 205/62/169 202/62/169 234/62/169
f 218/62/170 221/62/170 233/62/170
f 231/62/171 232/62/171 216/62/171
f 218/62/172 229/62/172 230/62/172
f 214/62/173 231/62/173 233/62/173
f 227/62/174 228/62/174 212/62/174
f 205/62/175 225/62/175 226/62/175
f 209/62/176 227/62/176 234/62/176
f 206/62/177 226/62/177 232/62/177
f 212/62/178 228/62/178 230/62/178
f 262/62/192 244/62/192 251/62/192
f 251/62/193 244/62/193 235/62/193
f 266/62/194 260/62/194 242/62/194
f 268/62/195 261/62/195 245/62/195
f 258/62/196 237/62/196 246/62/196
f 245/62/197 246/62/197 237/62/197
f 241/62/198 242/62/198 260/62/198
f 261/62/199 243/62/199 244/62/199
f 236/62/200 239/62/200 240/62/200
f 267/62/201 265/62/201 249/62/201
f 253/62/202 254/62/202 264/62/202
f 255/62/203 252/62/203 251/62/203
f 249/62/204 250/62/204 258/62/204
f 265/62/205 248/62/205 247/62/205
f 235/62/206 240/62/206 247/62/206
f 257/62/207 258/62/207 254/62/207
f 248/62/208 255/62/208 256/62/208
f 267/62/209 257/62/209 253/62/209
f 243/62/210 236/62/210 235/62/210
f 241/62/211 238/62/211 237/62/211
f 242/62/212 237/62/212 258/62/212
f 268/62/213 238/62/213 241/62/213
f 239/62/214 236/62/214 268/62/214
f 252/62/215 255/62/215 267/62/215
f 265/62/216 266/62/216 250/62/216
f 252/62/217 263/62/217 264/62/217
f 248/62/218 265/62/218 267/62/218
f 261/62/219 262/62/219 246/62/219
f 239/62/220 259/62/220 260/62/220
f 243/62/221 261/62/221 268/62/221
f 240/62/222 260/62/222 266/62/222
f 246/62/223 262/62/223 264/62/223
f 296/62/192 278/62/192 285/62/192
f 285/62/224 278/62/224 269/62/224
f 300/62/194 294/62/194 276/62/194
f 302/62/195 295/62/195 279/62/195
f 292/62/225 271/62/225 280/62/225
f 279/62/197 280/62/197 271/62/197
f 275/62/198 276/62/198 294/62/198
f 295/62/199 277/62/199 278/62/199
f 270/62/226 273/62/226 274/62/226
f 301/62/201 299/62/201 283/62/201
f 287/62/202 288/62/202 298/62/202
f 289/62/203 286/62/203 285/62/203
f 283/62/204 284/62/204 292/62/204
f 299/62/205 282/62/205 281/62/205
f 269/62/206 274/62/206 281/62/206
f 291/62/207 292/62/207 288/62/207
f 282/62/208 289/62/208 290/62/208
f 301/62/209 291/62/209 287/62/209
f 277/62/210 270/62/210 269/62/210
f 275/62/211 272/62/211 271/62/211
f 276/62/212 271/62/212 292/62/212
f 302/62/227 272/62/227 275/62/227
f 273/62/214 270/62/214 302/62/214
f 286/62/215 289/62/215 301/62/215
f 299/62/216 300/62/216 284/62/216
f 286/62/217 297/62/217 298/62/217
f 282/62/218 299/62/218 301/62/218
f 295/62/219 296/62/219 280/62/219
f 273/62/228 293/62/228 294/62/228
f 277/62/221 295/62/221 302/62/221
f 274/62/222 294/62/222 300/62/222
f 280/62/223 296/62/223 298/62/223
f 330/62/192 312/62/192 319/62/192
f 319/62/224 312/62/224 303/62/224
f 334/62/194 328/62/194 310/62/194
f 336/62/195 329/62/195 313/62/195
f 326/62/225 305/62/225 314/62/225
f 313/62/197 314/62/197 305/62/197
f 309/62/198 310/62/198 328/62/198
f 329/62/199 311/62/199 312/62/199
f 304/62/200 307/62/200 308/62/200
f 335/62/201 333/62/201 317/62/201
f 321/62/202 322/62/202 332/62/202
f 323/62/203 320/62/203 319/62/203
f 317/62/204 318/62/204 326/62/204
f 333/62/205 316/62/205 315/62/205
f 303/62/206 308/62/206 315/62/206
f 325/62/207 326/62/207 322/62/207
f 316/62/208 323/62/208 324/62/208
f 335/62/209 325/62/209 321/62/209
f 311/62/210 304/62/210 303/62/210
f 309/62/211 306/62/211 305/62/211
f 310/62/212 305/62/212 326/62/212
f 336/62/227 306/62/227 309/62/227
f 307/62/214 304/62/214 336/62/214
f 320/62/215 323/62/215 335/62/215
f 333/62/216 334/62/216 318/62/216
f 320/62/217 331/62/217 332/62/217
f 316/62/218 333/62/218 335/62/218
f 329/62/219 330/62/219 314/62/219
f 307/62/220 327/62/220 328/62/220
f 311/62/221 329/62/221 336/62/221
f 308/62/222 328/62/222 334/62/222
f 314/62/223 330/62/223 332/62/223
f 364/62/147 346/62/147 353/62/147
f 353/62/148 346/62/148 337/62/148
f 368/62/149 362/62/149 344/62/149
f 370/62/150 363/62/150 347/62/150
f 360/62/181 339/62/181 348/62/181
f 347/62/152 348/62/152 339/62/152
f 343/62/153 344/62/153 362/62/153
f 363/62/154 345/62/154 346/62/154
f 338/62/155 341/62/155 342/62/155
f 369/62/156 367/62/156 351/62/156
f 355/62/157 356/62/157 366/62/157
f 357/62/158 354/62/158 353/62/158
f 351/62/159 352/62/159 360/62/159
f 367/62/186 350/62/186 349/62/186
f 337/62/161 342/62/161 349/62/161
f 359/62/162 360/62/162 356/62/162
f 350/62/163 357/62/163 358/62/163
f 369/62/164 359/62/164 355/62/164
f 345/62/165 338/62/165 337/62/165
f 343/62/166 340/62/166 339/62/166
f 344/62/167 339/62/167 360/62/167
f 370/62/187 340/62/187 343/62/187
f 341/62/169 338/62/169 370/62/169
f 354/62/170 357/62/170 369/62/170
f 367/62/171 368/62/171 352/62/171
f 354/62/172 365/62/172 366/62/172
f 350/62/229 367/62/229 369/62/229
f 363/62/174 364/62/174 348/62/174
f 341/62/175 361/62/175 362/62/175
f 345/62/176 363/62/176 370/62/176
f 342/62/177 362/62/177 368/62/177
f 348/62/178 364/62/178 366/62/178
f 398/62/147 380/62/147 387/62/147
f 387/62/179 380/62/179 371/62/179
f 402/62/149 396/62/149 378/62/149
f 404/62/180 397/62/180 381/62/180
f 394/62/184 373/62/184 382/62/184
f 381/62/152 382/62/152 373/62/152
f 377/62/153 378/62/153 396/62/153
f 397/62/154 379/62/154 380/62/154
f 372/62/155 375/62/155 376/62/155
f 403/62/156 401/62/156 385/62/156
f 389/62/157 390/62/157 400/62/157
f 391/62/158 388/62/158 387/62/158
f 385/62/159 386/62/159 394/62/159
f 401/62/186 384/62/186 383/62/186
f 371/62/161 376/62/161 383/62/161
f 393/62/162 394/62/162 390/62/162
f 384/62/163 391/62/163 392/62/163
f 403/62/164 393/62/164 389/62/164
f 379/62/165 372/62/165 371/62/165
f 377/62/166 374/62/166 373/62/166
f 378/62/167 373/62/167 394/62/167
f 404/62/168 374/62/168 377/62/168
f 375/62/169 372/62/169 404/62/169
f 388/62/170 391/62/170 403/62/170
f 401/62/171 402/62/171 386/62/171
f 388/62/172 399/62/172 400/62/172
f 384/62/189 401/62/189 403/62/189
f 397/62/174 398/62/174 382/62/174
f 375/62/183 395/62/183 396/62/183
f 379/62/176 397/62/176 404/62/176
f 376/62/177 396/62/177 402/62/177
f 382/62/178 398/62/178 400/62/178
f 432/62/147 414/62/147 421/62/147
f 421/62/148 414/62/148 405/62/148
f 436/62/149 430/62/149 412/62/149
f 438/62/180 431/62/180 415/62/180
f 428/62/184 407/62/184 416/62/184
f 415/62/152 416/62/152 407/62/152
f 411/62/153 412/62/153 430/62/153
f 431/62/154 413/62/154 414/62/154
f 406/62/155 409/62/155 410/62/155
f 437/62/156 435/62/156 419/62/156
f 423/62/230 424/62/230 434/62/230
f 425/62/158 422/62/158 421/62/158
f 419/62/159 420/62/159 428/62/159
f 435/62/186 418/62/186 417/62/186
f 405/62/161 410/62/161 417/62/161
f 427/62/162 428/62/162 424/62/162
f 418/62/163 425/62/163 426/62/163
f 437/62/164 427/62/164 423/62/164
f 413/62/165 406/62/165 405/62/165
f 411/62/166 408/62/166 407/62/166
f 412/62/167 407/62/167 428/62/167
f 438/62/168 408/62/168 411/62/168
f 409/62/169 406/62/169 438/62/169
f 422/62/170 425/62/170 437/62/170
f 435/62/171 436/62/171 420/62/171
f 422/62/172 433/62/172 434/62/172
f 418/62/173 435/62/173 437/62/173
f 431/62/174 432/62/174 416/62/174
f 409/62/175 429/62/175 430/62/175
f 413/62/176 431/62/176 438/62/176
f 410/62/177 430/62/177 436/62/177
f 416/62/178 432/62/178 434/62/178
