# Blender 4.1.1
# www.blender.org
mtllib enemy.mtl
o 球
v 0.000000 0.884290 -0.609652
v 0.000000 0.600459 -0.788719
v 0.000000 0.285234 -0.849050
v 0.000000 0.139217 -0.832947
v 0.000000 0.058840 -0.797809
v 0.000000 0.102362 -0.675982
v 0.032736 1.078708 -0.332452
v 0.064215 0.996035 -0.475995
v 0.093225 0.886317 -0.600697
v 0.118653 0.753769 -0.701765
v 0.139521 0.603493 -0.775317
v 0.155028 0.445242 -0.819427
v 0.164577 0.288812 -0.833241
v 0.167801 0.142865 -0.816827
v 0.164577 0.062418 -0.782000
v 0.155028 0.056425 -0.731424
v 0.139521 0.105396 -0.662580
v 0.118653 0.177738 -0.571388
v 0.093225 0.232671 -0.452753
v 0.064215 0.266419 -0.310857
v 0.032736 0.301596 -0.156564
v 0.064215 1.080816 -0.323139
v 0.125961 1.000170 -0.457726
v 0.182868 0.892320 -0.574175
v 0.232746 0.761410 -0.668009
v 0.273681 0.612477 -0.735624
v 0.304098 0.455224 -0.775323
v 0.322828 0.299409 -0.786420
v 0.329153 0.153670 -0.769089
v 0.322828 0.073015 -0.735179
v 0.304098 0.066407 -0.687320
v 0.273681 0.114380 -0.622887
v 0.232746 0.185378 -0.537632
v 0.182868 0.238674 -0.426231
v 0.125961 0.270554 -0.292588
v 0.064215 0.303704 -0.147251
v 0.093225 1.084239 -0.308015
v 0.182868 1.006885 -0.428060
v 0.265483 0.902068 -0.531105
v 0.337895 0.773817 -0.613192
v 0.397323 0.627066 -0.671166
v 0.441482 0.471435 -0.703701
v 0.468674 0.316618 -0.710387
v 0.477856 0.171216 -0.691566
v 0.468674 0.090224 -0.659146
v 0.441482 0.082618 -0.615698
v 0.397323 0.128969 -0.558429
v 0.337895 0.197785 -0.482816
v 0.265483 0.248422 -0.383162
v 0.182868 0.277269 -0.262922
v 0.093225 0.307128 -0.132127
v 0.118653 1.088846 -0.287661
v 0.232746 1.015921 -0.388135
v 0.337895 0.915187 -0.473144
v 0.430059 0.790514 -0.539421
v 0.505696 0.646699 -0.584421
v 0.561899 0.493250 -0.607315
v 0.596509 0.339778 -0.608064
v 0.608196 0.194829 -0.587238
v 0.596509 0.113384 -0.556823
v 0.561899 0.104434 -0.519312
v 0.505696 0.148602 -0.471684
v 0.430059 0.214482 -0.409045
v 0.337895 0.261541 -0.325201
v 0.232746 0.286305 -0.222997
v 0.118653 0.311734 -0.111773
v 0.139521 1.094459 -0.262861
v 0.273681 1.026932 -0.339487
v 0.397323 0.931172 -0.402518
v 0.505696 0.810859 -0.449531
v 0.594636 0.670623 -0.478721
v 0.660724 0.519833 -0.489868
v 0.701421 0.367998 -0.483382
v 0.715162 0.223602 -0.460115
v 0.701421 0.141604 -0.432141
v 0.660724 0.131016 -0.401865
v 0.594636 0.172526 -0.365984
v 0.505696 0.234827 -0.319154
v 0.397323 0.277526 -0.254574
v 0.273681 0.297316 -0.174349
v 0.139521 0.317347 -0.086973
v 0.000000 1.131158 -0.175584
v 0.155028 1.100863 -0.234566
v 0.304098 1.039494 -0.283985
v 0.441482 0.949409 -0.321941
v 0.561899 0.834071 -0.346976
v 0.660724 0.697917 -0.358129
v 0.734157 0.550161 -0.355873
v 0.779377 0.400193 -0.341135
v 0.794646 0.256429 -0.315080
v 0.779377 0.173799 -0.289894
v 0.734157 0.161344 -0.267870
v 0.660724 0.199820 -0.245392
v 0.561899 0.258039 -0.216599
v 0.441482 0.295764 -0.173997
v 0.304098 0.309878 -0.118846
v 0.155028 0.323752 -0.058678
v 0.164576 1.107812 -0.203864
v 0.322828 1.053125 -0.223761
v 0.468674 0.969198 -0.234510
v 0.596509 0.859257 -0.235697
v 0.701420 0.727533 -0.227279
v 0.779377 0.583068 -0.210481
v 0.827382 0.435128 -0.186787
v 0.843591 0.292047 -0.157708
v 0.827382 0.208734 -0.135546
v 0.779377 0.194251 -0.122477
v 0.701420 0.229436 -0.114542
v 0.596509 0.283226 -0.105321
v 0.468674 0.315552 -0.086566
v 0.322828 0.323509 -0.058623
v 0.164576 0.330701 -0.027976
v 0.167801 1.115039 -0.171935
v 0.329153 1.067300 -0.161131
v 0.477856 0.989778 -0.143584
v 0.608195 0.885450 -0.119971
v 0.715162 0.758333 -0.091200
v 0.794646 0.617291 -0.059277
v 0.843591 0.471458 -0.026270
v 0.860118 0.329090 0.005953
v 0.843591 0.245064 0.024971
v 0.794646 0.228474 0.028726
v 0.715162 0.260236 0.021537
v 0.608195 0.309419 0.010405
v 0.477856 0.336132 0.004359
v 0.329153 0.337684 0.004008
v 0.167801 0.337927 0.003953
v 0.164576 1.122265 -0.140007
v 0.322828 1.081476 -0.098500
v 0.468674 1.010357 -0.052659
v 0.596509 0.911643 -0.004245
v 0.701420 0.789132 0.044879
v 0.779377 0.651513 0.091926
v 0.827382 0.507789 0.134246
v 0.843591 0.366132 0.169614
v 0.827382 0.281395 0.185487
v 0.779377 0.262697 0.179929
v 0.701420 0.291035 0.157616
v 0.596509 0.335612 0.126131
v 0.468674 0.356712 0.095284
v 0.322828 0.351860 0.066638
v 0.164576 0.345154 0.035881
v 0.155028 1.129214 -0.109305
v 0.304098 1.095107 -0.038277
v 0.441481 1.030146 0.034772
v 0.561899 0.936829 0.107033
v 0.660724 0.818748 0.175729
v 0.734157 0.684421 0.237318
v 0.779377 0.542723 0.288594
v 0.794645 0.401751 0.326986
v 0.779377 0.316329 0.339835
v 0.734157 0.295604 0.325321
v 0.660724 0.320651 0.288466
v 0.561899 0.360798 0.237410
v 0.441481 0.376500 0.182715
v 0.304098 0.365490 0.126862
v 0.155028 0.352103 0.066583
v 0.139521 1.135618 -0.081010
v 0.273681 1.107669 0.017226
v 0.397323 1.048384 0.115349
v 0.505696 0.960041 0.209588
v 0.594635 0.846042 0.296321
v 0.660724 0.714749 0.371313
v 0.701420 0.574919 0.430842
v 0.715162 0.434577 0.472020
v 0.701420 0.348525 0.482083
v 0.660724 0.325932 0.459316
v 0.594635 0.347945 0.409058
v 0.505696 0.384010 0.339965
v 0.397323 0.394738 0.263292
v 0.273681 0.378053 0.182364
v 0.139521 0.358507 0.094878
v 0.118653 1.141232 -0.056210
v 0.232746 1.118680 0.065874
v 0.337895 1.064369 0.185975
v 0.430059 0.980386 0.299478
v 0.505696 0.869966 0.402020
v 0.561899 0.741331 0.488760
v 0.596509 0.603139 0.555523
v 0.608195 0.463350 0.599144
v 0.596509 0.376745 0.606764
v 0.561899 0.352514 0.576763
v 0.505696 0.371869 0.514757
v 0.430059 0.404355 0.429855
v 0.337895 0.410723 0.333918
v 0.232746 0.389063 0.231012
v 0.118653 0.364120 0.119678
v 0.093225 1.145838 -0.035856
v 0.182868 1.127716 0.105798
v 0.265483 1.077488 0.243936
v 0.337895 0.997083 0.373249
v 0.397323 0.889600 0.488766
v 0.441482 0.763147 0.585146
v 0.468674 0.626298 0.657846
v 0.477856 0.486963 0.703472
v 0.468674 0.399904 0.709087
v 0.441482 0.374330 0.673149
v 0.397323 0.391503 0.601503
v 0.337895 0.421052 0.503626
v 0.265483 0.423842 0.391880
v 0.182868 0.398100 0.270937
v 0.093225 0.368727 0.140032
v 0.064215 1.149261 -0.020732
v 0.125961 1.134431 0.135465
v 0.182867 1.087236 0.287006
v 0.232746 1.009490 0.428066
v 0.273681 0.904189 0.553223
v 0.304098 0.779357 0.656768
v 0.322828 0.643507 0.733879
v 0.329153 0.504509 0.780994
v 0.322828 0.417113 0.785120
v 0.304098 0.390540 0.744771
v 0.273681 0.406092 0.665961
v 0.232746 0.433459 0.558442
v 0.182867 0.433590 0.434949
v 0.125961 0.404814 0.300603
v 0.064215 0.372150 0.155156
v 0.032736 1.151369 -0.011419
v 0.064215 1.138565 0.153734
v 0.093225 1.093239 0.313527
v 0.118653 1.017130 0.461822
v 0.139521 0.913173 0.592916
v 0.155028 0.789340 0.700872
v 0.164576 0.654105 0.780700
v 0.167800 0.515314 0.828732
v 0.164576 0.427711 0.831941
v 0.155028 0.400523 0.788875
v 0.139521 0.415076 0.705653
v 0.118653 0.441099 0.592198
v 0.093225 0.439593 0.461471
v 0.064215 0.408949 0.318872
v 0.032736 0.374258 0.164469
v -0.000000 1.152081 -0.008274
v -0.000000 1.139962 0.159902
v -0.000000 1.095265 0.322483
v -0.000000 1.019710 0.473220
v -0.000000 0.916206 0.606319
v 0.000000 0.792710 0.715764
v -0.000000 0.657683 0.796510
v -0.000000 0.518962 0.844852
v -0.000000 0.431289 0.847751
v 0.000000 0.403893 0.803768
v -0.000000 0.418109 0.719056
v -0.000000 0.443679 0.603596
v -0.000000 0.441620 0.470426
v -0.000000 0.410345 0.325040
v -0.000000 0.374969 0.167614
v -0.032736 1.151369 -0.011419
v -0.064215 1.138565 0.153734
v -0.093225 1.093238 0.313527
v -0.118653 1.017130 0.461822
v -0.139521 0.913173 0.592916
v -0.155028 0.789340 0.700872
v -0.164577 0.654104 0.780700
v -0.167801 0.515314 0.828732
v -0.164577 0.427711 0.831941
v -0.155028 0.400523 0.788875
v -0.139521 0.415075 0.705653
v -0.118653 0.441099 0.592198
v -0.093225 0.439593 0.461471
v -0.064215 0.408949 0.318872
v -0.032736 0.374258 0.164469
v -0.064215 1.149261 -0.020732
v -0.125961 1.134431 0.135465
v -0.182868 1.087236 0.287005
v -0.232746 1.009490 0.428066
v -0.273681 0.904189 0.553223
v -0.304098 0.779357 0.656768
v -0.322828 0.643507 0.733879
v -0.329153 0.504509 0.780994
v -0.322828 0.417113 0.785120
v -0.304098 0.390540 0.744771
v -0.273681 0.406092 0.665960
v -0.232746 0.433459 0.558442
v -0.182868 0.433590 0.434949
v -0.125961 0.404814 0.300603
v -0.064215 0.372150 0.155156
v -0.093225 1.145838 -0.035856
v -0.182868 1.127716 0.105798
v -0.265483 1.077487 0.243936
v -0.337895 0.997083 0.373249
v -0.397323 0.889600 0.488766
v -0.441481 0.763147 0.585146
v -0.468674 0.626298 0.657846
v -0.477856 0.486963 0.703471
v -0.468674 0.399904 0.709087
v -0.441481 0.374330 0.673149
v -0.397323 0.391502 0.601503
v -0.337895 0.421052 0.503626
v -0.265483 0.423842 0.391879
v -0.182868 0.398100 0.270937
v -0.093225 0.368727 0.140032
v -0.118653 1.141232 -0.056210
v -0.232746 1.118680 0.065874
v -0.337895 1.064369 0.185975
v -0.430059 0.980386 0.299478
v -0.505696 0.869966 0.402020
v -0.561899 0.741331 0.488760
v -0.596509 0.603139 0.555523
v -0.608195 0.463350 0.599144
v -0.596509 0.376745 0.606764
v -0.561899 0.352514 0.576763
v -0.505696 0.371869 0.514757
v -0.430059 0.404355 0.429855
v -0.337895 0.410723 0.333918
v -0.232746 0.389063 0.231012
v -0.118653 0.364120 0.119678
v 0.000000 0.337696 0.004005
v -0.139521 1.135618 -0.081010
v -0.273681 1.107669 0.017226
v -0.397323 1.048383 0.115348
v -0.505696 0.960041 0.209588
v -0.594635 0.846042 0.296321
v -0.660724 0.714749 0.371313
v -0.701420 0.574919 0.430841
v -0.715162 0.434577 0.472020
v -0.701420 0.348525 0.482082
v -0.660724 0.325932 0.459316
v -0.594635 0.347945 0.409058
v -0.505696 0.384010 0.339964
v -0.397323 0.394738 0.263292
v -0.273681 0.378053 0.182364
v -0.139521 0.358507 0.094878
v -0.155028 1.129214 -0.109305
v -0.304098 1.095107 -0.038277
v -0.441481 1.030146 0.034772
v -0.561899 0.936829 0.107033
v -0.660724 0.818748 0.175729
v -0.734157 0.684421 0.237318
v -0.779377 0.542723 0.288594
v -0.794645 0.401751 0.326985
v -0.779377 0.316329 0.339835
v -0.734157 0.295604 0.325321
v -0.660724 0.320651 0.288466
v -0.561899 0.360798 0.237410
v -0.441481 0.376501 0.182715
v -0.304098 0.365490 0.126861
v -0.155028 0.352103 0.066583
v -0.164576 1.122265 -0.140007
v -0.322828 1.081476 -0.098500
v -0.468674 1.010357 -0.052659
v -0.596509 0.911643 -0.004245
v -0.701420 0.789132 0.044879
v -0.779377 0.651513 0.091926
v -0.827382 0.507789 0.134246
v -0.843591 0.366132 0.169613
v -0.827382 0.281395 0.185487
v -0.779377 0.262697 0.179929
v -0.701420 0.291035 0.157616
v -0.596509 0.335611 0.126131
v -0.468674 0.356712 0.095284
v -0.322828 0.351860 0.066638
v -0.164576 0.345154 0.035881
v -0.167801 1.115039 -0.171935
v -0.329153 1.067300 -0.161131
v -0.477856 0.989778 -0.143585
v -0.608195 0.885450 -0.119971
v -0.715162 0.758333 -0.091200
v -0.794645 0.617291 -0.059277
v -0.843591 0.471458 -0.026271
v -0.860118 0.329090 0.005952
v -0.843591 0.245064 0.024970
v -0.794645 0.228474 0.028726
v -0.715162 0.260236 0.021537
v -0.608195 0.309418 0.010405
v -0.477856 0.336132 0.004359
v -0.329153 0.337684 0.004008
v -0.167801 0.337927 0.003953
v -0.164576 1.107812 -0.203864
v -0.322828 1.053125 -0.223761
v -0.468674 0.969198 -0.234510
v -0.596509 0.859257 -0.235697
v -0.701420 0.727533 -0.227280
v -0.779377 0.583068 -0.210481
v -0.827382 0.435128 -0.186787
v -0.843591 0.292047 -0.157709
v -0.827382 0.208734 -0.135546
v -0.779377 0.194251 -0.122477
v -0.701420 0.229436 -0.114542
v -0.596509 0.283226 -0.105321
v -0.468674 0.315553 -0.086567
v -0.322828 0.323509 -0.058623
v -0.164576 0.330700 -0.027976
v -0.155028 1.100863 -0.234566
v -0.304098 1.039494 -0.283985
v -0.441481 0.949409 -0.321941
v -0.561899 0.834071 -0.346976
v -0.660723 0.697917 -0.358129
v -0.734157 0.550161 -0.355873
v -0.779376 0.400193 -0.341135
v -0.794645 0.256429 -0.315080
v -0.779376 0.173799 -0.289894
v -0.734157 0.161344 -0.267870
v -0.660723 0.199820 -0.245392
v -0.561899 0.258039 -0.216599
v -0.441481 0.295764 -0.173997
v -0.304098 0.309878 -0.118846
v -0.155028 0.323752 -0.058678
v -0.139521 1.094459 -0.262861
v -0.273681 1.026932 -0.339487
v -0.397322 0.931172 -0.402518
v -0.505696 0.810859 -0.449531
v -0.594635 0.670623 -0.478721
v -0.660724 0.519833 -0.489867
v -0.701420 0.367998 -0.483382
v -0.715161 0.223602 -0.460115
v -0.701420 0.141604 -0.432141
v -0.660724 0.131016 -0.401864
v -0.594635 0.172526 -0.365984
v -0.505696 0.234827 -0.319154
v -0.397322 0.277526 -0.254574
v -0.273681 0.297316 -0.174349
v -0.139521 0.317347 -0.086973
v -0.118653 1.088846 -0.287661
v -0.232746 1.015921 -0.388135
v -0.337895 0.915187 -0.473144
v -0.430059 0.790514 -0.539421
v -0.505696 0.646699 -0.584421
v -0.561899 0.493250 -0.607315
v -0.596509 0.339778 -0.608064
v -0.608195 0.194830 -0.587238
v -0.596509 0.113384 -0.556823
v -0.561899 0.104434 -0.519311
v -0.505696 0.148602 -0.471684
v -0.430059 0.214482 -0.409045
v -0.337895 0.261541 -0.325200
v -0.232746 0.286305 -0.222997
v -0.118653 0.311734 -0.111773
v -0.093225 1.084239 -0.308015
v -0.182868 1.006885 -0.428060
v -0.265482 0.902068 -0.531105
v -0.337895 0.773817 -0.613192
v -0.397322 0.627066 -0.671166
v -0.441481 0.471435 -0.703701
v -0.468674 0.316619 -0.710387
v -0.477855 0.171217 -0.691566
v -0.468674 0.090225 -0.659146
v -0.441481 0.082618 -0.615698
v -0.397322 0.128969 -0.558429
v -0.337895 0.197785 -0.482815
v -0.265482 0.248423 -0.383162
v -0.182868 0.277269 -0.262921
v -0.093225 0.307128 -0.132127
v -0.064214 1.080816 -0.323138
v -0.125961 1.000170 -0.457726
v -0.182867 0.892320 -0.574174
v -0.232746 0.761410 -0.668009
v -0.273680 0.612477 -0.735624
v -0.304098 0.455224 -0.775322
v -0.322828 0.299410 -0.786420
v -0.329152 0.153670 -0.769088
v -0.322828 0.073016 -0.735179
v -0.304098 0.066407 -0.687319
v -0.273680 0.114380 -0.622886
v -0.232746 0.185378 -0.537632
v -0.182867 0.238674 -0.426231
v -0.125961 0.270554 -0.292588
v -0.064214 0.303704 -0.147250
v -0.032736 1.078708 -0.332452
v -0.064214 0.996035 -0.475995
v -0.093225 0.886317 -0.600696
v -0.118653 0.753769 -0.701765
v -0.139521 0.603493 -0.775316
v -0.155028 0.445242 -0.819427
v -0.164576 0.288812 -0.833240
v -0.167800 0.142866 -0.816826
v -0.164576 0.062418 -0.781999
v -0.155028 0.056425 -0.731424
v -0.139521 0.105396 -0.662579
v -0.118653 0.177738 -0.571388
v -0.093225 0.232672 -0.452753
v -0.064214 0.266419 -0.310857
v -0.032736 0.301597 -0.156564
v 0.000000 1.077996 -0.335596
v 0.000000 0.994639 -0.482163
v 0.000000 0.751190 -0.713163
v 0.000000 0.441871 -0.834319
v 0.000000 0.053054 -0.746316
v 0.000000 0.175158 -0.582786
v 0.000000 0.230645 -0.461708
v 0.000000 0.265023 -0.317025
v 0.000000 0.300885 -0.159708
v 0.000000 -0.781732 -0.368141
v 0.000000 0.407676 -0.368141
v 0.073134 -0.781732 -0.360938
v 0.073134 0.407676 -0.360938
v 0.143458 -0.781732 -0.339606
v 0.143458 0.407676 -0.339605
v 0.208269 -0.781732 -0.304963
v 0.208269 0.407676 -0.304963
v 0.265076 -0.781732 -0.258343
v 0.265076 0.407676 -0.258343
v 0.311696 -0.781732 -0.201536
v 0.311696 0.407676 -0.201536
v 0.346338 -0.781732 -0.136725
v 0.346338 0.407676 -0.136725
v 0.367671 -0.781732 -0.066401
v 0.367671 0.407676 -0.066401
v 0.374874 -0.781732 0.006733
v 0.374874 0.407676 0.006733
v 0.367671 -0.781732 0.079867
v 0.367671 0.407676 0.079867
v 0.346338 -0.781732 0.150191
v 0.346338 0.407676 0.150191
v 0.311696 -0.781732 0.215002
v 0.311696 0.407676 0.215002
v 0.265076 -0.781732 0.271809
v 0.265076 0.407676 0.271809
v 0.208269 -0.781732 0.318429
v 0.208269 0.407676 0.318429
v 0.143458 -0.781732 0.353071
v 0.143458 0.407676 0.353071
v 0.073134 -0.781732 0.374404
v 0.073134 0.407676 0.374404
v 0.000000 -0.781732 0.381607
v 0.000000 0.407676 0.381607
v -0.073134 -0.781732 0.374404
v -0.073134 0.407676 0.374404
v -0.143458 -0.781732 0.353071
v -0.143458 0.407676 0.353071
v -0.208269 -0.781732 0.318429
v -0.208269 0.407676 0.318429
v -0.265076 -0.781732 0.271809
v -0.265076 0.407676 0.271809
v -0.311696 -0.781732 0.215002
v -0.311696 0.407676 0.215002
v -0.346338 -0.781732 0.150191
v -0.346338 0.407676 0.150191
v -0.367671 -0.781732 0.079867
v -0.367671 0.407676 0.079867
v -0.374874 -0.781732 0.006733
v -0.374874 0.407676 0.006733
v -0.367671 -0.781732 -0.066401
v -0.367671 0.407676 -0.066401
v -0.346338 -0.781732 -0.136725
v -0.346338 0.407676 -0.136725
v -0.311696 -0.781732 -0.201536
v -0.311696 0.407676 -0.201536
v -0.265076 -0.781732 -0.258343
v -0.265076 0.407676 -0.258343
v -0.208269 -0.781732 -0.304963
v -0.208269 0.407676 -0.304963
v -0.143458 -0.781732 -0.339606
v -0.143458 0.407676 -0.339605
v -0.073134 -0.781732 -0.360938
v -0.073134 0.407676 -0.360938
v -0.000000 -0.874977 -0.337378
v 0.067133 -0.874977 -0.330766
v 0.131686 -0.874978 -0.311184
v 0.191178 -0.874977 -0.279385
v 0.243323 -0.874977 -0.236590
v 0.286118 -0.874977 -0.184445
v 0.317917 -0.874977 -0.124953
v 0.337499 -0.874977 -0.060400
v 0.344111 -0.874977 0.006733
v 0.337499 -0.874977 0.073866
v 0.317917 -0.874977 0.138418
v 0.286118 -0.874978 0.197911
v 0.243323 -0.874977 0.250056
v 0.191178 -0.874977 0.292851
v 0.131686 -0.874978 0.324650
v 0.067133 -0.874977 0.344232
v -0.000000 -0.874977 0.350844
v -0.067133 -0.874977 0.344232
v -0.131686 -0.874978 0.324650
v -0.191178 -0.874977 0.292851
v -0.243323 -0.874977 0.250056
v -0.286118 -0.874978 0.197911
v -0.317917 -0.874977 0.138418
v -0.337499 -0.874977 0.073866
v -0.344111 -0.874977 0.006733
v -0.337499 -0.874977 -0.060400
v -0.317917 -0.874977 -0.124953
v -0.286118 -0.874977 -0.184445
v -0.243323 -0.874977 -0.236590
v -0.191178 -0.874977 -0.279385
v -0.131686 -0.874978 -0.311184
v -0.067133 -0.874977 -0.330766
v -0.000000 -0.947661 -0.253362
v 0.050742 -0.947661 -0.248364
v 0.099534 -0.947661 -0.233563
v 0.144501 -0.947661 -0.209528
v 0.183914 -0.947661 -0.177182
v 0.216261 -0.947661 -0.137768
v 0.240296 -0.947661 -0.092801
v 0.255097 -0.947661 -0.044009
v 0.260094 -0.947661 0.006733
v 0.255097 -0.947661 0.057475
v 0.240296 -0.947661 0.106267
v 0.216261 -0.947661 0.151234
v 0.183914 -0.947661 0.190647
v 0.144501 -0.947661 0.222993
v 0.099534 -0.947661 0.247029
v 0.050742 -0.947661 0.261830
v -0.000000 -0.947661 0.266827
v -0.050742 -0.947661 0.261830
v -0.099534 -0.947661 0.247029
v -0.144501 -0.947661 0.222993
v -0.183914 -0.947661 0.190647
v -0.216261 -0.947661 0.151234
v -0.240296 -0.947661 0.106267
v -0.255097 -0.947661 0.057475
v -0.260094 -0.947661 0.006733
v -0.255097 -0.947661 -0.044009
v -0.240296 -0.947661 -0.092801
v -0.216261 -0.947661 -0.137768
v -0.183914 -0.947661 -0.177182
v -0.144501 -0.947661 -0.209528
v -0.099534 -0.947661 -0.233563
v -0.050742 -0.947661 -0.248364
v -0.000000 -0.976742 -0.164113
v 0.033330 -0.976743 -0.160830
v 0.065380 -0.976742 -0.151108
v 0.094917 -0.976742 -0.135320
v 0.120806 -0.976742 -0.114073
v 0.142053 -0.976742 -0.088184
v 0.157841 -0.976742 -0.058647
v 0.167563 -0.976742 -0.026597
v 0.170845 -0.976742 0.006733
v 0.167563 -0.976742 0.040063
v 0.157841 -0.976742 0.072113
v 0.142053 -0.976743 0.101650
v 0.120806 -0.976742 0.127539
v 0.094917 -0.976742 0.148786
v 0.065380 -0.976742 0.164573
v 0.033330 -0.976742 0.174296
v -0.000000 -0.976742 0.177578
v -0.033330 -0.976742 0.174296
v -0.065380 -0.976742 0.164573
v -0.094917 -0.976742 0.148786
v -0.120806 -0.976742 0.127539
v -0.142053 -0.976743 0.101650
v -0.157841 -0.976742 0.072113
v -0.167563 -0.976742 0.040063
v -0.170845 -0.976742 0.006733
v -0.167563 -0.976742 -0.026597
v -0.157841 -0.976742 -0.058647
v -0.142053 -0.976742 -0.088184
v -0.120806 -0.976742 -0.114073
v -0.094917 -0.976742 -0.135320
v -0.065380 -0.976742 -0.151108
v -0.033330 -0.976743 -0.160830
vn -0.0000 0.6846 -0.7289
vn -0.0000 0.3608 -0.9326
vn -0.0000 -0.0094 -1.0000
vn -0.0000 -0.2577 -0.9662
vn -0.0000 -0.7930 -0.6092
vn -0.0000 -0.8046 0.5938
vn 0.0392 0.9119 -0.4085
vn 0.0757 0.8150 -0.5745
vn 0.1092 0.6870 -0.7184
vn 0.1385 0.5329 -0.8347
vn 0.1619 0.3643 -0.9171
vn 0.1791 0.1874 -0.9658
vn 0.1907 -0.0052 -0.9816
vn 0.1949 -0.2534 -0.9475
vn 0.1501 -0.7898 -0.5947
vn -0.0010 -0.9742 0.2256
vn -0.0783 -0.8063 0.5863
vn -0.0633 -0.8522 0.5194
vn -0.0224 -0.9440 0.3291
vn -0.0013 -0.9739 0.2269
vn -0.0000 -0.9753 0.2209
vn 0.0769 0.9144 -0.3973
vn 0.1484 0.8199 -0.5530
vn 0.2142 0.6940 -0.6873
vn 0.2718 0.5419 -0.7953
vn 0.3176 0.3747 -0.8710
vn 0.3514 0.1990 -0.9148
vn 0.3740 0.0071 -0.9274
vn 0.3824 -0.2409 -0.8920
vn 0.2944 -0.7801 -0.5521
vn -0.0019 -0.9743 0.2253
vn -0.1537 -0.8113 0.5640
vn -0.1243 -0.8563 0.5014
vn -0.0439 -0.9455 0.3227
vn -0.0025 -0.9740 0.2265
vn -0.0001 -0.9753 0.2209
vn 0.1117 0.9185 -0.3792
vn 0.2155 0.8278 -0.5180
vn 0.3110 0.7055 -0.6369
vn 0.3945 0.5564 -0.7313
vn 0.4611 0.3917 -0.7962
vn 0.5101 0.2177 -0.8321
vn 0.5430 0.0270 -0.8393
vn 0.5552 -0.2205 -0.8020
vn 0.4273 -0.7644 -0.4827
vn -0.0028 -0.9744 0.2249
vn -0.2231 -0.8195 0.5278
vn -0.1804 -0.8629 0.4721
vn -0.0637 -0.9478 0.3123
vn -0.0036 -0.9741 0.2259
vn 0.1421 0.9241 -0.3548
vn 0.2743 0.8384 -0.4710
vn 0.3958 0.7208 -0.5690
vn 0.5021 0.5759 -0.6452
vn 0.5869 0.4145 -0.6955
vn 0.6493 0.2429 -0.7207
vn 0.6911 0.0538 -0.7208
vn 0.7066 -0.1931 -0.6808
vn 0.5439 -0.7433 -0.3894
vn -0.0036 -0.9745 0.2243
vn -0.2839 -0.8306 0.4791
vn -0.2296 -0.8718 0.4327
vn -0.0811 -0.9510 0.2984
vn -0.0045 -0.9743 0.2252
vn 0.1671 0.9308 -0.3251
vn 0.3225 0.8514 -0.4136
vn 0.4654 0.7396 -0.4862
vn 0.5905 0.5996 -0.5402
vn 0.6901 0.4422 -0.5729
vn 0.7635 0.2736 -0.5850
vn 0.8126 0.0865 -0.5763
vn 0.8309 -0.1596 -0.5331
vn 0.6396 -0.7176 -0.2757
vn -0.0042 -0.9747 0.2235
vn -0.3339 -0.8440 0.4198
vn -0.2700 -0.8827 0.3847
vn -0.0954 -0.9548 0.2815
vn -0.0053 -0.9745 0.2242
vn -0.0001 -0.9753 0.2208
vn -0.0000 0.9753 -0.2208
vn 0.1857 0.9385 -0.2913
vn 0.3584 0.8662 -0.3482
vn 0.5172 0.7609 -0.3919
vn 0.6561 0.6267 -0.4205
vn 0.7668 0.4739 -0.4329
vn 0.8483 0.3087 -0.4302
vn 0.9030 0.1238 -0.4115
vn 0.9232 -0.1215 -0.3646
vn 0.7106 -0.6882 -0.1460
vn -0.0047 -0.9749 0.2226
vn -0.3710 -0.8593 0.3520
vn -0.3000 -0.8951 0.3300
vn -0.1060 -0.9592 0.2621
vn -0.0059 -0.9748 0.2231
vn 0.1971 0.9468 -0.2545
vn 0.3804 0.8823 -0.2773
vn 0.5490 0.7841 -0.2894
vn 0.6965 0.6561 -0.2905
vn 0.8140 0.5083 -0.2811
vn 0.9006 0.3467 -0.2621
vn 0.9586 0.1643 -0.2327
vn 0.9801 -0.0801 -0.1817
vn 0.7544 -0.6564 -0.0053
vn -0.0050 -0.9751 0.2217
vn -0.3938 -0.8759 0.2786
vn -0.3185 -0.9085 0.2706
vn -0.1125 -0.9639 0.2411
vn -0.0063 -0.9750 0.2220
vn -0.0002 -0.9753 0.2208
vn 0.2010 0.9554 -0.2162
vn 0.3879 0.8990 -0.2035
vn 0.5598 0.8082 -0.1829
vn 0.7101 0.6867 -0.1554
vn 0.8300 0.5440 -0.1231
vn 0.9182 0.3862 -0.0874
vn 0.9774 0.2064 -0.0467
vn 0.9993 -0.0371 0.0084
vn 0.7692 -0.6232 0.1411
vn -0.0051 -0.9753 0.2207
vn -0.4016 -0.8932 0.2022
vn -0.3247 -0.9225 0.2088
vn -0.1147 -0.9689 0.2193
vn -0.0064 -0.9753 0.2207
vn 0.1971 0.9641 -0.1780
vn 0.3804 0.9157 -0.1297
vn 0.5490 0.8323 -0.0764
vn 0.6965 0.7173 -0.0203
vn 0.8140 0.5798 0.0348
vn 0.9006 0.4258 0.0873
vn 0.9586 0.2485 0.1393
vn 0.9801 0.0059 0.1985
vn 0.7544 -0.5901 0.2874
vn -0.0050 -0.9755 0.2198
vn -0.3938 -0.9105 0.1258
vn -0.3185 -0.9365 0.1470
vn -0.1125 -0.9738 0.1975
vn -0.0063 -0.9756 0.2195
vn -0.0002 -0.9753 0.2207
vn 0.1857 0.9724 -0.1412
vn 0.3584 0.9317 -0.0587
vn 0.5172 0.8555 0.0260
vn 0.6561 0.7467 0.1096
vn 0.7668 0.6141 0.1867
vn 0.8483 0.4638 0.2553
vn 0.9030 0.2889 0.3181
vn 0.9232 0.0473 0.3814
vn 0.7107 -0.5583 0.4282
vn -0.0047 -0.9757 0.2189
vn -0.3710 -0.9272 0.0523
vn -0.3000 -0.9499 0.0876
vn -0.1060 -0.9786 0.1765
vn -0.0059 -0.9759 0.2184
vn -0.0001 -0.9753 0.2207
vn 0.1671 0.9801 -0.1074
vn 0.3225 0.9465 0.0067
vn 0.4654 0.8769 0.1204
vn 0.5905 0.7738 0.2294
vn 0.6901 0.6458 0.3266
vn 0.7635 0.4989 0.4101
vn 0.8126 0.3262 0.4829
vn 0.8309 0.0855 0.5499
vn 0.6396 -0.5289 0.5579
vn -0.0042 -0.9759 0.2180
vn -0.3339 -0.9425 -0.0154
vn -0.2700 -0.9623 0.0328
vn -0.0954 -0.9830 0.1571
vn -0.0053 -0.9761 0.2173
vn 0.1421 0.9868 -0.0776
vn 0.2743 0.9595 0.0640
vn 0.3958 0.8956 0.2031
vn 0.5021 0.7975 0.3343
vn 0.5869 0.6736 0.4493
vn 0.6493 0.5296 0.5459
vn 0.6911 0.3589 0.6273
vn 0.7066 0.1189 0.6976
vn 0.5439 -0.5032 0.6716
vn -0.0036 -0.9761 0.2172
vn -0.2839 -0.9559 -0.0748
vn -0.2296 -0.9732 -0.0151
vn -0.0811 -0.9868 0.1402
vn -0.0045 -0.9763 0.2163
vn -0.0001 -0.9754 0.2206
vn 0.1117 0.9923 -0.0533
vn 0.2155 0.9702 0.1111
vn 0.3110 0.9109 0.2710
vn 0.3945 0.8170 0.4205
vn 0.4611 0.6964 0.5500
vn 0.5102 0.5548 0.6572
vn 0.5430 0.3858 0.7459
vn 0.5552 0.1463 0.8188
vn 0.4273 -0.4821 0.7649
vn -0.0028 -0.9762 0.2166
vn -0.2231 -0.9669 -0.1235
vn -0.1804 -0.9821 -0.0545
vn -0.0637 -0.9899 0.1262
vn -0.0036 -0.9765 0.2156
vn 0.0769 0.9964 -0.0352
vn 0.1484 0.9781 0.1461
vn 0.2142 0.9224 0.3215
vn 0.2718 0.8315 0.4845
vn 0.3176 0.7133 0.6248
vn 0.3514 0.5735 0.7400
vn 0.3740 0.4057 0.8340
vn 0.3824 0.1667 0.9088
vn 0.2944 -0.4664 0.8342
vn -0.0019 -0.9764 0.2162
vn -0.1537 -0.9751 -0.1597
vn -0.1243 -0.9887 -0.0838
vn -0.0439 -0.9923 0.1159
vn -0.0025 -0.9766 0.2150
vn 0.0392 0.9989 -0.0240
vn 0.0757 0.9829 0.1676
vn 0.1092 0.9294 0.3526
vn 0.1385 0.8404 0.5239
vn 0.1619 0.7237 0.6708
vn 0.1791 0.5851 0.7910
vn 0.1907 0.4180 0.8882
vn 0.1949 0.1793 0.9643
vn 0.1501 -0.4567 0.8769
vn -0.0010 -0.9764 0.2159
vn -0.0783 -0.9802 -0.1819
vn -0.0633 -0.9928 -0.1018
vn -0.0224 -0.9937 0.1095
vn -0.0013 -0.9767 0.2146
vn -0.0000 -0.9754 0.2206
vn -0.0000 0.9998 -0.0202
vn -0.0000 0.9846 0.1748
vn -0.0000 0.9318 0.3630
vn -0.0000 0.8435 0.5372
vn -0.0000 0.7272 0.6864
vn -0.0000 0.5889 0.8082
vn -0.0000 0.4221 0.9065
vn -0.0000 0.1835 0.9830
vn -0.0000 -0.4534 0.8913
vn -0.0000 -0.9764 0.2158
vn -0.0000 -0.9819 -0.1895
vn -0.0000 -0.9942 -0.1079
vn -0.0000 -0.9942 0.1074
vn -0.0000 -0.9767 0.2145
vn -0.0392 0.9989 -0.0240
vn -0.0757 0.9829 0.1676
vn -0.1092 0.9294 0.3525
vn -0.1385 0.8404 0.5239
vn -0.1619 0.7237 0.6708
vn -0.1791 0.5851 0.7910
vn -0.1907 0.4180 0.8882
vn -0.1950 0.1793 0.9643
vn -0.1501 -0.4567 0.8769
vn 0.0010 -0.9764 0.2159
vn 0.0783 -0.9802 -0.1819
vn 0.0633 -0.9928 -0.1018
vn 0.0224 -0.9937 0.1095
vn 0.0013 -0.9767 0.2146
vn -0.0769 0.9964 -0.0352
vn -0.1484 0.9781 0.1460
vn -0.2142 0.9224 0.3215
vn -0.2718 0.8315 0.4845
vn -0.3176 0.7133 0.6248
vn -0.3514 0.5735 0.7400
vn -0.3740 0.4057 0.8340
vn -0.3824 0.1667 0.9088
vn -0.2944 -0.4664 0.8342
vn 0.0019 -0.9764 0.2162
vn 0.1537 -0.9751 -0.1597
vn 0.1243 -0.9887 -0.0838
vn 0.0439 -0.9923 0.1159
vn 0.0025 -0.9766 0.2150
vn 0.0001 -0.9754 0.2206
vn -0.1117 0.9923 -0.0533
vn -0.2155 0.9702 0.1111
vn -0.3110 0.9109 0.2710
vn -0.3945 0.8170 0.4205
vn -0.4611 0.6964 0.5500
vn -0.5101 0.5548 0.6572
vn -0.5430 0.3858 0.7459
vn -0.5552 0.1463 0.8188
vn -0.4273 -0.4821 0.7649
vn 0.0028 -0.9762 0.2166
vn 0.2231 -0.9669 -0.1235
vn 0.1804 -0.9821 -0.0545
vn 0.0637 -0.9899 0.1262
vn 0.0036 -0.9765 0.2156
vn -0.1421 0.9868 -0.0776
vn -0.2743 0.9595 0.0640
vn -0.3958 0.8956 0.2031
vn -0.5021 0.7975 0.3343
vn -0.5869 0.6736 0.4493
vn -0.6493 0.5296 0.5459
vn -0.6911 0.3589 0.6273
vn -0.7066 0.1189 0.6976
vn -0.5439 -0.5032 0.6716
vn 0.0036 -0.9761 0.2172
vn 0.2839 -0.9559 -0.0748
vn 0.2296 -0.9732 -0.0151
vn 0.0811 -0.9868 0.1402
vn 0.0045 -0.9763 0.2163
vn -0.0000 -0.9753 0.2208
vn -0.1671 0.9801 -0.1074
vn -0.3225 0.9465 0.0067
vn -0.4654 0.8769 0.1204
vn -0.5905 0.7738 0.2294
vn -0.6901 0.6458 0.3266
vn -0.7635 0.4989 0.4101
vn -0.8126 0.3262 0.4829
vn -0.8309 0.0855 0.5499
vn -0.6396 -0.5289 0.5579
vn 0.0042 -0.9759 0.2180
vn 0.3339 -0.9425 -0.0154
vn 0.2700 -0.9623 0.0328
vn 0.0954 -0.9830 0.1571
vn 0.0053 -0.9761 0.2173
vn 0.0001 -0.9753 0.2207
vn -0.1857 0.9724 -0.1412
vn -0.3584 0.9317 -0.0587
vn -0.5172 0.8555 0.0260
vn -0.6561 0.7467 0.1096
vn -0.7668 0.6141 0.1867
vn -0.8483 0.4638 0.2553
vn -0.9030 0.2889 0.3181
vn -0.9232 0.0473 0.3814
vn -0.7107 -0.5583 0.4282
vn 0.0047 -0.9757 0.2189
vn 0.3710 -0.9272 0.0523
vn 0.3000 -0.9499 0.0876
vn 0.1060 -0.9786 0.1765
vn 0.0059 -0.9759 0.2184
vn -0.1971 0.9641 -0.1780
vn -0.3804 0.9157 -0.1297
vn -0.5490 0.8323 -0.0764
vn -0.6965 0.7173 -0.0203
vn -0.8140 0.5798 0.0348
vn -0.9006 0.4258 0.0873
vn -0.9586 0.2485 0.1393
vn -0.9801 0.0059 0.1985
vn -0.7544 -0.5901 0.2874
vn 0.0050 -0.9755 0.2198
vn 0.3938 -0.9105 0.1258
vn 0.3185 -0.9365 0.1470
vn 0.1125 -0.9738 0.1975
vn 0.0063 -0.9756 0.2195
vn 0.0002 -0.9753 0.2207
vn -0.2010 0.9554 -0.2162
vn -0.3879 0.8990 -0.2035
vn -0.5598 0.8082 -0.1829
vn -0.7101 0.6867 -0.1554
vn -0.8300 0.5440 -0.1231
vn -0.9182 0.3862 -0.0874
vn -0.9774 0.2064 -0.0467
vn -0.9993 -0.0371 0.0084
vn -0.7692 -0.6232 0.1411
vn 0.0051 -0.9753 0.2207
vn 0.4016 -0.8932 0.2022
vn 0.3247 -0.9225 0.2088
vn 0.1147 -0.9689 0.2193
vn 0.0064 -0.9753 0.2207
vn 0.0002 -0.9753 0.2208
vn -0.1971 0.9468 -0.2545
vn -0.3804 0.8823 -0.2773
vn -0.5490 0.7841 -0.2894
vn -0.6965 0.6561 -0.2905
vn -0.8140 0.5083 -0.2811
vn -0.9006 0.3467 -0.2621
vn -0.9586 0.1643 -0.2327
vn -0.9801 -0.0801 -0.1817
vn -0.7544 -0.6564 -0.0053
vn 0.0050 -0.9751 0.2217
vn 0.3938 -0.8759 0.2786
vn 0.3185 -0.9085 0.2706
vn 0.1125 -0.9639 0.2411
vn 0.0063 -0.9750 0.2220
vn -0.1857 0.9385 -0.2913
vn -0.3584 0.8662 -0.3482
vn -0.5172 0.7609 -0.3919
vn -0.6561 0.6267 -0.4205
vn -0.7668 0.4739 -0.4329
vn -0.8483 0.3087 -0.4301
vn -0.9030 0.1238 -0.4115
vn -0.9232 -0.1215 -0.3646
vn -0.7107 -0.6882 -0.1460
vn 0.0047 -0.9749 0.2226
vn 0.3710 -0.8593 0.3520
vn 0.3000 -0.8951 0.3300
vn 0.1060 -0.9592 0.2621
vn 0.0059 -0.9748 0.2231
vn 0.0001 -0.9753 0.2208
vn -0.1671 0.9308 -0.3251
vn -0.3225 0.8514 -0.4137
vn -0.4654 0.7395 -0.4862
vn -0.5905 0.5996 -0.5402
vn -0.6901 0.4422 -0.5729
vn -0.7635 0.2736 -0.5850
vn -0.8126 0.0865 -0.5763
vn -0.8309 -0.1596 -0.5331
vn -0.6396 -0.7176 -0.2757
vn 0.0042 -0.9747 0.2235
vn 0.3339 -0.8440 0.4198
vn 0.2700 -0.8827 0.3847
vn 0.0954 -0.9548 0.2815
vn 0.0053 -0.9745 0.2242
vn -0.1421 0.9241 -0.3548
vn -0.2743 0.8384 -0.4710
vn -0.3958 0.7208 -0.5690
vn -0.5021 0.5759 -0.6452
vn -0.5869 0.4145 -0.6955
vn -0.6493 0.2429 -0.7207
vn -0.6911 0.0538 -0.7208
vn -0.7066 -0.1931 -0.6808
vn -0.5439 -0.7433 -0.3894
vn 0.0036 -0.9745 0.2243
vn 0.2839 -0.8306 0.4791
vn 0.2296 -0.8718 0.4327
vn 0.0811 -0.9510 0.2984
vn 0.0045 -0.9743 0.2252
vn 0.0001 -0.9753 0.2209
vn -0.1117 0.9185 -0.3792
vn -0.2155 0.8278 -0.5180
vn -0.3110 0.7055 -0.6369
vn -0.3945 0.5564 -0.7313
vn -0.4611 0.3917 -0.7962
vn -0.5102 0.2177 -0.8321
vn -0.5430 0.0270 -0.8393
vn -0.5552 -0.2205 -0.8020
vn -0.4273 -0.7644 -0.4827
vn 0.0028 -0.9744 0.2249
vn 0.2231 -0.8195 0.5278
vn 0.1804 -0.8629 0.4721
vn 0.0637 -0.9478 0.3123
vn 0.0036 -0.9741 0.2259
vn -0.0769 0.9144 -0.3973
vn -0.1484 0.8199 -0.5530
vn -0.2142 0.6940 -0.6873
vn -0.2718 0.5419 -0.7953
vn -0.3176 0.3747 -0.8710
vn -0.3514 0.1990 -0.9148
vn -0.3740 0.0070 -0.9274
vn -0.3824 -0.2409 -0.8920
vn -0.2944 -0.7801 -0.5521
vn 0.0019 -0.9743 0.2253
vn 0.1537 -0.8113 0.5640
vn 0.1243 -0.8563 0.5014
vn 0.0439 -0.9455 0.3227
vn 0.0025 -0.9740 0.2265
vn -0.0392 0.9119 -0.4085
vn -0.0757 0.8150 -0.5745
vn -0.1092 0.6870 -0.7184
vn -0.1385 0.5329 -0.8347
vn -0.1619 0.3643 -0.9171
vn -0.1791 0.1874 -0.9658
vn -0.1907 -0.0052 -0.9816
vn -0.1950 -0.2534 -0.9475
vn -0.1501 -0.7898 -0.5947
vn 0.0010 -0.9742 0.2256
vn 0.0783 -0.8063 0.5863
vn 0.0633 -0.8522 0.5194
vn 0.0224 -0.9440 0.3291
vn 0.0013 -0.9739 0.2269
vn -0.0000 0.9111 -0.4123
vn -0.0000 0.8133 -0.5818
vn -0.0000 0.5299 -0.8480
vn -0.0000 0.1835 -0.9830
vn -0.0000 -0.9742 0.2257
vn -0.0000 -0.8508 0.5255
vn -0.0000 -0.9436 0.3312
vn -0.0000 -0.9739 0.2270
vn -0.0000 -0.1571 -0.9876
vn -0.0000 0.6857 -0.7279
vn 0.1927 -0.1571 -0.9686
vn 0.1420 0.6857 -0.7139
vn 0.3779 -0.1571 -0.9124
vn 0.2786 0.6857 -0.6725
vn 0.5487 -0.1571 -0.8211
vn 0.4044 0.6857 -0.6052
vn 0.6983 -0.1571 -0.6983
vn 0.5147 0.6857 -0.5147
vn 0.8211 -0.1571 -0.5487
vn 0.6052 0.6857 -0.4044
vn 0.9124 -0.1571 -0.3779
vn 0.6725 0.6857 -0.2786
vn 0.9686 -0.1571 -0.1927
vn 0.7139 0.6857 -0.1420
vn 0.9876 -0.1571 -0.0000
vn 0.7279 0.6857 -0.0000
vn 0.9686 -0.1571 0.1927
vn 0.7139 0.6857 0.1420
vn 0.9124 -0.1571 0.3779
vn 0.6725 0.6857 0.2786
vn 0.8211 -0.1571 0.5487
vn 0.6052 0.6857 0.4044
vn 0.6983 -0.1571 0.6983
vn 0.5147 0.6857 0.5147
vn 0.5487 -0.1571 0.8211
vn 0.4044 0.6857 0.6052
vn 0.3779 -0.1571 0.9124
vn 0.2786 0.6857 0.6725
vn 0.1927 -0.1571 0.9686
vn 0.1420 0.6857 0.7139
vn -0.0000 -0.1571 0.9876
vn -0.0000 0.6857 0.7279
vn -0.1927 -0.1571 0.9686
vn -0.1420 0.6857 0.7139
vn -0.3779 -0.1571 0.9124
vn -0.2786 0.6857 0.6725
vn -0.5487 -0.1571 0.8211
vn -0.4044 0.6857 0.6052
vn -0.6983 -0.1571 0.6983
vn -0.5147 0.6857 0.5147
vn -0.8211 -0.1571 0.5487
vn -0.6052 0.6857 0.4044
vn -0.9124 -0.1571 0.3779
vn -0.6725 0.6857 0.2786
vn -0.9686 -0.1571 0.1927
vn -0.7139 0.6857 0.1420
vn -0.9876 -0.1571 -0.0000
vn -0.7279 0.6857 -0.0000
vn -0.9686 -0.1571 -0.1927
vn -0.7139 0.6857 -0.1420
vn -0.9124 -0.1571 -0.3779
vn -0.6725 0.6857 -0.2786
vn -0.8211 -0.1571 -0.5487
vn -0.6052 0.6857 -0.4044
vn -0.6983 -0.1571 -0.6983
vn -0.5147 0.6857 -0.5147
vn -0.5487 -0.1571 -0.8211
vn -0.4044 0.6857 -0.6052
vn -0.3779 -0.1571 -0.9124
vn -0.2786 0.6857 -0.6725
vn -0.1927 -0.1571 -0.9686
vn -0.1420 0.6857 -0.7139
vn -0.0000 -0.5473 -0.8370
vn 0.1633 -0.5473 -0.8209
vn 0.3203 -0.5473 -0.7732
vn 0.4650 -0.5473 -0.6959
vn 0.5918 -0.5473 -0.5918
vn 0.6959 -0.5473 -0.4650
vn 0.7732 -0.5473 -0.3203
vn 0.8209 -0.5473 -0.1633
vn 0.8370 -0.5473 -0.0000
vn 0.8209 -0.5473 0.1633
vn 0.7732 -0.5473 0.3203
vn 0.6959 -0.5473 0.4650
vn 0.5918 -0.5473 0.5918
vn 0.4650 -0.5473 0.6959
vn 0.3203 -0.5473 0.7732
vn 0.1633 -0.5473 0.8209
vn -0.0000 -0.5473 0.8370
vn -0.1633 -0.5473 0.8209
vn -0.3203 -0.5473 0.7732
vn -0.4650 -0.5473 0.6959
vn -0.5918 -0.5473 0.5918
vn -0.6959 -0.5473 0.4650
vn -0.7732 -0.5473 0.3203
vn -0.8209 -0.5473 0.1633
vn -0.8370 -0.5473 -0.0000
vn -0.8209 -0.5473 -0.1633
vn -0.7732 -0.5473 -0.3203
vn -0.6959 -0.5473 -0.4650
vn -0.5918 -0.5473 -0.5918
vn -0.4650 -0.5473 -0.6959
vn -0.3203 -0.5473 -0.7732
vn -0.1633 -0.5473 -0.8209
vn -0.0000 -0.8654 -0.5010
vn 0.0977 -0.8654 -0.4914
vn 0.1917 -0.8654 -0.4629
vn 0.2783 -0.8654 -0.4166
vn 0.3543 -0.8654 -0.3543
vn 0.4166 -0.8654 -0.2783
vn 0.4629 -0.8654 -0.1917
vn 0.4914 -0.8654 -0.0977
vn 0.5010 -0.8654 -0.0000
vn 0.4914 -0.8654 0.0977
vn 0.4629 -0.8654 0.1917
vn 0.4166 -0.8654 0.2783
vn 0.3543 -0.8654 0.3543
vn 0.2783 -0.8654 0.4166
vn 0.1917 -0.8654 0.4629
vn 0.0977 -0.8654 0.4914
vn -0.0000 -0.8654 0.5010
vn -0.0977 -0.8654 0.4914
vn -0.1917 -0.8654 0.4629
vn -0.2783 -0.8654 0.4166
vn -0.3543 -0.8654 0.3543
vn -0.4166 -0.8654 0.2783
vn -0.4629 -0.8654 0.1917
vn -0.4914 -0.8654 0.0977
vn -0.5010 -0.8654 -0.0000
vn -0.4914 -0.8654 -0.0977
vn -0.4629 -0.8654 -0.1917
vn -0.4166 -0.8654 -0.2783
vn -0.3543 -0.8654 -0.3543
vn -0.2783 -0.8654 -0.4166
vn -0.1917 -0.8654 -0.4629
vn -0.0977 -0.8654 -0.4914
vn -0.0000 -0.9861 -0.1664
vn 0.0325 -0.9861 -0.1632
vn 0.0637 -0.9861 -0.1537
vn 0.0924 -0.9861 -0.1383
vn 0.1176 -0.9861 -0.1176
vn 0.1383 -0.9861 -0.0924
vn 0.1537 -0.9861 -0.0637
vn 0.1632 -0.9861 -0.0325
vn 0.1664 -0.9861 -0.0000
vn 0.1632 -0.9861 0.0325
vn 0.1537 -0.9861 0.0637
vn 0.1383 -0.9861 0.0924
vn 0.1177 -0.9861 0.1177
vn 0.0924 -0.9861 0.1383
vn 0.0637 -0.9861 0.1537
vn 0.0325 -0.9861 0.1632
vn -0.0000 -0.9861 0.1664
vn -0.0325 -0.9861 0.1632
vn -0.0637 -0.9861 0.1537
vn -0.0924 -0.9861 0.1383
vn -0.1176 -0.9861 0.1176
vn -0.1383 -0.9861 0.0924
vn -0.1537 -0.9861 0.0637
vn -0.1632 -0.9861 0.0325
vn -0.1664 -0.9861 -0.0000
vn -0.1632 -0.9861 -0.0325
vn -0.1537 -0.9861 -0.0637
vn -0.1383 -0.9861 -0.0924
vn -0.1176 -0.9861 -0.1176
vn -0.0924 -0.9861 -0.1383
vn -0.0637 -0.9861 -0.1537
vn -0.0325 -0.9861 -0.1632
vt 0.859486 0.232422
vt 0.847021 0.207492
vt 0.859486 0.207492
vt 0.859486 0.382003
vt 0.847021 0.406933
vt 0.847021 0.382003
vt 0.847021 0.182561
vt 0.859486 0.182561
vt 0.859486 0.357073
vt 0.847021 0.357073
vt 0.847021 0.157631
vt 0.859486 0.157631
vt 0.859486 0.332143
vt 0.847021 0.332143
vt 0.859486 0.132701
vt 0.847021 0.132701
vt 0.847021 0.307213
vt 0.859486 0.307213
vt 0.847021 0.107771
vt 0.859486 0.107771
vt 0.859486 0.282282
vt 0.847021 0.282282
vt 0.847021 0.082841
vt 0.859486 0.082841
vt 0.847021 0.257352
vt 0.859486 0.257352
vt 0.847021 0.057910
vt 0.859486 0.057910
vt 0.847021 0.232422
vt 0.859486 0.406934
vt 0.853254 0.431864
vt 0.853254 0.032980
vt 0.834556 0.057910
vt 0.834556 0.232422
vt 0.840789 0.431864
vt 0.834556 0.406933
vt 0.840789 0.032980
vt 0.834556 0.207492
vt 0.834556 0.382003
vt 0.834556 0.182561
vt 0.834556 0.357073
vt 0.834556 0.157631
vt 0.834556 0.332143
vt 0.834556 0.132701
vt 0.834556 0.307213
vt 0.834556 0.107771
vt 0.834556 0.282282
vt 0.834556 0.082841
vt 0.834556 0.257352
vt 0.822091 0.132701
vt 0.822091 0.307213
vt 0.822091 0.107771
vt 0.822091 0.282282
vt 0.822091 0.082841
vt 0.822091 0.257352
vt 0.822091 0.057910
vt 0.822091 0.232422
vt 0.828324 0.431864
vt 0.822091 0.406933
vt 0.828324 0.032980
vt 0.822091 0.207492
vt 0.822091 0.382003
vt 0.822091 0.182561
vt 0.822091 0.357073
vt 0.822091 0.157631
vt 0.822091 0.332143
vt 0.815859 0.431864
vt 0.809626 0.406933
vt 0.815859 0.032980
vt 0.809626 0.057910
vt 0.809626 0.207492
vt 0.809626 0.382003
vt 0.809626 0.182561
vt 0.809626 0.357073
vt 0.809626 0.157631
vt 0.809626 0.332143
vt 0.809626 0.132701
vt 0.809626 0.307213
vt 0.809626 0.107771
vt 0.809626 0.282282
vt 0.809626 0.082841
vt 0.809626 0.257352
vt 0.809626 0.232422
vt 0.797161 0.332143
vt 0.797161 0.307213
vt 0.797161 0.132701
vt 0.797161 0.107771
vt 0.797161 0.282282
vt 0.797161 0.082841
vt 0.797161 0.257352
vt 0.797161 0.057910
vt 0.797161 0.232422
vt 0.803393 0.431864
vt 0.797161 0.406933
vt 0.803393 0.032980
vt 0.797161 0.207492
vt 0.797161 0.382003
vt 0.797161 0.182561
vt 0.797161 0.357073
vt 0.797161 0.157631
vt 0.784696 0.207492
vt 0.784696 0.382003
vt 0.784696 0.182561
vt 0.784696 0.357073
vt 0.784696 0.157631
vt 0.784696 0.332143
vt 0.784696 0.132701
vt 0.784696 0.307213
vt 0.784696 0.107771
vt 0.784696 0.282282
vt 0.784696 0.082841
vt 0.784696 0.257352
vt 0.784696 0.057910
vt 0.784696 0.232422
vt 0.790928 0.431864
vt 0.784696 0.406933
vt 0.790928 0.032980
vt 0.772231 0.132701
vt 0.772231 0.107771
vt 0.772231 0.282282
vt 0.772231 0.082841
vt 0.772231 0.257352
vt 0.772231 0.057910
vt 0.772231 0.232422
vt 0.778463 0.431864
vt 0.772231 0.406933
vt 0.778463 0.032980
vt 0.772231 0.207492
vt 0.772231 0.382003
vt 0.772231 0.182561
vt 0.772231 0.357073
vt 0.772231 0.157631
vt 0.772231 0.332143
vt 0.772231 0.307213
vt 0.759766 0.382003
vt 0.759766 0.182561
vt 0.759766 0.357073
vt 0.759766 0.157631
vt 0.759766 0.332143
vt 0.759766 0.132701
vt 0.759766 0.307213
vt 0.759766 0.107771
vt 0.759766 0.282282
vt 0.759766 0.082841
vt 0.759766 0.257352
vt 0.759766 0.057910
vt 0.759766 0.232422
vt 0.765998 0.431864
vt 0.759766 0.406933
vt 0.765998 0.032980
vt 0.759766 0.207492
vt 0.747301 0.282282
vt 0.747301 0.082841
vt 0.747301 0.257352
vt 0.747301 0.057910
vt 0.747301 0.232422
vt 0.753533 0.431864
vt 0.747301 0.406933
vt 0.753533 0.032980
vt 0.747301 0.207492
vt 0.747301 0.382003
vt 0.747301 0.182561
vt 0.747301 0.357073
vt 0.747301 0.157631
vt 0.747301 0.332143
vt 0.747301 0.132701
vt 0.747301 0.307213
vt 0.747301 0.107771
vt 0.734835 0.182561
vt 0.734835 0.357073
vt 0.734835 0.157631
vt 0.734835 0.332143
vt 0.734835 0.132701
vt 0.734835 0.307213
vt 0.734835 0.107771
vt 0.734835 0.282282
vt 0.734835 0.082841
vt 0.734835 0.257352
vt 0.734835 0.057910
vt 0.734835 0.232422
vt 0.741068 0.431864
vt 0.734835 0.406933
vt 0.741068 0.032980
vt 0.734835 0.207492
vt 0.734835 0.382003
vt 0.722370 0.107771
vt 0.722370 0.082841
vt 0.722370 0.282282
vt 0.722370 0.257352
vt 0.722370 0.057910
vt 0.722370 0.232422
vt 0.728603 0.431864
vt 0.722370 0.406933
vt 0.728603 0.032980
vt 0.722370 0.207492
vt 0.722370 0.382003
vt 0.722370 0.182561
vt 0.722370 0.357073
vt 0.722370 0.157631
vt 0.722370 0.332143
vt 0.722370 0.132701
vt 0.722370 0.307213
vt 0.709905 0.182561
vt 0.709905 0.157631
vt 0.709905 0.332143
vt 0.709905 0.132701
vt 0.709905 0.307213
vt 0.709905 0.107771
vt 0.709905 0.282282
vt 0.709905 0.082841
vt 0.709905 0.257352
vt 0.709905 0.057910
vt 0.709905 0.232422
vt 0.716138 0.431864
vt 0.709905 0.406933
vt 0.716138 0.032980
vt 0.709905 0.207492
vt 0.709905 0.382003
vt 0.709905 0.357073
vt 0.697440 0.057910
vt 0.697440 0.257352
vt 0.697440 0.232422
vt 0.703673 0.431864
vt 0.697440 0.406933
vt 0.703673 0.032980
vt 0.697440 0.207492
vt 0.697440 0.382003
vt 0.697440 0.182561
vt 0.697440 0.357073
vt 0.697440 0.157631
vt 0.697440 0.332143
vt 0.697440 0.132701
vt 0.697440 0.307213
vt 0.697440 0.107771
vt 0.697440 0.282282
vt 0.697440 0.082841
vt 0.684975 0.332143
vt 0.684975 0.132701
vt 0.684975 0.307213
vt 0.684975 0.107771
vt 0.684975 0.282282
vt 0.684975 0.082841
vt 0.684975 0.257352
vt 0.684975 0.057910
vt 0.684975 0.232422
vt 0.691208 0.431864
vt 0.684975 0.406933
vt 0.691208 0.032980
vt 0.684975 0.207492
vt 0.684975 0.382003
vt 0.684975 0.182561
vt 0.684975 0.357073
vt 0.684975 0.157631
vt 0.672510 0.257352
vt 0.672510 0.232422
vt 0.678742 0.431864
vt 0.672510 0.406933
vt 0.678742 0.032980
vt 0.672510 0.057910
vt 0.672510 0.207492
vt 0.672510 0.382003
vt 0.672510 0.182561
vt 0.672510 0.357073
vt 0.672510 0.157631
vt 0.672510 0.332143
vt 0.672510 0.132701
vt 0.672510 0.307213
vt 0.672510 0.107771
vt 0.672510 0.282282
vt 0.672510 0.082841
vt 0.660045 0.132701
vt 0.660045 0.332143
vt 0.660045 0.307213
vt 0.660045 0.107771
vt 0.660045 0.282282
vt 0.660045 0.082841
vt 0.660045 0.257352
vt 0.660045 0.057910
vt 0.660045 0.232422
vt 0.666277 0.431864
vt 0.660045 0.406933
vt 0.666277 0.032980
vt 0.660045 0.207492
vt 0.660045 0.382003
vt 0.660045 0.182561
vt 0.660045 0.357073
vt 0.660045 0.157631
vt 0.653812 0.431864
vt 0.647580 0.406933
vt 0.653812 0.032980
vt 0.647580 0.057910
vt 0.647580 0.207492
vt 0.647580 0.382003
vt 0.647580 0.182561
vt 0.647580 0.357073
vt 0.647580 0.157631
vt 0.647580 0.332143
vt 0.647580 0.132701
vt 0.647580 0.307213
vt 0.647580 0.107771
vt 0.647580 0.282282
vt 0.647580 0.082841
vt 0.647580 0.257352
vt 0.647580 0.232422
vt 0.635114 0.332143
vt 0.635114 0.307213
vt 0.635114 0.132701
vt 0.635114 0.107771
vt 0.635114 0.282282
vt 0.635114 0.082841
vt 0.635114 0.257352
vt 0.635114 0.057910
vt 0.635114 0.232422
vt 0.641347 0.431864
vt 0.635114 0.406933
vt 0.641347 0.032980
vt 0.635114 0.207492
vt 0.635114 0.382003
vt 0.635114 0.182561
vt 0.635114 0.357073
vt 0.635114 0.157631
vt 0.622649 0.207492
vt 0.622649 0.382003
vt 0.622649 0.182561
vt 0.622649 0.357073
vt 0.622649 0.157631
vt 0.622649 0.332143
vt 0.622649 0.132701
vt 0.622649 0.307213
vt 0.622649 0.107771
vt 0.622649 0.282282
vt 0.622649 0.082841
vt 0.622649 0.257352
vt 0.622649 0.057910
vt 0.622649 0.232422
vt 0.628882 0.431864
vt 0.622649 0.406933
vt 0.628882 0.032980
vt 0.610184 0.132701
vt 0.610184 0.107771
vt 0.610184 0.282282
vt 0.610184 0.082841
vt 0.610184 0.257352
vt 0.610184 0.057910
vt 0.610184 0.232422
vt 0.616417 0.431864
vt 0.610184 0.406933
vt 0.616417 0.032980
vt 0.610184 0.207492
vt 0.610184 0.382003
vt 0.610184 0.182561
vt 0.610184 0.357073
vt 0.610184 0.157631
vt 0.610184 0.332143
vt 0.610184 0.307213
vt 0.597719 0.182561
vt 0.597719 0.382003
vt 0.597719 0.357073
vt 0.597719 0.157631
vt 0.597719 0.332143
vt 0.597719 0.132701
vt 0.597719 0.307213
vt 0.597719 0.107771
vt 0.597719 0.282282
vt 0.597719 0.082841
vt 0.597719 0.257352
vt 0.597719 0.057910
vt 0.597719 0.232422
vt 0.603952 0.431864
vt 0.597719 0.406933
vt 0.603952 0.032980
vt 0.597719 0.207492
vt 0.585254 0.082841
vt 0.585254 0.282282
vt 0.585254 0.257352
vt 0.585254 0.057910
vt 0.585254 0.232422
vt 0.591487 0.431864
vt 0.585254 0.406933
vt 0.591487 0.032980
vt 0.585254 0.207492
vt 0.585254 0.382003
vt 0.585254 0.182561
vt 0.585254 0.357073
vt 0.585254 0.157631
vt 0.585254 0.332143
vt 0.585254 0.132701
vt 0.585254 0.307213
vt 0.585254 0.107771
vt 0.572789 0.382003
vt 0.572789 0.357073
vt 0.572789 0.182561
vt 0.572789 0.157631
vt 0.572789 0.332143
vt 0.572789 0.132701
vt 0.572789 0.307213
vt 0.572789 0.107771
vt 0.572789 0.282282
vt 0.572789 0.082841
vt 0.572789 0.257352
vt 0.572789 0.057910
vt 0.572789 0.232422
vt 0.579022 0.431864
vt 0.572789 0.406933
vt 0.579022 0.032980
vt 0.572789 0.207492
vt 0.560324 0.282282
vt 0.560324 0.257352
vt 0.560324 0.082841
vt 0.560324 0.057910
vt 0.560324 0.232422
vt 0.566556 0.431864
vt 0.560324 0.406933
vt 0.566556 0.032980
vt 0.560324 0.207492
vt 0.560324 0.382003
vt 0.560324 0.182561
vt 0.560324 0.357073
vt 0.560324 0.157631
vt 0.560324 0.332143
vt 0.560324 0.132701
vt 0.560324 0.307213
vt 0.560324 0.107771
vt 0.959207 0.157631
vt 0.946742 0.182561
vt 0.946742 0.157631
vt 0.959207 0.357073
vt 0.946742 0.332143
vt 0.959207 0.332143
vt 0.946742 0.132701
vt 0.959207 0.132701
vt 0.959207 0.307213
vt 0.946742 0.307213
vt 0.959207 0.107771
vt 0.946742 0.107771
vt 0.946742 0.282282
vt 0.959207 0.282282
vt 0.946742 0.082841
vt 0.959207 0.082841
vt 0.959207 0.257352
vt 0.946742 0.257352
vt 0.946742 0.057910
vt 0.959207 0.057910
vt 0.959207 0.232422
vt 0.946742 0.232422
vt 0.959207 0.406933
vt 0.952975 0.431864
vt 0.946742 0.406933
vt 0.952975 0.032980
vt 0.946742 0.207492
vt 0.959207 0.207492
vt 0.959207 0.382003
vt 0.946742 0.382003
vt 0.959207 0.182561
vt 0.946742 0.357073
vt 0.934277 0.057910
vt 0.934277 0.257352
vt 0.934277 0.232422
vt 0.940510 0.431864
vt 0.934277 0.406933
vt 0.940510 0.032980
vt 0.934277 0.207492
vt 0.934277 0.382003
vt 0.934277 0.182561
vt 0.934277 0.357073
vt 0.934277 0.157631
vt 0.934277 0.332143
vt 0.934277 0.132701
vt 0.934277 0.307213
vt 0.934277 0.107771
vt 0.934277 0.282282
vt 0.934277 0.082841
vt 0.921812 0.332143
vt 0.921812 0.132701
vt 0.921812 0.307213
vt 0.921812 0.107771
vt 0.921812 0.282282
vt 0.921812 0.082841
vt 0.921812 0.257352
vt 0.921812 0.057910
vt 0.921812 0.232422
vt 0.928045 0.431864
vt 0.921812 0.406933
vt 0.928045 0.032980
vt 0.921812 0.207492
vt 0.921812 0.382003
vt 0.921812 0.182561
vt 0.921812 0.357073
vt 0.921812 0.157631
vt 0.909347 0.257352
vt 0.909347 0.232422
vt 0.915579 0.431864
vt 0.909347 0.406933
vt 0.915579 0.032980
vt 0.909347 0.057910
vt 0.909347 0.207492
vt 0.909347 0.382003
vt 0.909347 0.182561
vt 0.909347 0.357073
vt 0.909347 0.157631
vt 0.909347 0.332143
vt 0.909347 0.132701
vt 0.909347 0.307213
vt 0.909347 0.107771
vt 0.909347 0.282282
vt 0.909347 0.082841
vt 0.896882 0.132701
vt 0.896882 0.332143
vt 0.896882 0.307213
vt 0.896882 0.107771
vt 0.896882 0.282282
vt 0.896882 0.082841
vt 0.896882 0.257352
vt 0.896882 0.057910
vt 0.896882 0.232422
vt 0.903114 0.431864
vt 0.896882 0.406933
vt 0.903114 0.032980
vt 0.896882 0.207492
vt 0.896882 0.382003
vt 0.896882 0.182561
vt 0.896882 0.357073
vt 0.896882 0.157631
vt 0.890649 0.032980
vt 0.884417 0.057910
vt 0.884417 0.207492
vt 0.884417 0.406934
vt 0.884417 0.382003
vt 0.884417 0.182561
vt 0.884417 0.357073
vt 0.884417 0.157631
vt 0.884417 0.332143
vt 0.884417 0.132701
vt 0.884417 0.307213
vt 0.884417 0.107771
vt 0.884417 0.282282
vt 0.884417 0.082841
vt 0.884417 0.257352
vt 0.884417 0.232422
vt 0.890649 0.431864
vt 0.871952 0.132701
vt 0.871952 0.107771
vt 0.871952 0.282282
vt 0.871952 0.082841
vt 0.871952 0.257352
vt 0.871952 0.057910
vt 0.871952 0.232422
vt 0.878184 0.431864
vt 0.871952 0.406934
vt 0.878184 0.032980
vt 0.871952 0.207492
vt 0.871952 0.382003
vt 0.871952 0.182561
vt 0.871952 0.357073
vt 0.871952 0.157631
vt 0.871952 0.332143
vt 0.871952 0.307213
vt 0.865719 0.431864
vt 0.865719 0.032980
vt 1.000000 1.000000
vt 0.968750 0.500000
vt 1.000000 0.500000
vt 0.937500 1.000000
vt 0.937500 0.500000
vt 0.906250 0.500000
vt 0.906250 1.000000
vt 0.875000 0.500000
vt 0.875000 1.000000
vt 0.843750 0.500000
vt 0.812500 1.000000
vt 0.812500 0.500000
vt 0.781250 0.500000
vt 0.781250 1.000000
vt 0.750000 0.500000
vt 0.750000 1.000000
vt 0.718750 0.500000
vt 0.687500 1.000000
vt 0.687500 0.500000
vt 0.656250 0.500000
vt 0.656250 1.000000
vt 0.625000 0.500000
vt 0.625000 1.000000
vt 0.593750 0.500000
vt 0.593750 1.000000
vt 0.562500 0.500000
vt 0.531250 1.000000
vt 0.531250 0.500000
vt 0.500000 0.500000
vt 0.468750 1.000000
vt 0.468750 0.500000
vt 0.437500 0.500000
vt 0.437500 1.000000
vt 0.406250 0.500000
vt 0.406250 1.000000
vt 0.375000 0.500000
vt 0.343750 1.000000
vt 0.343750 0.500000
vt 0.312500 0.500000
vt 0.312500 1.000000
vt 0.281250 0.500000
vt 0.250000 1.000000
vt 0.250000 0.500000
vt 0.218750 1.000000
vt 0.218750 0.500000
vt 0.187500 0.500000
vt 0.187500 1.000000
vt 0.156250 0.500000
vt 0.125000 1.000000
vt 0.125000 0.500000
vt 0.093750 0.500000
vt 0.062500 1.000000
vt 0.062500 0.500000
vt 0.158156 0.028269
vt 0.471731 0.158156
vt 0.341844 0.471731
vt 0.031250 0.500000
vt 0.000000 1.000000
vt 0.000000 0.500000
vt 0.968750 1.000000
vt 0.843750 1.000000
vt 0.718750 1.000000
vt 0.562500 1.000000
vt 0.500000 1.000000
vt 0.375000 1.000000
vt 0.281250 1.000000
vt 0.156250 1.000000
vt 0.093750 1.000000
vt 0.296822 0.485388
vt 0.250000 0.490000
vt 0.203178 0.485388
vt 0.158156 0.471731
vt 0.116663 0.449553
vt 0.080294 0.419706
vt 0.050447 0.383337
vt 0.028269 0.341844
vt 0.014612 0.296822
vt 0.010000 0.250000
vt 0.014612 0.203178
vt 0.028269 0.158156
vt 0.050447 0.116663
vt 0.080294 0.080294
vt 0.116663 0.050447
vt 0.203178 0.014612
vt 0.250000 0.010000
vt 0.296822 0.014612
vt 0.341844 0.028269
vt 0.383337 0.050447
vt 0.419706 0.080294
vt 0.449553 0.116663
vt 0.485388 0.203178
vt 0.490000 0.250000
vt 0.485388 0.296822
vt 0.471731 0.341844
vt 0.449553 0.383337
vt 0.419706 0.419706
vt 0.383337 0.449553
vt 0.031250 1.000000
s 1
usemtl Material
f 4/1/4 15/2/15 5/3/5
f 475/4/458 7/5/7 8/6/8
f 5/3/5 16/7/16 478/8/461
f 1/9/1 8/6/8 9/10/9
f 478/8/461 17/11/17 6/12/6
f 476/13/459 9/10/9 10/14/10
f 479/15/462 17/11/17 18/16/18
f 476/13/459 11/17/11 2/18/2
f 479/15/462 19/19/19 480/20/463
f 477/21/460 11/17/11 12/22/12
f 480/20/463 20/23/20 481/24/464
f 477/21/460 13/25/13 3/26/3
f 481/24/464 21/27/21 482/28/21
f 3/26/3 14/29/14 4/1/4
f 474/30/457 82/31/80 7/5/7
f 308/32/297 482/28/21 21/27/21
f 20/23/20 36/33/36 21/27/21
f 13/25/13 29/34/29 14/29/14
f 7/5/7 82/35/80 22/36/22
f 308/37/297 21/27/21 36/33/36
f 14/29/14 30/38/30 15/2/15
f 7/5/7 23/39/23 8/6/8
f 15/2/15 31/40/31 16/7/16
f 8/6/8 24/41/24 9/10/9
f 17/11/17 31/40/31 32/42/32
f 9/10/9 25/43/25 10/14/10
f 18/16/18 32/42/32 33/44/33
f 10/14/10 26/45/26 11/17/11
f 19/19/19 33/44/33 34/46/34
f 11/17/11 27/47/27 12/22/12
f 20/23/20 34/46/34 35/48/35
f 13/25/13 27/47/27 28/49/28
f 32/42/32 48/50/48 33/44/33
f 25/43/25 41/51/41 26/45/26
f 34/46/34 48/50/48 49/52/49
f 26/45/26 42/53/42 27/47/27
f 35/48/35 49/52/49 50/54/50
f 28/49/28 42/53/42 43/55/43
f 36/33/36 50/54/50 51/56/36
f 29/34/29 43/55/43 44/57/44
f 22/36/22 82/58/80 37/59/37
f 308/60/297 36/33/36 51/56/36
f 29/34/29 45/61/45 30/38/30
f 22/36/22 38/62/38 23/39/23
f 30/38/30 46/63/46 31/40/31
f 23/39/23 39/64/39 24/41/24
f 32/42/32 46/63/46 47/65/47
f 24/41/24 40/66/40 25/43/25
f 37/59/37 82/67/80 52/68/51
f 308/69/297 51/56/36 66/70/36
f 44/57/44 60/71/59 45/61/45
f 37/59/37 53/72/52 38/62/38
f 45/61/45 61/73/60 46/63/46
f 38/62/38 54/74/53 39/64/39
f 47/65/47 61/73/60 62/75/61
f 39/64/39 55/76/54 40/66/40
f 47/65/47 63/77/62 48/50/48
f 41/51/41 55/76/54 56/78/55
f 49/52/49 63/77/62 64/79/63
f 41/51/41 57/80/56 42/53/42
f 50/54/50 64/79/63 65/81/64
f 43/55/43 57/80/56 58/82/57
f 51/56/36 65/81/64 66/70/36
f 44/57/44 58/82/57 59/83/58
f 56/78/55 70/84/68 71/85/69
f 64/79/63 78/86/76 79/87/77
f 56/78/55 72/88/70 57/80/56
f 64/79/63 80/89/78 65/81/64
f 58/82/57 72/88/70 73/90/71
f 65/81/64 81/91/79 66/70/36
f 59/83/58 73/90/71 74/92/72
f 52/68/51 82/93/80 67/94/65
f 308/95/297 66/70/36 81/91/79
f 59/83/58 75/96/73 60/71/59
f 53/72/52 67/94/65 68/97/66
f 60/71/59 76/98/74 61/73/60
f 54/74/53 68/97/66 69/99/67
f 62/75/61 76/98/74 77/100/75
f 54/74/53 70/84/68 55/76/54
f 62/75/61 78/86/76 63/77/62
f 74/92/72 91/101/89 75/96/73
f 67/94/65 84/102/82 68/97/66
f 75/96/73 92/103/90 76/98/74
f 68/97/66 85/104/83 69/99/67
f 77/100/75 92/103/90 93/105/91
f 69/99/67 86/106/84 70/84/68
f 77/100/75 94/107/92 78/86/76
f 71/85/69 86/106/84 87/108/85
f 79/87/77 94/107/92 95/109/93
f 71/85/69 88/110/86 72/88/70
f 80/89/78 95/109/93 96/111/94
f 73/90/71 88/110/86 89/112/87
f 81/91/79 96/111/94 97/113/79
f 74/92/72 89/112/87 90/114/88
f 67/94/65 82/115/80 83/116/81
f 308/117/297 81/91/79 97/113/79
f 95/109/93 109/118/106 110/119/107
f 87/108/85 103/120/100 88/110/86
f 95/109/93 111/121/108 96/111/94
f 89/112/87 103/120/100 104/122/101
f 96/111/94 112/123/109 97/113/79
f 90/114/88 104/122/101 105/124/102
f 83/116/81 82/125/80 98/126/95
f 308/127/297 97/113/79 112/123/109
f 90/114/88 106/128/103 91/101/89
f 83/116/81 99/129/96 84/102/82
f 91/101/89 107/130/104 92/103/90
f 85/104/83 99/129/96 100/131/97
f 93/105/91 107/130/104 108/132/105
f 85/104/83 101/133/98 86/106/84
f 93/105/91 109/118/106 94/107/92
f 87/108/85 101/133/98 102/134/99
f 98/126/95 114/135/111 99/129/96
f 106/128/103 122/136/119 107/130/104
f 99/129/96 115/137/112 100/131/97
f 108/132/105 122/136/119 123/138/120
f 100/131/97 116/139/113 101/133/98
f 108/132/105 124/140/121 109/118/106
f 102/134/99 116/139/113 117/141/114
f 110/119/107 124/140/121 125/142/122
f 102/134/99 118/143/115 103/120/100
f 111/121/108 125/142/122 126/144/123
f 104/122/101 118/143/115 119/145/116
f 111/121/108 127/146/109 112/123/109
f 105/124/102 119/145/116 120/147/117
f 98/126/95 82/148/80 113/149/110
f 308/150/297 112/123/109 127/146/109
f 105/124/102 121/151/118 106/128/103
f 117/141/114 133/152/129 118/143/115
f 125/142/122 141/153/137 126/144/123
f 119/145/116 133/152/129 134/154/130
f 126/144/123 142/155/138 127/146/109
f 120/147/117 134/154/130 135/156/131
f 113/149/110 82/157/80 128/158/124
f 308/159/297 127/146/109 142/155/138
f 120/147/117 136/160/132 121/151/118
f 114/135/111 128/158/124 129/161/125
f 121/151/118 137/162/133 122/136/119
f 115/137/112 129/161/125 130/163/126
f 123/138/120 137/162/133 138/164/134
f 115/137/112 131/165/127 116/139/113
f 123/138/120 139/166/135 124/140/121
f 117/141/114 131/165/127 132/167/128
f 125/142/122 139/166/135 140/168/136
f 136/160/132 152/169/148 137/162/133
f 129/161/125 145/170/141 130/163/126
f 138/164/134 152/169/148 153/171/149
f 130/163/126 146/172/142 131/165/127
f 138/164/134 154/173/150 139/166/135
f 132/167/128 146/172/142 147/174/143
f 140/168/136 154/173/150 155/175/151
f 132/167/128 148/176/144 133/152/129
f 141/153/137 155/175/151 156/177/152
f 134/154/130 148/176/144 149/178/145
f 141/153/137 157/179/153 142/155/138
f 135/156/131 149/178/145 150/180/146
f 128/158/124 82/181/80 143/182/139
f 308/183/297 142/155/138 157/179/153
f 135/156/131 151/184/147 136/160/132
f 128/158/124 144/185/140 129/161/125
f 156/177/152 170/186/166 171/187/167
f 149/178/145 163/188/159 164/189/160
f 157/179/153 171/187/167 172/190/153
f 150/180/146 164/189/160 165/191/161
f 143/182/139 82/192/80 158/193/154
f 308/194/297 157/179/153 172/190/153
f 150/180/146 166/195/162 151/184/147
f 143/182/139 159/196/155 144/185/140
f 151/184/147 167/197/163 152/169/148
f 144/185/140 160/198/156 145/170/141
f 153/171/149 167/197/163 168/199/164
f 145/170/141 161/200/157 146/172/142
f 153/171/149 169/201/165 154/173/150
f 147/174/143 161/200/157 162/202/158
f 155/175/151 169/201/165 170/186/166
f 147/174/143 163/188/159 148/176/144
f 168/199/164 182/203/177 183/204/178
f 160/198/156 176/205/171 161/200/157
f 168/199/164 184/206/179 169/201/165
f 162/202/158 176/205/171 177/207/172
f 170/186/166 184/206/179 185/208/180
f 162/202/158 178/209/173 163/188/159
f 171/187/167 185/208/180 186/210/181
f 164/189/160 178/209/173 179/211/174
f 172/190/153 186/210/181 187/212/182
f 165/191/161 179/211/174 180/213/175
f 158/193/154 82/214/80 173/215/168
f 308/216/297 172/190/153 187/212/182
f 165/191/161 181/217/176 166/195/162
f 158/193/154 174/218/169 159/196/155
f 166/195/162 182/203/177 167/197/163
f 159/196/155 175/219/170 160/198/156
f 186/210/181 202/220/182 187/212/182
f 180/213/175 194/221/189 195/222/190
f 173/215/168 82/223/80 188/224/183
f 308/225/297 187/212/182 202/220/182
f 180/213/175 196/226/191 181/217/176
f 174/218/169 188/224/183 189/227/184
f 181/217/176 197/228/192 182/203/177
f 175/219/170 189/227/184 190/229/185
f 183/204/178 197/228/192 198/230/193
f 175/219/170 191/231/186 176/205/171
f 183/204/178 199/232/194 184/206/179
f 177/207/172 191/231/186 192/233/187
f 185/208/180 199/232/194 200/234/195
f 177/207/172 193/235/188 178/209/173
f 185/208/180 201/236/196 186/210/181
f 179/211/174 193/235/188 194/221/189
f 190/229/185 206/237/200 191/231/186
f 198/230/193 214/238/208 199/232/194
f 192/233/187 206/237/200 207/239/201
f 200/234/195 214/238/208 215/240/209
f 192/233/187 208/241/202 193/235/188
f 201/236/196 215/240/209 216/242/210
f 194/221/189 208/241/202 209/243/203
f 202/220/182 216/242/210 217/244/182
f 195/222/190 209/243/203 210/245/204
f 188/224/183 82/246/80 203/247/197
f 308/248/297 202/220/182 217/244/182
f 195/222/190 211/249/205 196/226/191
f 188/224/183 204/250/198 189/227/184
f 196/226/191 212/251/206 197/228/192
f 189/227/184 205/252/199 190/229/185
f 198/230/193 212/251/206 213/253/207
f 210/245/204 224/254/217 225/255/218
f 203/247/197 82/256/80 218/257/211
f 308/258/297 217/244/182 232/259/225
f 210/245/204 226/260/219 211/249/205
f 203/247/197 219/261/212 204/250/198
f 211/249/205 227/262/220 212/251/206
f 204/250/198 220/263/213 205/252/199
f 213/253/207 227/262/220 228/264/221
f 205/252/199 221/265/214 206/237/200
f 213/253/207 229/266/222 214/238/208
f 207/239/201 221/265/214 222/267/215
f 215/240/209 229/266/222 230/268/223
f 207/239/201 223/269/216 208/241/202
f 216/242/210 230/268/223 231/270/224
f 209/243/203 223/269/216 224/254/217
f 217/244/182 231/270/224 232/259/225
f 228/264/221 244/271/237 229/266/222
f 222/267/215 236/272/229 237/273/230
f 230/268/223 244/271/237 245/274/238
f 222/267/215 238/275/231 223/269/216
f 231/270/224 245/274/238 246/276/239
f 224/254/217 238/275/231 239/277/232
f 231/270/224 247/278/225 232/259/225
f 225/255/218 239/277/232 240/279/233
f 218/257/211 82/280/80 233/281/226
f 308/282/297 232/259/225 247/278/225
f 225/255/218 241/283/234 226/260/219
f 219/261/212 233/281/226 234/284/227
f 226/260/219 242/285/235 227/262/220
f 219/261/212 235/286/228 220/263/213
f 228/264/221 242/285/235 243/287/236
f 220/263/213 236/272/229 221/265/214
f 233/281/226 82/288/80 248/289/240
f 308/290/297 247/278/225 262/291/225
f 240/279/233 256/292/248 241/283/234
f 234/284/227 248/289/240 249/293/241
f 241/283/234 257/294/249 242/285/235
f 235/286/228 249/293/241 250/295/242
f 243/287/236 257/294/249 258/296/250
f 235/286/228 251/297/243 236/272/229
f 243/287/236 259/298/251 244/271/237
f 237/273/230 251/297/243 252/299/244
f 245/274/238 259/298/251 260/300/252
f 237/273/230 253/301/245 238/275/231
f 245/274/238 261/302/253 246/276/239
f 239/277/232 253/301/245 254/303/246
f 246/276/239 262/291/225 247/278/225
f 240/279/233 254/303/246 255/304/247
f 252/299/244 266/305/257 267/306/258
f 260/300/252 274/307/265 275/308/266
f 252/299/244 268/309/259 253/301/245
f 261/302/253 275/308/266 276/310/267
f 254/303/246 268/309/259 269/311/260
f 261/302/253 277/312/268 262/291/225
f 255/304/247 269/311/260 270/313/261
f 248/289/240 82/314/80 263/315/254
f 308/316/297 262/291/225 277/312/268
f 255/304/247 271/317/262 256/292/248
f 249/293/241 263/315/254 264/318/255
f 256/292/248 272/319/263 257/294/249
f 249/293/241 265/320/256 250/295/242
f 258/296/250 272/319/263 273/321/264
f 250/295/242 266/305/257 251/297/243
f 258/296/250 274/307/265 259/298/251
f 270/313/261 286/322/277 271/317/262
f 263/315/254 279/323/270 264/318/255
f 271/317/262 287/324/278 272/319/263
f 264/318/255 280/325/271 265/320/256
f 273/321/264 287/324/278 288/326/279
f 265/320/256 281/327/272 266/305/257
f 273/321/264 289/328/280 274/307/265
f 267/306/258 281/327/272 282/329/273
f 275/308/266 289/328/280 290/330/281
f 267/306/258 283/331/274 268/309/259
f 275/308/266 291/332/282 276/310/267
f 269/311/260 283/331/274 284/333/275
f 276/310/267 292/334/268 277/312/268
f 270/313/261 284/333/275 285/335/276
f 263/315/254 82/336/80 278/337/269
f 308/338/297 277/312/268 292/334/268
f 290/330/281 304/339/294 305/340/295
f 282/329/273 298/341/288 283/331/274
f 290/330/281 306/342/296 291/332/282
f 284/333/275 298/341/288 299/343/289
f 292/334/268 306/342/296 307/344/268
f 285/335/276 299/343/289 300/345/290
f 278/337/269 82/346/80 293/347/283
f 308/348/297 292/334/268 307/344/268
f 285/335/276 301/349/291 286/322/277
f 278/337/269 294/350/284 279/323/270
f 286/322/277 302/351/292 287/324/278
f 280/325/271 294/350/284 295/352/285
f 288/326/279 302/351/292 303/353/293
f 280/325/271 296/354/286 281/327/272
f 288/326/279 304/339/294 289/328/280
f 282/329/273 296/354/286 297/355/287
f 301/349/291 318/356/307 302/351/292
f 295/352/285 310/357/299 311/358/300
f 303/353/293 318/356/307 319/359/308
f 295/352/285 312/360/301 296/354/286
f 303/353/293 320/361/309 304/339/294
f 297/355/287 312/360/301 313/362/302
f 305/340/295 320/361/309 321/363/310
f 297/355/287 314/364/303 298/341/288
f 305/340/295 322/365/311 306/342/296
f 299/343/289 314/364/303 315/366/304
f 306/342/296 323/367/312 307/344/268
f 300/345/290 315/366/304 316/368/305
f 293/347/283 82/369/80 309/370/298
f 308/371/297 307/344/268 323/367/312
f 300/345/290 317/372/306 301/349/291
f 294/350/284 309/370/298 310/357/299
f 321/363/310 337/373/326 322/365/311
f 315/366/304 329/374/318 330/375/319
f 323/367/312 337/373/326 338/376/312
f 316/368/305 330/375/319 331/377/320
f 309/370/298 82/378/80 324/379/313
f 308/380/297 323/367/312 338/376/312
f 316/368/305 332/381/321 317/372/306
f 309/370/298 325/382/314 310/357/299
f 317/372/306 333/383/322 318/356/307
f 310/357/299 326/384/315 311/358/300
f 319/359/308 333/383/322 334/385/323
f 311/358/300 327/386/316 312/360/301
f 319/359/308 335/387/324 320/361/309
f 313/362/302 327/386/316 328/388/317
f 321/363/310 335/387/324 336/389/325
f 313/362/302 329/374/318 314/364/303
f 326/384/315 340/390/328 341/391/329
f 334/385/323 348/392/336 349/393/337
f 326/384/315 342/394/330 327/386/316
f 334/385/323 350/395/338 335/387/324
f 328/388/317 342/394/330 343/396/331
f 336/389/325 350/395/338 351/397/339
f 328/388/317 344/398/332 329/374/318
f 336/389/325 352/399/340 337/373/326
f 330/375/319 344/398/332 345/400/333
f 338/376/312 352/399/340 353/401/341
f 331/377/320 345/400/333 346/402/334
f 324/379/313 82/403/80 339/404/327
f 308/405/297 338/376/312 353/401/341
f 331/377/320 347/406/335 332/381/321
f 324/379/313 340/390/328 325/382/314
f 332/381/321 348/392/336 333/383/322
f 345/400/333 359/407/347 360/408/348
f 353/401/341 367/409/355 368/410/356
f 346/402/334 360/408/348 361/411/349
f 339/404/327 82/412/80 354/413/342
f 308/414/297 353/401/341 368/410/356
f 346/402/334 362/415/350 347/406/335
f 339/404/327 355/416/343 340/390/328
f 347/406/335 363/417/351 348/392/336
f 341/391/329 355/416/343 356/418/344
f 349/393/337 363/417/351 364/419/352
f 341/391/329 357/420/345 342/394/330
f 349/393/337 365/421/353 350/395/338
f 343/396/331 357/420/345 358/422/346
f 351/397/339 365/421/353 366/423/354
f 343/396/331 359/407/347 344/398/332
f 351/397/339 367/409/355 352/399/340
f 364/424/352 378/425/366 379/426/367
f 356/427/344 372/428/360 357/429/345
f 364/424/352 380/430/368 365/431/353
f 358/432/346 372/428/360 373/433/361
f 366/434/354 380/430/368 381/435/369
f 358/432/346 374/436/362 359/437/347
f 366/434/354 382/438/370 367/439/355
f 360/440/348 374/436/362 375/441/363
f 367/439/355 383/442/356 368/443/356
f 361/444/349 375/441/363 376/445/364
f 354/446/342 82/447/80 369/448/357
f 308/449/297 368/443/356 383/442/356
f 361/444/349 377/450/365 362/451/350
f 355/452/343 369/448/357 370/453/358
f 362/451/350 378/425/366 363/454/351
f 356/427/344 370/453/358 371/455/359
f 382/438/370 398/456/385 383/442/356
f 376/445/364 390/457/377 391/458/378
f 369/448/357 82/459/80 384/460/371
f 308/461/297 383/442/356 398/456/385
f 376/445/364 392/462/379 377/450/365
f 370/453/358 384/460/371 385/463/372
f 377/450/365 393/464/380 378/425/366
f 371/455/359 385/463/372 386/465/373
f 379/426/367 393/464/380 394/466/381
f 371/455/359 387/467/374 372/428/360
f 379/426/367 395/468/382 380/430/368
f 373/433/361 387/467/374 388/469/375
f 381/435/369 395/468/382 396/470/383
f 373/433/361 389/471/376 374/436/362
f 381/435/369 397/472/384 382/438/370
f 375/441/363 389/471/376 390/457/377
f 386/465/373 402/473/389 387/467/374
f 394/466/381 410/474/397 395/468/382
f 388/469/375 402/473/389 403/475/390
f 396/470/383 410/474/397 411/476/398
f 388/469/375 404/477/391 389/471/376
f 396/470/383 412/478/399 397/472/384
f 390/457/377 404/477/391 405/479/392
f 398/456/385 412/478/399 413/480/385
f 391/458/378 405/479/392 406/481/393
f 384/460/371 82/482/80 399/483/386
f 308/484/297 398/456/385 413/480/385
f 391/458/378 407/485/394 392/462/379
f 384/460/371 400/486/387 385/463/372
f 392/462/379 408/487/395 393/464/380
f 386/465/373 400/486/387 401/488/388
f 394/466/381 408/487/395 409/489/396
f 406/481/393 420/490/406 421/491/407
f 399/483/386 82/492/80 414/493/400
f 308/494/297 413/480/385 428/495/414
f 406/481/393 422/496/408 407/485/394
f 399/483/386 415/497/401 400/486/387
f 407/485/394 423/498/409 408/487/395
f 401/488/388 415/497/401 416/499/402
f 409/489/396 423/498/409 424/500/410
f 401/488/388 417/501/403 402/473/389
f 409/489/396 425/502/411 410/474/397
f 403/475/390 417/501/403 418/503/404
f 411/476/398 425/502/411 426/504/412
f 403/475/390 419/505/405 404/477/391
f 411/476/398 427/506/413 412/478/399
f 405/479/392 419/505/405 420/490/406
f 412/478/399 428/495/414 413/480/385
f 424/500/410 440/507/426 425/502/411
f 418/503/404 432/508/418 433/509/419
f 426/504/412 440/507/426 441/510/427
f 418/503/404 434/511/420 419/505/405
f 426/504/412 442/512/428 427/506/413
f 420/490/406 434/511/420 435/513/421
f 428/495/414 442/512/428 443/514/414
f 421/491/407 435/513/421 436/515/422
f 414/493/400 82/516/80 429/517/415
f 308/518/297 428/495/414 443/514/414
f 421/491/407 437/519/423 422/496/408
f 414/493/400 430/520/416 415/497/401
f 422/496/408 438/521/424 423/498/409
f 416/499/402 430/520/416 431/522/417
f 424/500/410 438/521/424 439/523/425
f 416/499/402 432/508/418 417/501/403
f 308/524/297 443/514/414 458/525/414
f 436/515/422 452/526/437 437/519/423
f 430/520/416 444/527/429 445/528/430
f 437/519/423 453/529/438 438/521/424
f 431/522/417 445/528/430 446/530/431
f 439/523/425 453/529/438 454/531/439
f 431/522/417 447/532/432 432/508/418
f 439/523/425 455/533/440 440/507/426
f 433/509/419 447/532/432 448/534/433
f 441/510/427 455/533/440 456/535/441
f 433/509/419 449/536/434 434/511/420
f 441/510/427 457/537/442 442/512/428
f 435/513/421 449/536/434 450/538/435
f 442/512/428 458/525/414 443/514/414
f 436/515/422 450/538/435 451/539/436
f 429/517/415 82/540/80 444/527/429
f 456/535/441 470/541/454 471/542/455
f 448/534/433 464/543/448 449/536/434
f 456/535/441 472/544/456 457/537/442
f 450/538/435 464/543/448 465/545/449
f 458/525/414 472/544/456 473/546/21
f 451/539/436 465/545/449 466/547/450
f 444/527/429 82/548/80 459/549/443
f 308/550/297 458/525/414 473/546/21
f 451/539/436 467/551/451 452/526/437
f 444/527/429 460/552/444 445/528/430
f 452/526/437 468/553/452 453/529/438
f 446/530/431 460/552/444 461/554/445
f 454/531/439 468/553/452 469/555/453
f 446/530/431 462/556/446 447/532/432
f 454/531/439 470/541/454 455/533/440
f 448/534/433 462/556/446 463/557/447
f 459/549/443 475/4/458 460/552/444
f 467/551/451 478/8/461 468/553/452
f 461/554/445 475/4/458 1/9/1
f 468/553/452 6/12/6 469/555/453
f 462/556/446 1/9/1 476/13/459
f 469/555/453 479/15/462 470/541/454
f 463/557/447 476/13/459 2/18/2
f 471/542/455 479/15/462 480/20/463
f 464/543/448 2/18/2 477/21/460
f 471/542/455 481/24/464 472/544/456
f 465/545/449 477/21/460 3/26/3
f 472/544/456 482/28/21 473/546/21
f 466/547/450 3/26/3 4/1/4
f 459/549/443 82/558/80 474/30/457
f 308/559/297 473/546/21 482/28/21
f 466/547/450 5/3/5 467/551/451
f 484/560/466 485/561/467 483/562/465
f 485/561/467 488/563/470 487/564/469
f 488/563/470 489/565/471 487/564/469
f 490/566/472 491/567/473 489/565/471
f 492/568/474 493/569/475 491/567/473
f 493/569/475 496/570/478 495/571/477
f 496/570/478 497/572/479 495/571/477
f 498/573/480 499/574/481 497/572/479
f 500/575/482 501/576/483 499/574/481
f 501/576/483 504/577/486 503/578/485
f 504/577/486 505/579/487 503/578/485
f 506/580/488 507/581/489 505/579/487
f 508/582/490 509/583/491 507/581/489
f 510/584/492 511/585/493 509/583/491
f 511/585/493 514/586/496 513/587/495
f 514/586/496 515/588/497 513/587/495
f 515/588/497 518/589/500 517/590/499
f 518/589/500 519/591/501 517/590/499
f 520/592/502 521/593/503 519/591/501
f 522/594/504 523/595/505 521/593/503
f 523/595/505 526/596/508 525/597/507
f 526/596/508 527/598/509 525/597/507
f 528/599/510 529/600/511 527/598/509
f 529/600/511 532/601/514 531/602/513
f 531/602/513 534/603/516 533/604/515
f 534/603/516 535/605/517 533/604/515
f 536/606/518 537/607/519 535/605/517
f 537/607/519 540/608/522 539/609/521
f 540/608/522 541/610/523 539/609/521
f 541/610/523 544/611/526 543/612/525
f 520/613/502 504/614/486 488/615/470
f 544/611/526 545/616/527 543/612/525
f 545/616/527 484/617/466 483/618/465
f 491/567/473 550/565/532 489/565/471
f 507/581/489 560/583/542 559/581/541
f 525/597/507 569/598/551 568/597/550
f 543/612/525 578/616/560 577/612/559
f 499/574/481 556/576/538 555/574/537
f 519/591/501 564/590/546 517/590/499
f 535/605/517 574/607/556 573/605/555
f 491/567/473 552/569/534 551/567/533
f 511/585/493 560/583/542 509/583/491
f 483/562/465 548/561/530 547/562/529
f 529/600/511 569/598/551 527/598/509
f 483/618/465 578/616/560 545/616/527
f 501/576/483 557/578/539 556/576/538
f 519/591/501 566/593/548 565/591/547
f 539/609/521 574/607/556 537/607/519
f 495/571/477 552/569/534 493/569/475
f 511/585/493 562/587/544 561/585/543
f 531/602/513 570/600/552 529/600/511
f 487/564/469 548/561/530 485/561/467
f 505/579/487 557/578/539 503/578/485
f 523/595/505 566/593/548 521/593/503
f 539/609/521 576/610/558 575/609/557
f 495/571/477 554/572/536 553/571/535
f 515/588/497 562/587/544 513/587/495
f 533/604/515 571/602/553 531/602/513
f 487/564/469 550/565/532 549/564/531
f 505/579/487 559/581/541 558/579/540
f 525/597/507 567/595/549 523/595/505
f 543/612/525 576/610/558 541/610/523
f 497/572/479 555/574/537 554/572/536
f 515/588/497 564/590/546 563/588/545
f 535/605/517 572/604/554 533/604/515
f 556/576/538 587/574/569 555/574/537
f 569/598/551 602/600/584 601/598/583
f 557/578/539 588/576/570 556/576/538
f 570/600/552 603/602/585 602/600/584
f 558/579/540 589/578/571 557/578/539
f 572/604/554 603/602/585 571/602/553
f 559/581/541 590/579/572 558/579/540
f 572/604/554 605/605/587 604/604/586
f 559/581/541 592/583/574 591/581/573
f 574/607/556 605/605/587 573/605/555
f 561/585/543 592/583/574 560/583/542
f 547/562/529 580/561/562 579/562/561
f 575/609/557 606/607/588 574/607/556
f 561/585/543 594/587/576 593/585/575
f 549/564/531 580/561/562 548/561/530
f 575/609/557 608/610/590 607/609/589
f 563/588/545 594/587/576 562/587/544
f 549/564/531 582/565/564 581/564/563
f 577/612/559 608/610/590 576/610/558
f 563/588/545 596/590/578 595/588/577
f 551/567/533 582/565/564 550/565/532
f 577/612/559 610/616/592 609/612/591
f 565/591/547 596/590/578 564/590/546
f 551/567/533 584/569/566 583/567/565
f 547/618/529 610/616/592 578/616/560
f 566/593/548 597/591/579 565/591/547
f 552/569/534 585/571/567 584/569/566
f 567/595/549 598/593/580 566/593/548
f 554/572/536 585/571/567 553/571/535
f 567/595/549 600/597/582 599/595/581
f 554/572/536 587/574/569 586/572/568
f 568/597/550 601/598/583 600/597/582
f 591/581/573 622/579/604 590/579/572
f 605/605/587 636/604/618 604/604/586
f 591/581/573 624/583/606 623/581/605
f 605/605/587 638/607/620 637/605/619
f 592/583/574 625/585/607 624/583/606
f 580/561/562 611/562/593 579/562/561
f 607/609/589 638/607/620 606/607/588
f 594/587/576 625/585/607 593/585/575
f 580/561/562 613/564/595 612/561/594
f 607/609/589 640/610/622 639/609/621
f 594/587/576 627/588/609 626/587/608
f 582/565/564 613/564/595 581/564/563
f 608/610/590 641/612/623 640/610/622
f 596/590/578 627/588/609 595/588/577
f 583/567/565 614/565/596 582/565/564
f 610/616/592 641/612/623 609/612/591
f 596/590/578 629/591/611 628/590/610
f 583/567/565 616/569/598 615/567/597
f 610/616/592 611/618/593 642/616/624
f 598/593/580 629/591/611 597/591/579
f 585/571/567 616/569/598 584/569/566
f 599/595/581 630/593/612 598/593/580
f 585/571/567 618/572/600 617/571/599
f 599/595/581 632/597/614 631/595/613
f 587/574/569 618/572/600 586/572/568
f 601/598/583 632/597/614 600/597/582
f 587/574/569 620/576/602 619/574/601
f 602/600/584 633/598/615 601/598/583
f 589/578/571 620/576/602 588/576/570
f 603/602/585 634/600/616 602/600/584
f 589/578/571 622/579/604 621/578/603
f 603/602/585 636/604/618 635/602/617
f 618/572/600 626/587/608 634/600/616
f 4/1/4 14/29/14 15/2/15
f 475/4/458 474/30/457 7/5/7
f 5/3/5 15/2/15 16/7/16
f 1/9/1 475/4/458 8/6/8
f 478/8/461 16/7/16 17/11/17
f 476/13/459 1/9/1 9/10/9
f 479/15/462 6/12/6 17/11/17
f 476/13/459 10/14/10 11/17/11
f 479/15/462 18/16/18 19/19/19
f 477/21/460 2/18/2 11/17/11
f 480/20/463 19/19/19 20/23/20
f 477/21/460 12/22/12 13/25/13
f 481/24/464 20/23/20 21/27/21
f 3/26/3 13/25/13 14/29/14
f 20/23/20 35/48/35 36/33/36
f 13/25/13 28/49/28 29/34/29
f 14/29/14 29/34/29 30/38/30
f 7/5/7 22/36/22 23/39/23
f 15/2/15 30/38/30 31/40/31
f 8/6/8 23/39/23 24/41/24
f 17/11/17 16/7/16 31/40/31
f 9/10/9 24/41/24 25/43/25
f 18/16/18 17/11/17 32/42/32
f 10/14/10 25/43/25 26/45/26
f 19/19/19 18/16/18 33/44/33
f 11/17/11 26/45/26 27/47/27
f 20/23/20 19/19/19 34/46/34
f 13/25/13 12/22/12 27/47/27
f 32/42/32 47/65/47 48/50/48
f 25/43/25 40/66/40 41/51/41
f 34/46/34 33/44/33 48/50/48
f 26/45/26 41/51/41 42/53/42
f 35/48/35 34/46/34 49/52/49
f 28/49/28 27/47/27 42/53/42
f 36/33/36 35/48/35 50/54/50
f 29/34/29 28/49/28 43/55/43
f 29/34/29 44/57/44 45/61/45
f 22/36/22 37/59/37 38/62/38
f 30/38/30 45/61/45 46/63/46
f 23/39/23 38/62/38 39/64/39
f 32/42/32 31/40/31 46/63/46
f 24/41/24 39/64/39 40/66/40
f 44/57/44 59/83/58 60/71/59
f 37/59/37 52/68/51 53/72/52
f 45/61/45 60/71/59 61/73/60
f 38/62/38 53/72/52 54/74/53
f 47/65/47 46/63/46 61/73/60
f 39/64/39 54/74/53 55/76/54
f 47/65/47 62/75/61 63/77/62
f 41/51/41 40/66/40 55/76/54
f 49/52/49 48/50/48 63/77/62
f 41/51/41 56/78/55 57/80/56
f 50/54/50 49/52/49 64/79/63
f 43/55/43 42/53/42 57/80/56
f 51/56/36 50/54/50 65/81/64
f 44/57/44 43/55/43 58/82/57
f 56/78/55 55/76/54 70/84/68
f 64/79/63 63/77/62 78/86/76
f 56/78/55 71/85/69 72/88/70
f 64/79/63 79/87/77 80/89/78
f 58/82/57 57/80/56 72/88/70
f 65/81/64 80/89/78 81/91/79
f 59/83/58 58/82/57 73/90/71
f 59/83/58 74/92/72 75/96/73
f 53/72/52 52/68/51 67/94/65
f 60/71/59 75/96/73 76/98/74
f 54/74/53 53/72/52 68/97/66
f 62/75/61 61/73/60 76/98/74
f 54/74/53 69/99/67 70/84/68
f 62/75/61 77/100/75 78/86/76
f 74/92/72 90/114/88 91/101/89
f 67/94/65 83/116/81 84/102/82
f 75/96/73 91/101/89 92/103/90
f 68/97/66 84/102/82 85/104/83
f 77/100/75 76/98/74 92/103/90
f 69/99/67 85/104/83 86/106/84
f 77/100/75 93/105/91 94/107/92
f 71/85/69 70/84/68 86/106/84
f 79/87/77 78/86/76 94/107/92
f 71/85/69 87/108/85 88/110/86
f 80/89/78 79/87/77 95/109/93
f 73/90/71 72/88/70 88/110/86
f 81/91/79 80/89/78 96/111/94
f 74/92/72 73/90/71 89/112/87
f 95/109/93 94/107/92 109/118/106
f 87/108/85 102/134/99 103/120/100
f 95/109/93 110/119/107 111/121/108
f 89/112/87 88/110/86 103/120/100
f 96/111/94 111/121/108 112/123/109
f 90/114/88 89/112/87 104/122/101
f 90/114/88 105/124/102 106/128/103
f 83/116/81 98/126/95 99/129/96
f 91/101/89 106/128/103 107/130/104
f 85/104/83 84/102/82 99/129/96
f 93/105/91 92/103/90 107/130/104
f 85/104/83 100/131/97 101/133/98
f 93/105/91 108/132/105 109/118/106
f 87/108/85 86/106/84 101/133/98
f 98/126/95 113/149/110 114/135/111
f 106/128/103 121/151/118 122/136/119
f 99/129/96 114/135/111 115/137/112
f 108/132/105 107/130/104 122/136/119
f 100/131/97 115/137/112 116/139/113
f 108/132/105 123/138/120 124/140/121
f 102/134/99 101/133/98 116/139/113
f 110/119/107 109/118/106 124/140/121
f 102/134/99 117/141/114 118/143/115
f 111/121/108 110/119/107 125/142/122
f 104/122/101 103/120/100 118/143/115
f 111/121/108 126/144/123 127/146/109
f 105/124/102 104/122/101 119/145/116
f 105/124/102 120/147/117 121/151/118
f 117/141/114 132/167/128 133/152/129
f 125/142/122 140/168/136 141/153/137
f 119/145/116 118/143/115 133/152/129
f 126/144/123 141/153/137 142/155/138
f 120/147/117 119/145/116 134/154/130
f 120/147/117 135/156/131 136/160/132
f 114/135/111 113/149/110 128/158/124
f 121/151/118 136/160/132 137/162/133
f 115/137/112 114/135/111 129/161/125
f 123/138/120 122/136/119 137/162/133
f 115/137/112 130/163/126 131/165/127
f 123/138/120 138/164/134 139/166/135
f 117/141/114 116/139/113 131/165/127
f 125/142/122 124/140/121 139/166/135
f 136/160/132 151/184/147 152/169/148
f 129/161/125 144/185/140 145/170/141
f 138/164/134 137/162/133 152/169/148
f 130/163/126 145/170/141 146/172/142
f 138/164/134 153/171/149 154/173/150
f 132/167/128 131/165/127 146/172/142
f 140/168/136 139/166/135 154/173/150
f 132/167/128 147/174/143 148/176/144
f 141/153/137 140/168/136 155/175/151
f 134/154/130 133/152/129 148/176/144
f 141/153/137 156/177/152 157/179/153
f 135/156/131 134/154/130 149/178/145
f 135/156/131 150/180/146 151/184/147
f 128/158/124 143/182/139 144/185/140
f 156/177/152 155/175/151 170/186/166
f 149/178/145 148/176/144 163/188/159
f 157/179/153 156/177/152 171/187/167
f 150/180/146 149/178/145 164/189/160
f 150/180/146 165/191/161 166/195/162
f 143/182/139 158/193/154 159/196/155
f 151/184/147 166/195/162 167/197/163
f 144/185/140 159/196/155 160/198/156
f 153/171/149 152/169/148 167/197/163
f 145/170/141 160/198/156 161/200/157
f 153/171/149 168/199/164 169/201/165
f 147/174/143 146/172/142 161/200/157
f 155/175/151 154/173/150 169/201/165
f 147/174/143 162/202/158 163/188/159
f 168/199/164 167/197/163 182/203/177
f 160/198/156 175/219/170 176/205/171
f 168/199/164 183/204/178 184/206/179
f 162/202/158 161/200/157 176/205/171
f 170/186/166 169/201/165 184/206/179
f 162/202/158 177/207/172 178/209/173
f 171/187/167 170/186/166 185/208/180
f 164/189/160 163/188/159 178/209/173
f 172/190/153 171/187/167 186/210/181
f 165/191/161 164/189/160 179/211/174
f 165/191/161 180/213/175 181/217/176
f 158/193/154 173/215/168 174/218/169
f 166/195/162 181/217/176 182/203/177
f 159/196/155 174/218/169 175/219/170
f 186/210/181 201/236/196 202/220/182
f 180/213/175 179/211/174 194/221/189
f 180/213/175 195/222/190 196/226/191
f 174/218/169 173/215/168 188/224/183
f 181/217/176 196/226/191 197/228/192
f 175/219/170 174/218/169 189/227/184
f 183/204/178 182/203/177 197/228/192
f 175/219/170 190/229/185 191/231/186
f 183/204/178 198/230/193 199/232/194
f 177/207/172 176/205/171 191/231/186
f 185/208/180 184/206/179 199/232/194
f 177/207/172 192/233/187 193/235/188
f 185/208/180 200/234/195 201/236/196
f 179/211/174 178/209/173 193/235/188
f 190/229/185 205/252/199 206/237/200
f 198/230/193 213/253/207 214/238/208
f 192/233/187 191/231/186 206/237/200
f 200/234/195 199/232/194 214/238/208
f 192/233/187 207/239/201 208/241/202
f 201/236/196 200/234/195 215/240/209
f 194/221/189 193/235/188 208/241/202
f 202/220/182 201/236/196 216/242/210
f 195/222/190 194/221/189 209/243/203
f 195/222/190 210/245/204 211/249/205
f 188/224/183 203/247/197 204/250/198
f 196/226/191 211/249/205 212/251/206
f 189/227/184 204/250/198 205/252/199
f 198/230/193 197/228/192 212/251/206
f 210/245/204 209/243/203 224/254/217
f 210/245/204 225/255/218 226/260/219
f 203/247/197 218/257/211 219/261/212
f 211/249/205 226/260/219 227/262/220
f 204/250/198 219/261/212 220/263/213
f 213/253/207 212/251/206 227/262/220
f 205/252/199 220/263/213 221/265/214
f 213/253/207 228/264/221 229/266/222
f 207/239/201 206/237/200 221/265/214
f 215/240/209 214/238/208 229/266/222
f 207/239/201 222/267/215 223/269/216
f 216/242/210 215/240/209 230/268/223
f 209/243/203 208/241/202 223/269/216
f 217/244/182 216/242/210 231/270/224
f 228/264/221 243/287/236 244/271/237
f 222/267/215 221/265/214 236/272/229
f 230/268/223 229/266/222 244/271/237
f 222/267/215 237/273/230 238/275/231
f 231/270/224 230/268/223 245/274/238
f 224/254/217 223/269/216 238/275/231
f 231/270/224 246/276/239 247/278/225
f 225/255/218 224/254/217 239/277/232
f 225/255/218 240/279/233 241/283/234
f 219/261/212 218/257/211 233/281/226
f 226/260/219 241/283/234 242/285/235
f 219/261/212 234/284/227 235/286/228
f 228/264/221 227/262/220 242/285/235
f 220/263/213 235/286/228 236/272/229
f 240/279/233 255/304/247 256/292/248
f 234/284/227 233/281/226 248/289/240
f 241/283/234 256/292/248 257/294/249
f 235/286/228 234/284/227 249/293/241
f 243/287/236 242/285/235 257/294/249
f 235/286/228 250/295/242 251/297/243
f 243/287/236 258/296/250 259/298/251
f 237/273/230 236/272/229 251/297/243
f 245/274/238 244/271/237 259/298/251
f 237/273/230 252/299/244 253/301/245
f 245/274/238 260/300/252 261/302/253
f 239/277/232 238/275/231 253/301/245
f 246/276/239 261/302/253 262/291/225
f 240/279/233 239/277/232 254/303/246
f 252/299/244 251/297/243 266/305/257
f 260/300/252 259/298/251 274/307/265
f 252/299/244 267/306/258 268/309/259
f 261/302/253 260/300/252 275/308/266
f 254/303/246 253/301/245 268/309/259
f 261/302/253 276/310/267 277/312/268
f 255/304/247 254/303/246 269/311/260
f 255/304/247 270/313/261 271/317/262
f 249/293/241 248/289/240 263/315/254
f 256/292/248 271/317/262 272/319/263
f 249/293/241 264/318/255 265/320/256
f 258/296/250 257/294/249 272/319/263
f 250/295/242 265/320/256 266/305/257
f 258/296/250 273/321/264 274/307/265
f 270/313/261 285/335/276 286/322/277
f 263/315/254 278/337/269 279/323/270
f 271/317/262 286/322/277 287/324/278
f 264/318/255 279/323/270 280/325/271
f 273/321/264 272/319/263 287/324/278
f 265/320/256 280/325/271 281/327/272
f 273/321/264 288/326/279 289/328/280
f 267/306/258 266/305/257 281/327/272
f 275/308/266 274/307/265 289/328/280
f 267/306/258 282/329/273 283/331/274
f 275/308/266 290/330/281 291/332/282
f 269/311/260 268/309/259 283/331/274
f 276/310/267 291/332/282 292/334/268
f 270/313/261 269/311/260 284/333/275
f 290/330/281 289/328/280 304/339/294
f 282/329/273 297/355/287 298/341/288
f 290/330/281 305/340/295 306/342/296
f 284/333/275 283/331/274 298/341/288
f 292/334/268 291/332/282 306/342/296
f 285/335/276 284/333/275 299/343/289
f 285/335/276 300/345/290 301/349/291
f 278/337/269 293/347/283 294/350/284
f 286/322/277 301/349/291 302/351/292
f 280/325/271 279/323/270 294/350/284
f 288/326/279 287/324/278 302/351/292
f 280/325/271 295/352/285 296/354/286
f 288/326/279 303/353/293 304/339/294
f 282/329/273 281/327/272 296/354/286
f 301/349/291 317/372/306 318/356/307
f 295/352/285 294/350/284 310/357/299
f 303/353/293 302/351/292 318/356/307
f 295/352/285 311/358/300 312/360/301
f 303/353/293 319/359/308 320/361/309
f 297/355/287 296/354/286 312/360/301
f 305/340/295 304/339/294 320/361/309
f 297/355/287 313/362/302 314/364/303
f 305/340/295 321/363/310 322/365/311
f 299/343/289 298/341/288 314/364/303
f 306/342/296 322/365/311 323/367/312
f 300/345/290 299/343/289 315/366/304
f 300/345/290 316/368/305 317/372/306
f 294/350/284 293/347/283 309/370/298
f 321/363/310 336/389/325 337/373/326
f 315/366/304 314/364/303 329/374/318
f 323/367/312 322/365/311 337/373/326
f 316/368/305 315/366/304 330/375/319
f 316/368/305 331/377/320 332/381/321
f 309/370/298 324/379/313 325/382/314
f 317/372/306 332/381/321 333/383/322
f 310/357/299 325/382/314 326/384/315
f 319/359/308 318/356/307 333/383/322
f 311/358/300 326/384/315 327/386/316
f 319/359/308 334/385/323 335/387/324
f 313/362/302 312/360/301 327/386/316
f 321/363/310 320/361/309 335/387/324
f 313/362/302 328/388/317 329/374/318
f 326/384/315 325/382/314 340/390/328
f 334/385/323 333/383/322 348/392/336
f 326/384/315 341/391/329 342/394/330
f 334/385/323 349/393/337 350/395/338
f 328/388/317 327/386/316 342/394/330
f 336/389/325 335/387/324 350/395/338
f 328/388/317 343/396/331 344/398/332
f 336/389/325 351/397/339 352/399/340
f 330/375/319 329/374/318 344/398/332
f 338/376/312 337/373/326 352/399/340
f 331/377/320 330/375/319 345/400/333
f 331/377/320 346/402/334 347/406/335
f 324/379/313 339/404/327 340/390/328
f 332/381/321 347/406/335 348/392/336
f 345/400/333 344/398/332 359/407/347
f 353/401/341 352/399/340 367/409/355
f 346/402/334 345/400/333 360/408/348
f 346/402/334 361/411/349 362/415/350
f 339/404/327 354/413/342 355/416/343
f 347/406/335 362/415/350 363/417/351
f 341/391/329 340/390/328 355/416/343
f 349/393/337 348/392/336 363/417/351
f 341/391/329 356/418/344 357/420/345
f 349/393/337 364/419/352 365/421/353
f 343/396/331 342/394/330 357/420/345
f 351/397/339 350/395/338 365/421/353
f 343/396/331 358/422/346 359/407/347
f 351/397/339 366/423/354 367/409/355
f 364/424/352 363/454/351 378/425/366
f 356/427/344 371/455/359 372/428/360
f 364/424/352 379/426/367 380/430/368
f 358/432/346 357/429/345 372/428/360
f 366/434/354 365/431/353 380/430/368
f 358/432/346 373/433/361 374/436/362
f 366/434/354 381/435/369 382/438/370
f 360/440/348 359/437/347 374/436/362
f 367/439/355 382/438/370 383/442/356
f 361/444/349 360/440/348 375/441/363
f 361/444/349 376/445/364 377/450/365
f 355/452/343 354/446/342 369/448/357
f 362/451/350 377/450/365 378/425/366
f 356/427/344 355/452/343 370/453/358
f 382/438/370 397/472/384 398/456/385
f 376/445/364 375/441/363 390/457/377
f 376/445/364 391/458/378 392/462/379
f 370/453/358 369/448/357 384/460/371
f 377/450/365 392/462/379 393/464/380
f 371/455/359 370/453/358 385/463/372
f 379/426/367 378/425/366 393/464/380
f 371/455/359 386/465/373 387/467/374
f 379/426/367 394/466/381 395/468/382
f 373/433/361 372/428/360 387/467/374
f 381/435/369 380/430/368 395/468/382
f 373/433/361 388/469/375 389/471/376
f 381/435/369 396/470/383 397/472/384
f 375/441/363 374/436/362 389/471/376
f 386/465/373 401/488/388 402/473/389
f 394/466/381 409/489/396 410/474/397
f 388/469/375 387/467/374 402/473/389
f 396/470/383 395/468/382 410/474/397
f 388/469/375 403/475/390 404/477/391
f 396/470/383 411/476/398 412/478/399
f 390/457/377 389/471/376 404/477/391
f 398/456/385 397/472/384 412/478/399
f 391/458/378 390/457/377 405/479/392
f 391/458/378 406/481/393 407/485/394
f 384/460/371 399/483/386 400/486/387
f 392/462/379 407/485/394 408/487/395
f 386/465/373 385/463/372 400/486/387
f 394/466/381 393/464/380 408/487/395
f 406/481/393 405/479/392 420/490/406
f 406/481/393 421/491/407 422/496/408
f 399/483/386 414/493/400 415/497/401
f 407/485/394 422/496/408 423/498/409
f 401/488/388 400/486/387 415/497/401
f 409/489/396 408/487/395 423/498/409
f 401/488/388 416/499/402 417/501/403
f 409/489/396 424/500/410 425/502/411
f 403/475/390 402/473/389 417/501/403
f 411/476/398 410/474/397 425/502/411
f 403/475/390 418/503/404 419/505/405
f 411/476/398 426/504/412 427/506/413
f 405/479/392 404/477/391 419/505/405
f 412/478/399 427/506/413 428/495/414
f 424/500/410 439/523/425 440/507/426
f 418/503/404 417/501/403 432/508/418
f 426/504/412 425/502/411 440/507/426
f 418/503/404 433/509/419 434/511/420
f 426/504/412 441/510/427 442/512/428
f 420/490/406 419/505/405 434/511/420
f 428/495/414 427/506/413 442/512/428
f 421/491/407 420/490/406 435/513/421
f 421/491/407 436/515/422 437/519/423
f 414/493/400 429/517/415 430/520/416
f 422/496/408 437/519/423 438/521/424
f 416/499/402 415/497/401 430/520/416
f 424/500/410 423/498/409 438/521/424
f 416/499/402 431/522/417 432/508/418
f 436/515/422 451/539/436 452/526/437
f 430/520/416 429/517/415 444/527/429
f 437/519/423 452/526/437 453/529/438
f 431/522/417 430/520/416 445/528/430
f 439/523/425 438/521/424 453/529/438
f 431/522/417 446/530/431 447/532/432
f 439/523/425 454/531/439 455/533/440
f 433/509/419 432/508/418 447/532/432
f 441/510/427 440/507/426 455/533/440
f 433/509/419 448/534/433 449/536/434
f 441/510/427 456/535/441 457/537/442
f 435/513/421 434/511/420 449/536/434
f 442/512/428 457/537/442 458/525/414
f 436/515/422 435/513/421 450/538/435
f 456/535/441 455/533/440 470/541/454
f 448/534/433 463/557/447 464/543/448
f 456/535/441 471/542/455 472/544/456
f 450/538/435 449/536/434 464/543/448
f 458/525/414 457/537/442 472/544/456
f 451/539/436 450/538/435 465/545/449
f 451/539/436 466/547/450 467/551/451
f 444/527/429 459/549/443 460/552/444
f 452/526/437 467/551/451 468/553/452
f 446/530/431 445/528/430 460/552/444
f 454/531/439 453/529/438 468/553/452
f 446/530/431 461/554/445 462/556/446
f 454/531/439 469/555/453 470/541/454
f 448/534/433 447/532/432 462/556/446
f 459/549/443 474/30/457 475/4/458
f 467/551/451 5/3/5 478/8/461
f 461/554/445 460/552/444 475/4/458
f 468/553/452 478/8/461 6/12/6
f 462/556/446 461/554/445 1/9/1
f 469/555/453 6/12/6 479/15/462
f 463/557/447 462/556/446 476/13/459
f 471/542/455 470/541/454 479/15/462
f 464/543/448 463/557/447 2/18/2
f 471/542/455 480/20/463 481/24/464
f 465/545/449 464/543/448 477/21/460
f 472/544/456 481/24/464 482/28/21
f 466/547/450 465/545/449 3/26/3
f 466/547/450 4/1/4 5/3/5
f 484/560/466 486/619/468 485/561/467
f 485/561/467 486/619/468 488/563/470
f 488/563/470 490/566/472 489/565/471
f 490/566/472 492/568/474 491/567/473
f 492/568/474 494/620/476 493/569/475
f 493/569/475 494/620/476 496/570/478
f 496/570/478 498/573/480 497/572/479
f 498/573/480 500/575/482 499/574/481
f 500/575/482 502/621/484 501/576/483
f 501/576/483 502/621/484 504/577/486
f 504/577/486 506/580/488 505/579/487
f 506/580/488 508/582/490 507/581/489
f 508/582/490 510/584/492 509/583/491
f 510/584/492 512/622/494 511/585/493
f 511/585/493 512/622/494 514/586/496
f 514/586/496 516/623/498 515/588/497
f 515/588/497 516/623/498 518/589/500
f 518/589/500 520/592/502 519/591/501
f 520/592/502 522/594/504 521/593/503
f 522/594/504 524/624/506 523/595/505
f 523/595/505 524/624/506 526/596/508
f 526/596/508 528/599/510 527/598/509
f 528/599/510 530/625/512 529/600/511
f 529/600/511 530/625/512 532/601/514
f 531/602/513 532/601/514 534/603/516
f 534/603/516 536/606/518 535/605/517
f 536/606/518 538/626/520 537/607/519
f 537/607/519 538/626/520 540/608/522
f 540/608/522 542/627/524 541/610/523
f 541/610/523 542/627/524 544/611/526
f 488/615/470 486/628/468 484/629/466
f 484/629/466 546/630/528 544/631/526
f 544/631/526 542/632/524 540/633/522
f 540/633/522 538/634/520 544/631/526
f 538/634/520 536/635/518 544/631/526
f 536/635/518 534/636/516 532/637/514
f 532/637/514 530/638/512 528/639/510
f 528/639/510 526/640/508 524/641/506
f 524/641/506 522/642/504 528/639/510
f 522/642/504 520/613/502 528/639/510
f 520/613/502 518/643/500 516/644/498
f 516/644/498 514/645/496 512/646/494
f 512/646/494 510/647/492 508/648/490
f 508/648/490 506/649/488 512/646/494
f 506/649/488 504/614/486 512/646/494
f 504/614/486 502/650/484 500/651/482
f 500/651/482 498/652/480 496/653/478
f 496/653/478 494/654/476 492/655/474
f 492/655/474 490/656/472 496/653/478
f 490/656/472 488/615/470 496/653/478
f 488/615/470 484/629/466 536/635/518
f 484/629/466 544/631/526 536/635/518
f 536/635/518 532/637/514 528/639/510
f 520/613/502 516/644/498 504/614/486
f 516/644/498 512/646/494 504/614/486
f 504/614/486 500/651/482 496/653/478
f 536/635/518 528/639/510 520/613/502
f 504/614/486 496/653/478 488/615/470
f 488/615/470 536/635/518 520/613/502
f 544/611/526 546/657/528 545/616/527
f 545/616/527 546/657/528 484/617/466
f 491/567/473 551/567/533 550/565/532
f 507/581/489 509/583/491 560/583/542
f 525/597/507 527/598/509 569/598/551
f 543/612/525 545/616/527 578/616/560
f 499/574/481 501/576/483 556/576/538
f 519/591/501 565/591/547 564/590/546
f 535/605/517 537/607/519 574/607/556
f 491/567/473 493/569/475 552/569/534
f 511/585/493 561/585/543 560/583/542
f 483/562/465 485/561/467 548/561/530
f 529/600/511 570/600/552 569/598/551
f 483/618/465 547/618/529 578/616/560
f 501/576/483 503/578/485 557/578/539
f 519/591/501 521/593/503 566/593/548
f 539/609/521 575/609/557 574/607/556
f 495/571/477 553/571/535 552/569/534
f 511/585/493 513/587/495 562/587/544
f 531/602/513 571/602/553 570/600/552
f 487/564/469 549/564/531 548/561/530
f 505/579/487 558/579/540 557/578/539
f 523/595/505 567/595/549 566/593/548
f 539/609/521 541/610/523 576/610/558
f 495/571/477 497/572/479 554/572/536
f 515/588/497 563/588/545 562/587/544
f 533/604/515 572/604/554 571/602/553
f 487/564/469 489/565/471 550/565/532
f 505/579/487 507/581/489 559/581/541
f 525/597/507 568/597/550 567/595/549
f 543/612/525 577/612/559 576/610/558
f 497/572/479 499/574/481 555/574/537
f 515/588/497 517/590/499 564/590/546
f 535/605/517 573/605/555 572/604/554
f 556/576/538 588/576/570 587/574/569
f 569/598/551 570/600/552 602/600/584
f 557/578/539 589/578/571 588/576/570
f 570/600/552 571/602/553 603/602/585
f 558/579/540 590/579/572 589/578/571
f 572/604/554 604/604/586 603/602/585
f 559/581/541 591/581/573 590/579/572
f 572/604/554 573/605/555 605/605/587
f 559/581/541 560/583/542 592/583/574
f 574/607/556 606/607/588 605/605/587
f 561/585/543 593/585/575 592/583/574
f 547/562/529 548/561/530 580/561/562
f 575/609/557 607/609/589 606/607/588
f 561/585/543 562/587/544 594/587/576
f 549/564/531 581/564/563 580/561/562
f 575/609/557 576/610/558 608/610/590
f 563/588/545 595/588/577 594/587/576
f 549/564/531 550/565/532 582/565/564
f 577/612/559 609/612/591 608/610/590
f 563/588/545 564/590/546 596/590/578
f 551/567/533 583/567/565 582/565/564
f 577/612/559 578/616/560 610/616/592
f 565/591/547 597/591/579 596/590/578
f 551/567/533 552/569/534 584/569/566
f 547/618/529 579/618/561 610/616/592
f 566/593/548 598/593/580 597/591/579
f 552/569/534 553/571/535 585/571/567
f 567/595/549 599/595/581 598/593/580
f 554/572/536 586/572/568 585/571/567
f 567/595/549 568/597/550 600/597/582
f 554/572/536 555/574/537 587/574/569
f 568/597/550 569/598/551 601/598/583
f 591/581/573 623/581/605 622/579/604
f 605/605/587 637/605/619 636/604/618
f 591/581/573 592/583/574 624/583/606
f 605/605/587 606/607/588 638/607/620
f 592/583/574 593/585/575 625/585/607
f 580/561/562 612/561/594 611/562/593
f 607/609/589 639/609/621 638/607/620
f 594/587/576 626/587/608 625/585/607
f 580/561/562 581/564/563 613/564/595
f 607/609/589 608/610/590 640/610/622
f 594/587/576 595/588/577 627/588/609
f 582/565/564 614/565/596 613/564/595
f 608/610/590 609/612/591 641/612/623
f 596/590/578 628/590/610 627/588/609
f 583/567/565 615/567/597 614/565/596
f 610/616/592 642/616/624 641/612/623
f 596/590/578 597/591/579 629/591/611
f 583/567/565 584/569/566 616/569/598
f 610/616/592 579/618/561 611/618/593
f 598/593/580 630/593/612 629/591/611
f 585/571/567 617/571/599 616/569/598
f 599/595/581 631/595/613 630/593/612
f 585/571/567 586/572/568 618/572/600
f 599/595/581 600/597/582 632/597/614
f 587/574/569 619/574/601 618/572/600
f 601/598/583 633/598/615 632/597/614
f 587/574/569 588/576/570 620/576/602
f 602/600/584 634/600/616 633/598/615
f 589/578/571 621/578/603 620/576/602
f 603/602/585 635/602/617 634/600/616
f 589/578/571 590/579/572 622/579/604
f 603/602/585 604/604/586 636/604/618
f 642/616/624 611/618/593 612/561/594
f 612/561/594 613/564/595 614/565/596
f 614/565/596 615/567/597 616/569/598
f 616/569/598 617/571/599 618/572/600
f 618/572/600 619/574/601 620/576/602
f 620/576/602 621/578/603 618/572/600
f 621/578/603 622/579/604 618/572/600
f 622/579/604 623/581/605 624/583/606
f 624/583/606 625/585/607 622/579/604
f 625/585/607 626/587/608 622/579/604
f 626/587/608 627/588/609 628/590/610
f 628/590/610 629/591/611 626/587/608
f 629/591/611 630/593/612 626/587/608
f 630/593/612 631/595/613 634/600/616
f 631/595/613 632/597/614 634/600/616
f 632/597/614 633/598/615 634/600/616
f 634/600/616 635/602/617 638/607/620
f 635/602/617 636/604/618 638/607/620
f 636/604/618 637/605/619 638/607/620
f 638/607/620 639/609/621 640/610/622
f 640/610/622 641/612/623 642/616/624
f 642/616/624 612/561/594 614/565/596
f 614/565/596 616/569/598 642/616/624
f 616/569/598 618/572/600 642/616/624
f 638/607/620 640/610/622 634/600/616
f 640/610/622 642/616/624 634/600/616
f 618/572/600 622/579/604 626/587/608
f 626/587/608 630/593/612 634/600/616
f 642/616/624 618/572/600 634/600/616
