# Blender 4.1.1
# www.blender.org
mtllib goal.mtl
o 立方体.001
v -0.942640 0.770790 1.561779
v -0.942640 1.021638 1.561779
v -0.942640 0.770790 0.885775
v -0.942640 1.021638 0.885775
v 0.942640 0.770790 1.561779
v 0.942640 1.021638 1.561779
v 0.942640 0.770790 0.885775
v 0.942640 1.021638 0.885775
v 0.780555 0.770790 0.885775
v 0.780555 1.021638 0.885775
v 0.780555 0.770790 1.561779
v 0.780555 1.021638 1.561779
v -0.774971 0.770790 0.885775
v -0.774971 1.021638 1.561779
v -0.774971 1.021638 0.885775
v -0.774971 0.770790 1.561779
v -0.942640 -1.020364 0.885775
v -0.942640 -1.020364 1.561779
v -0.774971 -1.020364 0.885775
v 0.942640 -1.020364 1.561779
v 0.942640 -1.020364 0.885775
v 0.780555 -1.020364 1.561779
v 0.780555 -1.020364 0.885775
v -0.774971 -1.020364 1.561779
v -0.768094 -1.009458 1.487243
v -0.768094 0.771767 1.487243
v -0.768094 -1.009458 1.045215
v -0.768094 0.771767 1.045215
v 0.768094 -1.009458 1.487243
v 0.768094 0.771767 1.487243
v 0.768094 -1.009458 1.045215
v 0.768094 0.771767 1.045215
vn -1.0000 -0.0000 -0.0000
vn -0.0000 -0.0000 -1.0000
vn 1.0000 -0.0000 -0.0000
vn -0.0000 -0.0000 1.0000
vn -0.0000 1.0000 -0.0000
vn -0.0000 -1.0000 -0.0000
vt 0.000000 0.111889
vt 0.000000 -0.000000
vt 0.111889 0.000000
vt 0.111889 0.111889
vt 0.214158 0.111889
vt 0.214158 0.000000
vt 0.223778 0.000000
vt 0.223778 0.111889
vt 0.223778 0.111889
vt 0.223778 -0.000000
vt 0.335667 0.000000
vt 0.335667 0.111889
vt 0.437605 0.111889
vt 0.437605 0.000000
vt 0.447556 0.000000
vt 0.447556 0.111889
vt 0.447556 -0.000000
vt 0.559445 0.000000
vt 0.559445 0.798932
vt 0.447556 0.798932
vt 0.681285 0.906392
vt 0.671334 0.906392
vt 0.671334 0.794503
vt 0.681285 0.794503
vt 0.783223 0.906392
vt 0.773603 0.906392
vt 0.773603 0.794503
vt 0.783223 0.794503
vt 0.875541 0.906392
vt 0.875541 0.794503
vt 0.335667 0.111889
vt 0.335667 -0.000000
vt 0.345286 -0.000000
vt 0.345286 0.111889
vt 0.121840 0.111889
vt 0.121840 -0.000000
vt 0.111889 0.111889
vt 0.111889 -0.000000
vt 0.335667 0.910821
vt 0.223778 0.910821
vt 0.895112 0.906392
vt 0.885492 0.906392
vt 0.885492 0.794503
vt 0.895112 0.794503
vt 0.885492 0.906392
vt 0.875541 0.906392
vt 0.875541 0.794503
vt 0.447556 0.910821
vt 0.437605 0.910821
vt 0.223778 0.910821
vt 0.214158 0.910821
vt 0.345286 0.910821
vt 0.335667 0.910821
vt 0.559445 -0.000000
vt 0.671334 0.000000
vt 0.671334 0.798932
vt 0.559445 0.798932
vt 0.121840 0.910821
vt 0.111889 0.910821
vt 0.111889 0.910821
vt 0.000000 0.910821
vt 0.853675 0.794503
vt 0.853675 -0.000000
vt 0.926838 0.000000
vt 0.926838 0.794503
vt 0.671334 0.794503
vt 0.671334 -0.000000
vt 0.762505 0.000000
vt 0.762504 0.794503
vt 0.926838 -0.000000
vt 1.000000 0.000000
vt 1.000000 0.794503
vt 0.762505 0.794503
vt 0.762505 -0.000000
vt 0.853675 0.000000
vt 0.853675 0.794503
vt 0.520718 0.798932
vt 0.520718 0.890103
vt 0.447556 0.890103
vt 0.447556 0.798932
vt 0.593880 0.798932
vt 0.593880 0.890103
vt 0.520718 0.890103
vt 0.520718 0.798932
s 0
usemtl Material
f 1/1/1 2/2/1 4/3/1 3/4/1
f 9/5/2 10/6/2 8/7/2 7/8/2
f 7/9/3 8/10/3 6/11/3 5/12/3
f 16/13/4 14/14/4 2/15/4 1/16/4
f 13/17/3 16/18/3 24/19/3 19/20/3
f 15/21/5 4/22/5 2/23/5 14/24/5
f 8/25/5 10/26/5 12/27/5 6/28/5
f 13/29/6 9/25/6 11/28/6 16/30/6
f 5/31/4 6/32/4 12/33/4 11/34/4
f 13/35/2 15/36/2 10/6/2 9/5/2
f 3/37/2 4/38/2 15/36/2 13/35/2
f 7/9/3 5/12/3 20/39/3 21/40/3
f 10/26/5 15/21/5 14/24/5 12/27/5
f 11/34/4 12/33/4 14/14/4 16/13/4
f 23/41/6 21/42/6 20/43/6 22/44/6
f 17/45/6 19/46/6 24/47/6 18/43/6
f 16/13/4 1/16/4 18/48/4 24/49/4
f 9/5/2 7/8/2 21/50/2 23/51/2
f 5/31/4 11/34/4 22/52/4 20/53/4
f 11/54/1 9/55/1 23/56/1 22/57/1
f 3/37/2 13/35/2 19/58/2 17/59/2
f 1/1/1 3/4/1 17/60/1 18/61/1
f 25/62/1 26/63/1 28/64/1 27/65/1
f 27/66/2 28/67/2 32/68/2 31/69/2
f 31/65/3 32/70/3 30/71/3 29/72/3
f 29/73/4 30/74/4 26/75/4 25/76/4
f 27/77/6 31/78/6 29/79/6 25/80/6
f 32/81/5 28/82/5 26/83/5 30/84/5
