# Blender 4.1.1
# www.blender.org
mtllib dethParticle.mtl
o 球.001
v 0.000662 0.673738 -0.263579
v 0.001182 0.524424 -0.395528
v 0.000734 0.305190 -0.449208
v 0.000334 0.181207 -0.475249
v -0.000082 0.046196 -0.458074
v -0.002861 -0.228347 -0.383925
v 0.015993 0.738700 -0.091581
v 0.034189 0.728793 -0.186360
v 0.051715 0.681577 -0.266161
v 0.063259 0.598586 -0.318455
v 0.073836 0.512376 -0.369985
v 0.092559 0.432387 -0.450954
v 0.090766 0.308784 -0.457697
v 0.091257 0.180839 -0.458238
v 0.089350 0.046011 -0.452699
v 0.079927 -0.088136 -0.402752
v 0.071758 -0.223969 -0.363500
v 0.063893 -0.359702 -0.322446
v 0.049531 -0.472440 -0.248975
v 0.033145 -0.562166 -0.166633
v 0.016897 -0.633326 -0.084949
v 0.033510 0.736519 -0.085739
v 0.068900 0.727123 -0.175730
v 0.099787 0.683455 -0.253756
v 0.122920 0.601019 -0.302493
v 0.141358 0.507405 -0.341475
v 0.157060 0.411946 -0.379327
v 0.166706 0.301970 -0.402564
v 0.179476 0.180893 -0.433364
v 0.175794 0.046178 -0.424344
v 0.156965 -0.088020 -0.378946
v 0.141602 -0.223789 -0.341739
v 0.120991 -0.353180 -0.292412
v 0.095152 -0.469605 -0.231489
v 0.065017 -0.562166 -0.156965
v 0.033145 -0.633326 -0.080020
v 0.049601 0.734324 -0.076631
v 0.100343 0.723848 -0.156474
v 0.143225 0.678407 -0.225618
v 0.176984 0.596747 -0.269784
v 0.209170 0.510462 -0.311017
v 0.227877 0.411786 -0.341042
v 0.244907 0.302774 -0.365042
v 0.251607 0.180005 -0.375062
v 0.247972 0.047165 -0.370118
v 0.236756 -0.091393 -0.351676
v 0.206421 -0.224729 -0.309477
v 0.174536 -0.351932 -0.261188
v 0.137033 -0.466697 -0.205084
v 0.094390 -0.562166 -0.141264
v 0.048120 -0.633326 -0.072016
v 0.063512 0.732640 -0.064870
v 0.128022 0.721059 -0.130859
v 0.182695 0.674737 -0.186804
v 0.240891 0.609496 -0.237829
v 0.285692 0.527982 -0.284576
v 0.292406 0.413574 -0.292360
v 0.325169 0.306523 -0.324007
v 0.323666 0.180094 -0.321951
v 0.322801 0.045890 -0.322013
v 0.326458 -0.099357 -0.325908
v 0.269159 -0.227565 -0.269159
v 0.224761 -0.354136 -0.224803
v 0.174577 -0.466830 -0.174579
v 0.120136 -0.562166 -0.120135
v 0.061245 -0.633326 -0.061245
v 0.074677 0.731400 -0.050964
v 0.151137 0.721496 -0.102232
v 0.219839 0.682685 -0.146780
v 0.296900 0.627796 -0.196370
v 0.340790 0.531851 -0.227019
v 0.351429 0.416638 -0.233046
v 0.382054 0.306270 -0.255916
v 0.398398 0.180233 -0.263813
v 0.371101 0.047992 -0.246476
v 0.362218 -0.093770 -0.243633
v 0.309435 -0.224710 -0.207525
v 0.262866 -0.353224 -0.175945
v 0.205084 -0.466697 -0.137033
v 0.141353 -0.562261 -0.094373
v 0.072016 -0.633326 -0.048120
v -0.001596 0.745045 0.001078
v 0.082699 0.730545 -0.035368
v 0.167779 0.721735 -0.071287
v 0.246634 0.689014 -0.103097
v 0.329079 0.631615 -0.137017
v 0.379217 0.531777 -0.156327
v 0.410255 0.424634 -0.168163
v 0.413511 0.304478 -0.171272
v 0.411898 0.179659 -0.170909
v 0.427505 0.047420 -0.175781
v 0.399280 -0.092384 -0.165331
v 0.346820 -0.225894 -0.143162
v 0.306761 -0.361342 -0.125702
v 0.228625 -0.467508 -0.094244
v 0.158417 -0.563701 -0.064676
v 0.080020 -0.633326 -0.033145
v 0.087363 0.729653 -0.018403
v 0.176750 0.718856 -0.037666
v 0.262106 0.688231 -0.054219
v 0.335778 0.620203 -0.067389
v 0.389385 0.521355 -0.075026
v 0.434600 0.423928 -0.083130
v 0.437686 0.304548 -0.086812
v 0.436047 0.179594 -0.086749
v 0.455351 0.047041 -0.091005
v 0.417618 -0.091107 -0.083204
v 0.365409 -0.224755 -0.072822
v 0.337843 -0.368174 -0.066787
v 0.246732 -0.471824 -0.046896
v 0.171816 -0.567511 -0.031741
v 0.084949 -0.633326 -0.016897
v 0.088514 0.728612 -0.000647
v 0.178317 0.713897 -0.002427
v 0.271695 0.687766 -0.000312
v 0.344971 0.621010 0.002545
v 0.398047 0.523846 0.001283
v 0.444044 0.423752 0.000489
v 0.446791 0.305862 0.000264
v 0.445524 0.179720 0.000426
v 0.445685 0.047726 -0.001270
v 0.429351 -0.092035 0.000186
v 0.369333 -0.223505 0.000037
v 0.343944 -0.367878 -0.001020
v 0.258596 -0.479221 0.003539
v 0.180026 -0.572431 0.003067
v 0.086613 -0.633326 0.000000
v 0.086196 0.727921 0.017159
v 0.174108 0.710222 0.033183
v 0.272473 0.690578 0.054219
v 0.351851 0.633959 0.070317
v 0.390472 0.529211 0.077248
v 0.436461 0.424194 0.084203
v 0.451378 0.309700 0.091501
v 0.472481 0.182175 0.095828
v 0.427437 0.048177 0.085088
v 0.423629 -0.092750 0.083848
v 0.368447 -0.226043 0.074934
v 0.319176 -0.358023 0.062857
v 0.261546 -0.487459 0.055391
v 0.180760 -0.576407 0.037952
v 0.084962 -0.633339 0.016902
v 0.080649 0.728208 0.034259
v 0.163747 0.707800 0.066838
v 0.258694 0.692399 0.104236
v 0.333561 0.636314 0.132367
v 0.365530 0.527090 0.148930
v 0.409403 0.423733 0.168195
v 0.441317 0.313811 0.186845
v 0.453272 0.184502 0.189157
v 0.408294 0.047710 0.169150
v 0.383798 -0.090202 0.159927
v 0.365805 -0.234724 0.157203
v 0.305450 -0.364313 0.130439
v 0.253371 -0.494369 0.106803
v 0.172190 -0.577653 0.070883
v 0.080031 -0.633337 0.033149
v 0.072242 0.730089 0.049972
v 0.146897 0.705410 0.096712
v 0.229936 0.686998 0.148657
v 0.291268 0.624651 0.189383
v 0.322065 0.519330 0.213967
v 0.364863 0.421294 0.243257
v 0.405643 0.315548 0.272883
v 0.399361 0.186088 0.266739
v 0.365028 0.048178 0.244869
v 0.350009 -0.092139 0.234205
v 0.346609 -0.243048 0.232740
v 0.293630 -0.378891 0.198340
v 0.231053 -0.495590 0.152343
v 0.154051 -0.575460 0.099971
v 0.072016 -0.633326 0.048120
v 0.061115 0.733117 0.063937
v 0.123948 0.703207 0.122351
v 0.192977 0.677592 0.186954
v 0.244893 0.616249 0.242911
v 0.275624 0.521434 0.277523
v 0.306672 0.420274 0.306086
v 0.339385 0.312701 0.335133
v 0.339183 0.184018 0.338250
v 0.327042 0.045736 0.333288
v 0.304659 -0.093352 0.308363
v 0.291853 -0.240932 0.286018
v 0.254515 -0.380222 0.249748
v 0.194030 -0.489193 0.187308
v 0.127915 -0.570516 0.123988
v 0.061245 -0.633326 0.061245
v 0.047523 0.736744 0.075816
v 0.095859 0.703908 0.144423
v 0.150310 0.668815 0.217678
v 0.195390 0.613646 0.284584
v 0.219654 0.522514 0.325651
v 0.238270 0.419386 0.354555
v 0.253883 0.306869 0.374025
v 0.261489 0.179903 0.388635
v 0.269902 0.043603 0.405005
v 0.251851 -0.097275 0.383167
v 0.222346 -0.236333 0.333204
v 0.192878 -0.369450 0.283298
v 0.146262 -0.477997 0.211874
v 0.097219 -0.565332 0.142867
v 0.048120 -0.633326 0.072016
v 0.032061 0.740646 0.085050
v 0.064696 0.709832 0.163320
v 0.102176 0.670417 0.244682
v 0.133563 0.613045 0.314638
v 0.149834 0.520047 0.358896
v 0.162903 0.420816 0.396064
v 0.168971 0.305097 0.410167
v 0.173386 0.179514 0.416213
v 0.181012 0.044580 0.428919
v 0.178315 -0.100352 0.430638
v 0.156407 -0.238244 0.382164
v 0.127606 -0.368740 0.317312
v 0.095823 -0.474673 0.236748
v 0.065358 -0.562923 0.157614
v 0.033145 -0.633326 0.080020
v 0.015414 0.744446 0.091147
v 0.031824 0.718864 0.177680
v 0.051414 0.682078 0.267856
v 0.067174 0.621969 0.341654
v 0.076020 0.524483 0.385818
v 0.085273 0.423473 0.425354
v 0.087368 0.308296 0.455078
v 0.086932 0.182411 0.457509
v 0.086937 0.047401 0.431506
v 0.091241 -0.098008 0.440942
v 0.082334 -0.236581 0.400566
v 0.062526 -0.377769 0.347260
v 0.047234 -0.480974 0.261467
v 0.033141 -0.563105 0.167796
v 0.016897 -0.633326 0.084949
v -0.001729 0.747584 0.093653
v -0.001813 0.726059 0.184320
v 0.000662 0.689053 0.276887
v 0.002665 0.626511 0.351595
v 0.002051 0.525754 0.392106
v 0.002819 0.419522 0.425443
v -0.001083 0.307696 0.478483
v -0.003318 0.185151 0.495844
v -0.000227 0.048238 0.437777
v -0.000344 -0.092790 0.430228
v 0.002139 -0.229524 0.386531
v -0.004162 -0.381120 0.357559
v -0.002156 -0.484597 0.272279
v -0.000005 -0.563316 0.171329
v -0.000000 -0.633326 0.086613
v -0.018797 0.749237 0.092228
v -0.035125 0.727649 0.181396
v -0.049091 0.684112 0.266575
v -0.061156 0.615145 0.333872
v -0.073211 0.517589 0.375087
v -0.083226 0.415759 0.411997
v -0.094007 0.306871 0.472913
v -0.099262 0.184203 0.495084
v -0.088286 0.046809 0.437618
v -0.090990 -0.095851 0.436630
v -0.077224 -0.227525 0.376966
v -0.068997 -0.376904 0.347657
v -0.051691 -0.482162 0.265337
v -0.033149 -0.562907 0.167550
v -0.016897 -0.633326 0.084949
v -0.035156 0.749197 0.086862
v -0.066789 0.723490 0.169191
v -0.096849 0.671525 0.242158
v -0.122814 0.598191 0.300356
v -0.145321 0.512381 0.349840
v -0.164845 0.418947 0.396938
v -0.179763 0.307366 0.439200
v -0.185803 0.182847 0.456039
v -0.173295 0.046132 0.418210
v -0.170273 -0.096367 0.414403
v -0.147177 -0.227554 0.356035
v -0.127617 -0.366770 0.315362
v -0.097789 -0.475543 0.242158
v -0.065018 -0.562357 0.157198
v -0.033145 -0.633326 0.080020
v -0.050200 0.747730 0.077875
v -0.095935 0.715705 0.149614
v -0.141885 0.661844 0.213290
v -0.184214 0.598763 0.270892
v -0.213328 0.516209 0.317834
v -0.232980 0.416852 0.352378
v -0.247044 0.304590 0.374452
v -0.253637 0.180765 0.385508
v -0.246242 0.047262 0.369846
v -0.233033 -0.091044 0.353161
v -0.207072 -0.224530 0.311309
v -0.177950 -0.357993 0.271382
v -0.139065 -0.469773 0.210105
v -0.094390 -0.562166 0.141264
v -0.048120 -0.633326 0.072016
v -0.063376 0.745359 0.065822
v -0.121376 0.707289 0.124736
v -0.181286 0.658281 0.181169
v -0.239658 0.607225 0.238036
v -0.281853 0.526118 0.279114
v -0.297630 0.417341 0.296350
v -0.307907 0.301934 0.307920
v -0.316590 0.179386 0.316388
v -0.330083 0.045466 0.323288
v -0.305805 -0.091193 0.300179
v -0.261165 -0.223474 0.261129
v -0.225960 -0.355011 0.224705
v -0.177958 -0.469429 0.176799
v -0.120135 -0.562166 0.120135
v -0.061245 -0.633326 0.061244
v 0.000000 -0.705492 0.000000
v -0.074194 0.742594 0.051327
v -0.142152 0.700927 0.096270
v -0.212785 0.658598 0.143570
v -0.285842 0.612542 0.193481
v -0.341912 0.534134 0.230701
v -0.359023 0.423599 0.240721
v -0.362461 0.302106 0.242119
v -0.373285 0.179111 0.249561
v -0.402438 0.042675 0.268286
v -0.388113 -0.097671 0.254500
v -0.312245 -0.224625 0.207716
v -0.274554 -0.360933 0.180143
v -0.213012 -0.472045 0.140893
v -0.141264 -0.562166 0.094390
v -0.072016 -0.633326 0.048119
v -0.082251 0.739992 0.035138
v -0.157739 0.697641 0.065418
v -0.238465 0.661115 0.100221
v -0.324857 0.620464 0.139138
v -0.383007 0.538146 0.166614
v -0.401329 0.423787 0.169350
v -0.420208 0.305675 0.170018
v -0.413338 0.180209 0.170698
v -0.425221 0.044567 0.180587
v -0.428592 -0.099033 0.180946
v -0.351625 -0.226296 0.145505
v -0.310550 -0.365052 0.127875
v -0.238242 -0.473417 0.098995
v -0.156965 -0.562166 0.065017
v -0.080020 -0.633326 0.033145
v -0.087241 0.737754 0.017857
v -0.167685 0.696998 0.033014
v -0.255898 0.664563 0.053418
v -0.348514 0.627205 0.076624
v -0.400385 0.538835 0.087309
v -0.424057 0.418981 0.086102
v -0.473865 0.311491 0.091757
v -0.450867 0.182940 0.088619
v -0.432383 0.046980 0.086016
v -0.436995 -0.095858 0.089660
v -0.374814 -0.227803 0.073020
v -0.325052 -0.362587 0.067027
v -0.249467 -0.471499 0.051236
v -0.166633 -0.562166 0.033145
v -0.084949 -0.633326 0.016897
v -0.089050 0.736373 0.000035
v -0.171106 0.697220 -0.000426
v -0.259505 0.663217 0.003572
v -0.352891 0.624558 0.007003
v -0.405139 0.535932 0.000857
v -0.426851 0.418243 0.000133
v -0.480645 0.310121 0.002645
v -0.472434 0.183533 -0.002065
v -0.439634 0.047362 0.000168
v -0.433078 -0.094220 0.000991
v -0.402430 -0.236234 -0.007332
v -0.327710 -0.358786 0.000062
v -0.248720 -0.467984 0.000771
v -0.169897 -0.562166 -0.000000
v -0.086613 -0.633326 -0.000000
v -0.087687 0.735916 -0.017852
v -0.168006 0.698195 -0.034108
v -0.249247 0.656557 -0.047009
v -0.335490 0.610627 -0.061901
v -0.395281 0.530716 -0.077271
v -0.414775 0.419916 -0.082392
v -0.448546 0.304552 -0.086770
v -0.468880 0.182224 -0.092943
v -0.433984 0.048602 -0.086625
v -0.416261 -0.093257 -0.082597
v -0.414649 -0.244198 -0.087351
v -0.328993 -0.360491 -0.068015
v -0.241922 -0.466702 -0.048123
v -0.166633 -0.562166 -0.033145
v -0.084949 -0.633326 -0.016897
v -0.083164 0.736442 -0.035227
v -0.159036 0.701010 -0.067192
v -0.230273 0.650894 -0.094385
v -0.303304 0.597185 -0.122552
v -0.359157 0.519152 -0.145033
v -0.384256 0.415273 -0.158141
v -0.405642 0.302119 -0.167243
v -0.426909 0.180559 -0.173794
v -0.406897 0.048496 -0.167853
v -0.383794 -0.090003 -0.158354
v -0.383896 -0.240755 -0.155653
v -0.310518 -0.360402 -0.127590
v -0.227939 -0.466731 -0.094414
v -0.156965 -0.562166 -0.065017
v -0.080020 -0.633326 -0.033145
v -0.075538 0.737770 -0.051494
v -0.144553 0.705456 -0.098445
v -0.206603 0.651096 -0.138432
v -0.266697 0.592278 -0.178279
v -0.309394 0.508561 -0.205686
v -0.346220 0.414409 -0.232336
v -0.366771 0.303263 -0.246635
v -0.370126 0.179678 -0.246914
v -0.366204 0.047212 -0.245842
v -0.352707 -0.091673 -0.240155
v -0.330160 -0.233685 -0.220526
v -0.270852 -0.356230 -0.179110
v -0.205084 -0.466697 -0.137033
v -0.141264 -0.562166 -0.094390
v -0.072016 -0.633326 -0.048119
v -0.064995 0.739341 -0.065938
v -0.124719 0.710715 -0.126567
v -0.176666 0.654027 -0.177039
v -0.229803 0.596974 -0.230007
v -0.263374 0.509308 -0.263737
v -0.300419 0.417351 -0.300285
v -0.325799 0.307010 -0.325799
v -0.322916 0.180369 -0.323696
v -0.316359 0.046041 -0.316231
v -0.312619 -0.095072 -0.313867
v -0.278303 -0.231280 -0.280530
v -0.224797 -0.353506 -0.225339
v -0.174409 -0.466697 -0.174410
v -0.120135 -0.562166 -0.120135
v -0.061244 -0.633326 -0.061244
v -0.051875 0.740897 -0.077961
v -0.099890 0.716654 -0.150548
v -0.140036 0.658636 -0.209905
v -0.185671 0.606587 -0.276743
v -0.219177 0.524195 -0.326290
v -0.234143 0.416483 -0.350572
v -0.242201 0.302108 -0.362493
v -0.261940 0.181014 -0.391991
v -0.245374 0.047332 -0.365556
v -0.240076 -0.091919 -0.353977
v -0.215603 -0.229383 -0.320331
v -0.177258 -0.355672 -0.267832
v -0.137033 -0.466697 -0.205084
v -0.094390 -0.562166 -0.141264
v -0.048119 -0.633326 -0.072016
v -0.036613 0.741872 -0.086905
v -0.070506 0.721877 -0.169143
v -0.098095 0.663287 -0.235322
v -0.129450 0.609194 -0.308130
v -0.156697 0.533624 -0.378230
v -0.168715 0.422981 -0.405517
v -0.179805 0.309107 -0.435458
v -0.184866 0.181531 -0.443430
v -0.168800 0.047649 -0.407651
v -0.159113 -0.090559 -0.388973
v -0.145448 -0.230181 -0.356214
v -0.124205 -0.359006 -0.302932
v -0.094417 -0.466744 -0.227962
v -0.065017 -0.562166 -0.156965
v -0.033145 -0.633326 -0.080020
v -0.019780 0.741776 -0.092256
v -0.037509 0.725396 -0.181470
v -0.050140 0.665461 -0.251206
v -0.062498 0.589842 -0.310977
v -0.079519 0.531633 -0.399336
v -0.081008 0.417169 -0.414755
v -0.090363 0.305820 -0.446488
v -0.095362 0.182025 -0.481522
v -0.087291 0.046711 -0.441065
v -0.084611 -0.093883 -0.425498
v -0.077347 -0.232462 -0.386762
v -0.065191 -0.359058 -0.321571
v -0.048139 -0.466733 -0.241980
v -0.033145 -0.562166 -0.166633
v -0.016897 -0.633326 -0.084949
v -0.002025 0.740601 -0.093815
v -0.001984 0.728001 -0.187794
v 0.000727 0.591488 -0.318537
v 0.001418 0.426371 -0.449109
v -0.002899 -0.091767 -0.424845
v -0.000510 -0.358285 -0.326282
v 0.000381 -0.468260 -0.248559
v 0.000000 -0.562166 -0.169897
v 0.000000 -0.633326 -0.086613
vn -0.1927 0.6790 -0.7084
vn 0.1513 0.5830 -0.7982
vn -0.0717 0.1158 -0.9907
vn 0.0916 0.0231 -0.9955
vn -0.0357 -0.1864 -0.9818
vn 0.1500 -0.3462 -0.9261
vn 0.1152 0.9909 -0.0695
vn 0.0512 0.9412 -0.3341
vn 0.0100 0.7152 -0.6988
vn 0.0658 0.5324 -0.8439
vn 0.3196 0.5575 -0.7662
vn 0.3770 0.3981 -0.8363
vn 0.2928 0.0453 -0.9551
vn 0.2290 0.0339 -0.9728
vn 0.1833 -0.1989 -0.9627
vn 0.2538 -0.2975 -0.9203
vn 0.2733 -0.3194 -0.9074
vn 0.2526 -0.4297 -0.8669
vn 0.1427 -0.6091 -0.7801
vn 0.1347 -0.7084 -0.6928
vn 0.1259 -0.7641 -0.6327
vn 0.1448 0.9886 -0.0404
vn 0.1827 0.9478 -0.2613
vn 0.2907 0.7337 -0.6141
vn 0.3644 0.5035 -0.7834
vn 0.3895 0.4111 -0.8242
vn 0.5597 0.3180 -0.7652
vn 0.5015 0.1832 -0.8455
vn 0.4561 0.0963 -0.8847
vn 0.4514 -0.2003 -0.8696
vn 0.3273 -0.2946 -0.8978
vn 0.3533 -0.3377 -0.8724
vn 0.4427 -0.4282 -0.7878
vn 0.3920 -0.5767 -0.7168
vn 0.2784 -0.7023 -0.6552
vn 0.2469 -0.7641 -0.5960
vn 0.1504 0.9880 -0.0343
vn 0.2590 0.9426 -0.2108
vn 0.4717 0.7225 -0.5055
vn 0.3864 0.5483 -0.7417
vn 0.3411 0.3887 -0.8559
vn 0.5012 0.3013 -0.8112
vn 0.4627 0.1778 -0.8685
vn 0.5900 0.0469 -0.8060
vn 0.5493 -0.1244 -0.8263
vn 0.3221 -0.2461 -0.9142
vn 0.4410 -0.3775 -0.8143
vn 0.4802 -0.4575 -0.7484
vn 0.4875 -0.5664 -0.6644
vn 0.4002 -0.6936 -0.5990
vn 0.3584 -0.7641 -0.5364
vn 0.1403 0.9896 -0.0324
vn 0.2441 0.9472 -0.2078
vn 0.3910 0.7819 -0.4855
vn 0.3034 0.6401 -0.7059
vn 0.4702 0.3623 -0.8048
vn 0.5964 0.2518 -0.7621
vn 0.6126 0.1864 -0.7681
vn 0.6276 -0.0138 -0.7784
vn 0.6983 -0.0322 -0.7151
vn 0.6397 -0.2525 -0.7260
vn 0.6205 -0.4482 -0.6435
vn 0.6090 -0.4765 -0.6340
vn 0.5770 -0.5737 -0.5814
vn 0.5084 -0.6936 -0.5104
vn 0.4559 -0.7642 -0.4562
vn 0.1321 0.9910 -0.0201
vn 0.2324 0.9589 -0.1627
vn 0.3353 0.8544 -0.3969
vn 0.4928 0.6726 -0.5521
vn 0.7206 0.3500 -0.5985
vn 0.7377 0.1709 -0.6532
vn 0.8428 0.1964 -0.5012
vn 0.8635 -0.0460 -0.5022
vn 0.8318 -0.0820 -0.5490
vn 0.8746 -0.2495 -0.4156
vn 0.7773 -0.4179 -0.4703
vn 0.6887 -0.4574 -0.5625
vn 0.6768 -0.5741 -0.4609
vn 0.5861 -0.6926 -0.4204
vn 0.5360 -0.7645 -0.3582
vn 0.0572 0.9979 -0.0294
vn 0.1377 0.9905 0.0018
vn 0.2446 0.9671 -0.0697
vn 0.4268 0.8788 -0.2133
vn 0.7122 0.6757 -0.1903
vn 0.8835 0.3911 -0.2578
vn 0.8816 0.1614 -0.4435
vn 0.9358 0.0540 -0.3482
vn 0.9603 0.0221 -0.2783
vn 0.8854 -0.0498 -0.4621
vn 0.8982 -0.2849 -0.3347
vn 0.8559 -0.3647 -0.3665
vn 0.7273 -0.4425 -0.5246
vn 0.7006 -0.6030 -0.3814
vn 0.6240 -0.6954 -0.3563
vn 0.5907 -0.7679 -0.2479
vn 0.1577 0.9869 0.0344
vn 0.2553 0.9649 0.0612
vn 0.4981 0.8609 -0.1034
vn 0.7791 0.6237 -0.0630
vn 0.8963 0.4300 -0.1081
vn 0.9551 0.2301 -0.1864
vn 0.9815 0.0095 -0.1914
vn 0.9836 0.0407 -0.1756
vn 0.9924 -0.0609 -0.1073
vn 0.9431 -0.2953 -0.1526
vn 0.9398 -0.3007 -0.1620
vn 0.8554 -0.4397 -0.2736
vn 0.7268 -0.6221 -0.2911
vn 0.6420 -0.7092 -0.2913
vn 0.6126 -0.7795 -0.1305
vn 0.1758 0.9827 0.0579
vn 0.2306 0.9670 0.1083
vn 0.4826 0.8741 -0.0551
vn 0.7943 0.5965 -0.1153
vn 0.8946 0.4460 -0.0272
vn 0.9746 0.2234 -0.0125
vn 0.9948 0.0484 -0.0900
vn 0.9879 -0.0553 -0.1450
vn 0.9915 -0.0589 0.1156
vn 0.9673 -0.2524 -0.0232
vn 0.9487 -0.3161 0.0009
vn 0.9011 -0.4103 0.1402
vn 0.7989 -0.5795 -0.1611
vn 0.6510 -0.7384 -0.1758
vn 0.6026 -0.7980 -0.0118
vn 0.1902 0.9799 0.0598
vn 0.1906 0.9758 0.1073
vn 0.4243 0.9055 -0.0000
vn 0.8012 0.5983 0.0135
vn 0.9034 0.3973 0.1612
vn 0.9506 0.2574 0.1736
vn 0.9854 0.1615 0.0530
vn 0.9949 -0.1012 -0.0020
vn 0.9702 -0.1674 0.1753
vn 0.9416 -0.2129 0.2607
vn 0.9401 -0.3372 0.0502
vn 0.8999 -0.3803 0.2133
vn 0.8421 -0.5390 -0.0204
vn 0.6350 -0.7723 0.0178
vn 0.5691 -0.8157 0.1036
vn 0.2195 0.9747 0.0416
vn 0.1563 0.9787 0.1332
vn 0.3460 0.9163 0.2015
vn 0.7015 0.5961 0.3905
vn 0.8160 0.3740 0.4408
vn 0.8589 0.3482 0.3755
vn 0.9412 0.1945 0.2764
vn 0.9170 -0.1113 0.3830
vn 0.8986 -0.2549 0.3572
vn 0.9077 -0.1636 0.3864
vn 0.9564 -0.2626 0.1279
vn 0.9031 -0.4135 0.1163
vn 0.7904 -0.5749 0.2114
vn 0.5565 -0.7958 0.2389
vn 0.5256 -0.8216 0.2205
vn 0.2630 0.9642 0.0331
vn 0.1479 0.9697 0.1945
vn 0.2741 0.8875 0.3704
vn 0.5938 0.5701 0.5678
vn 0.7324 0.4029 0.5490
vn 0.7263 0.4246 0.5406
vn 0.8069 0.1856 0.5608
vn 0.7966 -0.1466 0.5865
vn 0.8633 -0.2007 0.4630
vn 0.8765 -0.1160 0.4673
vn 0.8483 -0.2367 0.4737
vn 0.8145 -0.4789 0.3274
vn 0.6209 -0.6342 0.4607
vn 0.4179 -0.7980 0.4342
vn 0.4805 -0.8105 0.3351
vn 0.2946 0.9540 0.0551
vn 0.1849 0.9518 0.2446
vn 0.2061 0.8730 0.4420
vn 0.5242 0.6128 0.5914
vn 0.6676 0.4031 0.6260
vn 0.6010 0.3677 0.7096
vn 0.5603 0.1887 0.8065
vn 0.6718 -0.0495 0.7391
vn 0.8383 -0.1161 0.5326
vn 0.8111 -0.2123 0.5450
vn 0.6221 -0.2561 0.7399
vn 0.5413 -0.4916 0.6821
vn 0.3603 -0.6533 0.6658
vn 0.2919 -0.7666 0.5719
vn 0.4251 -0.7900 0.4418
vn 0.3010 0.9501 0.0822
vn 0.2712 0.9278 0.2562
vn 0.2229 0.8750 0.4298
vn 0.4050 0.6504 0.6427
vn 0.5010 0.3880 0.7736
vn 0.5033 0.2698 0.8209
vn 0.4143 0.1633 0.8954
vn 0.4469 0.0917 0.8899
vn 0.5489 -0.0326 0.8353
vn 0.6507 -0.2530 0.7160
vn 0.5527 -0.3672 0.7481
vn 0.3801 -0.4971 0.7800
vn 0.2701 -0.6474 0.7127
vn 0.2529 -0.7359 0.6281
vn 0.3479 -0.7732 0.5302
vn 0.2777 0.9551 0.1031
vn 0.3397 0.9079 0.2456
vn 0.3206 0.8524 0.4131
vn 0.3435 0.6350 0.6920
vn 0.3669 0.4009 0.8394
vn 0.4104 0.2494 0.8771
vn 0.4273 0.1141 0.8969
vn 0.3362 0.0470 0.9406
vn 0.1861 0.0359 0.9819
vn 0.3343 -0.1791 0.9253
vn 0.3743 -0.4114 0.8311
vn 0.3992 -0.5194 0.7556
vn 0.3484 -0.6645 0.6610
vn 0.2290 -0.7295 0.6444
vn 0.2454 -0.7673 0.5925
vn 0.2303 0.9666 0.1124
vn 0.2945 0.9175 0.2675
vn 0.2855 0.8423 0.4572
vn 0.2645 0.6072 0.7493
vn 0.2064 0.3907 0.8971
vn 0.1874 0.2944 0.9371
vn 0.3431 0.1592 0.9257
vn 0.3717 -0.0927 0.9237
vn 0.0735 -0.0360 0.9966
vn -0.0058 -0.1357 0.9907
vn 0.0344 -0.3390 0.9402
vn 0.2632 -0.4739 0.8403
vn 0.2957 -0.6944 0.6561
vn 0.1545 -0.7500 0.6431
vn 0.1256 -0.7681 0.6279
vn 0.1399 0.9832 0.1172
vn 0.1201 0.9397 0.3202
vn -0.0004 0.8498 0.5270
vn -0.0674 0.5876 0.8063
vn -0.0790 0.3499 0.9334
vn -0.0582 0.3557 0.9328
vn 0.0993 0.2747 0.9564
vn 0.1804 -0.1143 0.9769
vn 0.0665 -0.1925 0.9790
vn -0.0292 -0.1704 0.9849
vn -0.1304 -0.2677 0.9546
vn -0.0039 -0.4220 0.9066
vn 0.0314 -0.7143 0.6991
vn 0.0041 -0.7740 0.6331
vn -0.0005 -0.7684 0.6400
vn 0.0142 0.9928 0.1185
vn -0.1302 0.9296 0.3449
vn -0.3110 0.7933 0.5234
vn -0.3960 0.5420 0.7412
vn -0.2967 0.3889 0.8722
vn -0.1800 0.4141 0.8922
vn -0.2033 0.3258 0.9233
vn -0.2115 -0.1049 0.9717
vn -0.1185 -0.1939 0.9738
vn -0.0951 -0.2203 0.9708
vn -0.1939 -0.3142 0.9293
vn -0.3269 -0.4114 0.8508
vn -0.2763 -0.6919 0.6670
vn -0.1626 -0.7644 0.6239
vn -0.1266 -0.7666 0.6296
vn -0.1088 0.9881 0.1092
vn -0.3300 0.8903 0.3137
vn -0.4572 0.7403 0.4928
vn -0.4188 0.5852 0.6944
vn -0.3365 0.4730 0.8143
vn -0.3581 0.4046 0.8415
vn -0.5096 0.2678 0.8177
vn -0.5502 -0.0802 0.8311
vn -0.4303 -0.1494 0.8902
vn -0.4869 -0.2324 0.8420
vn -0.4420 -0.3645 0.8196
vn -0.5483 -0.4190 0.7238
vn -0.4694 -0.6441 0.6040
vn -0.2886 -0.7315 0.6178
vn -0.2471 -0.7646 0.5952
vn -0.2055 0.9749 0.0857
vn -0.4437 0.8611 0.2481
vn -0.4328 0.7761 0.4587
vn -0.3215 0.6658 0.6733
vn -0.4032 0.4370 0.8041
vn -0.5756 0.3001 0.7607
vn -0.6955 0.1807 0.6955
vn -0.7128 -0.0297 0.7007
vn -0.5519 -0.1165 0.8257
vn -0.6165 -0.2500 0.7466
vn -0.6096 -0.3470 0.7127
vn -0.6295 -0.4343 0.6443
vn -0.5306 -0.6022 0.5966
vn -0.3955 -0.7107 0.5818
vn -0.3584 -0.7641 0.5364
vn -0.2636 0.9632 0.0527
vn -0.4702 0.8603 0.1972
vn -0.3814 0.8450 0.3748
vn -0.3630 0.7226 0.5883
vn -0.4929 0.3964 0.7746
vn -0.6431 0.1777 0.7449
vn -0.7412 0.1281 0.6589
vn -0.7282 0.0676 0.6821
vn -0.5641 -0.0430 0.8246
vn -0.5200 -0.3141 0.7943
vn -0.6430 -0.3727 0.6691
vn -0.6150 -0.4321 0.6596
vn -0.5452 -0.5886 0.5969
vn -0.4988 -0.7086 0.4991
vn -0.4562 -0.7641 0.4562
vn -0.0000 -1.0000 -0.0000
vn -0.2971 0.9547 0.0140
vn -0.4527 0.8783 0.1535
vn -0.3553 0.8892 0.2882
vn -0.4403 0.7625 0.4741
vn -0.6572 0.4161 0.6285
vn -0.7617 0.1049 0.6394
vn -0.7841 0.0745 0.6161
vn -0.8249 0.1335 0.5493
vn -0.8227 0.0335 0.5676
vn -0.6833 -0.3211 0.6557
vn -0.6825 -0.4317 0.5898
vn -0.6642 -0.4334 0.6091
vn -0.6078 -0.6132 0.5046
vn -0.5748 -0.7180 0.3925
vn -0.5364 -0.7641 0.3584
vn -0.3068 0.9517 -0.0140
vn -0.4148 0.9014 0.1239
vn -0.3251 0.9183 0.2260
vn -0.5366 0.7653 0.3556
vn -0.8385 0.4031 0.3667
vn -0.9086 0.1382 0.3941
vn -0.8310 0.0661 0.5523
vn -0.9066 0.0155 0.4218
vn -0.9761 0.0623 0.2083
vn -0.9199 -0.2709 0.2836
vn -0.8247 -0.4327 0.3641
vn -0.8154 -0.4472 0.3676
vn -0.7119 -0.6384 0.2927
vn -0.6370 -0.7247 0.2626
vn -0.5960 -0.7641 0.2469
vn -0.2983 0.9539 -0.0333
vn -0.3914 0.9170 0.0766
vn -0.3413 0.9354 0.0920
vn -0.6383 0.7531 0.1598
vn -0.9185 0.3687 0.1428
vn -0.9469 0.2676 0.1783
vn -0.9388 0.1306 0.3188
vn -0.9408 -0.1342 0.3112
vn -0.9945 -0.0279 0.1012
vn -0.9742 -0.2228 0.0347
vn -0.8881 -0.3805 0.2578
vn -0.8822 -0.4588 0.1055
vn -0.7754 -0.6292 0.0528
vn -0.6890 -0.7135 0.1275
vn -0.6327 -0.7641 0.1259
vn -0.2835 0.9581 -0.0404
vn -0.4096 0.9123 -0.0011
vn -0.3794 0.9193 -0.1046
vn -0.6564 0.7418 -0.1374
vn -0.9265 0.3695 -0.0709
vn -0.9545 0.2888 -0.0744
vn -0.9779 0.1753 -0.1140
vn -0.9916 -0.1156 0.0579
vn -0.9903 -0.1384 0.0112
vn -0.9853 -0.1534 -0.0757
vn -0.9183 -0.3354 0.2102
vn -0.8468 -0.5305 0.0391
vn -0.7858 -0.6133 -0.0803
vn -0.7159 -0.6982 -0.0034
vn -0.6451 -0.7641 -0.0000
vn -0.2741 0.9609 -0.0406
vn -0.4529 0.8899 -0.0545
vn -0.4195 0.8751 -0.2413
vn -0.5897 0.7294 -0.3468
vn -0.8585 0.4025 -0.3178
vn -0.9313 0.2318 -0.2811
vn -0.9113 0.2116 -0.3533
vn -0.9662 -0.0419 -0.2544
vn -0.9608 -0.1825 -0.2089
vn -0.9617 -0.0869 -0.2599
vn -0.9402 -0.3156 -0.1282
vn -0.7949 -0.5982 -0.1014
vn -0.7629 -0.6263 -0.1604
vn -0.7065 -0.6936 -0.1405
vn -0.6327 -0.7641 -0.1259
vn -0.2664 0.9631 -0.0395
vn -0.4864 0.8686 -0.0947
vn -0.4865 0.8283 -0.2780
vn -0.5572 0.7021 -0.4434
vn -0.7328 0.4158 -0.5386
vn -0.8648 0.2576 -0.4309
vn -0.8688 0.1778 -0.4622
vn -0.8503 -0.0066 -0.5262
vn -0.9037 -0.1463 -0.4023
vn -0.9102 -0.1051 -0.4006
vn -0.8101 -0.2904 -0.5093
vn -0.7074 -0.5871 -0.3937
vn -0.7170 -0.6233 -0.3121
vn -0.6655 -0.6936 -0.2757
vn -0.5960 -0.7641 -0.2469
vn -0.2491 0.9671 -0.0515
vn -0.4852 0.8609 -0.1534
vn -0.5252 0.7971 -0.2979
vn -0.6257 0.6514 -0.4291
vn -0.6983 0.4590 -0.5493
vn -0.8120 0.3312 -0.4806
vn -0.8791 0.1250 -0.4599
vn -0.8394 -0.0057 -0.5436
vn -0.8567 -0.0787 -0.5098
vn -0.8862 -0.1604 -0.4347
vn -0.7269 -0.3327 -0.6008
vn -0.6158 -0.5476 -0.5666
vn -0.6640 -0.5936 -0.4547
vn -0.5990 -0.6936 -0.4002
vn -0.5364 -0.7641 -0.3584
vn -0.2175 0.9733 -0.0730
vn -0.4571 0.8614 -0.2214
vn -0.4881 0.7935 -0.3635
vn -0.6329 0.6534 -0.4153
vn -0.7291 0.4401 -0.5242
vn -0.6703 0.3626 -0.6474
vn -0.6776 0.1432 -0.7214
vn -0.7664 -0.0191 -0.6421
vn -0.7081 -0.0675 -0.7029
vn -0.6977 -0.1820 -0.6929
vn -0.6006 -0.4034 -0.6904
vn -0.5803 -0.5235 -0.6239
vn -0.5761 -0.5800 -0.5760
vn -0.5094 -0.6936 -0.5094
vn -0.4562 -0.7641 -0.4562
vn -0.1658 0.9815 -0.0958
vn -0.3963 0.8706 -0.2915
vn -0.4204 0.8004 -0.4274
vn -0.4787 0.7165 -0.5073
vn -0.6879 0.4178 -0.5935
vn -0.6516 0.2421 -0.7189
vn -0.6198 0.1514 -0.7700
vn -0.6479 0.0190 -0.7615
vn -0.5319 -0.1449 -0.8343
vn -0.4423 -0.1830 -0.8780
vn -0.4608 -0.3782 -0.8029
vn -0.5323 -0.5020 -0.6817
vn -0.4541 -0.5874 -0.6699
vn -0.4002 -0.6936 -0.5990
vn -0.3584 -0.7641 -0.5364
vn -0.0868 0.9893 -0.1169
vn -0.2918 0.8853 -0.3622
vn -0.2733 0.7732 -0.5723
vn -0.1237 0.7482 -0.6519
vn -0.3853 0.5223 -0.7608
vn -0.3986 0.2505 -0.8822
vn -0.4519 0.1539 -0.8787
vn -0.4754 -0.0433 -0.8787
vn -0.4298 -0.2084 -0.8785
vn -0.4177 -0.1905 -0.8884
vn -0.4125 -0.3440 -0.8435
vn -0.3834 -0.5027 -0.7748
vn -0.3131 -0.6053 -0.7318
vn -0.2757 -0.6937 -0.6654
vn -0.2469 -0.7641 -0.5960
vn 0.0036 0.9924 -0.1228
vn -0.1854 0.8970 -0.4012
vn -0.2470 0.6862 -0.6842
vn -0.0085 0.7248 -0.6889
vn -0.0463 0.5376 -0.8419
vn -0.1623 0.2159 -0.9628
vn -0.0875 0.2326 -0.9686
vn -0.1677 -0.0072 -0.9858
vn -0.2496 -0.2017 -0.9471
vn -0.2161 -0.1958 -0.9565
vn -0.1763 -0.3648 -0.9143
vn -0.1591 -0.5138 -0.8430
vn -0.1708 -0.6106 -0.7733
vn -0.1405 -0.6938 -0.7063
vn -0.1259 -0.7641 -0.6327
vn 0.0765 0.9916 -0.1044
vn -0.0778 0.9192 -0.3859
vn -0.0520 0.6376 -0.7686
vn -0.1852 0.2918 -0.9384
vn 0.1191 -0.2396 -0.9635
vn 0.0073 -0.4767 -0.8791
vn -0.0796 -0.6064 -0.7912
vn -0.0033 -0.6983 -0.7158
vn -0.0000 -0.7641 -0.6451
vt 0.750000 0.437500
vt 0.718750 0.375000
vt 0.750000 0.375000
vt 0.750000 0.812500
vt 0.718750 0.875000
vt 0.718750 0.812500
vt 0.718750 0.312500
vt 0.750000 0.312500
vt 0.718750 0.750000
vt 0.750000 0.750000
vt 0.750000 0.250000
vt 0.718750 0.250000
vt 0.718750 0.687500
vt 0.750000 0.687500
vt 0.750000 0.187500
vt 0.718750 0.187500
vt 0.750000 0.625000
vt 0.718750 0.625000
vt 0.718750 0.125000
vt 0.750000 0.125000
vt 0.718750 0.562500
vt 0.750000 0.562500
vt 0.718750 0.062500
vt 0.750000 0.062500
vt 0.718750 0.500000
vt 0.750000 0.500000
vt 0.750000 0.937500
vt 0.734375 1.000000
vt 0.718750 0.937500
vt 0.734375 0.000000
vt 0.718750 0.437500
vt 0.750000 0.875000
vt 0.687500 0.437500
vt 0.687500 0.875000
vt 0.687500 0.375000
vt 0.687500 0.812500
vt 0.687500 0.312500
vt 0.687500 0.750000
vt 0.687500 0.250000
vt 0.687500 0.687500
vt 0.687500 0.187500
vt 0.687500 0.625000
vt 0.687500 0.125000
vt 0.687500 0.562500
vt 0.687500 0.062500
vt 0.687500 0.500000
vt 0.703125 1.000000
vt 0.687500 0.937500
vt 0.703125 0.000000
vt 0.656250 0.187500
vt 0.656250 0.625000
vt 0.656250 0.125000
vt 0.656250 0.562500
vt 0.656250 0.062500
vt 0.656250 0.500000
vt 0.671875 1.000000
vt 0.656250 0.937500
vt 0.671875 0.000000
vt 0.656250 0.437500
vt 0.656250 0.875000
vt 0.656250 0.375000
vt 0.656250 0.812500
vt 0.656250 0.312500
vt 0.656250 0.750000
vt 0.656250 0.250000
vt 0.656250 0.687500
vt 0.625000 0.875000
vt 0.625000 0.437500
vt 0.625000 0.375000
vt 0.625000 0.812500
vt 0.625000 0.312500
vt 0.625000 0.750000
vt 0.625000 0.250000
vt 0.625000 0.687500
vt 0.625000 0.187500
vt 0.625000 0.625000
vt 0.625000 0.125000
vt 0.625000 0.562500
vt 0.625000 0.062500
vt 0.625000 0.500000
vt 0.640625 1.000000
vt 0.625000 0.937500
vt 0.640625 0.000000
vt 0.593750 0.625000
vt 0.593750 0.187500
vt 0.593750 0.125000
vt 0.593750 0.562500
vt 0.593750 0.062500
vt 0.593750 0.500000
vt 0.609375 1.000000
vt 0.593750 0.937500
vt 0.609375 0.000000
vt 0.593750 0.437500
vt 0.593750 0.875000
vt 0.593750 0.375000
vt 0.593750 0.812500
vt 0.593750 0.312500
vt 0.593750 0.750000
vt 0.593750 0.250000
vt 0.593750 0.687500
vt 0.562500 0.375000
vt 0.562500 0.875000
vt 0.562500 0.812500
vt 0.562500 0.312500
vt 0.562500 0.750000
vt 0.562500 0.250000
vt 0.562500 0.687500
vt 0.562500 0.187500
vt 0.562500 0.625000
vt 0.562500 0.125000
vt 0.562500 0.562500
vt 0.562500 0.062500
vt 0.562500 0.500000
vt 0.578125 1.000000
vt 0.562500 0.937500
vt 0.578125 0.000000
vt 0.562500 0.437500
vt 0.531250 0.187500
vt 0.531250 0.125000
vt 0.531250 0.562500
vt 0.531250 0.062500
vt 0.531250 0.500000
vt 0.546875 1.000000
vt 0.531250 0.937500
vt 0.546875 0.000000
vt 0.531250 0.437500
vt 0.531250 0.875000
vt 0.531250 0.375000
vt 0.531250 0.812500
vt 0.531250 0.312500
vt 0.531250 0.750000
vt 0.531250 0.250000
vt 0.531250 0.687500
vt 0.531250 0.625000
vt 0.500000 0.312500
vt 0.500000 0.812500
vt 0.500000 0.750000
vt 0.500000 0.250000
vt 0.500000 0.687500
vt 0.500000 0.187500
vt 0.500000 0.625000
vt 0.500000 0.125000
vt 0.500000 0.562500
vt 0.500000 0.062500
vt 0.500000 0.500000
vt 0.515625 1.000000
vt 0.500000 0.937500
vt 0.515625 0.000000
vt 0.500000 0.437500
vt 0.500000 0.875000
vt 0.500000 0.375000
vt 0.468750 0.062500
vt 0.468750 0.500000
vt 0.484375 1.000000
vt 0.468750 0.937500
vt 0.484375 0.000000
vt 0.468750 0.437500
vt 0.468750 0.875000
vt 0.468750 0.375000
vt 0.468750 0.812500
vt 0.468750 0.312500
vt 0.468750 0.750000
vt 0.468750 0.250000
vt 0.468750 0.687500
vt 0.468750 0.187500
vt 0.468750 0.625000
vt 0.468750 0.125000
vt 0.468750 0.562500
vt 0.437500 0.750000
vt 0.437500 0.250000
vt 0.437500 0.687500
vt 0.437500 0.187500
vt 0.437500 0.625000
vt 0.437500 0.125000
vt 0.437500 0.562500
vt 0.437500 0.062500
vt 0.437500 0.500000
vt 0.453125 1.000000
vt 0.437500 0.937500
vt 0.453125 0.000000
vt 0.437500 0.437500
vt 0.437500 0.875000
vt 0.437500 0.375000
vt 0.437500 0.812500
vt 0.437500 0.312500
vt 0.406250 0.500000
vt 0.421875 1.000000
vt 0.406250 0.937500
vt 0.421875 0.000000
vt 0.406250 0.062500
vt 0.406250 0.437500
vt 0.406250 0.875000
vt 0.406250 0.375000
vt 0.406250 0.812500
vt 0.406250 0.312500
vt 0.406250 0.750000
vt 0.406250 0.250000
vt 0.406250 0.687500
vt 0.406250 0.187500
vt 0.406250 0.625000
vt 0.406250 0.125000
vt 0.406250 0.562500
vt 0.375000 0.312500
vt 0.375000 0.250000
vt 0.375000 0.750000
vt 0.375000 0.687500
vt 0.375000 0.187500
vt 0.375000 0.625000
vt 0.375000 0.125000
vt 0.375000 0.562500
vt 0.375000 0.062500
vt 0.375000 0.500000
vt 0.390625 1.000000
vt 0.375000 0.937500
vt 0.390625 0.000000
vt 0.375000 0.437500
vt 0.375000 0.875000
vt 0.375000 0.375000
vt 0.375000 0.812500
vt 0.359375 1.000000
vt 0.343750 0.937500
vt 0.359375 0.000000
vt 0.343750 0.062500
vt 0.343750 0.500000
vt 0.343750 0.437500
vt 0.343750 0.875000
vt 0.343750 0.375000
vt 0.343750 0.812500
vt 0.343750 0.312500
vt 0.343750 0.750000
vt 0.343750 0.250000
vt 0.343750 0.687500
vt 0.343750 0.187500
vt 0.343750 0.625000
vt 0.343750 0.125000
vt 0.343750 0.562500
vt 0.312500 0.750000
vt 0.312500 0.687500
vt 0.312500 0.187500
vt 0.312500 0.625000
vt 0.312500 0.125000
vt 0.312500 0.562500
vt 0.312500 0.062500
vt 0.312500 0.500000
vt 0.328125 1.000000
vt 0.312500 0.937500
vt 0.328125 0.000000
vt 0.312500 0.437500
vt 0.312500 0.875000
vt 0.312500 0.375000
vt 0.312500 0.812500
vt 0.312500 0.312500
vt 0.312500 0.250000
vt 0.281250 0.437500
vt 0.281250 0.937500
vt 0.281250 0.875000
vt 0.281250 0.375000
vt 0.281250 0.812500
vt 0.281250 0.312500
vt 0.281250 0.750000
vt 0.281250 0.250000
vt 0.281250 0.687500
vt 0.281250 0.187500
vt 0.281250 0.625000
vt 0.281250 0.125000
vt 0.281250 0.562500
vt 0.281250 0.062500
vt 0.281250 0.500000
vt 0.296875 1.000000
vt 0.296875 0.000000
vt 0.250000 0.187500
vt 0.250000 0.625000
vt 0.250000 0.125000
vt 0.250000 0.562500
vt 0.250000 0.062500
vt 0.250000 0.500000
vt 0.265625 1.000000
vt 0.250000 0.937500
vt 0.265625 0.000000
vt 0.250000 0.437500
vt 0.250000 0.875000
vt 0.250000 0.375000
vt 0.250000 0.812500
vt 0.250000 0.312500
vt 0.250000 0.750000
vt 0.250000 0.250000
vt 0.250000 0.687500
vt 0.218750 0.437500
vt 0.218750 0.375000
vt 0.218750 0.812500
vt 0.218750 0.312500
vt 0.218750 0.750000
vt 0.218750 0.250000
vt 0.218750 0.687500
vt 0.218750 0.187500
vt 0.218750 0.625000
vt 0.218750 0.125000
vt 0.218750 0.562500
vt 0.218750 0.062500
vt 0.218750 0.500000
vt 0.234375 1.000000
vt 0.218750 0.937500
vt 0.234375 0.000000
vt 0.218750 0.875000
vt 0.187500 0.187500
vt 0.187500 0.125000
vt 0.187500 0.562500
vt 0.187500 0.062500
vt 0.187500 0.500000
vt 0.203125 1.000000
vt 0.187500 0.937500
vt 0.203125 0.000000
vt 0.187500 0.437500
vt 0.187500 0.875000
vt 0.187500 0.375000
vt 0.187500 0.812500
vt 0.187500 0.312500
vt 0.187500 0.750000
vt 0.187500 0.250000
vt 0.187500 0.687500
vt 0.187500 0.625000
vt 0.156250 0.875000
vt 0.156250 0.812500
vt 0.156250 0.375000
vt 0.156250 0.312500
vt 0.156250 0.750000
vt 0.156250 0.250000
vt 0.156250 0.687500
vt 0.156250 0.187500
vt 0.156250 0.625000
vt 0.156250 0.125000
vt 0.156250 0.562500
vt 0.156250 0.062500
vt 0.156250 0.500000
vt 0.171875 1.000000
vt 0.156250 0.937500
vt 0.171875 0.000000
vt 0.156250 0.437500
vt 0.125000 0.562500
vt 0.125000 0.125000
vt 0.125000 0.062500
vt 0.125000 0.500000
vt 0.140625 1.000000
vt 0.125000 0.937500
vt 0.140625 0.000000
vt 0.125000 0.437500
vt 0.125000 0.875000
vt 0.125000 0.375000
vt 0.125000 0.812500
vt 0.125000 0.312500
vt 0.125000 0.750000
vt 0.125000 0.250000
vt 0.125000 0.687500
vt 0.125000 0.187500
vt 0.125000 0.625000
vt 0.093750 0.312500
vt 0.093750 0.812500
vt 0.093750 0.750000
vt 0.093750 0.250000
vt 0.093750 0.687500
vt 0.093750 0.187500
vt 0.093750 0.625000
vt 0.093750 0.125000
vt 0.093750 0.562500
vt 0.093750 0.062500
vt 0.093750 0.500000
vt 0.109375 1.000000
vt 0.093750 0.937500
vt 0.109375 0.000000
vt 0.093750 0.437500
vt 0.093750 0.875000
vt 0.093750 0.375000
vt 0.062500 0.062500
vt 0.062500 0.500000
vt 0.078125 1.000000
vt 0.062500 0.937500
vt 0.078125 0.000000
vt 0.062500 0.437500
vt 0.062500 0.875000
vt 0.062500 0.375000
vt 0.062500 0.812500
vt 0.062500 0.312500
vt 0.062500 0.750000
vt 0.062500 0.250000
vt 0.062500 0.687500
vt 0.062500 0.187500
vt 0.062500 0.625000
vt 0.062500 0.125000
vt 0.062500 0.562500
vt 0.031250 0.750000
vt 0.031250 0.250000
vt 0.031250 0.687500
vt 0.031250 0.187500
vt 0.031250 0.625000
vt 0.031250 0.125000
vt 0.031250 0.562500
vt 0.031250 0.062500
vt 0.031250 0.500000
vt 0.046875 1.000000
vt 0.031250 0.937500
vt 0.046875 0.000000
vt 0.031250 0.437500
vt 0.031250 0.875000
vt 0.031250 0.375000
vt 0.031250 0.812500
vt 0.031250 0.312500
vt 0.000000 0.562500
vt 0.000000 0.500000
vt 0.015625 1.000000
vt 0.000000 0.937500
vt 0.015625 0.000000
vt 0.000000 0.062500
vt 0.000000 0.437500
vt 0.000000 0.875000
vt 0.000000 0.375000
vt 0.000000 0.812500
vt 0.000000 0.312500
vt 0.000000 0.750000
vt 0.000000 0.250000
vt 0.000000 0.687500
vt 0.000000 0.187500
vt 0.000000 0.625000
vt 0.000000 0.125000
vt 1.000000 0.312500
vt 0.968750 0.250000
vt 1.000000 0.250000
vt 1.000000 0.687500
vt 0.968750 0.750000
vt 0.968750 0.687500
vt 0.968750 0.187500
vt 1.000000 0.187500
vt 1.000000 0.625000
vt 0.968750 0.625000
vt 1.000000 0.125000
vt 0.968750 0.125000
vt 0.968750 0.562500
vt 1.000000 0.562500
vt 0.968750 0.062500
vt 1.000000 0.062500
vt 1.000000 0.500000
vt 0.968750 0.500000
vt 1.000000 0.937500
vt 0.984375 1.000000
vt 0.968750 0.937500
vt 0.984375 0.000000
vt 0.968750 0.437500
vt 1.000000 0.437500
vt 1.000000 0.875000
vt 0.968750 0.875000
vt 0.968750 0.375000
vt 1.000000 0.375000
vt 0.968750 0.812500
vt 1.000000 0.812500
vt 0.968750 0.312500
vt 1.000000 0.750000
vt 0.953125 0.000000
vt 0.937500 0.062500
vt 0.937500 0.500000
vt 0.937500 0.437500
vt 0.937500 0.937500
vt 0.937500 0.875000
vt 0.937500 0.375000
vt 0.937500 0.812500
vt 0.937500 0.312500
vt 0.937500 0.750000
vt 0.937500 0.250000
vt 0.937500 0.687500
vt 0.937500 0.187500
vt 0.937500 0.625000
vt 0.937500 0.125000
vt 0.937500 0.562500
vt 0.953125 1.000000
vt 0.906250 0.250000
vt 0.906250 0.187500
vt 0.906250 0.687500
vt 0.906250 0.625000
vt 0.906250 0.125000
vt 0.906250 0.562500
vt 0.906250 0.062500
vt 0.906250 0.500000
vt 0.921875 1.000000
vt 0.906250 0.937500
vt 0.921875 0.000000
vt 0.906250 0.437500
vt 0.906250 0.875000
vt 0.906250 0.375000
vt 0.906250 0.812500
vt 0.906250 0.312500
vt 0.906250 0.750000
vt 0.875000 0.937500
vt 0.875000 0.875000
vt 0.875000 0.437500
vt 0.875000 0.375000
vt 0.875000 0.812500
vt 0.875000 0.312500
vt 0.875000 0.750000
vt 0.875000 0.250000
vt 0.875000 0.687500
vt 0.875000 0.187500
vt 0.875000 0.625000
vt 0.875000 0.125000
vt 0.875000 0.562500
vt 0.875000 0.062500
vt 0.875000 0.500000
vt 0.890625 1.000000
vt 0.890625 0.000000
vt 0.843750 0.625000
vt 0.843750 0.125000
vt 0.843750 0.562500
vt 0.843750 0.062500
vt 0.843750 0.500000
vt 0.859375 1.000000
vt 0.843750 0.937500
vt 0.859375 0.000000
vt 0.843750 0.437500
vt 0.843750 0.875000
vt 0.843750 0.375000
vt 0.843750 0.812500
vt 0.843750 0.312500
vt 0.843750 0.750000
vt 0.843750 0.250000
vt 0.843750 0.687500
vt 0.843750 0.187500
vt 0.812500 0.375000
vt 0.812500 0.812500
vt 0.812500 0.312500
vt 0.812500 0.750000
vt 0.812500 0.250000
vt 0.812500 0.687500
vt 0.812500 0.187500
vt 0.812500 0.625000
vt 0.812500 0.125000
vt 0.812500 0.562500
vt 0.812500 0.062500
vt 0.812500 0.500000
vt 0.828125 1.000000
vt 0.812500 0.937500
vt 0.828125 0.000000
vt 0.812500 0.437500
vt 0.812500 0.875000
vt 0.781250 0.187500
vt 0.781250 0.125000
vt 0.781250 0.562500
vt 0.781250 0.062500
vt 0.781250 0.500000
vt 0.796875 1.000000
vt 0.781250 0.937500
vt 0.796875 0.000000
vt 0.781250 0.437500
vt 0.781250 0.875000
vt 0.781250 0.375000
vt 0.781250 0.812500
vt 0.781250 0.312500
vt 0.781250 0.750000
vt 0.781250 0.250000
vt 0.781250 0.687500
vt 0.781250 0.625000
vt 0.765625 1.000000
vt 0.765625 0.000000
s 1
usemtl Material
f 5/1/5 16/2/16 478/3/478
f 1/4/1 8/5/8 9/6/9
f 478/3/478 17/7/17 6/8/6
f 1/4/1 10/9/10 476/10/476
f 479/11/479 17/7/17 18/12/18
f 476/10/476 11/13/11 2/14/2
f 480/15/480 18/12/18 19/16/19
f 477/17/477 11/13/11 12/18/12
f 480/15/480 20/19/20 481/20/481
f 477/17/477 13/21/13 3/22/3
f 481/20/481 21/23/21 482/24/482
f 3/22/3 14/25/14 4/26/4
f 474/27/474 82/28/82 7/29/7
f 308/30/308 482/24/482 21/23/21
f 5/1/5 14/25/14 15/31/15
f 475/32/475 7/29/7 8/5/8
f 14/25/14 30/33/30 15/31/15
f 7/29/7 23/34/23 8/5/8
f 16/2/16 30/33/30 31/35/31
f 9/6/9 23/34/23 24/36/24
f 16/2/16 32/37/32 17/7/17
f 10/9/10 24/36/24 25/38/25
f 17/7/17 33/39/33 18/12/18
f 11/13/11 25/38/25 26/40/26
f 19/16/19 33/39/33 34/41/34
f 11/13/11 27/42/27 12/18/12
f 20/19/20 34/41/34 35/43/35
f 13/21/13 27/42/27 28/44/28
f 20/19/20 36/45/36 21/23/21
f 14/25/14 28/44/28 29/46/29
f 7/29/7 82/47/82 22/48/22
f 308/49/308 21/23/21 36/45/36
f 33/39/33 49/50/49 34/41/34
f 26/40/26 42/51/42 27/42/27
f 35/43/35 49/50/49 50/52/50
f 28/44/28 42/51/42 43/53/43
f 36/45/36 50/52/50 51/54/51
f 28/44/28 44/55/44 29/46/29
f 22/48/22 82/56/82 37/57/37
f 308/58/308 36/45/36 51/54/51
f 30/33/30 44/55/44 45/59/45
f 22/48/22 38/60/38 23/34/23
f 31/35/31 45/59/45 46/61/46
f 23/34/23 39/62/39 24/36/24
f 31/35/31 47/63/47 32/37/32
f 25/38/25 39/62/39 40/64/40
f 32/37/32 48/65/48 33/39/33
f 26/40/26 40/64/40 41/66/41
f 37/57/37 53/67/53 38/60/38
f 46/61/46 60/68/60 61/69/61
f 38/60/38 54/70/54 39/62/39
f 46/61/46 62/71/62 47/63/47
f 40/64/40 54/70/54 55/72/55
f 47/63/47 63/73/63 48/65/48
f 41/66/41 55/72/55 56/74/56
f 48/65/48 64/75/64 49/50/49
f 41/66/41 57/76/57 42/51/42
f 49/50/49 65/77/65 50/52/50
f 43/53/43 57/76/57 58/78/58
f 51/54/51 65/77/65 66/79/66
f 43/53/43 59/80/59 44/55/44
f 37/57/37 82/81/82 52/82/52
f 308/83/308 51/54/51 66/79/66
f 45/59/45 59/80/59 60/68/60
f 56/74/56 72/84/72 57/76/57
f 65/77/65 79/85/79 80/86/80
f 57/76/57 73/87/73 58/78/58
f 66/79/66 80/86/80 81/88/81
f 59/80/59 73/87/73 74/89/74
f 52/82/52 82/90/82 67/91/67
f 308/92/308 66/79/66 81/88/81
f 59/80/59 75/93/75 60/68/60
f 52/82/52 68/94/68 53/67/53
f 60/68/60 76/95/76 61/69/61
f 53/67/53 69/96/69 54/70/54
f 62/71/62 76/95/76 77/97/77
f 55/72/55 69/96/69 70/98/70
f 63/73/63 77/97/77 78/99/78
f 55/72/55 71/100/71 56/74/56
f 64/75/64 78/99/78 79/85/79
f 75/93/75 92/101/92 76/95/76
f 69/96/69 84/102/84 85/103/85
f 77/97/77 92/101/92 93/104/93
f 69/96/69 86/105/86 70/98/70
f 78/99/78 93/104/93 94/106/94
f 70/98/70 87/107/87 71/100/71
f 78/99/78 95/108/95 79/85/79
f 71/100/71 88/109/88 72/84/72
f 80/86/80 95/108/95 96/110/96
f 72/84/72 89/111/89 73/87/73
f 80/86/80 97/112/97 81/88/81
f 73/87/73 90/113/90 74/89/74
f 67/91/67 82/114/82 83/115/83
f 308/116/308 81/88/81 97/112/97
f 75/93/75 90/113/90 91/117/91
f 67/91/67 84/102/84 68/94/68
f 96/110/96 110/118/110 111/119/111
f 88/109/88 104/120/104 89/111/89
f 96/110/96 112/121/112 97/112/97
f 89/111/89 105/122/105 90/113/90
f 83/115/83 82/123/82 98/124/98
f 308/125/308 97/112/97 112/121/112
f 91/117/91 105/122/105 106/126/106
f 83/115/83 99/127/99 84/102/84
f 91/117/91 107/128/107 92/101/92
f 85/103/85 99/127/99 100/129/100
f 93/104/93 107/128/107 108/130/108
f 85/103/85 101/131/101 86/105/86
f 94/106/94 108/130/108 109/132/109
f 87/107/87 101/131/101 102/133/102
f 94/106/94 110/118/110 95/108/95
f 88/109/88 102/133/102 103/134/103
f 107/128/107 123/135/123 108/130/108
f 101/131/101 115/136/115 116/137/116
f 108/130/108 124/138/124 109/132/109
f 101/131/101 117/139/117 102/133/102
f 110/118/110 124/138/124 125/140/125
f 102/133/102 118/141/118 103/134/103
f 111/119/111 125/140/125 126/142/126
f 103/134/103 119/143/119 104/120/104
f 111/119/111 127/144/127 112/121/112
f 104/120/104 120/145/120 105/122/105
f 98/124/98 82/146/82 113/147/113
f 308/148/308 112/121/112 127/144/127
f 105/122/105 121/149/121 106/126/106
f 98/124/98 114/150/114 99/127/99
f 107/128/107 121/149/121 122/151/122
f 100/129/100 114/150/114 115/136/115
f 126/142/126 142/152/142 127/144/127
f 119/143/119 135/153/135 120/145/120
f 113/147/113 82/154/82 128/155/128
f 308/156/308 127/144/127 142/152/142
f 120/145/120 136/157/136 121/149/121
f 113/147/113 129/158/129 114/150/114
f 122/151/122 136/157/136 137/159/137
f 115/136/115 129/158/129 130/160/130
f 123/135/123 137/159/137 138/161/138
f 116/137/116 130/160/130 131/162/131
f 123/135/123 139/163/139 124/138/124
f 116/137/116 132/164/132 117/139/117
f 125/140/125 139/163/139 140/165/140
f 117/139/117 133/166/133 118/141/118
f 126/142/126 140/165/140 141/167/141
f 119/143/119 133/166/133 134/168/134
f 130/160/130 146/169/146 131/162/131
f 138/161/138 154/170/154 139/163/139
f 132/164/132 146/169/146 147/171/147
f 140/165/140 154/170/154 155/172/155
f 132/164/132 148/173/148 133/166/133
f 140/165/140 156/174/156 141/167/141
f 134/168/134 148/173/148 149/175/149
f 141/167/141 157/176/157 142/152/142
f 134/168/134 150/177/150 135/153/135
f 128/155/128 82/178/82 143/179/143
f 308/180/308 142/152/142 157/176/157
f 135/153/135 151/181/151 136/157/136
f 128/155/128 144/182/144 129/158/129
f 136/157/136 152/183/152 137/159/137
f 130/160/130 144/182/144 145/184/145
f 138/161/138 152/183/152 153/185/153
f 149/175/149 165/186/165 150/177/150
f 143/179/143 82/187/82 158/188/158
f 308/189/308 157/176/157 172/190/172
f 151/181/151 165/186/165 166/191/166
f 143/179/143 159/192/159 144/182/144
f 152/183/152 166/191/166 167/193/167
f 144/182/144 160/194/160 145/184/145
f 153/185/153 167/193/167 168/195/168
f 145/184/145 161/196/161 146/169/146
f 154/170/154 168/195/168 169/197/169
f 147/171/147 161/196/161 162/198/162
f 154/170/154 170/199/170 155/172/155
f 148/173/148 162/198/162 163/200/163
f 155/172/155 171/201/171 156/174/156
f 149/175/149 163/200/163 164/202/164
f 157/176/157 171/201/171 172/190/172
f 169/197/169 183/203/183 184/204/184
f 162/198/162 176/205/176 177/206/177
f 169/197/169 185/207/185 170/199/170
f 162/198/162 178/208/178 163/200/163
f 171/201/171 185/207/185 186/209/186
f 163/200/163 179/210/179 164/202/164
f 172/190/172 186/209/186 187/211/187
f 165/186/165 179/210/179 180/212/180
f 158/188/158 82/213/82 173/214/173
f 308/215/308 172/190/172 187/211/187
f 166/191/166 180/212/180 181/216/181
f 158/188/158 174/217/174 159/192/159
f 166/191/166 182/218/182 167/193/167
f 159/192/159 175/219/175 160/194/160
f 167/193/167 183/203/183 168/195/168
f 161/196/161 175/219/175 176/205/176
f 173/214/173 82/220/82 188/221/188
f 308/222/308 187/211/187 202/223/202
f 181/216/181 195/224/195 196/225/196
f 173/214/173 189/226/189 174/217/174
f 181/216/181 197/227/197 182/218/182
f 174/217/174 190/228/190 175/219/175
f 182/218/182 198/229/198 183/203/183
f 176/205/176 190/228/190 191/230/191
f 183/203/183 199/231/199 184/204/184
f 177/206/177 191/230/191 192/232/192
f 184/204/184 200/233/200 185/207/185
f 177/206/177 193/234/193 178/208/178
f 186/209/186 200/233/200 201/235/201
f 178/208/178 194/236/194 179/210/179
f 187/211/187 201/235/201 202/223/202
f 180/212/180 194/236/194 195/224/195
f 192/232/192 206/237/206 207/238/207
f 199/231/199 215/239/215 200/233/200
f 193/234/193 207/238/207 208/240/208
f 200/233/200 216/241/216 201/235/201
f 193/234/193 209/242/209 194/236/194
f 202/223/202 216/241/216 217/243/217
f 194/236/194 210/244/210 195/224/195
f 188/221/188 82/245/82 203/246/203
f 308/247/308 202/223/202 217/243/217
f 195/224/195 211/248/211 196/225/196
f 188/221/188 204/249/204 189/226/189
f 197/227/197 211/248/211 212/250/212
f 189/226/189 205/251/205 190/228/190
f 197/227/197 213/252/213 198/229/198
f 190/228/190 206/237/206 191/230/191
f 198/229/198 214/253/214 199/231/199
f 210/244/210 226/254/226 211/248/211
f 204/249/204 218/255/218 219/256/219
f 211/248/211 227/257/227 212/250/212
f 205/251/205 219/256/219 220/258/220
f 213/252/213 227/257/227 228/259/228
f 205/251/205 221/260/221 206/237/206
f 214/253/214 228/259/228 229/261/229
f 206/237/206 222/262/222 207/238/207
f 214/253/214 230/263/230 215/239/215
f 207/238/207 223/264/223 208/240/208
f 215/239/215 231/265/231 216/241/216
f 209/242/209 223/264/223 224/266/224
f 216/241/216 232/267/232 217/243/217
f 209/242/209 225/268/225 210/244/210
f 203/246/203 82/269/82 218/255/218
f 308/270/308 217/243/217 232/267/232
f 229/261/229 245/271/245 230/263/230
f 222/262/222 238/272/238 223/264/223
f 230/263/230 246/273/246 231/265/231
f 224/266/224 238/272/238 239/274/239
f 231/265/231 247/275/247 232/267/232
f 225/268/225 239/274/239 240/276/240
f 218/255/218 82/277/82 233/278/233
f 308/279/308 232/267/232 247/275/247
f 225/268/225 241/280/241 226/254/226
f 219/256/219 233/278/233 234/281/234
f 226/254/226 242/282/242 227/257/227
f 219/256/219 235/283/235 220/258/220
f 227/257/227 243/284/243 228/259/228
f 220/258/220 236/285/236 221/260/221
f 229/261/229 243/284/243 244/286/244
f 221/260/221 237/287/237 222/262/222
f 242/282/242 256/288/256 257/289/257
f 234/281/234 250/290/250 235/283/235
f 242/282/242 258/291/258 243/284/243
f 235/283/235 251/292/251 236/285/236
f 243/284/243 259/293/259 244/286/244
f 237/287/237 251/292/251 252/294/252
f 244/286/244 260/295/260 245/271/245
f 238/272/238 252/294/252 253/296/253
f 245/271/245 261/297/261 246/273/246
f 239/274/239 253/296/253 254/298/254
f 247/275/247 261/297/261 262/299/262
f 240/276/240 254/298/254 255/300/255
f 233/278/233 82/301/82 248/302/248
f 308/303/308 247/275/247 262/299/262
f 240/276/240 256/288/256 241/280/241
f 233/278/233 249/304/249 234/281/234
f 261/297/261 275/305/275 276/306/276
f 253/296/253 269/307/269 254/298/254
f 262/299/262 276/306/276 277/308/277
f 254/298/254 270/309/270 255/300/255
f 248/302/248 82/310/82 263/311/263
f 308/312/308 262/299/262 277/308/277
f 256/288/256 270/309/270 271/313/271
f 248/302/248 264/314/264 249/304/249
f 257/289/257 271/313/271 272/315/272
f 249/304/249 265/316/265 250/290/250
f 257/289/257 273/317/273 258/291/258
f 251/292/251 265/316/265 266/318/266
f 258/291/258 274/319/274 259/293/259
f 252/294/252 266/318/266 267/320/267
f 260/295/260 274/319/274 275/305/275
f 253/296/253 267/320/267 268/321/268
f 265/316/265 279/322/279 280/323/280
f 273/317/273 287/324/287 288/325/288
f 266/318/266 280/323/280 281/326/281
f 273/317/273 289/327/289 274/319/274
f 267/320/267 281/326/281 282/328/282
f 275/305/275 289/327/289 290/329/290
f 267/320/267 283/330/283 268/321/268
f 276/306/276 290/329/290 291/331/291
f 268/321/268 284/332/284 269/307/269
f 277/308/277 291/331/291 292/333/292
f 269/307/269 285/334/285 270/309/270
f 263/311/263 82/335/82 278/336/278
f 308/337/308 277/308/277 292/333/292
f 271/313/271 285/334/285 286/338/286
f 263/311/263 279/322/279 264/314/264
f 271/313/271 287/324/287 272/315/272
f 283/330/283 299/339/299 284/332/284
f 292/333/292 306/340/306 307/341/307
f 285/334/285 299/339/299 300/342/300
f 278/336/278 82/343/82 293/344/293
f 308/345/308 292/333/292 307/341/307
f 286/338/286 300/342/300 301/346/301
f 278/336/278 294/347/294 279/322/279
f 286/338/286 302/348/302 287/324/287
f 280/323/280 294/347/294 295/349/295
f 287/324/287 303/350/303 288/325/288
f 281/326/281 295/349/295 296/351/296
f 288/325/288 304/352/304 289/327/289
f 281/326/281 297/353/297 282/328/282
f 290/329/290 304/352/304 305/354/305
f 282/328/282 298/355/298 283/330/283
f 291/331/291 305/354/305 306/340/306
f 302/348/302 319/356/319 303/350/303
f 296/351/296 311/357/311 312/358/312
f 304/352/304 319/356/319 320/359/320
f 297/353/297 312/358/312 313/360/313
f 304/352/304 321/361/321 305/354/305
f 297/353/297 314/362/314 298/355/298
f 305/354/305 322/363/322 306/340/306
f 298/355/298 315/364/315 299/339/299
f 306/340/306 323/365/323 307/341/307
f 300/342/300 315/364/315 316/366/316
f 293/344/293 82/367/82 309/368/309
f 308/369/308 307/341/307 323/365/323
f 301/346/301 316/366/316 317/370/317
f 294/347/294 309/368/309 310/371/310
f 302/348/302 317/370/317 318/372/318
f 295/349/295 310/371/310 311/357/311
f 322/363/322 338/373/338 323/365/323
f 315/364/315 331/374/331 316/366/316
f 309/368/309 82/375/82 324/376/324
f 308/377/308 323/365/323 338/373/338
f 316/366/316 332/378/332 317/370/317
f 310/371/310 324/376/324 325/379/325
f 318/372/318 332/378/332 333/380/333
f 311/357/311 325/379/325 326/381/326
f 318/372/318 334/382/334 319/356/319
f 312/358/312 326/381/326 327/383/327
f 320/359/320 334/382/334 335/384/335
f 312/358/312 328/385/328 313/360/313
f 320/359/320 336/386/336 321/361/321
f 314/362/314 328/385/328 329/387/329
f 321/361/321 337/388/337 322/363/322
f 315/364/315 329/387/329 330/389/330
f 326/381/326 342/390/342 327/383/327
f 334/382/334 350/391/350 335/384/335
f 327/383/327 343/392/343 328/385/328
f 336/386/336 350/391/350 351/393/351
f 329/387/329 343/392/343 344/394/344
f 337/388/337 351/393/351 352/395/352
f 330/389/330 344/394/344 345/396/345
f 338/373/338 352/395/352 353/397/353
f 330/389/330 346/398/346 331/374/331
f 324/376/324 82/399/82 339/400/339
f 308/401/308 338/373/338 353/397/353
f 331/374/331 347/402/347 332/378/332
f 325/379/325 339/400/339 340/403/340
f 332/378/332 348/404/348 333/380/333
f 326/381/326 340/403/340 341/405/341
f 334/382/334 348/404/348 349/406/349
f 346/398/346 360/407/360 361/408/361
f 339/400/339 82/409/82 354/410/354
f 308/411/308 353/397/353 368/412/368
f 346/398/346 362/413/362 347/402/347
f 340/403/340 354/410/354 355/414/355
f 347/402/347 363/415/363 348/404/348
f 340/403/340 356/416/356 341/405/341
f 349/406/349 363/415/363 364/417/364
f 341/405/341 357/418/357 342/390/342
f 349/406/349 365/419/365 350/391/350
f 343/392/343 357/418/357 358/420/358
f 350/391/350 366/421/366 351/393/351
f 344/394/344 358/420/358 359/422/359
f 352/395/352 366/421/366 367/423/367
f 345/396/345 359/422/359 360/407/360
f 353/397/353 367/423/367 368/412/368
f 364/424/364 380/425/380 365/426/365
f 358/427/358 372/428/372 373/429/373
f 365/426/365 381/430/381 366/431/366
f 359/432/359 373/429/373 374/433/374
f 367/434/367 381/430/381 382/435/382
f 359/432/359 375/436/375 360/437/360
f 367/434/367 383/438/383 368/439/368
f 361/440/361 375/436/375 376/441/376
f 354/442/354 82/443/82 369/444/369
f 308/445/308 368/439/368 383/438/383
f 361/440/361 377/446/377 362/447/362
f 355/448/355 369/444/369 370/449/370
f 362/447/362 378/450/378 363/451/363
f 355/448/355 371/452/371 356/453/356
f 364/424/364 378/450/378 379/454/379
f 356/453/356 372/428/372 357/455/357
f 308/456/308 383/438/383 398/457/398
f 377/446/377 391/458/391 392/459/392
f 370/449/370 384/460/384 385/461/385
f 377/446/377 393/462/393 378/450/378
f 370/449/370 386/463/386 371/452/371
f 378/450/378 394/464/394 379/454/379
f 371/452/371 387/465/387 372/428/372
f 380/425/380 394/464/394 395/466/395
f 373/429/373 387/465/387 388/467/388
f 380/425/380 396/468/396 381/430/381
f 374/433/374 388/467/388 389/469/389
f 381/430/381 397/470/397 382/435/382
f 374/433/374 390/471/390 375/436/375
f 382/435/382 398/457/398 383/438/383
f 375/436/375 391/458/391 376/441/376
f 369/444/369 82/472/82 384/460/384
f 396/468/396 410/473/410 411/474/411
f 389/469/389 403/475/403 404/476/404
f 397/470/397 411/474/411 412/477/412
f 390/471/390 404/476/404 405/478/405
f 398/457/398 412/477/412 413/479/413
f 390/471/390 406/480/406 391/458/391
f 384/460/384 82/481/82 399/482/399
f 308/483/308 398/457/398 413/479/413
f 392/459/392 406/480/406 407/484/407
f 385/461/385 399/482/399 400/485/400
f 393/462/393 407/484/407 408/486/408
f 385/461/385 401/487/401 386/463/386
f 393/462/393 409/488/409 394/464/394
f 386/463/386 402/489/402 387/465/387
f 395/466/395 409/488/409 410/473/410
f 387/465/387 403/475/403 388/467/388
f 400/485/400 414/490/414 415/491/415
f 408/486/408 422/492/422 423/493/423
f 400/485/400 416/494/416 401/487/401
f 408/486/408 424/495/424 409/488/409
f 401/487/401 417/496/417 402/489/402
f 409/488/409 425/497/425 410/473/410
f 402/489/402 418/498/418 403/475/403
f 411/474/411 425/497/425 426/499/426
f 404/476/404 418/498/418 419/500/419
f 411/474/411 427/501/427 412/477/412
f 405/478/405 419/500/419 420/502/420
f 413/479/413 427/501/427 428/503/428
f 405/478/405 421/504/421 406/480/406
f 399/482/399 82/505/82 414/490/414
f 308/506/308 413/479/413 428/503/428
f 406/480/406 422/492/422 407/484/407
f 418/498/418 434/507/434 419/500/419
f 426/499/426 442/508/442 427/501/427
f 419/500/419 435/509/435 420/502/420
f 428/503/428 442/508/442 443/510/443
f 421/504/421 435/509/435 436/511/436
f 414/490/414 82/512/82 429/513/429
f 308/514/308 428/503/428 443/510/443
f 421/504/421 437/515/437 422/492/422
f 415/491/415 429/513/429 430/516/430
f 422/492/422 438/517/438 423/493/423
f 415/491/415 431/518/431 416/494/416
f 424/495/424 438/517/438 439/519/439
f 417/496/417 431/518/431 432/520/432
f 425/497/425 439/519/439 440/521/440
f 417/496/417 433/522/433 418/498/418
f 425/497/425 441/523/441 426/499/426
f 437/515/437 453/524/453 438/517/438
f 430/516/430 446/525/446 431/518/431
f 439/519/439 453/524/453 454/526/454
f 431/518/431 447/527/447 432/520/432
f 440/521/440 454/526/454 455/528/455
f 433/522/433 447/527/447 448/529/448
f 440/521/440 456/530/456 441/523/441
f 433/522/433 449/531/449 434/507/434
f 441/523/441 457/532/457 442/508/442
f 434/507/434 450/533/450 435/509/435
f 442/508/442 458/534/458 443/510/443
f 435/509/435 451/535/451 436/511/436
f 429/513/429 82/536/82 444/537/444
f 308/538/308 443/510/443 458/534/458
f 436/511/436 452/539/452 437/515/437
f 430/516/430 444/537/444 445/540/445
f 457/532/457 471/541/471 472/542/472
f 449/531/449 465/543/465 450/533/450
f 457/532/457 473/544/473 458/534/458
f 451/535/451 465/543/465 466/545/466
f 444/537/444 82/546/82 459/547/459
f 308/548/308 458/534/458 473/544/473
f 451/535/451 467/549/467 452/539/452
f 445/540/445 459/547/459 460/550/460
f 453/524/453 467/549/467 468/551/468
f 445/540/445 461/552/461 446/525/446
f 453/524/453 469/553/469 454/526/454
f 446/525/446 462/554/462 447/527/447
f 454/526/454 470/555/470 455/528/455
f 448/529/448 462/554/462 463/556/463
f 455/528/455 471/541/471 456/530/456
f 449/531/449 463/556/463 464/557/464
f 461/552/461 475/32/475 1/4/1
f 468/551/468 6/8/6 469/553/469
f 461/552/461 476/10/476 462/554/462
f 470/555/470 6/8/6 479/11/479
f 462/554/462 2/14/2 463/556/463
f 471/541/471 479/11/479 480/15/480
f 464/557/464 2/14/2 477/17/477
f 471/541/471 481/20/481 472/542/472
f 464/557/464 3/22/3 465/543/465
f 472/542/472 482/24/482 473/544/473
f 465/543/465 4/26/4 466/545/466
f 459/547/459 82/558/82 474/27/474
f 308/559/308 473/544/473 482/24/482
f 467/549/467 4/26/4 5/1/5
f 460/550/460 474/27/474 475/32/475
f 467/549/467 478/3/478 468/551/468
f 5/1/5 15/31/15 16/2/16
f 1/4/1 475/32/475 8/5/8
f 478/3/478 16/2/16 17/7/17
f 1/4/1 9/6/9 10/9/10
f 479/11/479 6/8/6 17/7/17
f 476/10/476 10/9/10 11/13/11
f 480/15/480 479/11/479 18/12/18
f 477/17/477 2/14/2 11/13/11
f 480/15/480 19/16/19 20/19/20
f 477/17/477 12/18/12 13/21/13
f 481/20/481 20/19/20 21/23/21
f 3/22/3 13/21/13 14/25/14
f 5/1/5 4/26/4 14/25/14
f 475/32/475 474/27/474 7/29/7
f 14/25/14 29/46/29 30/33/30
f 7/29/7 22/48/22 23/34/23
f 16/2/16 15/31/15 30/33/30
f 9/6/9 8/5/8 23/34/23
f 16/2/16 31/35/31 32/37/32
f 10/9/10 9/6/9 24/36/24
f 17/7/17 32/37/32 33/39/33
f 11/13/11 10/9/10 25/38/25
f 19/16/19 18/12/18 33/39/33
f 11/13/11 26/40/26 27/42/27
f 20/19/20 19/16/19 34/41/34
f 13/21/13 12/18/12 27/42/27
f 20/19/20 35/43/35 36/45/36
f 14/25/14 13/21/13 28/44/28
f 33/39/33 48/65/48 49/50/49
f 26/40/26 41/66/41 42/51/42
f 35/43/35 34/41/34 49/50/49
f 28/44/28 27/42/27 42/51/42
f 36/45/36 35/43/35 50/52/50
f 28/44/28 43/53/43 44/55/44
f 30/33/30 29/46/29 44/55/44
f 22/48/22 37/57/37 38/60/38
f 31/35/31 30/33/30 45/59/45
f 23/34/23 38/60/38 39/62/39
f 31/35/31 46/61/46 47/63/47
f 25/38/25 24/36/24 39/62/39
f 32/37/32 47/63/47 48/65/48
f 26/40/26 25/38/25 40/64/40
f 37/57/37 52/82/52 53/67/53
f 46/61/46 45/59/45 60/68/60
f 38/60/38 53/67/53 54/70/54
f 46/61/46 61/69/61 62/71/62
f 40/64/40 39/62/39 54/70/54
f 47/63/47 62/71/62 63/73/63
f 41/66/41 40/64/40 55/72/55
f 48/65/48 63/73/63 64/75/64
f 41/66/41 56/74/56 57/76/57
f 49/50/49 64/75/64 65/77/65
f 43/53/43 42/51/42 57/76/57
f 51/54/51 50/52/50 65/77/65
f 43/53/43 58/78/58 59/80/59
f 45/59/45 44/55/44 59/80/59
f 56/74/56 71/100/71 72/84/72
f 65/77/65 64/75/64 79/85/79
f 57/76/57 72/84/72 73/87/73
f 66/79/66 65/77/65 80/86/80
f 59/80/59 58/78/58 73/87/73
f 59/80/59 74/89/74 75/93/75
f 52/82/52 67/91/67 68/94/68
f 60/68/60 75/93/75 76/95/76
f 53/67/53 68/94/68 69/96/69
f 62/71/62 61/69/61 76/95/76
f 55/72/55 54/70/54 69/96/69
f 63/73/63 62/71/62 77/97/77
f 55/72/55 70/98/70 71/100/71
f 64/75/64 63/73/63 78/99/78
f 75/93/75 91/117/91 92/101/92
f 69/96/69 68/94/68 84/102/84
f 77/97/77 76/95/76 92/101/92
f 69/96/69 85/103/85 86/105/86
f 78/99/78 77/97/77 93/104/93
f 70/98/70 86/105/86 87/107/87
f 78/99/78 94/106/94 95/108/95
f 71/100/71 87/107/87 88/109/88
f 80/86/80 79/85/79 95/108/95
f 72/84/72 88/109/88 89/111/89
f 80/86/80 96/110/96 97/112/97
f 73/87/73 89/111/89 90/113/90
f 75/93/75 74/89/74 90/113/90
f 67/91/67 83/115/83 84/102/84
f 96/110/96 95/108/95 110/118/110
f 88/109/88 103/134/103 104/120/104
f 96/110/96 111/119/111 112/121/112
f 89/111/89 104/120/104 105/122/105
f 91/117/91 90/113/90 105/122/105
f 83/115/83 98/124/98 99/127/99
f 91/117/91 106/126/106 107/128/107
f 85/103/85 84/102/84 99/127/99
f 93/104/93 92/101/92 107/128/107
f 85/103/85 100/129/100 101/131/101
f 94/106/94 93/104/93 108/130/108
f 87/107/87 86/105/86 101/131/101
f 94/106/94 109/132/109 110/118/110
f 88/109/88 87/107/87 102/133/102
f 107/128/107 122/151/122 123/135/123
f 101/131/101 100/129/100 115/136/115
f 108/130/108 123/135/123 124/138/124
f 101/131/101 116/137/116 117/139/117
f 110/118/110 109/132/109 124/138/124
f 102/133/102 117/139/117 118/141/118
f 111/119/111 110/118/110 125/140/125
f 103/134/103 118/141/118 119/143/119
f 111/119/111 126/142/126 127/144/127
f 104/120/104 119/143/119 120/145/120
f 105/122/105 120/145/120 121/149/121
f 98/124/98 113/147/113 114/150/114
f 107/128/107 106/126/106 121/149/121
f 100/129/100 99/127/99 114/150/114
f 126/142/126 141/167/141 142/152/142
f 119/143/119 134/168/134 135/153/135
f 120/145/120 135/153/135 136/157/136
f 113/147/113 128/155/128 129/158/129
f 122/151/122 121/149/121 136/157/136
f 115/136/115 114/150/114 129/158/129
f 123/135/123 122/151/122 137/159/137
f 116/137/116 115/136/115 130/160/130
f 123/135/123 138/161/138 139/163/139
f 116/137/116 131/162/131 132/164/132
f 125/140/125 124/138/124 139/163/139
f 117/139/117 132/164/132 133/166/133
f 126/142/126 125/140/125 140/165/140
f 119/143/119 118/141/118 133/166/133
f 130/160/130 145/184/145 146/169/146
f 138/161/138 153/185/153 154/170/154
f 132/164/132 131/162/131 146/169/146
f 140/165/140 139/163/139 154/170/154
f 132/164/132 147/171/147 148/173/148
f 140/165/140 155/172/155 156/174/156
f 134/168/134 133/166/133 148/173/148
f 141/167/141 156/174/156 157/176/157
f 134/168/134 149/175/149 150/177/150
f 135/153/135 150/177/150 151/181/151
f 128/155/128 143/179/143 144/182/144
f 136/157/136 151/181/151 152/183/152
f 130/160/130 129/158/129 144/182/144
f 138/161/138 137/159/137 152/183/152
f 149/175/149 164/202/164 165/186/165
f 151/181/151 150/177/150 165/186/165
f 143/179/143 158/188/158 159/192/159
f 152/183/152 151/181/151 166/191/166
f 144/182/144 159/192/159 160/194/160
f 153/185/153 152/183/152 167/193/167
f 145/184/145 160/194/160 161/196/161
f 154/170/154 153/185/153 168/195/168
f 147/171/147 146/169/146 161/196/161
f 154/170/154 169/197/169 170/199/170
f 148/173/148 147/171/147 162/198/162
f 155/172/155 170/199/170 171/201/171
f 149/175/149 148/173/148 163/200/163
f 157/176/157 156/174/156 171/201/171
f 169/197/169 168/195/168 183/203/183
f 162/198/162 161/196/161 176/205/176
f 169/197/169 184/204/184 185/207/185
f 162/198/162 177/206/177 178/208/178
f 171/201/171 170/199/170 185/207/185
f 163/200/163 178/208/178 179/210/179
f 172/190/172 171/201/171 186/209/186
f 165/186/165 164/202/164 179/210/179
f 166/191/166 165/186/165 180/212/180
f 158/188/158 173/214/173 174/217/174
f 166/191/166 181/216/181 182/218/182
f 159/192/159 174/217/174 175/219/175
f 167/193/167 182/218/182 183/203/183
f 161/196/161 160/194/160 175/219/175
f 181/216/181 180/212/180 195/224/195
f 173/214/173 188/221/188 189/226/189
f 181/216/181 196/225/196 197/227/197
f 174/217/174 189/226/189 190/228/190
f 182/218/182 197/227/197 198/229/198
f 176/205/176 175/219/175 190/228/190
f 183/203/183 198/229/198 199/231/199
f 177/206/177 176/205/176 191/230/191
f 184/204/184 199/231/199 200/233/200
f 177/206/177 192/232/192 193/234/193
f 186/209/186 185/207/185 200/233/200
f 178/208/178 193/234/193 194/236/194
f 187/211/187 186/209/186 201/235/201
f 180/212/180 179/210/179 194/236/194
f 192/232/192 191/230/191 206/237/206
f 199/231/199 214/253/214 215/239/215
f 193/234/193 192/232/192 207/238/207
f 200/233/200 215/239/215 216/241/216
f 193/234/193 208/240/208 209/242/209
f 202/223/202 201/235/201 216/241/216
f 194/236/194 209/242/209 210/244/210
f 195/224/195 210/244/210 211/248/211
f 188/221/188 203/246/203 204/249/204
f 197/227/197 196/225/196 211/248/211
f 189/226/189 204/249/204 205/251/205
f 197/227/197 212/250/212 213/252/213
f 190/228/190 205/251/205 206/237/206
f 198/229/198 213/252/213 214/253/214
f 210/244/210 225/268/225 226/254/226
f 204/249/204 203/246/203 218/255/218
f 211/248/211 226/254/226 227/257/227
f 205/251/205 204/249/204 219/256/219
f 213/252/213 212/250/212 227/257/227
f 205/251/205 220/258/220 221/260/221
f 214/253/214 213/252/213 228/259/228
f 206/237/206 221/260/221 222/262/222
f 214/253/214 229/261/229 230/263/230
f 207/238/207 222/262/222 223/264/223
f 215/239/215 230/263/230 231/265/231
f 209/242/209 208/240/208 223/264/223
f 216/241/216 231/265/231 232/267/232
f 209/242/209 224/266/224 225/268/225
f 229/261/229 244/286/244 245/271/245
f 222/262/222 237/287/237 238/272/238
f 230/263/230 245/271/245 246/273/246
f 224/266/224 223/264/223 238/272/238
f 231/265/231 246/273/246 247/275/247
f 225/268/225 224/266/224 239/274/239
f 225/268/225 240/276/240 241/280/241
f 219/256/219 218/255/218 233/278/233
f 226/254/226 241/280/241 242/282/242
f 219/256/219 234/281/234 235/283/235
f 227/257/227 242/282/242 243/284/243
f 220/258/220 235/283/235 236/285/236
f 229/261/229 228/259/228 243/284/243
f 221/260/221 236/285/236 237/287/237
f 242/282/242 241/280/241 256/288/256
f 234/281/234 249/304/249 250/290/250
f 242/282/242 257/289/257 258/291/258
f 235/283/235 250/290/250 251/292/251
f 243/284/243 258/291/258 259/293/259
f 237/287/237 236/285/236 251/292/251
f 244/286/244 259/293/259 260/295/260
f 238/272/238 237/287/237 252/294/252
f 245/271/245 260/295/260 261/297/261
f 239/274/239 238/272/238 253/296/253
f 247/275/247 246/273/246 261/297/261
f 240/276/240 239/274/239 254/298/254
f 240/276/240 255/300/255 256/288/256
f 233/278/233 248/302/248 249/304/249
f 261/297/261 260/295/260 275/305/275
f 253/296/253 268/321/268 269/307/269
f 262/299/262 261/297/261 276/306/276
f 254/298/254 269/307/269 270/309/270
f 256/288/256 255/300/255 270/309/270
f 248/302/248 263/311/263 264/314/264
f 257/289/257 256/288/256 271/313/271
f 249/304/249 264/314/264 265/316/265
f 257/289/257 272/315/272 273/317/273
f 251/292/251 250/290/250 265/316/265
f 258/291/258 273/317/273 274/319/274
f 252/294/252 251/292/251 266/318/266
f 260/295/260 259/293/259 274/319/274
f 253/296/253 252/294/252 267/320/267
f 265/316/265 264/314/264 279/322/279
f 273/317/273 272/315/272 287/324/287
f 266/318/266 265/316/265 280/323/280
f 273/317/273 288/325/288 289/327/289
f 267/320/267 266/318/266 281/326/281
f 275/305/275 274/319/274 289/327/289
f 267/320/267 282/328/282 283/330/283
f 276/306/276 275/305/275 290/329/290
f 268/321/268 283/330/283 284/332/284
f 277/308/277 276/306/276 291/331/291
f 269/307/269 284/332/284 285/334/285
f 271/313/271 270/309/270 285/334/285
f 263/311/263 278/336/278 279/322/279
f 271/313/271 286/338/286 287/324/287
f 283/330/283 298/355/298 299/339/299
f 292/333/292 291/331/291 306/340/306
f 285/334/285 284/332/284 299/339/299
f 286/338/286 285/334/285 300/342/300
f 278/336/278 293/344/293 294/347/294
f 286/338/286 301/346/301 302/348/302
f 280/323/280 279/322/279 294/347/294
f 287/324/287 302/348/302 303/350/303
f 281/326/281 280/323/280 295/349/295
f 288/325/288 303/350/303 304/352/304
f 281/326/281 296/351/296 297/353/297
f 290/329/290 289/327/289 304/352/304
f 282/328/282 297/353/297 298/355/298
f 291/331/291 290/329/290 305/354/305
f 302/348/302 318/372/318 319/356/319
f 296/351/296 295/349/295 311/357/311
f 304/352/304 303/350/303 319/356/319
f 297/353/297 296/351/296 312/358/312
f 304/352/304 320/359/320 321/361/321
f 297/353/297 313/360/313 314/362/314
f 305/354/305 321/361/321 322/363/322
f 298/355/298 314/362/314 315/364/315
f 306/340/306 322/363/322 323/365/323
f 300/342/300 299/339/299 315/364/315
f 301/346/301 300/342/300 316/366/316
f 294/347/294 293/344/293 309/368/309
f 302/348/302 301/346/301 317/370/317
f 295/349/295 294/347/294 310/371/310
f 322/363/322 337/388/337 338/373/338
f 315/364/315 330/389/330 331/374/331
f 316/366/316 331/374/331 332/378/332
f 310/371/310 309/368/309 324/376/324
f 318/372/318 317/370/317 332/378/332
f 311/357/311 310/371/310 325/379/325
f 318/372/318 333/380/333 334/382/334
f 312/358/312 311/357/311 326/381/326
f 320/359/320 319/356/319 334/382/334
f 312/358/312 327/383/327 328/385/328
f 320/359/320 335/384/335 336/386/336
f 314/362/314 313/360/313 328/385/328
f 321/361/321 336/386/336 337/388/337
f 315/364/315 314/362/314 329/387/329
f 326/381/326 341/405/341 342/390/342
f 334/382/334 349/406/349 350/391/350
f 327/383/327 342/390/342 343/392/343
f 336/386/336 335/384/335 350/391/350
f 329/387/329 328/385/328 343/392/343
f 337/388/337 336/386/336 351/393/351
f 330/389/330 329/387/329 344/394/344
f 338/373/338 337/388/337 352/395/352
f 330/389/330 345/396/345 346/398/346
f 331/374/331 346/398/346 347/402/347
f 325/379/325 324/376/324 339/400/339
f 332/378/332 347/402/347 348/404/348
f 326/381/326 325/379/325 340/403/340
f 334/382/334 333/380/333 348/404/348
f 346/398/346 345/396/345 360/407/360
f 346/398/346 361/408/361 362/413/362
f 340/403/340 339/400/339 354/410/354
f 347/402/347 362/413/362 363/415/363
f 340/403/340 355/414/355 356/416/356
f 349/406/349 348/404/348 363/415/363
f 341/405/341 356/416/356 357/418/357
f 349/406/349 364/417/364 365/419/365
f 343/392/343 342/390/342 357/418/357
f 350/391/350 365/419/365 366/421/366
f 344/394/344 343/392/343 358/420/358
f 352/395/352 351/393/351 366/421/366
f 345/396/345 344/394/344 359/422/359
f 353/397/353 352/395/352 367/423/367
f 364/424/364 379/454/379 380/425/380
f 358/427/358 357/455/357 372/428/372
f 365/426/365 380/425/380 381/430/381
f 359/432/359 358/427/358 373/429/373
f 367/434/367 366/431/366 381/430/381
f 359/432/359 374/433/374 375/436/375
f 367/434/367 382/435/382 383/438/383
f 361/440/361 360/437/360 375/436/375
f 361/440/361 376/441/376 377/446/377
f 355/448/355 354/442/354 369/444/369
f 362/447/362 377/446/377 378/450/378
f 355/448/355 370/449/370 371/452/371
f 364/424/364 363/451/363 378/450/378
f 356/453/356 371/452/371 372/428/372
f 377/446/377 376/441/376 391/458/391
f 370/449/370 369/444/369 384/460/384
f 377/446/377 392/459/392 393/462/393
f 370/449/370 385/461/385 386/463/386
f 378/450/378 393/462/393 394/464/394
f 371/452/371 386/463/386 387/465/387
f 380/425/380 379/454/379 394/464/394
f 373/429/373 372/428/372 387/465/387
f 380/425/380 395/466/395 396/468/396
f 374/433/374 373/429/373 388/467/388
f 381/430/381 396/468/396 397/470/397
f 374/433/374 389/469/389 390/471/390
f 382/435/382 397/470/397 398/457/398
f 375/436/375 390/471/390 391/458/391
f 396/468/396 395/466/395 410/473/410
f 389/469/389 388/467/388 403/475/403
f 397/470/397 396/468/396 411/474/411
f 390/471/390 389/469/389 404/476/404
f 398/457/398 397/470/397 412/477/412
f 390/471/390 405/478/405 406/480/406
f 392/459/392 391/458/391 406/480/406
f 385/461/385 384/460/384 399/482/399
f 393/462/393 392/459/392 407/484/407
f 385/461/385 400/485/400 401/487/401
f 393/462/393 408/486/408 409/488/409
f 386/463/386 401/487/401 402/489/402
f 395/466/395 394/464/394 409/488/409
f 387/465/387 402/489/402 403/475/403
f 400/485/400 399/482/399 414/490/414
f 408/486/408 407/484/407 422/492/422
f 400/485/400 415/491/415 416/494/416
f 408/486/408 423/493/423 424/495/424
f 401/487/401 416/494/416 417/496/417
f 409/488/409 424/495/424 425/497/425
f 402/489/402 417/496/417 418/498/418
f 411/474/411 410/473/410 425/497/425
f 404/476/404 403/475/403 418/498/418
f 411/474/411 426/499/426 427/501/427
f 405/478/405 404/476/404 419/500/419
f 413/479/413 412/477/412 427/501/427
f 405/478/405 420/502/420 421/504/421
f 406/480/406 421/504/421 422/492/422
f 418/498/418 433/522/433 434/507/434
f 426/499/426 441/523/441 442/508/442
f 419/500/419 434/507/434 435/509/435
f 428/503/428 427/501/427 442/508/442
f 421/504/421 420/502/420 435/509/435
f 421/504/421 436/511/436 437/515/437
f 415/491/415 414/490/414 429/513/429
f 422/492/422 437/515/437 438/517/438
f 415/491/415 430/516/430 431/518/431
f 424/495/424 423/493/423 438/517/438
f 417/496/417 416/494/416 431/518/431
f 425/497/425 424/495/424 439/519/439
f 417/496/417 432/520/432 433/522/433
f 425/497/425 440/521/440 441/523/441
f 437/515/437 452/539/452 453/524/453
f 430/516/430 445/540/445 446/525/446
f 439/519/439 438/517/438 453/524/453
f 431/518/431 446/525/446 447/527/447
f 440/521/440 439/519/439 454/526/454
f 433/522/433 432/520/432 447/527/447
f 440/521/440 455/528/455 456/530/456
f 433/522/433 448/529/448 449/531/449
f 441/523/441 456/530/456 457/532/457
f 434/507/434 449/531/449 450/533/450
f 442/508/442 457/532/457 458/534/458
f 435/509/435 450/533/450 451/535/451
f 436/511/436 451/535/451 452/539/452
f 430/516/430 429/513/429 444/537/444
f 457/532/457 456/530/456 471/541/471
f 449/531/449 464/557/464 465/543/465
f 457/532/457 472/542/472 473/544/473
f 451/535/451 450/533/450 465/543/465
f 451/535/451 466/545/466 467/549/467
f 445/540/445 444/537/444 459/547/459
f 453/524/453 452/539/452 467/549/467
f 445/540/445 460/550/460 461/552/461
f 453/524/453 468/551/468 469/553/469
f 446/525/446 461/552/461 462/554/462
f 454/526/454 469/553/469 470/555/470
f 448/529/448 447/527/447 462/554/462
f 455/528/455 470/555/470 471/541/471
f 449/531/449 448/529/448 463/556/463
f 461/552/461 460/550/460 475/32/475
f 468/551/468 478/3/478 6/8/6
f 461/552/461 1/4/1 476/10/476
f 470/555/470 469/553/469 6/8/6
f 462/554/462 476/10/476 2/14/2
f 471/541/471 470/555/470 479/11/479
f 464/557/464 463/556/463 2/14/2
f 471/541/471 480/15/480 481/20/481
f 464/557/464 477/17/477 3/22/3
f 472/542/472 481/20/481 482/24/482
f 465/543/465 3/22/3 4/26/4
f 467/549/467 466/545/466 4/26/4
f 460/550/460 459/547/459 474/27/474
f 467/549/467 5/1/5 478/3/478
