# Blender 4.1.1
# www.blender.org
mtllib key.mtl
o 立方体
v 0.057500 0.028609 0.057500
v 0.057500 0.028609 -0.057500
v -0.057500 0.028609 0.057500
v -0.057500 0.028609 -0.057500
v 0.057500 -0.642018 0.057500
v 0.057500 -0.642018 -0.057500
v -0.057500 -0.642018 0.057500
v -0.057500 -0.642018 -0.057500
v -0.057500 -0.545004 0.057500
v -0.057500 -0.545004 -0.057500
v 0.057500 -0.545004 0.057500
v 0.057500 -0.545004 -0.057500
v -0.057500 -0.384060 0.057500
v 0.057500 -0.384060 -0.057500
v -0.057500 -0.384060 -0.057500
v 0.057500 -0.384060 0.057500
v -0.057500 -0.291816 0.057500
v 0.057500 -0.291816 -0.057500
v -0.057500 -0.291816 -0.057500
v 0.057500 -0.291816 0.057500
v -0.214970 -0.545004 -0.057500
v -0.214970 -0.642018 -0.057500
v -0.214970 -0.642018 0.057500
v -0.214970 -0.545004 0.057500
v -0.214970 -0.291816 -0.057500
v -0.214970 -0.384060 -0.057500
v -0.214970 -0.384060 0.057500
v -0.214970 -0.291816 0.057500
v -0.297246 0.315407 0.077593
v -0.142061 0.315407 0.077593
v -0.142061 0.315407 -0.077593
v -0.297246 0.315407 -0.077593
v -0.291535 0.373397 0.077593
v -0.139332 0.343122 0.077593
v -0.139332 0.343122 -0.077593
v -0.291535 0.373397 -0.077593
v -0.274620 0.429158 0.077593
v -0.131247 0.369772 0.077593
v -0.131247 0.369772 -0.077593
v -0.274620 0.429158 -0.077593
v -0.247151 0.480548 0.077593
v -0.118120 0.394332 0.077593
v -0.118120 0.394332 -0.077593
v -0.247151 0.480548 -0.077593
v -0.210185 0.525592 0.077593
v -0.100452 0.415860 0.077593
v -0.100452 0.415860 -0.077593
v -0.210185 0.525592 -0.077593
v -0.165141 0.562559 0.077593
v -0.078925 0.433527 0.077593
v -0.078925 0.433527 -0.077593
v -0.165141 0.562559 -0.077593
v -0.113751 0.590027 0.077593
v -0.054365 0.446655 0.077593
v -0.054365 0.446655 -0.077593
v -0.113751 0.590027 -0.077593
v -0.057990 0.606942 0.077593
v -0.027715 0.454739 0.077593
v -0.027715 0.454739 -0.077593
v -0.057990 0.606942 -0.077593
v -0.000000 0.612654 0.077593
v -0.000000 0.457468 0.077593
v -0.000000 0.457468 -0.077593
v -0.000000 0.612654 -0.077593
v 0.057990 0.606942 0.077593
v 0.027715 0.454739 0.077593
v 0.027715 0.454739 -0.077593
v 0.057990 0.606942 -0.077593
v 0.113751 0.590027 0.077593
v 0.054364 0.446655 0.077593
v 0.054364 0.446655 -0.077593
v 0.113751 0.590027 -0.077593
v 0.165141 0.562559 0.077593
v 0.078925 0.433527 0.077593
v 0.078925 0.433527 -0.077593
v 0.165141 0.562559 -0.077593
v 0.210185 0.525592 0.077593
v 0.100452 0.415860 0.077593
v 0.100452 0.415860 -0.077593
v 0.210185 0.525592 -0.077593
v 0.247151 0.480548 0.077593
v 0.118120 0.394332 0.077593
v 0.118120 0.394332 -0.077593
v 0.247151 0.480548 -0.077593
v 0.274620 0.429159 0.077593
v 0.131247 0.369772 0.077593
v 0.131247 0.369772 -0.077593
v 0.274620 0.429159 -0.077593
v 0.291535 0.373397 0.077593
v 0.139331 0.343122 0.077593
v 0.139331 0.343122 -0.077593
v 0.291535 0.373397 -0.077593
v 0.297246 0.315407 0.077593
v 0.142061 0.315407 0.077593
v 0.142061 0.315407 -0.077593
v 0.297246 0.315407 -0.077593
v 0.291535 0.257417 0.077593
v 0.139331 0.287692 0.077593
v 0.139331 0.287692 -0.077593
v 0.291535 0.257417 -0.077593
v 0.274620 0.201656 0.077593
v 0.131247 0.261043 0.077593
v 0.131247 0.261043 -0.077593
v 0.274620 0.201656 -0.077593
v 0.247151 0.150266 0.077593
v 0.118120 0.236482 0.077593
v 0.118120 0.236482 -0.077593
v 0.247151 0.150266 -0.077593
v 0.210185 0.105222 0.077593
v 0.100452 0.214955 0.077593
v 0.100452 0.214955 -0.077593
v 0.210185 0.105222 -0.077593
v 0.165141 0.068256 0.077593
v 0.078925 0.197288 0.077593
v 0.078925 0.197288 -0.077593
v 0.165141 0.068256 -0.077593
v 0.113751 0.040787 0.077593
v 0.054364 0.184160 0.077593
v 0.054364 0.184160 -0.077593
v 0.113751 0.040787 -0.077593
v 0.057990 0.023872 0.077593
v 0.027715 0.176076 0.077593
v 0.027715 0.176076 -0.077593
v 0.057990 0.023872 -0.077593
v -0.000000 0.018161 0.077593
v -0.000000 0.173346 0.077593
v -0.000000 0.173346 -0.077593
v -0.000000 0.018161 -0.077593
v -0.057990 0.023872 0.077593
v -0.027715 0.176076 0.077593
v -0.027715 0.176076 -0.077593
v -0.057990 0.023872 -0.077593
v -0.113751 0.040787 0.077593
v -0.054364 0.184160 0.077593
v -0.054364 0.184160 -0.077593
v -0.113751 0.040787 -0.077593
v -0.165141 0.068256 0.077593
v -0.078925 0.197288 0.077593
v -0.078925 0.197288 -0.077593
v -0.165141 0.068256 -0.077593
v -0.210185 0.105222 0.077593
v -0.100452 0.214955 0.077593
v -0.100452 0.214955 -0.077593
v -0.210185 0.105222 -0.077593
v -0.247151 0.150266 0.077593
v -0.118120 0.236482 0.077593
v -0.118120 0.236482 -0.077593
v -0.247151 0.150266 -0.077593
v -0.274620 0.201656 0.077593
v -0.131247 0.261043 0.077593
v -0.131247 0.261043 -0.077593
v -0.274620 0.201656 -0.077593
v -0.291535 0.257417 0.077593
v -0.139332 0.287692 0.077593
v -0.139332 0.287692 -0.077593
v -0.291535 0.257417 -0.077593
vn -0.0000 1.0000 -0.0000
vn -0.0000 -0.0000 1.0000
vn -0.0000 -1.0000 -0.0000
vn 1.0000 -0.0000 -0.0000
vn -0.0000 -0.0000 -1.0000
vn -1.0000 -0.0000 -0.0000
vn 0.9952 -0.0980 -0.0000
vn -0.9952 0.0980 -0.0000
vn 0.9569 -0.2903 -0.0000
vn -0.9569 0.2903 -0.0000
vn 0.8819 -0.4714 -0.0000
vn -0.8819 0.4714 -0.0000
vn 0.7730 -0.6344 -0.0000
vn -0.7730 0.6344 -0.0000
vn 0.6344 -0.7730 -0.0000
vn -0.6344 0.7730 -0.0000
vn 0.4714 -0.8819 -0.0000
vn -0.4714 0.8819 -0.0000
vn 0.2903 -0.9569 -0.0000
vn -0.2903 0.9569 -0.0000
vn 0.0980 -0.9952 -0.0000
vn -0.0980 0.9952 -0.0000
vn -0.0980 -0.9952 -0.0000
vn 0.0980 0.9952 -0.0000
vn -0.2903 -0.9569 -0.0000
vn 0.2903 0.9569 -0.0000
vn -0.4714 -0.8819 -0.0000
vn 0.4714 0.8819 -0.0000
vn -0.6344 -0.7730 -0.0000
vn 0.6344 0.7730 -0.0000
vn -0.7730 -0.6344 -0.0000
vn 0.7730 0.6344 -0.0000
vn -0.8819 -0.4714 -0.0000
vn 0.8819 0.4714 -0.0000
vn -0.9569 -0.2903 -0.0000
vn 0.9569 0.2903 -0.0000
vn -0.9952 -0.0980 -0.0000
vn 0.9952 0.0980 -0.0000
vt 0.375000 0.000000
vt 0.625000 0.000000
vt 0.625000 0.250000
vt 0.375000 0.250000
vt 0.298081 0.500000
vt 0.270575 0.500000
vt 0.375000 0.500000
vt 0.625000 0.500000
vt 0.625000 0.750000
vt 0.375000 0.750000
vt 0.375000 0.854425
vt 0.625000 0.854425
vt 0.625000 1.000000
vt 0.375000 1.000000
vt 0.346072 0.500000
vt 0.346072 0.750000
vt 0.729425 0.500000
vt 0.875000 0.500000
vt 0.875000 0.750000
vt 0.729425 0.750000
vt 0.653928 0.500000
vt 0.653928 0.750000
vt 0.298081 0.750000
vt 0.625000 0.778928
vt 0.375000 0.778928
vt 0.375000 0.423081
vt 0.625000 0.423081
vt 0.625000 0.471072
vt 0.375000 0.471072
vt 0.270575 0.750000
vt 0.701919 0.500000
vt 0.701919 0.750000
vt 0.625000 0.826919
vt 0.375000 0.826919
vt 0.125000 0.500000
vt 0.125000 0.750000
vt 0.625000 0.395575
vt 0.375000 0.395575
vt 0.000000 0.000000
s 0
usemtl Material
f 1/1/1 2/2/1 4/3/1 3/4/1
f 13/5/2 17/6/2 28/6/2 27/5/2
f 7/7/3 8/8/3 6/9/3 5/10/3
f 20/11/4 18/12/4 2/13/4 1/14/4
f 9/15/2 7/7/2 5/10/2 11/16/2
f 19/17/5 4/18/5 2/19/5 18/20/5
f 8/8/5 10/21/5 12/22/5 6/9/5
f 13/5/2 9/15/2 11/16/2 16/23/2
f 5/10/4 6/9/4 12/24/4 11/25/4
f 13/26/6 15/27/6 10/28/6 9/29/6
f 9/29/1 10/28/1 21/28/1 24/29/1
f 17/6/2 13/5/2 16/23/2 20/30/2
f 10/21/5 15/31/5 14/32/5 12/22/5
f 11/25/4 12/24/4 14/33/4 16/34/4
f 3/35/2 17/6/2 20/30/2 1/36/2
f 3/4/6 4/3/6 19/37/6 17/38/6
f 15/31/5 19/17/5 18/20/5 14/32/5
f 16/34/4 14/33/4 18/12/4 20/11/4
f 24/29/6 21/28/6 22/8/6 23/7/6
f 28/38/6 25/37/6 26/27/6 27/26/6
f 8/8/3 7/7/3 23/7/3 22/8/3
f 15/27/3 13/26/3 27/26/3 26/27/3
f 17/38/1 19/37/1 25/37/1 28/38/1
f 19/17/5 15/31/5 26/31/5 25/17/5
f 10/21/5 8/8/5 22/8/5 21/21/5
f 7/7/2 9/15/2 24/15/2 23/7/2
f 29/39/2 30/39/2 34/39/2 33/39/2
f 30/39/7 31/39/7 35/39/7 34/39/7
f 31/39/5 32/39/5 36/39/5 35/39/5
f 32/39/8 29/39/8 33/39/8 36/39/8
f 33/39/2 34/39/2 38/39/2 37/39/2
f 34/39/9 35/39/9 39/39/9 38/39/9
f 35/39/5 36/39/5 40/39/5 39/39/5
f 36/39/10 33/39/10 37/39/10 40/39/10
f 37/39/2 38/39/2 42/39/2 41/39/2
f 38/39/11 39/39/11 43/39/11 42/39/11
f 39/39/5 40/39/5 44/39/5 43/39/5
f 40/39/12 37/39/12 41/39/12 44/39/12
f 41/39/2 42/39/2 46/39/2 45/39/2
f 42/39/13 43/39/13 47/39/13 46/39/13
f 43/39/5 44/39/5 48/39/5 47/39/5
f 44/39/14 41/39/14 45/39/14 48/39/14
f 45/39/2 46/39/2 50/39/2 49/39/2
f 46/39/15 47/39/15 51/39/15 50/39/15
f 47/39/5 48/39/5 52/39/5 51/39/5
f 48/39/16 45/39/16 49/39/16 52/39/16
f 49/39/2 50/39/2 54/39/2 53/39/2
f 50/39/17 51/39/17 55/39/17 54/39/17
f 51/39/5 52/39/5 56/39/5 55/39/5
f 52/39/18 49/39/18 53/39/18 56/39/18
f 53/39/2 54/39/2 58/39/2 57/39/2
f 54/39/19 55/39/19 59/39/19 58/39/19
f 55/39/5 56/39/5 60/39/5 59/39/5
f 56/39/20 53/39/20 57/39/20 60/39/20
f 57/39/2 58/39/2 62/39/2 61/39/2
f 58/39/21 59/39/21 63/39/21 62/39/21
f 59/39/5 60/39/5 64/39/5 63/39/5
f 60/39/22 57/39/22 61/39/22 64/39/22
f 61/39/2 62/39/2 66/39/2 65/39/2
f 62/39/23 63/39/23 67/39/23 66/39/23
f 63/39/5 64/39/5 68/39/5 67/39/5
f 64/39/24 61/39/24 65/39/24 68/39/24
f 65/39/2 66/39/2 70/39/2 69/39/2
f 66/39/25 67/39/25 71/39/25 70/39/25
f 67/39/5 68/39/5 72/39/5 71/39/5
f 68/39/26 65/39/26 69/39/26 72/39/26
f 69/39/2 70/39/2 74/39/2 73/39/2
f 70/39/27 71/39/27 75/39/27 74/39/27
f 71/39/5 72/39/5 76/39/5 75/39/5
f 72/39/28 69/39/28 73/39/28 76/39/28
f 73/39/2 74/39/2 78/39/2 77/39/2
f 74/39/29 75/39/29 79/39/29 78/39/29
f 75/39/5 76/39/5 80/39/5 79/39/5
f 76/39/30 73/39/30 77/39/30 80/39/30
f 77/39/2 78/39/2 82/39/2 81/39/2
f 78/39/31 79/39/31 83/39/31 82/39/31
f 79/39/5 80/39/5 84/39/5 83/39/5
f 80/39/32 77/39/32 81/39/32 84/39/32
f 81/39/2 82/39/2 86/39/2 85/39/2
f 82/39/33 83/39/33 87/39/33 86/39/33
f 83/39/5 84/39/5 88/39/5 87/39/5
f 84/39/34 81/39/34 85/39/34 88/39/34
f 85/39/2 86/39/2 90/39/2 89/39/2
f 86/39/35 87/39/35 91/39/35 90/39/35
f 87/39/5 88/39/5 92/39/5 91/39/5
f 88/39/36 85/39/36 89/39/36 92/39/36
f 89/39/2 90/39/2 94/39/2 93/39/2
f 90/39/37 91/39/37 95/39/37 94/39/37
f 91/39/5 92/39/5 96/39/5 95/39/5
f 92/39/38 89/39/38 93/39/38 96/39/38
f 93/39/2 94/39/2 98/39/2 97/39/2
f 94/39/8 95/39/8 99/39/8 98/39/8
f 95/39/5 96/39/5 100/39/5 99/39/5
f 96/39/7 93/39/7 97/39/7 100/39/7
f 97/39/2 98/39/2 102/39/2 101/39/2
f 98/39/10 99/39/10 103/39/10 102/39/10
f 99/39/5 100/39/5 104/39/5 103/39/5
f 100/39/9 97/39/9 101/39/9 104/39/9
f 101/39/2 102/39/2 106/39/2 105/39/2
f 102/39/12 103/39/12 107/39/12 106/39/12
f 103/39/5 104/39/5 108/39/5 107/39/5
f 104/39/11 101/39/11 105/39/11 108/39/11
f 105/39/2 106/39/2 110/39/2 109/39/2
f 106/39/14 107/39/14 111/39/14 110/39/14
f 107/39/5 108/39/5 112/39/5 111/39/5
f 108/39/13 105/39/13 109/39/13 112/39/13
f 109/39/2 110/39/2 114/39/2 113/39/2
f 110/39/16 111/39/16 115/39/16 114/39/16
f 111/39/5 112/39/5 116/39/5 115/39/5
f 112/39/15 109/39/15 113/39/15 116/39/15
f 113/39/2 114/39/2 118/39/2 117/39/2
f 114/39/18 115/39/18 119/39/18 118/39/18
f 115/39/5 116/39/5 120/39/5 119/39/5
f 116/39/17 113/39/17 117/39/17 120/39/17
f 117/39/2 118/39/2 122/39/2 121/39/2
f 118/39/20 119/39/20 123/39/20 122/39/20
f 119/39/5 120/39/5 124/39/5 123/39/5
f 120/39/19 117/39/19 121/39/19 124/39/19
f 121/39/2 122/39/2 126/39/2 125/39/2
f 122/39/22 123/39/22 127/39/22 126/39/22
f 123/39/5 124/39/5 128/39/5 127/39/5
f 124/39/21 121/39/21 125/39/21 128/39/21
f 125/39/2 126/39/2 130/39/2 129/39/2
f 126/39/24 127/39/24 131/39/24 130/39/24
f 127/39/5 128/39/5 132/39/5 131/39/5
f 128/39/23 125/39/23 129/39/23 132/39/23
f 129/39/2 130/39/2 134/39/2 133/39/2
f 130/39/26 131/39/26 135/39/26 134/39/26
f 131/39/5 132/39/5 136/39/5 135/39/5
f 132/39/25 129/39/25 133/39/25 136/39/25
f 133/39/2 134/39/2 138/39/2 137/39/2
f 134/39/28 135/39/28 139/39/28 138/39/28
f 135/39/5 136/39/5 140/39/5 139/39/5
f 136/39/27 133/39/27 137/39/27 140/39/27
f 137/39/2 138/39/2 142/39/2 141/39/2
f 138/39/30 139/39/30 143/39/30 142/39/30
f 139/39/5 140/39/5 144/39/5 143/39/5
f 140/39/29 137/39/29 141/39/29 144/39/29
f 141/39/2 142/39/2 146/39/2 145/39/2
f 142/39/32 143/39/32 147/39/32 146/39/32
f 143/39/5 144/39/5 148/39/5 147/39/5
f 144/39/31 141/39/31 145/39/31 148/39/31
f 145/39/2 146/39/2 150/39/2 149/39/2
f 146/39/34 147/39/34 151/39/34 150/39/34
f 147/39/5 148/39/5 152/39/5 151/39/5
f 148/39/33 145/39/33 149/39/33 152/39/33
f 149/39/2 150/39/2 154/39/2 153/39/2
f 150/39/36 151/39/36 155/39/36 154/39/36
f 151/39/5 152/39/5 156/39/5 155/39/5
f 152/39/35 149/39/35 153/39/35 156/39/35
f 153/39/2 154/39/2 30/39/2 29/39/2
f 154/39/38 155/39/38 31/39/38 30/39/38
f 155/39/5 156/39/5 32/39/5 31/39/5
f 156/39/37 153/39/37 29/39/37 32/39/37
